<svg version="1.1" viewBox="0.0 0.0 144.0236220472441 76.8005249343832" fill="none" stroke="none" stroke-linecap="square" stroke-miterlimit="10" xmlns:xlink="http://www.w3.org/1999/xlink" xmlns="http://www.w3.org/2000/svg"><clipPath id="p.0"><path d="m0 0l144.02362 0l0 76.80052l-144.02362 0l0 -76.80052z" clip-rule="nonzero"/></clipPath><g clip-path="url(#p.0)"><path fill="#000000" fill-opacity="0.0" d="m0 0l144.02362 0l0 76.80052l-144.02362 0z" fill-rule="evenodd"/><path fill="#000000" fill-opacity="0.0" d="m-0.0013122003 1.5622832l139.35507 0l0 53.84466l-139.35507 0z" fill-rule="evenodd"/><path fill="#ffffff" d="m31.738182 51.658985q-5.71875 0 -9.953125 -2.078125q-4.21875 -2.09375 -6.46875 -5.921875q-2.25 -3.84375 -2.25 -8.9375q0 -7.0625 2.65625 -12.53125q2.671875 -5.46875 7.21875 -8.468749q4.5625 -3.0 10.140625 -3.0q5.171875 0 7.859375 2.671875q2.6875 2.656249 2.6875 7.015624q0 2.9375 -1.03125 4.71875q-1.03125 1.765625 -2.953125 1.765625q-1.34375 0 -2.109375 -0.625q-0.765625 -0.625 -0.765625 -1.8125q0 -0.4375 0.1875 -1.59375q0.296875 -1.4375 0.296875 -2.296875q0 -4.375 -4.65625 -4.375q-3.171875 0 -6.046875 2.0625q-2.875 2.0625 -4.65625 6.078125q-1.78125 4.0 -1.78125 9.53125q0 5.75 3.21875 8.90625q3.21875 3.140625 9.5 3.140625q3.125 0 6.3125 -0.796875q3.203125 -0.796875 7.078125 -2.421875q0.71875 -0.296875 1.203125 -0.296875q0.765625 0 1.140625 0.578125q0.390625 0.578125 0.390625 1.5q0 2.921875 -3.15625 4.3125q-3.40625 1.484375 -7.078125 2.1875q-3.671875 0.6875 -6.984375 0.6875zm30.474945 -22.609375q1.53125 0 2.328125 0.796875q0.796875 0.796875 0.796875 2.328125q0 1.25 -0.53125 4.703125q-0.484375 2.9375 -0.78125 5.546875q-0.28125 2.609375 -0.28125 5.828125q0 1.828125 -0.75 2.625q-0.734375 0.78125 -2.421875 0.78125q-1.578125 0 -2.296875 -0.8125q-0.71875 -0.8125 -0.71875 -2.453125q0 -1.90625 0.671875 -6.328125q0.578125 -3.84375 0.578125 -4.890625q0 -0.78125 -0.53125 -0.78125q-0.625 0 -1.78125 1.609375q-1.140625 1.609375 -2.296875 4.25q-1.15625 2.640625 -1.875 5.578125q-0.53125 2.25 -1.234375 3.046875q-0.6875 0.78125 -2.171875 0.78125q-1.484375 0 -2.1875 -1.078125q-0.6875 -1.078125 -0.9375 -3.328125q-0.234375 -2.265625 -0.234375 -6.625q0 -7.390625 1.5 -15.40625q1.515625 -8.015625 4.46875 -13.468749q2.953125 -5.4531255 7.09375 -5.4531255q2.203125 0 3.5625 1.9062505q1.375 1.890625 1.375 4.921875q0 4.843749 -2.84375 10.046874q-2.828125 5.203125 -9.203125 12.171875q-0.140625 2.5 -0.140625 5.140625q1.578125 -4.09375 3.515625 -6.65625q1.953125 -2.5625 3.84375 -3.671875q1.90625 -1.109375 3.484375 -1.109375zm-4.609375 -18.0q-0.859375 0 -1.921875 2.484375q-1.046875 2.468749 -2.03125 6.671874q-0.984375 4.1875 -1.609375 9.140625q2.96875 -3.5 4.90625 -7.625q1.953125 -4.140625 1.953125 -7.499999q0 -1.53125 -0.34375 -2.34375q-0.328125 -0.828125 -0.953125 -0.828125zm28.316925 31.109375q0.625 0 0.984375 0.578125q0.359375 0.578125 0.359375 1.578125q0 1.734375 -0.8125 2.984375q-1.34375 2.0625 -3.53125 3.21875q-2.1875 1.140625 -5.203125 1.140625q-4.609375 0 -7.15625 -2.75q-2.546875 -2.765625 -2.546875 -7.46875q0 -3.3125 1.390625 -6.171875q1.40625 -2.859375 3.875 -4.53125q2.46875 -1.6875 5.59375 -1.6875q2.78125 0 4.453125 1.65625q1.6875 1.65625 1.6875 4.5q0 3.3125 -2.375 5.6875q-2.375 2.375 -8.09375 3.765625q1.15625 2.203125 3.890625 2.203125q1.96875 0 3.234375 -0.90625q1.28125 -0.921875 2.953125 -3.078125q0.578125 -0.71875 1.296875 -0.71875zm-7.875 -8.390625q-1.765625 0 -3.0 2.0625q-1.21875 2.0625 -1.21875 4.984375l0 0.09375q2.828125 -0.671875 4.453125 -2.015625q1.640625 -1.34375 1.640625 -3.109375q0 -0.921875 -0.5 -1.46875q-0.5 -0.546875 -1.375 -0.546875z" fill-rule="nonzero"/><path fill="#ffffff" d="m116.758095 51.42461q-1.859375 -3.71875 -4.078125 -7.515625q-2.203125 -3.8125 -5.078125 -7.78125q-0.890625 1.15625 -2.265625 3.203125q-1.375 2.046875 -2.75 4.359375q-1.375 2.296875 -2.59375 4.40625q-1.21875 2.109375 -1.796875 3.328125l-11.390625 0q2.8125 -5.1875 6.546875 -10.875q3.75 -5.703125 8.359375 -12.09375l-14.265625 -21.390625l12.09375 0l8.640625 13.828125l8.453125 -13.828125l11.390617 0l-14.078117 21.515625q5.375 6.96875 9.015625 12.890625q3.65625 5.921875 5.7656174 9.953125l-11.968742 0z" fill-rule="nonzero"/><path fill="#000000" fill-opacity="0.0" d="m21.211287 46.355194l117.69241 0l0 28.881638l-117.69241 0z" fill-rule="evenodd"/><path fill="#ffffff" d="m75.16151 58.17976q0 1.203125 -0.390625 2.140625q-0.390625 0.921875 -1.234375 1.5625q-0.84375 0.625 -2.171875 0.953125q-1.328125 0.3125 -3.203125 0.3125l-7.234379 0l0 6.187504l-1.46875 0l0 -16.109379l8.703129 0q1.875 0 3.203125 0.328125q1.328125 0.328125 2.171875 0.953125q0.84375 0.609375 1.234375 1.546875q0.390625 0.921875 0.390625 2.125zm-1.5 0q0 -1.15625 -0.390625 -1.859375q-0.375 -0.703125 -1.171875 -1.078125q-0.78125 -0.375 -2.0 -0.5q-1.21875 -0.140625 -2.875 -0.140625l-6.296879 0l0 7.171875l6.296879 0q0.640625 0 1.375 0.015625q0.734375 0 1.4375 -0.078125q0.71875 -0.078125 1.375 -0.265625q0.65625 -0.203125 1.140625 -0.59375q0.5 -0.40625 0.796875 -1.046875q0.3125 -0.640625 0.3125 -1.625zm21.683594 10.312504q-0.984375 0.296875 -1.828125 0.515625q-0.84375 0.21875 -1.671875 0.359375q-0.8125 0.140625 -1.671875 0.203125q-0.84375 0.0625 -1.859375 0.0625q-2.359375 0 -4.28125 -0.578125q-1.90625 -0.578125 -3.25 -1.640625q-1.34375 -1.078125 -2.078125 -2.59375q-0.71875 -1.5312538 -0.71875 -3.4375038q0 -1.828125 0.703125 -3.359375q0.703125 -1.546875 1.953125 -2.640625q1.25 -1.109375 3.0 -1.71875q1.75 -0.609375 3.859375 -0.609375q2.1875 0 3.890625 0.59375q1.71875 0.578125 2.890625 1.671875q1.171875 1.09375 1.78125 2.640625q0.609375 1.546875 0.609375 3.5l0 0.359375l-17.171875 0q0.125 1.5 0.75 2.7187538q0.625 1.203125 1.765625 2.046875q1.140625 0.84375 2.8125 1.296875q1.671875 0.4375 3.890625 0.4375q0.953125 0 1.921875 -0.125q0.984375 -0.125 1.875 -0.34375q0.890625 -0.21875 1.625 -0.484375q0.734375 -0.28125 1.203125 -0.578125l0 1.703125zm-0.109375 -7.953129q-0.09375 -1.21875 -0.5625 -2.34375q-0.46875 -1.125 -1.40625 -1.96875q-0.921875 -0.859375 -2.359375 -1.359375q-1.4375 -0.515625 -3.4375 -0.515625q-1.890625 0 -3.3125 0.515625q-1.40625 0.5 -2.390625 1.359375q-0.984375 0.84375 -1.546875 1.96875q-0.5625 1.109375 -0.71875 2.34375l15.734375 0zm17.65625 -6.0625q-0.34375 -0.109375 -0.953125 -0.234375q-0.59375 -0.125 -1.546875 -0.125q-1.3125 0 -2.46875 0.328125q-1.15625 0.328125 -2.140625 0.875q-0.984375 0.546875 -1.828125 1.28125q-0.84375 0.734375 -1.53125 1.546875l0 11.187504l-1.46875 0l0 -16.109379l1.46875 0l0 3.28125q0.78125 -0.796875 1.703125 -1.46875q0.921875 -0.6875 1.9375 -1.171875q1.03125 -0.5 2.140625 -0.765625q1.125 -0.28125 2.3125 -0.28125q0.421875 0 0.75 0.015625q0.328125 0.015625 0.59375 0.046875q0.28125 0.03125 0.515625 0.078125q0.25 0.03125 0.515625 0.078125l0 1.4375l0 0zm9.230469 0.09375l0 14.765629l-1.453125 0l0 -14.765629l-7.328125 0l0 -1.34375l16.109367 0l0 1.34375l-7.3281174 0z" fill-rule="nonzero"/></g></svg>