<?xml version="1.0" standalone="yes"?>

<svg version="1.1" viewBox="0.0 0.0 355.2729658792651 100.0" fill="none" stroke="none" stroke-linecap="square" stroke-miterlimit="10" xmlns="http://www.w3.org/2000/svg" xmlns:xlink="http://www.w3.org/1999/xlink"><clipPath id="p.0"><path d="m0 0l355.27298 0l0 100.0l-355.27298 0l0 -100.0z" clip-rule="nonzero"></path></clipPath><g clip-path="url(#p.0)"><path fill="#000000" fill-opacity="0.0" d="m0 0l355.27298 0l0 100.0l-355.27298 0z" fill-rule="evenodd"></path><path fill="#000000" fill-opacity="0.0" d="m-7.186468 -24.89239l110.14173 0l0 122.67716l-110.14173 0z" fill-rule="evenodd"></path><path fill="#ffffff" d="m58.056202 67.92619l-6.25 -14.515625l-30.187502 0l-6.25 14.515625l-11.4375 0l28.078127 -62.046875l9.234375 0l28.078121 62.046875l-11.265621 0zm-32.734375 -23.3125l22.703127 0l-11.359375 -26.406252l-11.343752 26.406252zm50.592926 23.3125l0 -62.046875l11.359375 0l0 62.046875l-11.359375 0z" fill-rule="nonzero"></path><path fill="#000000" fill-opacity="0.0" d="m84.997375 11.677165l278.2362 0l0 74.614174l-278.2362 0z" fill-rule="evenodd"></path><path fill="#ffffff" d="m123.3255 31.248001l6.546875 0l0 36.65625l-6.546875 0l0 -15.90625l-18.765625 0l0 15.90625l-6.609375 0l0 -36.65625l6.609375 0l0 15.34375l18.765625 0l0 -15.34375zm36.191406 25.109375l-17.3125 0q0.3125 3.53125 2.125 5.25q1.828125 1.71875 5.203125 1.71875q4.21875 0 7.703125 -2.703125l1.859375 4.46875q-1.765625 1.453125 -4.453125 2.34375q-2.671875 0.890625 -5.375 0.890625q-6.234375 0 -9.859375 -3.53125q-3.609375 -3.546875 -3.609375 -9.6875q0 -3.890625 1.5625 -6.90625q1.5625 -3.015625 4.390625 -4.671875q2.84375 -1.671875 6.4375 -1.671875q5.25 0 8.28125 3.375q3.046875 3.375 3.046875 9.3125l0 1.8125zm-11.171875 -9.921875q-2.609375 0 -4.203125 1.671875q-1.578125 1.65625 -1.9375 4.765625l11.75 0q-0.109375 -3.171875 -1.5625 -4.796875q-1.453125 -1.640625 -4.046875 -1.640625zm27.39328 -4.578125q5.359375 0 7.953125 2.59375q2.609375 2.59375 2.609375 8.015625l0 15.4375l-6.1875 0l0 -3.90625q-0.890625 2.03125 -2.796875 3.1875q-1.890625 1.140625 -4.390625 1.140625q-2.546875 0 -4.625 -1.03125q-2.078125 -1.046875 -3.28125 -2.859375q-1.1875 -1.828125 -1.1875 -4.078125q0 -2.796875 1.421875 -4.40625q1.4375 -1.625 4.65625 -2.34375q3.234375 -0.734375 8.90625 -0.734375l1.296875 0l0 -1.1875q0 -2.609375 -1.125 -3.75q-1.109375 -1.140625 -3.71875 -1.140625q-2.03125 0 -4.234375 0.703125q-2.203125 0.703125 -4.34375 1.953125l-1.8125 -4.484375q2.125 -1.34375 5.140625 -2.21875q3.015625 -0.890625 5.71875 -0.890625zm-1.5 21.78125q2.59375 0 4.234375 -1.734375q1.640625 -1.75 1.640625 -4.5l0 -1.09375l-0.9375 0q-3.484375 0 -5.40625 0.3125q-1.921875 0.3125 -2.765625 1.09375q-0.828125 0.78125 -0.828125 2.125q0 1.671875 1.140625 2.734375q1.15625 1.0625 2.921875 1.0625zm18.658157 4.265625l0 -36.65625l6.5 0l0 36.65625l-6.5 0zm26.208008 -4.46875q1.15625 0 2.390625 -0.15625l-0.3125 4.828125q-1.546875 0.15625 -2.859375 0.15625q-5.34375 0 -7.90625 -2.46875q-2.546875 -2.46875 -2.546875 -7.359375l0 -11.078125l-4.875 0l0 -4.875l4.875 0l0 -7.59375l6.5 0l0 7.59375l6.71875 0l0 4.875l-6.71875 0l0 10.984375q0 5.09375 4.734375 5.09375zm20.953644 -21.578125q4.578125 0 6.8125 2.59375q2.25 2.59375 2.25 7.859375l0 15.59375l-6.5 0l0 -15.234375q0 -2.96875 -1.125 -4.3125q-1.125 -1.359375 -3.515625 -1.359375q-2.796875 0 -4.5 1.765625q-1.6875 1.765625 -1.6875 4.734375l0 14.40625l-6.5 0l0 -36.65625l6.5 0l0 14.765625q1.3125 -2.03125 3.46875 -3.09375q2.15625 -1.0625 4.796875 -1.0625zm27.248154 26.46875q-4.0 0 -6.9375 -1.609375q-2.9375 -1.625 -4.5 -4.578125q-1.5625 -2.96875 -1.5625 -6.921875q0 -3.953125 1.640625 -6.984375q1.640625 -3.046875 4.65625 -4.703125q3.015625 -1.671875 6.96875 -1.671875q2.703125 0 5.28125 0.859375q2.578125 0.84375 4.125 2.3125l-1.859375 4.578125q-1.625 -1.3125 -3.421875 -1.984375q-1.78125 -0.671875 -3.546875 -0.671875q-3.390625 0 -5.265625 2.109375q-1.859375 2.09375 -1.859375 6.046875q0 3.90625 1.859375 6.015625q1.875 2.09375 5.265625 2.09375q1.765625 0 3.546875 -0.671875q1.796875 -0.671875 3.421875 -1.96875l1.859375 4.515625q-1.65625 1.515625 -4.265625 2.375q-2.59375 0.859375 -5.40625 0.859375zm24.704132 -26.46875q5.359375 0 7.953125 2.59375q2.609375 2.59375 2.609375 8.015625l0 15.4375l-6.1875 0l0 -3.90625q-0.890625 2.03125 -2.796875 3.1875q-1.890625 1.140625 -4.390625 1.140625q-2.546875 0 -4.625 -1.03125q-2.078125 -1.046875 -3.28125 -2.859375q-1.1875 -1.828125 -1.1875 -4.078125q0 -2.796875 1.421875 -4.40625q1.4375 -1.625 4.65625 -2.34375q3.234375 -0.734375 8.90625 -0.734375l1.296875 0l0 -1.1875q0 -2.609375 -1.125 -3.75q-1.109375 -1.140625 -3.71875 -1.140625q-2.03125 0 -4.234375 0.703125q-2.203125 0.703125 -4.34375 1.953125l-1.8125 -4.484375q2.125 -1.34375 5.140625 -2.21875q3.015625 -0.890625 5.71875 -0.890625zm-1.5 21.78125q2.59375 0 4.234375 -1.734375q1.640625 -1.75 1.640625 -4.5l0 -1.09375l-0.9375 0q-3.484375 0 -5.40625 0.3125q-1.921875 0.3125 -2.765625 1.09375q-0.828125 0.78125 -0.828125 2.125q0 1.671875 1.140625 2.734375q1.15625 1.0625 2.921875 1.0625zm35.408173 -16.375l-3.796875 0.359375q-6.453125 0.671875 -6.453125 6.546875l0 13.734375l-6.5 0l0 -25.421875l6.1875 0l0 4.46875q1.984375 -4.578125 8.171875 -5.0l1.96875 -0.15625l0.421875 5.46875zm25.478516 9.09375l-17.3125 0q0.3125 3.53125 2.125 5.25q1.828125 1.71875 5.203125 1.71875q4.21875 0 7.703125 -2.703125l1.859375 4.46875q-1.765625 1.453125 -4.453125 2.34375q-2.671875 0.890625 -5.375 0.890625q-6.234375 0 -9.859375 -3.53125q-3.609375 -3.546875 -3.609375 -9.6875q0 -3.890625 1.5625 -6.90625q1.5625 -3.015625 4.390625 -4.671875q2.84375 -1.671875 6.4375 -1.671875q5.25 0 8.28125 3.375q3.046875 3.375 3.046875 9.3125l0 1.8125zm-11.171875 -9.921875q-2.609375 0 -4.203125 1.671875q-1.578125 1.65625 -1.9375 4.765625l11.75 0q-0.109375 -3.171875 -1.5625 -4.796875q-1.453125 -1.640625 -4.046875 -1.640625z" fill-rule="nonzero"></path><path fill="#000000" fill-opacity="0.0" d="m62.468502 0.4849958l86.74016 0l0 29.6063l-86.74016 0z" fill-rule="evenodd"></path><path fill="#d9d9d9" d="m97.959755 8.43752q-1.265625 0.109375 -1.921875 0.8125q-0.640625 0.703125 -0.640625 2.125l0 0.765625l2.671875 0q0.40625 0 0.609375 0.21875q0.21875 0.21875 0.21875 0.578125q0 0.359375 -0.21875 0.546875q-0.203125 0.1875 -0.609375 0.1875l-2.671875 0l0 9.312499q0 0.453125 -0.28125 0.71875q-0.265625 0.25 -0.671875 0.25q-0.4375 0 -0.71875 -0.25q-0.265625 -0.265625 -0.265625 -0.71875l0 -9.312499l-1.609375 0q-0.40625 0 -0.640625 -0.203125q-0.234375 -0.203125 -0.234375 -0.53125q0 -0.359375 0.234375 -0.578125q0.234375 -0.21875 0.640625 -0.21875l1.609375 0l0 -0.4375q0 -2.15625 1.078125 -3.390625q1.078125 -1.234375 3.09375 -1.375l0.625 -0.046875q0.625 -0.046875 0.890625 0.125q0.28125 0.15625 0.28125 0.59375q0 0.6875 -0.84375 0.78125l-0.625 0.046875zm7.5594788 15.562499q-1.65625 0 -2.921875 -0.734375q-1.25 -0.75 -1.9375 -2.125q-0.671875 -1.390625 -0.671875 -3.21875q0 -1.828125 0.671875 -3.203124q0.6875 -1.375 1.9375 -2.109375q1.265625 -0.75 2.921875 -0.75q1.65625 0 2.921875 0.75q1.28125 0.734375 1.96875 2.109375q0.6875 1.374999 0.6875 3.203124q0 1.828125 -0.6875 3.21875q-0.6875 1.375 -1.96875 2.125q-1.265625 0.734375 -2.921875 0.734375zm0 -1.609375q1.734375 0 2.65625 -1.140625q0.921875 -1.140625 0.921875 -3.328125q0 -2.140624 -0.9375 -3.296874q-0.921875 -1.171875 -2.640625 -1.171875q-1.703125 0 -2.640625 1.171875q-0.921875 1.15625 -0.921875 3.296874q0 2.15625 0.921875 3.3125q0.921875 1.15625 2.640625 1.15625zm14.257462 -10.484374q1.015625 -0.078125 1.015625 0.8125q0 0.375 -0.21875 0.609375q-0.21875 0.234375 -0.75 0.28125l-0.71875 0.0625q-1.609375 0.140625 -2.390625 1.140625q-0.765625 1.0 -0.765625 2.343749l0 5.828125q0 0.484375 -0.265625 0.734375q-0.265625 0.234375 -0.703125 0.234375q-0.421875 0 -0.703125 -0.25q-0.28125 -0.265625 -0.28125 -0.71875l0 -10.124999q0 -0.453125 0.28125 -0.703125q0.296875 -0.25 0.703125 -0.25q0.390625 0 0.65625 0.25q0.265625 0.25 0.265625 0.6875l0 1.34375q0.5 -1.0625 1.421875 -1.609375q0.921875 -0.5625 2.125 -0.65625l0.328125 -0.015625z" fill-rule="nonzero"></path><path fill="#000000" fill-opacity="0.0" d="m-7.187664 60.535435l339.37006 0l0 39.464565l-339.37006 0z" fill-rule="evenodd"></path><path fill="#d9d9d9" d="m8.640461 90.202934q-1.640625 0 -3.109375 -0.4375q-1.453125 -0.4375 -2.375 -1.171875q-0.484375 -0.375 -0.484375 -1.03125q0 -0.453125 0.265625 -0.78125q0.265625 -0.328125 0.625 -0.328125q0.390625 0 0.875 0.296875q0.921875 0.65625 1.921875 0.96875q1.0 0.296875 2.21875 0.296875q1.546875 0 2.375 -0.546875q0.84375 -0.546875 0.84375 -1.59375q0 -0.8125 -0.78125 -1.25q-0.78125 -0.4375 -2.59375 -0.84375q-1.875 -0.40625 -3.046875 -0.9375q-1.171875 -0.53125 -1.78125 -1.359375q-0.59375 -0.828125 -0.59375 -2.109375q0 -1.328125 0.75 -2.375q0.75 -1.046875 2.078125 -1.625q1.34375 -0.59375 3.0 -0.59375q3.046875 0 4.96875 1.625q0.28125 0.234375 0.390625 0.46875q0.125 0.21875 0.125 0.5625q0 0.4375 -0.265625 0.78125q-0.265625 0.328125 -0.625 0.328125q-0.21875 0 -0.40625 -0.0625q-0.171875 -0.078125 -0.46875 -0.234375q-0.875 -0.640625 -1.703125 -0.953125q-0.8125 -0.3125 -2.015625 -0.3125q-1.453125 0 -2.296875 0.59375q-0.84375 0.578125 -0.84375 1.625q0 0.875 0.75 1.34375q0.75 0.46875 2.546875 0.875q1.890625 0.421875 3.078125 0.953125q1.1875 0.515625 1.8125 1.328125q0.625 0.8125 0.625 2.03125q0 1.3125 -0.734375 2.328125q-0.734375 1.015625 -2.078125 1.578125q-1.328125 0.5625 -3.046875 0.5625zm14.154266 -10.875q1.34375 0 2.390625 0.6875q1.0625 0.671875 1.640625 1.921875q0.59375 1.25 0.59375 2.875q0 1.625 -0.59375 2.84375q-0.578125 1.203125 -1.625 1.875q-1.03125 0.65625 -2.40625 0.65625q-1.109375 0 -1.984375 -0.46875q-0.875 -0.46875 -1.34375 -1.296875l0 4.34375q0 0.5625 -0.359375 0.875q-0.359375 0.328125 -0.953125 0.328125q-0.59375 0 -0.96875 -0.34375q-0.375 -0.34375 -0.375 -0.90625l0 -12.09375q0 -0.5625 0.34375 -0.90625q0.359375 -0.34375 0.953125 -0.34375q0.59375 0 0.953125 0.34375q0.375 0.34375 0.375 0.90625l0 0.546875q0.46875 -0.875 1.34375 -1.359375q0.890625 -0.484375 2.015625 -0.484375zm-0.703125 8.796875q1.265625 0 1.96875 -0.859375q0.703125 -0.875 0.703125 -2.453125q0 -1.625 -0.703125 -2.515625q-0.703125 -0.890625 -1.96875 -0.890625q-1.28125 0 -1.96875 0.875q-0.6875 0.859375 -0.6875 2.484375q0 1.609375 0.6875 2.484375q0.6875 0.875 1.96875 0.875zm13.349503 -8.75q0.5625 -0.046875 0.875 0.234375q0.328125 0.28125 0.328125 0.828125q0 0.578125 -0.28125 0.859375q-0.28125 0.265625 -1.0 0.359375l-0.640625 0.0625q-1.265625 0.125 -1.859375 0.859375q-0.578125 0.71875 -0.578125 1.8125l0 4.46875q0 0.625 -0.390625 0.953125q-0.375 0.328125 -0.953125 0.328125q-0.5625 0 -0.9375 -0.328125q-0.375 -0.328125 -0.375 -0.953125l0 -8.25q0 -0.59375 0.375 -0.90625q0.375 -0.328125 0.921875 -0.328125q0.546875 0 0.890625 0.3125q0.34375 0.296875 0.34375 0.875l0 0.859375q0.40625 -0.9375 1.203125 -1.453125q0.796875 -0.515625 1.78125 -0.578125l0.296875 -0.015625zm3.6687012 10.765625q-0.5625 0 -0.9375 -0.328125q-0.375 -0.328125 -0.375 -0.953125l0 -8.234375q0 -0.609375 0.375 -0.921875q0.375 -0.328125 0.9375 -0.328125q0.578125 0 0.953125 0.328125q0.390625 0.3125 0.390625 0.921875l0 8.234375q0 0.625 -0.390625 0.953125q-0.375 0.328125 -0.953125 0.328125zm0 -12.671875q-0.71875 0 -1.15625 -0.390625q-0.421875 -0.390625 -0.421875 -1.03125q0 -0.640625 0.421875 -1.015625q0.4375 -0.390625 1.15625 -0.390625q0.703125 0 1.140625 0.390625q0.4375 0.375 0.4375 1.015625q0 0.640625 -0.421875 1.03125q-0.421875 0.390625 -1.15625 0.390625zm10.151733 1.859375q1.890625 0 2.796875 1.078125q0.921875 1.0625 0.921875 3.203125l0 5.25q0 0.609375 -0.359375 0.953125q-0.34375 0.328125 -0.96875 0.328125q-0.609375 0 -0.984375 -0.328125q-0.359375 -0.34375 -0.359375 -0.953125l0 -5.09375q0 -1.21875 -0.453125 -1.765625q-0.453125 -0.5625 -1.4375 -0.5625q-1.15625 0 -1.859375 0.734375q-0.6875 0.71875 -0.6875 1.9375l0 4.75q0 0.609375 -0.359375 0.953125q-0.359375 0.328125 -0.984375 0.328125q-0.609375 0 -0.96875 -0.328125q-0.34375 -0.34375 -0.34375 -0.953125l0 -8.25q0 -0.546875 0.359375 -0.890625q0.359375 -0.34375 0.984375 -0.34375q0.546875 0 0.890625 0.328125q0.359375 0.328125 0.359375 0.859375l0 0.578125q0.53125 -0.875 1.421875 -1.34375q0.90625 -0.46875 2.03125 -0.46875zm15.258251 0.046875q0.59375 0 0.953125 0.34375q0.359375 0.34375 0.359375 0.90625l0 8.4375q0 2.453125 -1.359375 3.703125q-1.3593712 1.265625 -4.031246 1.265625q-2.328125 0 -3.875 -0.875q-0.796875 -0.46875 -0.796875 -1.140625q0 -0.46875 0.21875 -0.75q0.234375 -0.265625 0.59375 -0.265625q0.1875 0 0.46875 0.09375q0.28125 0.09375 0.578125 0.21875q0.765625 0.328125 1.375 0.5q0.609375 0.171875 1.390625 0.171875q2.796875 0 2.796875 -2.734375l0 -1.375q-0.46875 0.875 -1.359375 1.359375q-0.890625 0.484375 -2.046875 0.484375q-1.375 0 -2.4375 -0.640625q-1.046875 -0.65625 -1.640625 -1.828125q-0.59375 -1.1875 -0.59375 -2.71875q0 -1.53125 0.578125 -2.71875q0.59375 -1.1875 1.65625 -1.828125q1.0625 -0.65625 2.4375 -0.65625q1.15625 0 2.046875 0.484375q0.890625 0.484375 1.359375 1.359375l0 -0.5625q0 -0.546875 0.359375 -0.890625q0.375 -0.34375 0.9687462 -0.34375zm-4.031246 8.265625q1.28125 0 1.984375 -0.828125q0.71875 -0.828125 0.71875 -2.28125q0 -1.46875 -0.71875 -2.296875q-0.703125 -0.828125 -1.984375 -0.828125q-1.265625 0 -2.0 0.828125q-0.71875 0.828125 -0.71875 2.296875q0 1.453125 0.71875 2.28125q0.734375 0.828125 2.0 0.828125z" fill-rule="nonzero"></path><path fill="#d9d9d9" d="m83.13545 82.24981q1.296875 0.359375 2.015625 1.328125q0.71875 0.953125 0.71875 2.34375q0 1.921875 -1.375 3.015625q-1.375 1.078125 -3.78125 1.078125l-5.515625 0q-0.609375 0 -0.96875 -0.34375q-0.34375 -0.34375 -0.34375 -0.953125l0 -12.4375q0 -0.625 0.34375 -0.953125q0.359375 -0.34375 0.96875 -0.34375l5.296875 0q2.34375 0 3.671875 1.03125q1.34375 1.03125 1.34375 2.890625q0 1.1875 -0.640625 2.0625q-0.625 0.875 -1.734375 1.28125zm-6.5625 -0.9375l3.46875 0q2.84375 0 2.84375 -2.109375q0 -1.0625 -0.703125 -1.578125q-0.703125 -0.515625 -2.140625 -0.515625l-3.46875 0l0 4.203125zm3.828125 6.5625q1.5 0 2.171875 -0.53125q0.6875 -0.53125 0.6875 -1.65625q0 -1.125 -0.6875 -1.671875q-0.6875 -0.5625 -2.171875 -0.5625l-3.828125 0l0 4.421875l3.828125 0zm12.567169 2.3125q-1.59375 0 -2.796875 -0.65625q-1.203125 -0.671875 -1.875 -1.90625q-0.65625 -1.234375 -0.65625 -2.875q0 -1.640625 0.65625 -2.859375q0.671875 -1.234375 1.875 -1.890625q1.203125 -0.671875 2.796875 -0.671875q1.59375 0 2.796875 0.671875q1.21875 0.65625 1.859375 1.890625q0.65625 1.21875 0.65625 2.859375q0 1.640625 -0.65625 2.875q-0.640625 1.234375 -1.859375 1.90625q-1.203125 0.65625 -2.796875 0.65625zm-0.015625 -2.0625q1.296875 0 1.96875 -0.859375q0.6875 -0.859375 0.6875 -2.515625q0 -1.640625 -0.6875 -2.5q-0.671875 -0.875 -1.953125 -0.875q-1.28125 0 -1.984375 0.875q-0.6875 0.859375 -0.6875 2.5q0 1.65625 0.6875 2.515625q0.6875 0.859375 1.96875 0.859375zm12.279343 2.0625q-1.59375 0 -2.796875 -0.65625q-1.203125 -0.671875 -1.875 -1.90625q-0.65625 -1.234375 -0.65625 -2.875q0 -1.640625 0.65625 -2.859375q0.671875 -1.234375 1.875 -1.890625q1.203125 -0.671875 2.796875 -0.671875q1.59375 0 2.796875 0.671875q1.21875 0.65625 1.859375 1.890625q0.65625 1.21875 0.65625 2.859375q0 1.640625 -0.65625 2.875q-0.640625 1.234375 -1.859375 1.90625q-1.203125 0.65625 -2.796875 0.65625zm-0.015625 -2.0625q1.296875 0 1.96875 -0.859375q0.6875 -0.859375 0.6875 -2.515625q0 -1.640625 -0.6875 -2.5q-0.671875 -0.875 -1.953125 -0.875q-1.28125 0 -1.984375 0.875q-0.6875 0.859375 -0.6875 2.5q0 1.65625 0.6875 2.515625q0.6875 0.859375 1.96875 0.859375zm12.935593 0.03125q1.078125 0.0625 1.078125 0.96875q0 0.5 -0.421875 0.78125q-0.421875 0.265625 -1.1875 0.21875l-0.578125 -0.046875q-3.578125 -0.25 -3.578125 -3.84375l0 -4.640625l-1.0625 0q-0.578125 0 -0.890625 -0.25q-0.3125 -0.265625 -0.3125 -0.75q0 -0.5 0.3125 -0.75q0.3125 -0.25 0.890625 -0.25l1.0625 0l0 -1.96875q0 -0.578125 0.359375 -0.921875q0.375 -0.34375 0.984375 -0.34375q0.59375 0 0.953125 0.34375q0.375 0.34375 0.375 0.921875l0 1.96875l1.8125 0q0.578125 0 0.875 0.25q0.3125 0.25 0.3125 0.75q0 0.484375 -0.3125 0.75q-0.296875 0.25 -0.875 0.25l-1.8125 0l0 4.84375q0 1.578125 1.453125 1.6875l0.5625 0.03125zm7.088867 2.03125q-1.5625 0 -2.75 -0.65625q-1.171875 -0.671875 -1.8125 -1.875q-0.640625 -1.21875 -0.640625 -2.84375q0 -1.625 0.671875 -2.875q0.671875 -1.25 1.875 -1.921875q1.21875 -0.6875 2.796875 -0.6875q0.84375 0 1.6875 0.234375q0.84375 0.234375 1.484375 0.640625q0.671875 0.453125 0.671875 1.125q0 0.46875 -0.21875 0.765625q-0.21875 0.28125 -0.59375 0.28125q-0.234375 0 -0.484375 -0.09375q-0.25 -0.109375 -0.515625 -0.265625q-0.46875 -0.28125 -0.890625 -0.4375q-0.421875 -0.15625 -0.984375 -0.15625q-1.328125 0 -2.046875 0.859375q-0.703125 0.859375 -0.703125 2.484375q0 1.609375 0.703125 2.46875q0.71875 0.859375 2.046875 0.859375q0.53125 0 0.9375 -0.15625q0.421875 -0.15625 0.9375 -0.4375q0.328125 -0.1875 0.5625 -0.28125q0.234375 -0.109375 0.46875 -0.109375q0.34375 0 0.578125 0.3125q0.234375 0.296875 0.234375 0.734375q0 0.359375 -0.171875 0.640625q-0.15625 0.265625 -0.515625 0.46875q-0.65625 0.4375 -1.53125 0.6875q-0.875 0.234375 -1.796875 0.234375zm10.298798 -10.859375q2.171875 0 3.21875 1.078125q1.0625 1.078125 1.0625 3.28125l0 5.203125q0 0.578125 -0.34375 0.90625q-0.328125 0.328125 -0.921875 0.328125q-0.5625 0 -0.921875 -0.34375q-0.34375 -0.34375 -0.34375 -0.890625l0 -0.46875q-0.359375 0.828125 -1.140625 1.296875q-0.78125 0.46875 -1.796875 0.46875q-1.046875 0 -1.90625 -0.421875q-0.84375 -0.4375 -1.34375 -1.171875q-0.484375 -0.75 -0.484375 -1.671875q0 -1.15625 0.578125 -1.8125q0.59375 -0.65625 1.90625 -0.953125q1.328125 -0.296875 3.65625 -0.296875l0.53125 0l0 -0.5q0 -1.046875 -0.453125 -1.515625q-0.4375 -0.484375 -1.4375 -0.484375q-0.625 0 -1.265625 0.1875q-0.640625 0.171875 -1.515625 0.515625q-0.546875 0.28125 -0.8125 0.28125q-0.375 0 -0.625 -0.28125q-0.25 -0.28125 -0.25 -0.734375q0 -0.359375 0.171875 -0.625q0.1875 -0.265625 0.625 -0.5q0.75 -0.40625 1.78125 -0.640625q1.03125 -0.234375 2.03125 -0.234375zm-0.65625 8.9375q1.0625 0 1.734375 -0.703125q0.671875 -0.71875 0.671875 -1.859375l0 -0.4375l-0.390625 0q-1.421875 0 -2.21875 0.125q-0.78125 0.125 -1.125 0.453125q-0.34375 0.3125 -0.34375 0.859375q0 0.6875 0.484375 1.125q0.484375 0.4375 1.1875 0.4375zm20.048477 -8.9375q1.703125 0 2.609375 1.015625q0.90625 1.015625 0.90625 3.265625l0 5.25q0 0.625 -0.375 0.953125q-0.375 0.328125 -0.96875 0.328125q-0.578125 0 -0.953125 -0.328125q-0.375 -0.328125 -0.375 -0.953125l0 -5.25q0 -1.171875 -0.421875 -1.671875q-0.40625 -0.5 -1.25 -0.5q-1.046875 0 -1.671875 0.71875q-0.609375 0.71875 -0.609375 1.953125l0 4.75q0 0.625 -0.375 0.953125q-0.375 0.328125 -0.953125 0.328125q-0.578125 0 -0.96875 -0.328125q-0.375 -0.328125 -0.375 -0.953125l0 -5.25q0 -1.171875 -0.421875 -1.671875q-0.40625 -0.5 -1.265625 -0.5q-1.046875 0 -1.65625 0.71875q-0.609375 0.71875 -0.609375 1.953125l0 4.75q0 0.625 -0.390625 0.953125q-0.375 0.328125 -0.953125 0.328125q-0.5625 0 -0.9375 -0.328125q-0.375 -0.328125 -0.375 -0.953125l0 -8.25q0 -0.59375 0.375 -0.90625q0.390625 -0.328125 0.96875 -0.328125q0.546875 0 0.890625 0.3125q0.359375 0.296875 0.359375 0.875l0 0.515625q0.5 -0.859375 1.3125 -1.296875q0.828125 -0.453125 1.890625 -0.453125q2.34375 0 3.140625 1.96875q0.46875 -0.90625 1.375 -1.4375q0.921875 -0.53125 2.078125 -0.53125zm12.213272 0q1.34375 0 2.390625 0.6875q1.0625 0.671875 1.640625 1.921875q0.59375 1.25 0.59375 2.875q0 1.625 -0.59375 2.84375q-0.578125 1.203125 -1.625 1.875q-1.03125 0.65625 -2.40625 0.65625q-1.109375 0 -1.984375 -0.46875q-0.875 -0.46875 -1.34375 -1.296875l0 4.34375q0 0.5625 -0.359375 0.875q-0.359375 0.328125 -0.953125 0.328125q-0.59375 0 -0.96875 -0.34375q-0.375 -0.34375 -0.375 -0.90625l0 -12.09375q0 -0.5625 0.34375 -0.90625q0.359375 -0.34375 0.953125 -0.34375q0.59375 0 0.953125 0.34375q0.375 0.34375 0.375 0.90625l0 0.546875q0.46875 -0.875 1.34375 -1.359375q0.890625 -0.484375 2.015625 -0.484375zm-0.703125 8.796875q1.265625 0 1.96875 -0.859375q0.703125 -0.875 0.703125 -2.453125q0 -1.625 -0.703125 -2.515625q-0.703125 -0.890625 -1.96875 -0.890625q-1.28125 0 -1.96875 0.875q-0.6875 0.859375 -0.6875 2.484375q0 1.609375 0.6875 2.484375q0.6875 0.875 1.96875 0.875z" fill-rule="nonzero"></path></g></svg>

