<?xml version="1.0" standalone="yes"?>

<svg version="1.1" viewBox="0.0 0.0 414.6902887139108 382.73490813648294" fill="none" stroke="none" stroke-linecap="square" stroke-miterlimit="10" xmlns="http://www.w3.org/2000/svg" xmlns:xlink="http://www.w3.org/1999/xlink"><clipPath id="p.0"><path d="m0 0l414.69028 0l0 382.7349l-414.69028 0l0 -382.7349z" clip-rule="nonzero"></path></clipPath><g clip-path="url(#p.0)"><path fill="#000000" fill-opacity="0.0" d="m0 0l414.69028 0l0 382.7349l-414.69028 0z" fill-rule="evenodd"></path><path fill="#000000" fill-opacity="0.0" d="m7.044639 7.1469817l400.22046 0l0 130.64566l-400.22046 0z" fill-rule="evenodd"></path><path stroke="#000000" stroke-width="1.0" stroke-linejoin="round" stroke-linecap="butt" d="m7.044639 7.1469817l400.22046 0l0 130.64566l-400.22046 0z" fill-rule="evenodd"></path><path fill="#000000" fill-opacity="0.0" d="m7.0446725 7.1469817l372.97638 0l0 40.787403l-372.97638 0z" fill-rule="evenodd"></path><path fill="#000000" d="m24.669672 22.976305q-0.078125 0.140625 -0.1875 0.21875q-0.09375 0.0625 -0.234375 0.0625q-0.171875 0 -0.390625 -0.15625q-0.203125 -0.171875 -0.53125 -0.359375q-0.328125 -0.1875 -0.796875 -0.34375q-0.453125 -0.171875 -1.109375 -0.171875q-0.609375 0 -1.09375 0.171875q-0.46875 0.15625 -0.796875 0.453125q-0.3125 0.28125 -0.484375 0.671875q-0.15625 0.375 -0.15625 0.8125q0 0.578125 0.28125 0.953125q0.28125 0.375 0.734375 0.640625q0.46875 0.265625 1.046875 0.46875q0.59375 0.1875 1.203125 0.40625q0.609375 0.203125 1.1875 0.46875q0.59375 0.25 1.046875 0.65625q0.46875 0.390625 0.75 0.96875q0.28125 0.578125 0.28125 1.4375q0 0.890625 -0.3125 1.6718731q-0.296875 0.78125 -0.890625 1.359375q-0.578125 0.578125 -1.421875 0.921875q-0.84375 0.328125 -1.9375 0.328125q-1.3125 0 -2.40625 -0.484375q-1.078125 -0.484375 -1.859375 -1.296875l0.53125 -0.8749981q0.078125 -0.109375 0.1875 -0.171875q0.109375 -0.078125 0.25 -0.078125q0.1875 0 0.4375 0.21875q0.265625 0.2187481 0.65625 0.4687481q0.390625 0.25 0.921875 0.46875q0.546875 0.21875 1.34375 0.21875q0.65625 0 1.171875 -0.171875q0.515625 -0.1875 0.859375 -0.515625q0.359375 -0.328125 0.546875 -0.7812481q0.1875 -0.46875 0.1875 -1.015625q0 -0.625 -0.28125 -1.015625q-0.265625 -0.390625 -0.734375 -0.65625q-0.453125 -0.265625 -1.046875 -0.453125q-0.578125 -0.1875 -1.1875 -0.375q-0.609375 -0.203125 -1.203125 -0.453125q-0.578125 -0.265625 -1.03125 -0.671875q-0.453125 -0.40625 -0.734375 -1.015625q-0.28125 -0.625 -0.28125 -1.515625q0 -0.734375 0.28125 -1.40625q0.28125 -0.671875 0.8125 -1.1875q0.53125 -0.53125 1.3125 -0.84375q0.78125 -0.3125 1.796875 -0.3125q1.140625 0 2.078125 0.359375q0.953125 0.359375 1.65625 1.046875l-0.453125 0.875zm5.5596924 11.640623q-1.140625 0 -1.75 -0.640625q-0.609375 -0.640625 -0.609375 -1.828125l0 -5.890623l-1.15625 0q-0.15625 0 -0.265625 -0.09375q-0.09375 -0.09375 -0.09375 -0.28125l0 -0.671875l1.578125 -0.203125l0.390625 -2.96875q0.015625 -0.140625 0.109375 -0.234375q0.109375 -0.09375 0.28125 -0.09375l0.84375 0l0 3.3125l2.765627 0l0 1.234375l-2.765627 0l0 5.765623q0 0.609375 0.296875 0.90625q0.296875 0.296875 0.765625 0.296875q0.265625 0 0.453125 -0.0625q0.203125 -0.078125 0.34375 -0.15625q0.140625 -0.09375 0.234375 -0.15625q0.109375 -0.078125 0.1875 -0.078125q0.125 0 0.2343769 0.15625l0.484375 0.8125q-0.4375 0.40625 -1.0625019 0.640625q-0.609375 0.234375 -1.265625 0.234375zm5.505663 -9.781248l0 6.140625q0 1.0937481 0.5 1.6874981q0.515625 0.59375 1.53125 0.59375q0.734375 0 1.390625 -0.34375q0.65625 -0.359375 1.203125 -0.9843731l0 -7.09375l1.703125 0l0 9.624998l-1.015625 0q-0.359375 0 -0.453125 -0.34375l-0.125 -1.046875q-0.640625 0.703125 -1.421875 1.125q-0.765625 0.421875 -1.78125 0.421875q-0.78125 0 -1.390625 -0.265625q-0.59375 -0.265625 -1.015625 -0.734375q-0.40625 -0.484375 -0.609375 -1.15625q-0.203125 -0.6718731 -0.203125 -1.4843731l0 -6.140625l1.6875 0zm15.685379 9.624998q-0.359375 0 -0.453125 -0.34375l-0.15625 -1.171875q-0.609375 0.75 -1.40625 1.203125q-0.796875 0.453125 -1.8125 0.453125q-0.828125 0 -1.515625 -0.3125q-0.671875 -0.328125 -1.140625 -0.9375q-0.46875 -0.625 -0.734375 -1.5468731q-0.25 -0.921875 -0.25 -2.125q0 -1.0625 0.28125 -1.96875q0.28125 -0.921875 0.8125 -1.59375q0.546875 -0.6875 1.3125 -1.0625q0.765625 -0.390625 1.75 -0.390625q0.890625 0 1.515625 0.296875q0.625 0.296875 1.109375 0.84375l0 -5.34375l1.703125 0l0 13.999998l-1.015625 0zm-3.265625 -1.234375q0.8125 0 1.4375 -0.375q0.625 -0.390625 1.140625 -1.0781231l0 -4.65625q-0.453125 -0.625 -1.015625 -0.875q-0.546875 -0.25 -1.234375 -0.25q-1.34375 0 -2.0625 0.953125q-0.71875 0.953125 -0.71875 2.734375q0 0.9375 0.15625 1.609375q0.15625 0.671875 0.46875 1.1093731q0.3125 0.421875 0.765625 0.625q0.46875 0.203125 1.0625 0.203125zm9.741348 4.078125q-0.078125 0.1875 -0.21875 0.296875q-0.125 0.125 -0.390625 0.125l-1.25 0l1.765625 -3.828125l-3.96875 -9.062498l1.453125 0q0.21875 0 0.34375 0.109375q0.125 0.109375 0.1875 0.25l2.5625 6.046875q0.09375 0.21875 0.15625 0.4375q0.0625 0.203125 0.109375 0.4218731q0.0625 -0.2187481 0.125 -0.4218731q0.078125 -0.21875 0.15625 -0.4375l2.5 -6.046875q0.0625 -0.15625 0.1875 -0.25q0.140625 -0.109375 0.3125 -0.109375l1.34375 0l-5.375 12.468748zm11.699535 -8.812498q0 2.03125 0.515625 3.953123q0.53125 1.90625 1.515625 3.640625q0.046875 0.109375 0.0625 0.171875q0.03125 0.078125 0.03125 0.15625q0 0.140625 -0.078125 0.21875q-0.0625 0.09375 -0.15625 0.15625l-0.75 0.453125q-0.71875 -1.09375 -1.21875 -2.171875q-0.5 -1.0625 -0.8125 -2.140625q-0.296875 -1.0937481 -0.453125 -2.187498q-0.140625 -1.09375 -0.140625 -2.25q0 -1.15625 0.140625 -2.25q0.15625 -1.109375 0.453125 -2.1875q0.3125 -1.078125 0.8125 -2.140625q0.5 -1.078125 1.21875 -2.1875l0.75 0.46875q0.09375 0.0625 0.15625 0.15625q0.078125 0.078125 0.078125 0.203125q0 0.15625 -0.09375 0.328125q-1.0 1.734375 -1.515625 3.65625q-0.515625 1.90625 -0.515625 3.953125zm12.893753 -7.640625l0 1.5l-6.546875 0l0 4.515625l5.296875 0l0 1.453125l-5.296875 0l0 4.640623l6.546875 0l0 1.5l-8.390625 0l0 -13.609373l8.390625 0zm4.058029 -0.390625l0 13.999998l-1.6875 0l0 -13.999998l1.6875 0zm2.947876 13.999998l0 -13.999998l1.703125 0l0 5.765625q0.609375 -0.703125 1.375 -1.125q0.78125 -0.421875 1.765625 -0.421875q0.84375 0 1.515625 0.3125q0.671875 0.3125 1.140625 0.9375q0.484375 0.625 0.734375 1.546875q0.265625 0.90625 0.265625 2.109375q0 1.0625 -0.296875 1.984375q-0.28125 0.9218731 -0.8125 1.5937481q-0.53125 0.65625 -1.3125 1.046875q-0.765625 0.390625 -1.734375 0.390625q-0.9375 0 -1.59375 -0.359375q-0.640625 -0.375 -1.125 -1.015625l-0.09375 0.875q-0.078125 0.359375 -0.4375 0.359375l-1.09375 0zm4.296875 -8.421873q-0.828125 0 -1.453125 0.375q-0.609375 0.375 -1.140625 1.078125l0 4.656248q0.453125 0.625 1.015625 0.890625q0.5625 0.25 1.234375 0.25q1.359375 0 2.078125 -0.953125q0.71875 -0.9687481 0.71875 -2.749998q0 -0.9375 -0.171875 -1.609375q-0.15625 -0.671875 -0.46875 -1.109375q-0.3125 -0.4375 -0.78125 -0.625q-0.453125 -0.203125 -1.03125 -0.203125zm9.975723 -1.359375q1.0625 0 1.90625 0.359375q0.84375 0.34375 1.4375 1.0q0.59375 0.640625 0.90625 1.5625q0.328125 0.90625 0.328125 2.046875q0 1.140625 -0.328125 2.046875q-0.3125 0.9062481 -0.90625 1.5624981q-0.59375 0.640625 -1.4375 1.0q-0.84375 0.34375 -1.90625 0.34375q-1.046875 0 -1.90625 -0.34375q-0.84375 -0.359375 -1.453125 -1.0q-0.59375 -0.65625 -0.921875 -1.5624981q-0.3125 -0.90625 -0.3125 -2.046875q0 -1.140625 0.3125 -2.046875q0.328125 -0.921875 0.921875 -1.5625q0.609375 -0.65625 1.453125 -1.0q0.859375 -0.359375 1.90625 -0.359375zm0 8.593748q1.421875 0 2.125 -0.953125q0.703125 -0.9531231 0.703125 -2.671873q0 -1.71875 -0.703125 -2.671875q-0.703125 -0.96875 -2.125 -0.96875q-0.71875 0 -1.25 0.25q-0.53125 0.25 -0.890625 0.71875q-0.359375 0.46875 -0.53125 1.15625q-0.171875 0.671875 -0.171875 1.515625q0 0.859375 0.171875 1.53125q0.171875 0.671875 0.53125 1.1406231q0.359375 0.453125 0.890625 0.703125q0.53125 0.25 1.25 0.25zm5.232254 -8.437498l1.328125 0q0.203125 0 0.328125 0.109375q0.140625 0.09375 0.1875 0.25l1.84375 6.1875q0.078125 0.34375 0.140625 0.6718731q0.0625 0.3125 0.109375 0.625q0.078125 -0.3125 0.171875 -0.625q0.09375 -0.3281231 0.203125 -0.6718731l2.03125 -6.234375q0.046875 -0.140625 0.171875 -0.234375q0.125 -0.09375 0.296875 -0.09375l0.734375 0q0.1875 0 0.3125 0.09375q0.125 0.09375 0.171875 0.234375l1.984375 6.234375q0.109375 0.328125 0.1875 0.6562481q0.078125 0.328125 0.15625 0.640625q0.046875 -0.3125 0.125 -0.65625q0.078125 -0.3437481 0.15625 -0.6406231l1.875 -6.1875q0.0625 -0.15625 0.1875 -0.25q0.140625 -0.109375 0.3125 -0.109375l1.28125 0l-3.125 9.624998l-1.34375 0q-0.234375 0 -0.328125 -0.328125l-2.140625 -6.515623q-0.078125 -0.21875 -0.125 -0.4375q-0.046875 -0.234375 -0.09375 -0.453125q-0.046875 0.21875 -0.09375 0.453125q-0.046875 0.21875 -0.125 0.4375l-2.15625 6.515623q-0.09375 0.328125 -0.390625 0.328125l-1.265625 0l-3.109375 -9.624998zm16.978195 3.65625q0 -2.046875 -0.515625 -3.953125q-0.515625 -1.921875 -1.515625 -3.65625q-0.09375 -0.171875 -0.09375 -0.328125q0 -0.125 0.0625 -0.203125q0.078125 -0.09375 0.171875 -0.15625l0.75 -0.46875q0.71875 1.109375 1.21875 2.1875q0.5 1.0625 0.796875 2.140625q0.3125 1.078125 0.453125 2.1875q0.140625 1.09375 0.140625 2.25q0 1.15625 -0.140625 2.25q-0.140625 1.09375 -0.453125 2.187498q-0.296875 1.078125 -0.796875 2.140625q-0.5 1.078125 -1.21875 2.171875l-0.75 -0.453125q-0.09375 -0.0625 -0.171875 -0.15625q-0.0625 -0.078125 -0.0625 -0.21875q0 -0.078125 0.015625 -0.15625q0.015625 -0.0625 0.078125 -0.171875q0.984375 -1.734375 1.5 -3.640625q0.53125 -1.9218731 0.53125 -3.953123z" fill-rule="nonzero"></path><path fill="#000000" fill-opacity="0.0" d="m129.21785 120.117294l0 40.944885" fill-rule="evenodd"></path><path stroke="#000000" stroke-width="1.0" stroke-linejoin="round" stroke-linecap="butt" d="m129.21785 120.11729l0 34.944878" fill-rule="evenodd"></path><path fill="#000000" stroke="#000000" stroke-width="1.0" stroke-linecap="butt" d="m127.56612 155.06218l1.6517334 4.538086l1.6517334 -4.538086z" fill-rule="evenodd"></path><path fill="#fff2cc" d="m24.430447 47.928314l209.5748 0l0 72.18898l-209.5748 0z" fill-rule="evenodd"></path><path stroke="#000000" stroke-width="1.0" stroke-linejoin="round" stroke-linecap="butt" d="m24.430447 47.928314l209.5748 0l0 72.18898l-209.5748 0z" fill-rule="evenodd"></path><path fill="#000000" d="m101.32091 77.33343l1.46875 0q0.25 0 0.390625 0.125q0.15625 0.125 0.234375 0.3125l3.84375 9.59375q0.140625 0.328125 0.25 0.71875q0.109375 0.375 0.21875 0.78125q0.078125 -0.40625 0.171875 -0.78125q0.109375 -0.390625 0.234375 -0.71875l3.828125 -9.59375q0.078125 -0.171875 0.234375 -0.296875q0.15625 -0.140625 0.40625 -0.140625l1.46875 0l-5.546875 13.609375l-1.65625 0l-5.546875 -13.609375zm15.873749 3.984375l0 9.625l-1.6875 0l0 -9.625l1.6875 0zm0.375 -3.015625q0 0.25 -0.09375 0.46875q-0.09375 0.203125 -0.265625 0.375q-0.171875 0.15625 -0.390625 0.25q-0.21875 0.09375 -0.453125 0.09375q-0.25 0 -0.46875 -0.09375q-0.21875 -0.09375 -0.390625 -0.25q-0.15625 -0.171875 -0.25 -0.375q-0.09375 -0.21875 -0.09375 -0.46875q0 -0.25 0.09375 -0.46875q0.09375 -0.234375 0.25 -0.390625q0.171875 -0.171875 0.390625 -0.265625q0.21875 -0.09375 0.46875 -0.09375q0.234375 0 0.453125 0.09375q0.21875 0.09375 0.390625 0.265625q0.171875 0.15625 0.265625 0.390625q0.09375 0.21875 0.09375 0.46875zm6.338501 2.859375q0.859375 0 1.59375 0.296875q0.734375 0.28125 1.265625 0.828125q0.53125 0.546875 0.828125 1.359375q0.296875 0.796875 0.296875 1.828125q0 0.390625 -0.09375 0.53125q-0.078125 0.125 -0.3125 0.125l-6.40625 0q0.015625 0.921875 0.234375 1.59375q0.234375 0.671875 0.625 1.125q0.40625 0.453125 0.953125 0.671875q0.5625 0.21875 1.25 0.21875q0.640625 0 1.09375 -0.140625q0.453125 -0.140625 0.78125 -0.3125q0.34375 -0.171875 0.5625 -0.3125q0.234375 -0.15625 0.390625 -0.15625q0.203125 0 0.328125 0.15625l0.46875 0.625q-0.3125 0.375 -0.75 0.65625q-0.4375 0.28125 -0.9375 0.46875q-0.5 0.171875 -1.03125 0.265625q-0.53125 0.09375 -1.046875 0.09375q-1.0 0 -1.84375 -0.34375q-0.84375 -0.34375 -1.453125 -0.984375q-0.609375 -0.65625 -0.953125 -1.609375q-0.34375 -0.96875 -0.34375 -2.203125q0 -1.015625 0.3125 -1.890625q0.3125 -0.875 0.890625 -1.515625q0.578125 -0.640625 1.40625 -1.0q0.84375 -0.375 1.890625 -0.375zm0.03125 1.25q-1.21875 0 -1.921875 0.71875q-0.703125 0.703125 -0.875 1.953125l5.234375 0q0 -0.59375 -0.171875 -1.078125q-0.15625 -0.484375 -0.46875 -0.84375q-0.3125 -0.359375 -0.765625 -0.546875q-0.453125 -0.203125 -1.03125 -0.203125zm4.682129 -1.09375l1.328125 0q0.203125 0 0.328125 0.109375q0.140625 0.09375 0.1875 0.25l1.84375 6.1875q0.078125 0.34375 0.140625 0.671875q0.0625 0.3125 0.109375 0.625q0.078125 -0.3125 0.171875 -0.625q0.09375 -0.328125 0.203125 -0.671875l2.03125 -6.234375q0.046875 -0.140625 0.171875 -0.234375q0.125 -0.09375 0.296875 -0.09375l0.734375 0q0.1875 0 0.3125 0.09375q0.125 0.09375 0.171875 0.234375l1.984375 6.234375q0.109375 0.328125 0.1875 0.65625q0.078125 0.328125 0.15625 0.640625q0.046875 -0.3125 0.125 -0.65625q0.078125 -0.34375 0.15625 -0.640625l1.875 -6.1875q0.0625 -0.15625 0.1875 -0.25q0.140625 -0.109375 0.3125 -0.109375l1.28125 0l-3.125 9.625l-1.34375 0q-0.234375 0 -0.328125 -0.328125l-2.140625 -6.515625q-0.078125 -0.21875 -0.125 -0.4375q-0.046875 -0.234375 -0.09375 -0.453125q-0.046875 0.21875 -0.09375 0.453125q-0.046875 0.21875 -0.125 0.4375l-2.15625 6.515625q-0.09375 0.328125 -0.390625 0.328125l-1.265625 0l-3.109375 -9.625zm20.469482 8.328125l2.9375 0l0 -9.28125q0 -0.40625 0.03125 -0.84375l-2.4375 2.078125q-0.09375 0.078125 -0.1875 0.109375q-0.09375 0.03125 -0.1875 0.03125q-0.140625 0 -0.25 -0.046875q-0.109375 -0.0625 -0.171875 -0.15625l-0.53125 -0.734375l4.046875 -3.5l1.3750153 0l0 12.34375l2.671875 0l0 1.296875l-7.2968903 0l0 -1.296875z" fill-rule="nonzero"></path><path fill="#fff2cc" d="m253.08047 24.656012l139.84253 0l0 95.62205l-139.84253 0z" fill-rule="evenodd"></path><path stroke="#000000" stroke-width="1.0" stroke-linejoin="round" stroke-linecap="butt" d="m253.08047 24.656012l139.84253 0l0 95.62205l-139.84253 0z" fill-rule="evenodd"></path><path fill="#000000" d="m295.1048 65.77766l1.46875 0q0.25 0 0.390625 0.125q0.15625 0.125 0.234375 0.3125l3.84375 9.59375q0.140625 0.328125 0.25 0.71875q0.109375 0.375 0.21875 0.78125q0.078125 -0.40625 0.171875 -0.78125q0.109375 -0.390625 0.234375 -0.71875l3.828125 -9.59375q0.078125 -0.171875 0.234375 -0.296875q0.15625 -0.140625 0.40625 -0.140625l1.46875 0l-5.546875 13.609375l-1.65625 0l-5.546875 -13.609375zm15.873749 3.984375l0 9.625l-1.6875 0l0 -9.625l1.6875 0zm0.375 -3.015625q0 0.25 -0.09375 0.46875q-0.09375 0.203125 -0.265625 0.375q-0.171875 0.15625 -0.390625 0.25q-0.21875 0.09375 -0.453125 0.09375q-0.25 0 -0.46875 -0.09375q-0.21875 -0.09375 -0.390625 -0.25q-0.15625 -0.171875 -0.25 -0.375q-0.09375 -0.21875 -0.09375 -0.46875q0 -0.25 0.09375 -0.46875q0.09375 -0.234375 0.25 -0.390625q0.171875 -0.171875 0.390625 -0.265625q0.21875 -0.09375 0.46875 -0.09375q0.234375 0 0.453125 0.09375q0.21875 0.09375 0.390625 0.265625q0.171875 0.15625 0.265625 0.390625q0.09375 0.21875 0.09375 0.46875zm6.338501 2.859375q0.859375 0 1.59375 0.296875q0.734375 0.28125 1.265625 0.828125q0.53125 0.546875 0.828125 1.359375q0.296875 0.796875 0.296875 1.828125q0 0.390625 -0.09375 0.53125q-0.078125 0.125 -0.3125 0.125l-6.40625 0q0.015625 0.921875 0.234375 1.59375q0.234375 0.671875 0.625 1.125q0.40625 0.453125 0.953125 0.671875q0.5625 0.21875 1.25 0.21875q0.640625 0 1.09375 -0.140625q0.453125 -0.140625 0.78125 -0.3125q0.34375 -0.171875 0.5625 -0.3125q0.234375 -0.15625 0.390625 -0.15625q0.203125 0 0.328125 0.15625l0.46875 0.625q-0.3125 0.375 -0.75 0.65625q-0.4375 0.28125 -0.9375 0.46875q-0.5 0.171875 -1.03125 0.265625q-0.53125 0.09375 -1.046875 0.09375q-1.0 0 -1.84375 -0.34375q-0.84375 -0.34375 -1.453125 -0.984375q-0.609375 -0.65625 -0.953125 -1.609375q-0.34375 -0.96875 -0.34375 -2.203125q0 -1.015625 0.3125 -1.890625q0.3125 -0.875 0.890625 -1.515625q0.578125 -0.640625 1.40625 -1.0q0.84375 -0.375 1.890625 -0.375zm0.03125 1.25q-1.21875 0 -1.921875 0.71875q-0.703125 0.703125 -0.875 1.953125l5.234375 0q0 -0.59375 -0.171875 -1.078125q-0.15625 -0.484375 -0.46875 -0.84375q-0.3125 -0.359375 -0.765625 -0.546875q-0.453125 -0.203125 -1.03125 -0.203125zm4.682129 -1.09375l1.328125 0q0.203125 0 0.328125 0.109375q0.140625 0.09375 0.1875 0.25l1.84375 6.1875q0.078125 0.34375 0.140625 0.671875q0.0625 0.3125 0.109375 0.625q0.078125 -0.3125 0.171875 -0.625q0.09375 -0.328125 0.203125 -0.671875l2.03125 -6.234375q0.046875 -0.140625 0.171875 -0.234375q0.125 -0.09375 0.296875 -0.09375l0.734375 0q0.1875 0 0.3125 0.09375q0.125 0.09375 0.171875 0.234375l1.984375 6.234375q0.109375 0.328125 0.1875 0.65625q0.078125 0.328125 0.15625 0.640625q0.046875 -0.3125 0.125 -0.65625q0.078125 -0.34375 0.15625 -0.640625l1.875 -6.1875q0.0625 -0.15625 0.1875 -0.25q0.140625 -0.109375 0.3125 -0.109375l1.28125 0l-3.125 9.625l-1.34375 0q-0.234375 0 -0.328125 -0.328125l-2.140625 -6.515625q-0.078125 -0.21875 -0.125 -0.4375q-0.046875 -0.234375 -0.09375 -0.453125q-0.046875 0.21875 -0.09375 0.453125q-0.046875 0.21875 -0.125 0.4375l-2.15625 6.515625q-0.09375 0.328125 -0.390625 0.328125l-1.265625 0l-3.109375 -9.625zm23.453857 -4.140625q0.875 0 1.625 0.265625q0.75 0.25 1.296875 0.734375q0.546875 0.484375 0.859375 1.1875q0.3125 0.703125 0.3125 1.609375q0 0.75 -0.234375 1.40625q-0.21875 0.640625 -0.609375 1.234375q-0.390625 0.59375 -0.90625 1.15625q-0.5 0.546875 -1.078125 1.125l-3.578125 3.671875q0.375 -0.109375 0.765625 -0.171875q0.390625 -0.0625 0.75 -0.0625l4.5625 0q0.28125 0 0.4375 0.171875q0.15625 0.15625 0.15625 0.40625l0 1.03125l-9.078125 0l0 -0.578125q0 -0.1875 0.0625 -0.375q0.078125 -0.1875 0.25 -0.34375l4.359375 -4.390625q0.53125 -0.546875 0.984375 -1.046875q0.453125 -0.515625 0.765625 -1.03125q0.3125 -0.515625 0.484375 -1.03125q0.171875 -0.53125 0.171875 -1.125q0 -0.609375 -0.1875 -1.046875q-0.1875 -0.453125 -0.53125 -0.75q-0.328125 -0.296875 -0.78125 -0.4375q-0.4375 -0.15625 -0.953125 -0.15625q-0.515625 0 -0.953125 0.15625q-0.421875 0.140625 -0.765625 0.421875q-0.34375 0.265625 -0.578125 0.640625q-0.21875 0.375 -0.3125 0.8125q-0.078125 0.28125 -0.234375 0.40625q-0.15625 0.125 -0.40625 0.125q-0.046875 0 -0.09375 0q-0.046875 -0.015625 -0.125 -0.03125l-0.875 -0.140625q0.125 -0.9375 0.5 -1.65625q0.390625 -0.71875 0.96875 -1.203125q0.59375 -0.484375 1.34375 -0.734375q0.75 -0.25 1.625 -0.25z" fill-rule="nonzero"></path><path fill="#000000" fill-opacity="0.0" d="m323.00174 120.27806l0 40.944885" fill-rule="evenodd"></path><path stroke="#000000" stroke-width="1.0" stroke-linejoin="round" stroke-linecap="butt" d="m323.0017 120.27806l0 34.944885" fill-rule="evenodd"></path><path fill="#000000" stroke="#000000" stroke-width="1.0" stroke-linecap="butt" d="m321.34998 155.22295l1.6517334 4.538101l1.6517334 -4.538101z" fill-rule="evenodd"></path><path fill="#fce5cd" d="m7.0446196 161.11026l400.2205 0l0 78.20473l-400.2205 0z" fill-rule="evenodd"></path><path stroke="#000000" stroke-width="1.0" stroke-linejoin="round" stroke-linecap="butt" d="m7.0446196 161.11026l400.2205 0l0 78.20473l-400.2205 0z" fill-rule="evenodd"></path><path fill="#000000" d="m159.12396 192.62762l3.703125 0l0 -11.734375q0 -0.53125 0.03125 -1.0625l-3.0625 2.625q-0.125 0.09375 -0.25 0.140625q-0.109375 0.046875 -0.21875 0.046875q-0.1875 0 -0.328125 -0.078125q-0.140625 -0.078125 -0.21875 -0.1875l-0.671875 -0.921875l5.109375 -4.4375l1.75 0l0 15.609375l3.375 0l0 1.625l-9.21875 0l0 -1.625zm18.27948 -8.90625q1.03125 0 1.953125 0.34375q0.9375 0.328125 1.625 0.984375q0.703125 0.65625 1.109375 1.609375q0.40625 0.953125 0.40625 2.1875q0 1.1875 -0.4375 2.203125q-0.421875 1.015625 -1.203125 1.78125q-0.78125 0.75 -1.875 1.1875q-1.078125 0.421875 -2.390625 0.421875q-1.296875 0 -2.34375 -0.40625q-1.046875 -0.421875 -1.796875 -1.171875q-0.75 -0.765625 -1.15625 -1.84375q-0.390625 -1.09375 -0.390625 -2.4375q0 -1.125 0.5 -2.390625q0.5 -1.28125 1.59375 -2.75l4.359375 -5.875q0.171875 -0.203125 0.46875 -0.359375q0.296875 -0.15625 0.6875 -0.15625l1.890625 0l-5.953125 7.5625q0.609375 -0.421875 1.34375 -0.65625q0.75 -0.234375 1.609375 -0.234375zm-4.4375 5.234375q0 0.828125 0.234375 1.515625q0.25 0.671875 0.703125 1.171875q0.46875 0.484375 1.125 0.765625q0.671875 0.265625 1.53125 0.265625q0.859375 0 1.546875 -0.28125q0.703125 -0.28125 1.203125 -0.765625q0.5 -0.5 0.765625 -1.171875q0.265625 -0.671875 0.265625 -1.453125q0 -0.84375 -0.265625 -1.515625q-0.25 -0.6875 -0.734375 -1.15625q-0.484375 -0.484375 -1.15625 -0.734375q-0.671875 -0.25 -1.46875 -0.25q-0.875 0 -1.578125 0.296875q-0.6875 0.296875 -1.171875 0.796875q-0.484375 0.5 -0.75 1.15625q-0.25 0.640625 -0.25 1.359375zm17.15448 -1.765625q-0.984375 0 -1.859375 -0.3125q-0.859375 -0.328125 -1.515625 -0.953125q-0.65625 -0.640625 -1.046875 -1.546875q-0.390625 -0.921875 -0.390625 -2.109375q0 -1.125 0.40625 -2.109375q0.421875 -0.984375 1.171875 -1.71875q0.765625 -0.734375 1.8125 -1.15625q1.046875 -0.421875 2.296875 -0.421875q1.234375 0 2.234375 0.40625q1.015625 0.40625 1.734375 1.140625q0.71875 0.734375 1.109375 1.765625q0.390625 1.015625 0.390625 2.25q0 0.734375 -0.140625 1.40625q-0.140625 0.671875 -0.40625 1.3125q-0.265625 0.625 -0.625 1.265625q-0.359375 0.625 -0.828125 1.296875l-4.1875 6.046875q-0.15625 0.21875 -0.453125 0.359375q-0.28125 0.140625 -0.65625 0.140625l-1.96875 0l5.234375 -6.859375q0.265625 -0.34375 0.484375 -0.65625q0.234375 -0.3125 0.4375 -0.625q-0.65625 0.53125 -1.484375 0.8125q-0.828125 0.265625 -1.75 0.265625zm4.296875 -5.015625q0 -0.8125 -0.265625 -1.46875q-0.25 -0.65625 -0.71875 -1.109375q-0.453125 -0.453125 -1.078125 -0.6875q-0.625 -0.25 -1.390625 -0.25q-0.796875 0 -1.453125 0.265625q-0.640625 0.25 -1.109375 0.703125q-0.453125 0.453125 -0.71875 1.09375q-0.25 0.625 -0.25 1.390625q0 0.8125 0.234375 1.453125q0.234375 0.640625 0.671875 1.09375q0.4375 0.4375 1.0625 0.671875q0.640625 0.21875 1.421875 0.21875q0.859375 0 1.515625 -0.28125q0.671875 -0.28125 1.125 -0.75q0.46875 -0.46875 0.703125 -1.078125q0.25 -0.609375 0.25 -1.265625zm4.232605 3.984375l5.921875 0l0 1.8125l-5.921875 0l0 -1.8125zm11.249939 -9.578125l0 17.671875l-2.140625 0l0 -17.671875l2.140625 0zm12.706543 17.671875l-0.953125 0q-0.3125 0 -0.515625 -0.09375q-0.1875 -0.09375 -0.25 -0.40625l-0.234375 -1.125q-0.484375 0.421875 -0.9375 0.765625q-0.453125 0.34375 -0.953125 0.578125q-0.5 0.234375 -1.078125 0.34375q-0.5625 0.125 -1.265625 0.125q-0.703125 0 -1.328125 -0.1875q-0.609375 -0.203125 -1.078125 -0.59375q-0.453125 -0.40625 -0.71875 -1.0q-0.265625 -0.609375 -0.265625 -1.4375q0 -0.71875 0.390625 -1.390625q0.390625 -0.671875 1.265625 -1.1875q0.890625 -0.515625 2.3125 -0.84375q1.4375 -0.328125 3.5 -0.375l0 -0.953125q0 -1.40625 -0.609375 -2.125q-0.59375 -0.734375 -1.78125 -0.734375q-0.78125 0 -1.328125 0.203125q-0.53125 0.1875 -0.921875 0.4375q-0.390625 0.25 -0.671875 0.453125q-0.28125 0.1875 -0.546875 0.1875q-0.21875 0 -0.390625 -0.109375q-0.15625 -0.125 -0.25 -0.28125l-0.390625 -0.6875q1.015625 -0.96875 2.171875 -1.453125q1.171875 -0.484375 2.578125 -0.484375q1.03125 0 1.8125 0.34375q0.796875 0.328125 1.328125 0.9375q0.546875 0.59375 0.828125 1.453125q0.28125 0.84375 0.28125 1.859375l0 7.78125zm-5.546875 -1.3125q0.5625 0 1.03125 -0.109375q0.46875 -0.109375 0.875 -0.3125q0.421875 -0.21875 0.796875 -0.515625q0.375 -0.3125 0.734375 -0.6875l0 -2.53125q-1.46875 0.046875 -2.5 0.234375q-1.03125 0.1875 -1.6875 0.484375q-0.640625 0.296875 -0.9375 0.703125q-0.296875 0.40625 -0.296875 0.921875q0 0.46875 0.15625 0.828125q0.15625 0.34375 0.421875 0.5625q0.265625 0.21875 0.625 0.328125q0.359375 0.09375 0.78125 0.09375zm12.339966 4.90625q-0.109375 0.234375 -0.265625 0.375q-0.15625 0.140625 -0.5 0.140625l-1.578125 0l2.21875 -4.8125l-5.015625 -11.453125l1.84375 0q0.28125 0 0.4375 0.140625q0.15625 0.140625 0.21875 0.296875l3.25 7.65625q0.109375 0.265625 0.1875 0.53125q0.078125 0.265625 0.140625 0.546875q0.09375 -0.28125 0.171875 -0.546875q0.078125 -0.265625 0.1875 -0.53125l3.15625 -7.65625q0.078125 -0.1875 0.25 -0.3125q0.171875 -0.125 0.375 -0.125l1.703125 0l-6.78125 15.75zm13.538086 -15.9375q1.09375 0 2.015625 0.375q0.921875 0.359375 1.59375 1.046875q0.671875 0.6875 1.046875 1.703125q0.390625 1.015625 0.390625 2.3125q0 0.5 -0.109375 0.671875q-0.109375 0.15625 -0.40625 0.15625l-8.09375 0q0.03125 1.15625 0.3125 2.015625q0.28125 0.84375 0.78125 1.421875q0.515625 0.5625 1.203125 0.84375q0.703125 0.28125 1.5625 0.28125q0.8125 0 1.390625 -0.1875q0.578125 -0.1875 1.0 -0.390625q0.421875 -0.21875 0.703125 -0.40625q0.28125 -0.1875 0.484375 -0.1875q0.265625 0 0.40625 0.203125l0.609375 0.78125q-0.40625 0.484375 -0.953125 0.84375q-0.546875 0.34375 -1.1875 0.578125q-0.625 0.21875 -1.296875 0.328125q-0.671875 0.125 -1.328125 0.125q-1.265625 0 -2.328125 -0.421875q-1.0625 -0.4375 -1.84375 -1.25q-0.765625 -0.828125 -1.203125 -2.03125q-0.421875 -1.21875 -0.421875 -2.796875q0 -1.265625 0.390625 -2.359375q0.390625 -1.109375 1.109375 -1.921875q0.734375 -0.8125 1.796875 -1.265625q1.0625 -0.46875 2.375 -0.46875zm0.046875 1.5625q-1.546875 0 -2.4375 0.90625q-0.890625 0.890625 -1.09375 2.46875l6.609375 0q0 -0.734375 -0.203125 -1.359375q-0.203125 -0.625 -0.609375 -1.0625q-0.390625 -0.453125 -0.96875 -0.703125q-0.5625 -0.25 -1.296875 -0.25zm7.7167206 10.78125l0 -12.15625l1.21875 0q0.359375 0 0.484375 0.140625q0.140625 0.125 0.1875 0.453125l0.140625 1.890625q0.625 -1.265625 1.53125 -1.984375q0.921875 -0.71875 2.1562653 -0.71875q0.515625 0 0.921875 0.125q0.40625 0.109375 0.75 0.3125l-0.265625 1.59375q-0.09375 0.296875 -0.375 0.296875q-0.171875 0 -0.53125 -0.109375q-0.34375 -0.109375 -0.95314026 -0.109375q-1.125 0 -1.875 0.65625q-0.75 0.640625 -1.25 1.875l0 7.734375l-2.140625 0z" fill-rule="nonzero"></path><path fill="#000000" d="m59.704777 219.70575q0.203125 0 0.359375 0.15625l0.90625 0.984375q-1.0625 1.234375 -2.5625 1.921875q-1.5 0.671875 -3.625 0.671875q-1.859375 0 -3.375 -0.640625q-1.515625 -0.640625 -2.59375 -1.796875q-1.0625 -1.15625 -1.65625 -2.765625q-0.578125 -1.625 -0.578125 -3.578125q0 -1.9375 0.625 -3.5625q0.640625 -1.625 1.78125 -2.78125q1.140625 -1.171875 2.71875 -1.8125q1.59375 -0.640625 3.515625 -0.640625q1.890625 0 3.265625 0.59375q1.375 0.578125 2.453125 1.59375l-0.765625 1.0625q-0.078125 0.125 -0.1875 0.203125q-0.109375 0.078125 -0.3125 0.078125q-0.15625 0 -0.328125 -0.109375q-0.171875 -0.125 -0.421875 -0.28125q-0.234375 -0.171875 -0.5625 -0.359375q-0.3125 -0.203125 -0.765625 -0.359375q-0.4375 -0.171875 -1.03125 -0.28125q-0.59375 -0.125 -1.359375 -0.125q-1.375 0 -2.53125 0.484375q-1.140625 0.46875 -1.96875 1.34375q-0.828125 0.875 -1.296875 2.140625q-0.453125 1.25 -0.453125 2.8125q0 1.609375 0.453125 2.875q0.46875 1.25 1.265625 2.125q0.796875 0.875 1.890625 1.328125q1.09375 0.453125 2.359375 0.453125q0.765625 0 1.375 -0.078125q0.609375 -0.09375 1.125 -0.28125q0.53125 -0.203125 0.984375 -0.5q0.453125 -0.296875 0.90625 -0.703125q0.203125 -0.171875 0.390625 -0.171875zm8.908855 -8.796875q1.328125 0 2.40625 0.453125q1.078125 0.4375 1.828125 1.25q0.75 0.8125 1.140625 1.96875q0.40625 1.15625 0.40625 2.59375q0 1.4375 -0.40625 2.59375q-0.390625 1.140625 -1.140625 1.96875q-0.75 0.8125 -1.828125 1.25q-1.078125 0.4375 -2.40625 0.4375q-1.328125 0 -2.40625 -0.4375q-1.078125 -0.4375 -1.828125 -1.25q-0.7499962 -0.828125 -1.1718712 -1.96875q-0.40625 -1.15625 -0.40625 -2.59375q0 -1.4375 0.40625 -2.59375q0.421875 -1.15625 1.1718712 -1.96875q0.75 -0.8125 1.828125 -1.25q1.078125 -0.453125 2.40625 -0.453125zm0 10.84375q1.796875 0 2.6875 -1.203125q0.890625 -1.203125 0.890625 -3.375q0 -2.171875 -0.890625 -3.375q-0.890625 -1.21875 -2.6875 -1.21875q-0.90625 0 -1.578125 0.3125q-0.671875 0.3125 -1.125 0.90625q-0.453125 0.578125 -0.671875 1.4375q-0.21875 0.859375 -0.21875 1.9375q0 1.09375 0.21875 1.953125q0.21875 0.84375 0.671875 1.421875q0.453125 0.578125 1.125 0.890625q0.671875 0.3125 1.578125 0.3125zm8.422226 1.5l0 -12.15625l1.28125 0q0.453125 0 0.5625 0.4375l0.171875 1.328125q0.796875 -0.875 1.765625 -1.40625q0.984375 -0.546875 2.265625 -0.546875q1.0 0 1.75 0.328125q0.765625 0.328125 1.28125 0.9375q0.515625 0.609375 0.78125 1.46875q0.265625 0.84375 0.265625 1.875l0 7.734375l-2.140625 0l0 -7.734375q0 -1.390625 -0.640625 -2.140625q-0.625 -0.765625 -1.921875 -0.765625q-0.9375 0 -1.765625 0.453125q-0.828125 0.453125 -1.515625 1.234375l0 8.953125l-2.140625 0zm11.812851 -12.15625l1.75 0q0.25 0 0.421875 0.140625q0.171875 0.125 0.234375 0.296875l3.09375 7.828125q0.15625 0.4375 0.25 0.875q0.109375 0.421875 0.1875 0.84375q0.09375 -0.421875 0.203125 -0.84375q0.109375 -0.4375 0.28125 -0.875l3.109375 -7.828125q0.078125 -0.1875 0.234375 -0.3125q0.171875 -0.125 0.40625 -0.125l1.671875 0l-4.953125 12.15625l-1.9375 0l-4.953125 -12.15625zm18.74121 -0.1875q1.328125 0 2.40625 0.453125q1.078125 0.4375 1.828125 1.25q0.75 0.8125 1.140625 1.96875q0.40625 1.15625 0.40625 2.59375q0 1.4375 -0.40625 2.59375q-0.390625 1.140625 -1.140625 1.96875q-0.75 0.8125 -1.828125 1.25q-1.078125 0.4375 -2.40625 0.4375q-1.328125 0 -2.40625 -0.4375q-1.078125 -0.4375 -1.828125 -1.25q-0.75 -0.828125 -1.171875 -1.96875q-0.40625 -1.15625 -0.40625 -2.59375q0 -1.4375 0.40625 -2.59375q0.421875 -1.15625 1.171875 -1.96875q0.75 -0.8125 1.828125 -1.25q1.078125 -0.453125 2.40625 -0.453125zm0 10.84375q1.796875 0 2.6875 -1.203125q0.890625 -1.203125 0.890625 -3.375q0 -2.171875 -0.890625 -3.375q-0.890625 -1.21875 -2.6875 -1.21875q-0.90625 0 -1.578125 0.3125q-0.671875 0.3125 -1.125 0.90625q-0.453125 0.578125 -0.671875 1.4375q-0.21875 0.859375 -0.21875 1.9375q0 1.09375 0.21875 1.953125q0.21875 0.84375 0.671875 1.421875q0.453125 0.578125 1.125 0.890625q0.671875 0.3125 1.578125 0.3125zm10.797226 -16.171875l0 17.671875l-2.140625 0l0 -17.671875l2.140625 0zm5.612793 5.515625l0 7.75q0 1.375 0.640625 2.140625q0.640625 0.75 1.921875 0.75q0.9375 0 1.765625 -0.4375q0.828125 -0.453125 1.515625 -1.234375l0 -8.96875l2.140625 0l0 12.15625l-1.265625 0q-0.453125 0 -0.578125 -0.4375l-0.171875 -1.3125q-0.796875 0.875 -1.78125 1.40625q-0.984375 0.53125 -2.25 0.53125q-1.0 0 -1.765625 -0.328125q-0.75 -0.328125 -1.265625 -0.921875q-0.515625 -0.609375 -0.78125 -1.453125q-0.25 -0.859375 -0.25 -1.890625l0 -7.75l2.125 0zm15.187851 12.34375q-1.4375 0 -2.21875 -0.796875q-0.765625 -0.8125 -0.765625 -2.3125l0 -7.453125l-1.46875 0q-0.1875 0 -0.328125 -0.109375q-0.125 -0.109375 -0.125 -0.359375l0 -0.84375l1.984375 -0.25l0.5 -3.765625q0.015625 -0.171875 0.140625 -0.28125q0.140625 -0.125 0.34375 -0.125l1.078125 0l0 4.1875l3.484375 0l0 1.546875l-3.484375 0l0 7.296875q0 0.78125 0.375 1.15625q0.375 0.359375 0.96875 0.359375q0.328125 0 0.578125 -0.078125q0.25 -0.09375 0.421875 -0.203125q0.1875 -0.109375 0.3125 -0.203125q0.125 -0.09375 0.21875 -0.09375q0.171875 0 0.296875 0.203125l0.625 1.03125q-0.546875 0.515625 -1.328125 0.8125q-0.78125 0.28125 -1.609375 0.28125zm7.639557 -12.34375l0 12.15625l-2.140625 0l0 -12.15625l2.140625 0zm0.484375 -3.8125q0 0.3125 -0.125 0.578125q-0.125 0.265625 -0.34375 0.484375q-0.203125 0.203125 -0.484375 0.328125q-0.265625 0.125 -0.578125 0.125q-0.3125 0 -0.59375 -0.125q-0.265625 -0.125 -0.484375 -0.328125q-0.203125 -0.21875 -0.328125 -0.484375q-0.109375 -0.265625 -0.109375 -0.578125q0 -0.3125 0.109375 -0.59375q0.125 -0.28125 0.328125 -0.484375q0.21875 -0.21875 0.484375 -0.34375q0.28125 -0.125 0.59375 -0.125q0.3125 0 0.578125 0.125q0.28125 0.125 0.484375 0.34375q0.21875 0.203125 0.34375 0.484375q0.125 0.28125 0.125 0.59375zm8.206543 3.625q1.328125 0 2.40625 0.453125q1.078125 0.4375 1.828125 1.25q0.75 0.8125 1.140625 1.96875q0.40625 1.15625 0.40625 2.59375q0 1.4375 -0.40625 2.59375q-0.390625 1.140625 -1.140625 1.96875q-0.75 0.8125 -1.828125 1.25q-1.078125 0.4375 -2.40625 0.4375q-1.328125 0 -2.40625 -0.4375q-1.078125 -0.4375 -1.828125 -1.25q-0.75 -0.828125 -1.171875 -1.96875q-0.40625 -1.15625 -0.40625 -2.59375q0 -1.4375 0.40625 -2.59375q0.421875 -1.15625 1.171875 -1.96875q0.75 -0.8125 1.828125 -1.25q1.078125 -0.453125 2.40625 -0.453125zm0 10.84375q1.796875 0 2.6875 -1.203125q0.890625 -1.203125 0.890625 -3.375q0 -2.171875 -0.890625 -3.375q-0.890625 -1.21875 -2.6875 -1.21875q-0.90625 0 -1.578125 0.3125q-0.671875 0.3125 -1.125 0.90625q-0.453125 0.578125 -0.671875 1.4375q-0.21875 0.859375 -0.21875 1.9375q0 1.09375 0.21875 1.953125q0.21875 0.84375 0.671875 1.421875q0.453125 0.578125 1.125 0.890625q0.671875 0.3125 1.578125 0.3125zm8.422226 1.5l0 -12.15625l1.28125 0q0.453125 0 0.5625 0.4375l0.171875 1.328125q0.796875 -0.875 1.765625 -1.40625q0.984375 -0.546875 2.265625 -0.546875q1.0 0 1.75 0.328125q0.765625 0.328125 1.28125 0.9375q0.515625 0.609375 0.78125 1.46875q0.265625 0.84375 0.265625 1.875l0 7.734375l-2.140625 0l0 -7.734375q0 -1.390625 -0.640625 -2.140625q-0.625 -0.765625 -1.921875 -0.765625q-0.9375 0 -1.765625 0.453125q-0.828125 0.453125 -1.515625 1.234375l0 8.953125l-2.140625 0zm22.2816 0l-0.953125 0q-0.3125 0 -0.515625 -0.09375q-0.1875 -0.09375 -0.25 -0.40625l-0.234375 -1.125q-0.484375 0.421875 -0.9375 0.765625q-0.453125 0.34375 -0.953125 0.578125q-0.5 0.234375 -1.078125 0.34375q-0.5625 0.125 -1.265625 0.125q-0.703125 0 -1.328125 -0.1875q-0.609375 -0.203125 -1.078125 -0.59375q-0.453125 -0.40625 -0.71875 -1.0q-0.265625 -0.609375 -0.265625 -1.4375q0 -0.71875 0.390625 -1.390625q0.390625 -0.671875 1.265625 -1.1875q0.890625 -0.515625 2.3125 -0.84375q1.4375 -0.328125 3.5 -0.375l0 -0.953125q0 -1.40625 -0.609375 -2.125q-0.59375 -0.734375 -1.78125 -0.734375q-0.78125 0 -1.328125 0.203125q-0.53125 0.1875 -0.921875 0.4375q-0.390625 0.25 -0.671875 0.453125q-0.28125 0.1875 -0.546875 0.1875q-0.21875 0 -0.390625 -0.109375q-0.15625 -0.125 -0.25 -0.28125l-0.390625 -0.6875q1.015625 -0.96875 2.171875 -1.453125q1.171875 -0.484375 2.578125 -0.484375q1.03125 0 1.8125 0.34375q0.796875 0.328125 1.328125 0.9375q0.546875 0.59375 0.828125 1.453125q0.28125 0.84375 0.28125 1.859375l0 7.78125zm-5.546875 -1.3125q0.5625 0 1.03125 -0.109375q0.46875 -0.109375 0.875 -0.3125q0.421875 -0.21875 0.796875 -0.515625q0.375 -0.3125 0.734375 -0.6875l0 -2.53125q-1.46875 0.046875 -2.5 0.234375q-1.03125 0.1875 -1.6875 0.484375q-0.640625 0.296875 -0.9375 0.703125q-0.296875 0.40625 -0.296875 0.921875q0 0.46875 0.15625 0.828125q0.15625 0.34375 0.421875 0.5625q0.265625 0.21875 0.625 0.328125q0.359375 0.09375 0.78125 0.09375zm11.152466 -16.359375l0 17.671875l-2.140625 0l0 -17.671875l2.140625 0zm9.932327 0.46875q0.3125 0 0.46875 0.078125q0.15625 0.078125 0.34375 0.328125l9.953125 12.953125q-0.03125 -0.3125 -0.046875 -0.59375q-0.015625 -0.296875 -0.015625 -0.578125l0 -12.1875l2.046875 0l0 17.203125l-1.171875 0q-0.28125 0 -0.46875 -0.09375q-0.1875 -0.09375 -0.359375 -0.328125l-9.953125 -12.953125q0.03125 0.3125 0.03125 0.609375q0.015625 0.28125 0.015625 0.515625l0 12.25l-2.03125 0l0 -17.203125l1.1875 0l0 0zm21.425385 4.859375q1.09375 0 2.015625 0.375q0.921875 0.359375 1.59375 1.046875q0.671875 0.6875 1.046875 1.703125q0.390625 1.015625 0.390625 2.3125q0 0.5 -0.109375 0.671875q-0.109375 0.15625 -0.40625 0.15625l-8.09375 0q0.03125 1.15625 0.3125 2.015625q0.28125 0.84375 0.78125 1.421875q0.515625 0.5625 1.203125 0.84375q0.703125 0.28125 1.5625 0.28125q0.8125 0 1.390625 -0.1875q0.578125 -0.1875 1.0 -0.390625q0.421875 -0.21875 0.703125 -0.40625q0.28125 -0.1875 0.484375 -0.1875q0.265625 0 0.40625 0.203125l0.609375 0.78125q-0.40625 0.484375 -0.953125 0.84375q-0.546875 0.34375 -1.1875 0.578125q-0.625 0.21875 -1.296875 0.328125q-0.671875 0.125 -1.328125 0.125q-1.265625 0 -2.328125 -0.421875q-1.0625 -0.4375 -1.84375 -1.25q-0.765625 -0.828125 -1.203125 -2.03125q-0.421875 -1.21875 -0.421875 -2.796875q0 -1.265625 0.390625 -2.359375q0.390625 -1.109375 1.109375 -1.921875q0.734375 -0.8125 1.796875 -1.265625q1.0625 -0.46875 2.375 -0.46875zm0.046875 1.5625q-1.546875 0 -2.4375 0.90625q-0.890625 0.890625 -1.09375 2.46875l6.609375 0q0 -0.734375 -0.203125 -1.359375q-0.203125 -0.625 -0.609375 -1.0625q-0.390625 -0.453125 -0.96875 -0.703125q-0.5625 -0.25 -1.296875 -0.25zm9.560471 -1.375l0 7.75q0 1.375 0.640625 2.140625q0.640625 0.75 1.921875 0.75q0.9375 0 1.765625 -0.4375q0.828125 -0.453125 1.515625 -1.234375l0 -8.96875l2.140625 0l0 12.15625l-1.265625 0q-0.453125 0 -0.578125 -0.4375l-0.171875 -1.3125q-0.796875 0.875 -1.78125 1.40625q-0.984375 0.53125 -2.25 0.53125q-1.0 0 -1.765625 -0.328125q-0.75 -0.328125 -1.265625 -0.921875q-0.515625 -0.609375 -0.78125 -1.453125q-0.25 -0.859375 -0.25 -1.890625l0 -7.75l2.125 0zm11.500351 12.15625l0 -12.15625l1.21875 0q0.359375 0 0.484375 0.140625q0.140625 0.125 0.1875 0.453125l0.140625 1.890625q0.625 -1.265625 1.53125 -1.984375q0.921875 -0.71875 2.15625 -0.71875q0.515625 0 0.921875 0.125q0.40625 0.109375 0.75 0.3125l-0.265625 1.59375q-0.09375 0.296875 -0.375 0.296875q-0.171875 0 -0.53125 -0.109375q-0.34375 -0.109375 -0.953125 -0.109375q-1.125 0 -1.875 0.65625q-0.75 0.640625 -1.25 1.875l0 7.734375l-2.140625 0zm18.609589 0l-0.953125 0q-0.3125 0 -0.515625 -0.09375q-0.1875 -0.09375 -0.25 -0.40625l-0.234375 -1.125q-0.484375 0.421875 -0.9375 0.765625q-0.453125 0.34375 -0.953125 0.578125q-0.5 0.234375 -1.078125 0.34375q-0.5625 0.125 -1.265625 0.125q-0.703125 0 -1.3281403 -0.1875q-0.609375 -0.203125 -1.078125 -0.59375q-0.453125 -0.40625 -0.71875 -1.0q-0.265625 -0.609375 -0.265625 -1.4375q0 -0.71875 0.390625 -1.390625q0.390625 -0.671875 1.265625 -1.1875q0.890625 -0.515625 2.3125153 -0.84375q1.4375 -0.328125 3.5 -0.375l0 -0.953125q0 -1.40625 -0.609375 -2.125q-0.59375 -0.734375 -1.78125 -0.734375q-0.78125 0 -1.328125 0.203125q-0.53125 0.1875 -0.921875 0.4375q-0.39064026 0.25 -0.67189026 0.453125q-0.28125 0.1875 -0.546875 0.1875q-0.21875 0 -0.390625 -0.109375q-0.15625 -0.125 -0.25 -0.28125l-0.390625 -0.6875q1.015625 -0.96875 2.1718903 -1.453125q1.171875 -0.484375 2.578125 -0.484375q1.03125 0 1.8125 0.34375q0.796875 0.328125 1.328125 0.9375q0.546875 0.59375 0.828125 1.453125q0.28125 0.84375 0.28125 1.859375l0 7.78125zm-5.546875 -1.3125q0.5625 0 1.03125 -0.109375q0.46875 -0.109375 0.875 -0.3125q0.421875 -0.21875 0.796875 -0.515625q0.375 -0.3125 0.734375 -0.6875l0 -2.53125q-1.46875 0.046875 -2.5 0.234375q-1.03125 0.1875 -1.6875 0.484375q-0.64064026 0.296875 -0.93751526 0.703125q-0.296875 0.40625 -0.296875 0.921875q0 0.46875 0.15625 0.828125q0.15625 0.34375 0.421875 0.5625q0.26564026 0.21875 0.62501526 0.328125q0.359375 0.09375 0.78125 0.09375zm11.152435 -16.359375l0 17.671875l-2.140625 0l0 -17.671875l2.140625 0zm9.932343 0.46875q0.3125 0 0.46875 0.078125q0.15625 0.078125 0.34375 0.328125l9.953125 12.953125q-0.03125 -0.3125 -0.046875 -0.59375q-0.015625 -0.296875 -0.015625 -0.578125l0 -12.1875l2.046875 0l0 17.203125l-1.171875 0q-0.28125 0 -0.46875 -0.09375q-0.1875 -0.09375 -0.359375 -0.328125l-9.953125 -12.953125q0.03125 0.3125 0.03125 0.609375q0.015625 0.28125 0.015625 0.515625l0 12.25l-2.03125 0l0 -17.203125l1.1875 0l0 0zm21.425385 4.859375q1.09375 0 2.015625 0.375q0.921875 0.359375 1.59375 1.046875q0.671875 0.6875 1.046875 1.703125q0.390625 1.015625 0.390625 2.3125q0 0.5 -0.109375 0.671875q-0.109375 0.15625 -0.40625 0.15625l-8.09375 0q0.03125 1.15625 0.3125 2.015625q0.28125 0.84375 0.78125 1.421875q0.515625 0.5625 1.203125 0.84375q0.703125 0.28125 1.5625 0.28125q0.8125 0 1.390625 -0.1875q0.578125 -0.1875 1.0 -0.390625q0.421875 -0.21875 0.703125 -0.40625q0.28125 -0.1875 0.484375 -0.1875q0.265625 0 0.40625 0.203125l0.609375 0.78125q-0.40625 0.484375 -0.953125 0.84375q-0.546875 0.34375 -1.1875 0.578125q-0.625 0.21875 -1.296875 0.328125q-0.671875 0.125 -1.328125 0.125q-1.265625 0 -2.328125 -0.421875q-1.0625 -0.4375 -1.84375 -1.25q-0.765625 -0.828125 -1.203125 -2.03125q-0.421875 -1.21875 -0.421875 -2.796875q0 -1.265625 0.390625 -2.359375q0.390625 -1.109375 1.109375 -1.921875q0.734375 -0.8125 1.796875 -1.265625q1.0625 -0.46875 2.375 -0.46875zm0.046875 1.5625q-1.546875 0 -2.4375 0.90625q-0.890625 0.890625 -1.09375 2.46875l6.609375 0q0 -0.734375 -0.203125 -1.359375q-0.203125 -0.625 -0.609375 -1.0625q-0.390625 -0.453125 -0.96875 -0.703125q-0.5625 -0.25 -1.296875 -0.25zm11.404236 10.96875q-1.4375 0 -2.21875 -0.796875q-0.765625 -0.8125 -0.765625 -2.3125l0 -7.453125l-1.46875 0q-0.1875 0 -0.328125 -0.109375q-0.125 -0.109375 -0.125 -0.359375l0 -0.84375l1.984375 -0.25l0.5 -3.765625q0.015625 -0.171875 0.140625 -0.28125q0.140625 -0.125 0.34375 -0.125l1.078125 0l0 4.1875l3.484375 0l0 1.546875l-3.484375 0l0 7.296875q0 0.78125 0.375 1.15625q0.375 0.359375 0.96875 0.359375q0.328125 0 0.578125 -0.078125q0.25 -0.09375 0.421875 -0.203125q0.1875 -0.109375 0.3125 -0.203125q0.125 -0.09375 0.21875 -0.09375q0.171875 0 0.296875 0.203125l0.625 1.03125q-0.546875 0.515625 -1.328125 0.8125q-0.78125 0.28125 -1.609375 0.28125zm3.686432 -12.34375l1.671875 0q0.265625 0 0.4375 0.140625q0.171875 0.125 0.234375 0.296875l2.328125 7.828125q0.09375 0.4375 0.171875 0.84375q0.078125 0.390625 0.140625 0.796875q0.09375 -0.40625 0.21875 -0.796875q0.125 -0.40625 0.25 -0.84375l2.578125 -7.875q0.046875 -0.171875 0.203125 -0.296875q0.15625 -0.125 0.375 -0.125l0.921875 0q0.25 0 0.40625 0.125q0.15625 0.125 0.203125 0.296875l2.515625 7.875q0.125 0.421875 0.234375 0.828125q0.109375 0.40625 0.203125 0.8125q0.046875 -0.40625 0.140625 -0.828125q0.109375 -0.4375 0.21875 -0.8125l2.375 -7.828125q0.0625 -0.1875 0.21875 -0.3125q0.171875 -0.125 0.40625 -0.125l1.609375 0l-3.9375 12.15625l-1.703125 0q-0.3125 0 -0.421875 -0.40625l-2.6875 -8.25q-0.09375 -0.265625 -0.15625 -0.546875q-0.0625 -0.28125 -0.125 -0.5625q-0.0625 0.28125 -0.125 0.5625q-0.046875 0.28125 -0.15625 0.5625l-2.71875 8.234375q-0.125 0.40625 -0.484375 0.40625l-1.609375 0l-3.9375 -12.15625zm24.884125 -0.1875q1.328125 0 2.40625 0.453125q1.078125 0.4375 1.828125 1.25q0.75 0.8125 1.140625 1.96875q0.40625 1.15625 0.40625 2.59375q0 1.4375 -0.40625 2.59375q-0.390625 1.140625 -1.140625 1.96875q-0.75 0.8125 -1.828125 1.25q-1.078125 0.4375 -2.40625 0.4375q-1.328125 0 -2.40625 -0.4375q-1.078125 -0.4375 -1.828125 -1.25q-0.75 -0.828125 -1.171875 -1.96875q-0.40625 -1.15625 -0.40625 -2.59375q0 -1.4375 0.40625 -2.59375q0.421875 -1.15625 1.171875 -1.96875q0.75 -0.8125 1.828125 -1.25q1.078125 -0.453125 2.40625 -0.453125zm0 10.84375q1.796875 0 2.6875 -1.203125q0.890625 -1.203125 0.890625 -3.375q0 -2.171875 -0.890625 -3.375q-0.890625 -1.21875 -2.6875 -1.21875q-0.90625 0 -1.578125 0.3125q-0.671875 0.3125 -1.125 0.90625q-0.453125 0.578125 -0.671875 1.4375q-0.21875 0.859375 -0.21875 1.9375q0 1.09375 0.21875 1.953125q0.21875 0.84375 0.671875 1.421875q0.453125 0.578125 1.125 0.890625q0.671875 0.3125 1.578125 0.3125zm8.422241 1.5l0 -12.15625l1.21875 0q0.359375 0 0.484375 0.140625q0.140625 0.125 0.1875 0.453125l0.140625 1.890625q0.625 -1.265625 1.53125 -1.984375q0.921875 -0.71875 2.15625 -0.71875q0.515625 0 0.921875 0.125q0.40625 0.109375 0.75 0.3125l-0.265625 1.59375q-0.09375 0.296875 -0.375 0.296875q-0.171875 0 -0.53125 -0.109375q-0.34375 -0.109375 -0.953125 -0.109375q-1.125 0 -1.875 0.65625q-0.75 0.640625 -1.25 1.875l0 7.734375l-2.140625 0zm11.890808 -17.671875l0 10.40625l0.5625 0q0.234375 0 0.390625 -0.0625q0.15625 -0.078125 0.34375 -0.28125l3.84375 -4.109375q0.171875 -0.203125 0.34375 -0.3125q0.1875 -0.125 0.5 -0.125l1.9375 0l-4.46875 4.765625q-0.171875 0.203125 -0.34375 0.359375q-0.15625 0.15625 -0.359375 0.28125q0.21875 0.140625 0.390625 0.328125q0.171875 0.1875 0.328125 0.421875l4.75 6.0l-1.921875 0q-0.25 0 -0.4375 -0.09375q-0.1875 -0.109375 -0.359375 -0.328125l-4.0 -4.984375q-0.171875 -0.25 -0.359375 -0.328125q-0.171875 -0.078125 -0.53125 -0.078125l-0.609375 0l0 5.8125l-2.140625 0l0 -17.671875l2.140625 0z" fill-rule="nonzero"></path><path fill="#f4cccc" d="m7.0446725 272.44635l400.22046 0l0 40.944885l-400.22046 0z" fill-rule="evenodd"></path><path stroke="#000000" stroke-width="1.0" stroke-linejoin="round" stroke-linecap="butt" d="m7.0446725 272.44635l400.22046 0l0 40.944885l-400.22046 0z" fill-rule="evenodd"></path><path fill="#000000" d="m59.20669 299.83878l-1.4375 0q-0.234375 0 -0.390625 -0.125q-0.15625 -0.125 -0.234375 -0.3125l-1.265625 -3.28125l-6.109375 0l-1.28125 3.28125q-0.0625 0.171875 -0.234375 0.3125q-0.15625 0.125 -0.390625 0.125l-1.421875 0l5.4375 -13.609375l1.875 0l5.453125 13.609375zm-8.921875 -5.046875l5.078125 0l-2.140625 -5.546875q-0.203125 -0.515625 -0.40625 -1.28125q-0.109375 0.390625 -0.203125 0.71875q-0.09375 0.328125 -0.1875 0.578125l-2.140625 5.53125zm10.139374 5.046875l0 -9.625l0.96875 0q0.265625 0 0.375 0.109375q0.109375 0.09375 0.140625 0.359375l0.125 1.5q0.484375 -1.0 1.203125 -1.5625q0.734375 -0.578125 1.7187462 -0.578125q0.390625 0 0.71875 0.09375q0.328125 0.09375 0.59375 0.25l-0.21875 1.265625q-0.0625 0.234375 -0.296875 0.234375q-0.125 0 -0.40625 -0.078125q-0.265625 -0.09375 -0.765625 -0.09375q-0.8749962 0 -1.4687462 0.515625q-0.59375 0.5 -1.0 1.484375l0 6.125l-1.6875 0zm9.393459 -9.625l0 9.625l-1.6875 0l0 -9.625l1.6875 0zm0.375 -3.015625q0 0.25 -0.09375 0.46875q-0.09375 0.203125 -0.265625 0.375q-0.171875 0.15625 -0.390625 0.25q-0.21875 0.09375 -0.453125 0.09375q-0.25 0 -0.46875 -0.09375q-0.21875 -0.09375 -0.390625 -0.25q-0.15625 -0.171875 -0.25 -0.375q-0.09375 -0.21875 -0.09375 -0.46875q0 -0.25 0.09375 -0.46875q0.09375 -0.234375 0.25 -0.390625q0.171875 -0.171875 0.390625 -0.265625q0.21875 -0.09375 0.46875 -0.09375q0.234375 0 0.453125 0.09375q0.21875 0.09375 0.390625 0.265625q0.171875 0.15625 0.265625 0.390625q0.09375 0.21875 0.09375 0.46875zm5.432251 12.796875q-1.140625 0 -1.75 -0.640625q-0.609375 -0.640625 -0.609375 -1.828125l0 -5.890625l-1.15625 0q-0.15625 0 -0.265625 -0.09375q-0.09375 -0.09375 -0.09375 -0.28125l0 -0.671875l1.578125 -0.203125l0.390625 -2.96875q0.015625 -0.140625 0.109375 -0.234375q0.109375 -0.09375 0.28125 -0.09375l0.84375 0l0 3.3125l2.765625 0l0 1.234375l-2.765625 0l0 5.765625q0 0.609375 0.296875 0.90625q0.296875 0.296875 0.765625 0.296875q0.265625 0 0.453125 -0.0625q0.203125 -0.078125 0.34375 -0.15625q0.140625 -0.09375 0.234375 -0.15625q0.109375 -0.078125 0.1875 -0.078125q0.125 0 0.234375 0.15625l0.484375 0.8125q-0.4375 0.40625 -1.0625 0.640625q-0.609375 0.234375 -1.265625 0.234375zm4.052536 -0.15625l0 -14.0l1.6875 0l0 5.671875q0.625 -0.65625 1.375 -1.046875q0.75 -0.40625 1.71875 -0.40625q0.796875 0 1.390625 0.265625q0.609375 0.265625 1.015625 0.75q0.40625 0.46875 0.609375 1.15625q0.203125 0.671875 0.203125 1.484375l0 6.125l-1.6875 0l0 -6.125q0 -1.09375 -0.5 -1.6875q-0.5 -0.609375 -1.515625 -0.609375q-0.75 0 -1.40625 0.359375q-0.65625 0.359375 -1.203125 0.96875l0 7.09375l-1.6875 0zm10.372879 0l0 -9.625l1.0 0q0.359375 0 0.453125 0.359375l0.125 0.984375q0.53125 -0.65625 1.1875 -1.078125q0.671875 -0.421875 1.546875 -0.421875q0.96875 0 1.578125 0.546875q0.609375 0.546875 0.875 1.46875q0.1875 -0.53125 0.515625 -0.90625q0.328125 -0.375 0.734375 -0.625q0.421875 -0.25 0.875 -0.359375q0.46875 -0.125 0.9375 -0.125q0.765625 0 1.359375 0.25q0.59375 0.234375 1.0 0.703125q0.421875 0.46875 0.640625 1.15625q0.21875 0.671875 0.21875 1.546875l0 6.125l-1.703125 0l0 -6.125q0 -1.140625 -0.5 -1.71875q-0.484375 -0.578125 -1.421875 -0.578125q-0.421875 0 -0.796875 0.15625q-0.375 0.140625 -0.65625 0.421875q-0.28125 0.28125 -0.453125 0.71875q-0.171875 0.421875 -0.171875 1.0l0 6.125l-1.6875 0l0 -6.125q0 -1.15625 -0.46875 -1.71875q-0.453125 -0.578125 -1.359375 -0.578125q-0.625 0 -1.15625 0.34375q-0.53125 0.328125 -0.984375 0.90625l0 7.171875l-1.6875 0zm19.129288 -9.78125q0.859375 0 1.59375 0.296875q0.734375 0.28125 1.265625 0.828125q0.53125 0.546875 0.828125 1.359375q0.296875 0.796875 0.296875 1.828125q0 0.390625 -0.09375 0.53125q-0.078125 0.125 -0.3125 0.125l-6.40625 0q0.015625 0.921875 0.234375 1.59375q0.234375 0.671875 0.625 1.125q0.40625 0.453125 0.953125 0.671875q0.5625 0.21875 1.25 0.21875q0.640625 0 1.09375 -0.140625q0.453125 -0.140625 0.78125 -0.3125q0.34375 -0.171875 0.5625 -0.3125q0.234375 -0.15625 0.390625 -0.15625q0.203125 0 0.328125 0.15625l0.46875 0.625q-0.3125 0.375 -0.75 0.65625q-0.4375 0.28125 -0.9375 0.46875q-0.5 0.171875 -1.03125 0.265625q-0.53125 0.09375 -1.046875 0.09375q-1.0 0 -1.84375 -0.34375q-0.84375 -0.34375 -1.453125 -0.984375q-0.609375 -0.65625 -0.953125 -1.609375q-0.34375 -0.96875 -0.34375 -2.203125q0 -1.015625 0.3125 -1.890625q0.3125 -0.875 0.890625 -1.515625q0.578125 -0.640625 1.40625 -1.0q0.84375 -0.375 1.890625 -0.375zm0.03125 1.25q-1.21875 0 -1.921875 0.71875q-0.703125 0.703125 -0.875 1.953125l5.234375 0q0 -0.59375 -0.171875 -1.078125q-0.15625 -0.484375 -0.46875 -0.84375q-0.3125 -0.359375 -0.765625 -0.546875q-0.453125 -0.203125 -1.03125 -0.203125zm8.838379 8.6875q-1.140625 0 -1.75 -0.640625q-0.609375 -0.640625 -0.609375 -1.828125l0 -5.890625l-1.15625 0q-0.15625 0 -0.265625 -0.09375q-0.09375 -0.09375 -0.09375 -0.28125l0 -0.671875l1.578125 -0.203125l0.390625 -2.96875q0.015625 -0.140625 0.109375 -0.234375q0.109375 -0.09375 0.28125 -0.09375l0.84375 0l0 3.3125l2.765625 0l0 1.234375l-2.765625 0l0 5.765625q0 0.609375 0.296875 0.90625q0.296875 0.296875 0.765625 0.296875q0.265625 0 0.453125 -0.0625q0.203125 -0.078125 0.34375 -0.15625q0.140625 -0.09375 0.234375 -0.15625q0.109375 -0.078125 0.1875 -0.078125q0.125 0 0.234375 0.15625l0.484375 0.8125q-0.4375 0.40625 -1.0625 0.640625q-0.609375 0.234375 -1.265625 0.234375zm5.927536 -9.78125l0 9.625l-1.6875 0l0 -9.625l1.6875 0zm0.375 -3.015625q0 0.25 -0.09375 0.46875q-0.09375 0.203125 -0.265625 0.375q-0.171875 0.15625 -0.390625 0.25q-0.21875 0.09375 -0.453125 0.09375q-0.25 0 -0.46875 -0.09375q-0.21875 -0.09375 -0.390625 -0.25q-0.15625 -0.171875 -0.25 -0.375q-0.09375 -0.21875 -0.09375 -0.46875q0 -0.25 0.09375 -0.46875q0.09375 -0.234375 0.25 -0.390625q0.171875 -0.171875 0.390625 -0.265625q0.21875 -0.09375 0.46875 -0.09375q0.234375 0 0.453125 0.09375q0.21875 0.09375 0.390625 0.265625q0.171875 0.15625 0.265625 0.390625q0.09375 0.21875 0.09375 0.46875zm9.088509 4.734375q-0.078125 0.09375 -0.15625 0.15625q-0.078125 0.0625 -0.21875 0.0625q-0.140625 0 -0.3125 -0.125q-0.15625 -0.125 -0.421875 -0.265625q-0.25 -0.140625 -0.625 -0.25q-0.359375 -0.125 -0.890625 -0.125q-0.703125 0 -1.25 0.25q-0.53125 0.25 -0.90625 0.734375q-0.359375 0.46875 -0.546875 1.140625q-0.18750763 0.671875 -0.18750763 1.515625q0 0.875 0.20313263 1.5625q0.203125 0.671875 0.5625 1.140625q0.359375 0.453125 0.875 0.703125q0.515625 0.234375 1.171875 0.234375q0.609375 0 1.0 -0.140625q0.40625 -0.15625 0.671875 -0.328125q0.265625 -0.1875 0.4375 -0.328125q0.171875 -0.15625 0.34375 -0.15625q0.21875 0 0.328125 0.15625l0.46875 0.625q-0.625 0.765625 -1.5625 1.125q-0.9375 0.359375 -1.984375 0.359375q-0.90625 0 -1.6875 -0.328125q-0.7656326 -0.34375 -1.3437576 -0.96875q-0.5625 -0.640625 -0.890625 -1.5625q-0.328125 -0.921875 -0.328125 -2.09375q0 -1.078125 0.296875 -1.984375q0.296875 -0.921875 0.875 -1.578125q0.578125 -0.65625 1.4218826 -1.03125q0.84375 -0.375 1.9375 -0.375q1.0 0 1.78125 0.328125q0.78125 0.328125 1.375 0.9375l-0.4375 0.609375zm5.7506256 7.90625l0 -9.625l1.0 0q0.359375 0 0.453125 0.359375l0.125 0.984375q0.53125 -0.65625 1.1875 -1.078125q0.671875 -0.421875 1.546875 -0.421875q0.96875 0 1.578125 0.546875q0.609375 0.546875 0.875 1.46875q0.1875 -0.53125 0.515625 -0.90625q0.328125 -0.375 0.734375 -0.625q0.421875 -0.25 0.875 -0.359375q0.46875 -0.125 0.9375 -0.125q0.765625 0 1.359375 0.25q0.59375 0.234375 1.0 0.703125q0.421875 0.46875 0.640625 1.15625q0.21875 0.671875 0.21875 1.546875l0 6.125l-1.703125 0l0 -6.125q0 -1.140625 -0.5 -1.71875q-0.484375 -0.578125 -1.421875 -0.578125q-0.421875 0 -0.796875 0.15625q-0.375 0.140625 -0.65625 0.421875q-0.28125 0.28125 -0.453125 0.71875q-0.171875 0.421875 -0.171875 1.0l0 6.125l-1.6875 0l0 -6.125q0 -1.15625 -0.46875 -1.71875q-0.453125 -0.578125 -1.359375 -0.578125q-0.625 0 -1.15625 0.34375q-0.53125 0.328125 -0.984375 0.90625l0 7.171875l-1.6875 0zm19.129288 -9.78125q0.859375 0 1.59375 0.296875q0.734375 0.28125 1.265625 0.828125q0.53125 0.546875 0.828125 1.359375q0.296875 0.796875 0.296875 1.828125q0 0.390625 -0.09375 0.53125q-0.078125 0.125 -0.3125 0.125l-6.40625 0q0.015625 0.921875 0.234375 1.59375q0.234375 0.671875 0.625 1.125q0.40625 0.453125 0.953125 0.671875q0.5625 0.21875 1.25 0.21875q0.640625 0 1.09375 -0.140625q0.453125 -0.140625 0.78125 -0.3125q0.34375 -0.171875 0.5625 -0.3125q0.234375 -0.15625 0.390625 -0.15625q0.203125 0 0.328125 0.15625l0.46875 0.625q-0.3125 0.375 -0.75 0.65625q-0.4375 0.28125 -0.9375 0.46875q-0.5 0.171875 -1.03125 0.265625q-0.53125 0.09375 -1.046875 0.09375q-1.0 0 -1.84375 -0.34375q-0.84375 -0.34375 -1.453125 -0.984375q-0.609375 -0.65625 -0.953125 -1.609375q-0.34375 -0.96875 -0.34375 -2.203125q0 -1.015625 0.3125 -1.890625q0.3125 -0.875 0.890625 -1.515625q0.578125 -0.640625 1.40625 -1.0q0.84375 -0.375 1.890625 -0.375zm0.03125 1.25q-1.21875 0 -1.921875 0.71875q-0.703125 0.703125 -0.875 1.953125l5.234375 0q0 -0.59375 -0.171875 -1.078125q-0.15625 -0.484375 -0.46875 -0.84375q-0.3125 -0.359375 -0.765625 -0.546875q-0.453125 -0.203125 -1.03125 -0.203125zm12.994629 8.53125l-0.75 0q-0.25 0 -0.40625 -0.078125q-0.140625 -0.078125 -0.1875 -0.328125l-0.1875 -0.890625q-0.390625 0.34375 -0.75 0.625q-0.359375 0.265625 -0.765625 0.453125q-0.390625 0.1875 -0.84375 0.28125q-0.453125 0.09375 -1.0 0.09375q-0.5625 0 -1.046875 -0.15625q-0.484375 -0.15625 -0.859375 -0.46875q-0.359375 -0.3125 -0.578125 -0.796875q-0.203125 -0.484375 -0.203125 -1.140625q0 -0.5625 0.3125 -1.09375q0.3125 -0.53125 1.0 -0.9375q0.703125 -0.40625 1.828125 -0.671875q1.140625 -0.265625 2.78125 -0.296875l0 -0.75q0 -1.125 -0.484375 -1.6875q-0.484375 -0.578125 -1.421875 -0.578125q-0.609375 0 -1.046875 0.15625q-0.421875 0.15625 -0.734375 0.359375q-0.296875 0.1875 -0.53125 0.34375q-0.21875 0.15625 -0.4375 0.15625q-0.171875 0 -0.296875 -0.09375q-0.125 -0.09375 -0.203125 -0.21875l-0.296875 -0.546875q0.796875 -0.765625 1.71875 -1.140625q0.921875 -0.390625 2.03125 -0.390625q0.8125 0 1.4375 0.265625q0.625 0.265625 1.046875 0.75q0.4375 0.46875 0.65625 1.140625q0.21875 0.671875 0.21875 1.484375l0 6.15625zm-4.390625 -1.03125q0.453125 0 0.8125 -0.09375q0.375 -0.09375 0.703125 -0.25q0.328125 -0.171875 0.625 -0.40625q0.296875 -0.25 0.59375 -0.546875l0 -2.0q-1.171875 0.03125 -2.0 0.1875q-0.8125 0.140625 -1.328125 0.375q-0.5 0.234375 -0.734375 0.5625q-0.234375 0.328125 -0.234375 0.71875q0 0.390625 0.125 0.671875q0.125 0.265625 0.328125 0.4375q0.203125 0.171875 0.484375 0.265625q0.296875 0.078125 0.625 0.078125zm6.78685 1.03125l0 -9.625l1.0 0q0.359375 0 0.453125 0.359375l0.140625 1.03125q0.625 -0.6875 1.390625 -1.109375q0.78125 -0.4375 1.796875 -0.4375q0.796875 0 1.390625 0.265625q0.609375 0.265625 1.015625 0.75q0.40625 0.46875 0.609375 1.15625q0.203125 0.671875 0.203125 1.484375l0 6.125l-1.6875 0l0 -6.125q0 -1.09375 -0.5 -1.6875q-0.5 -0.609375 -1.515625 -0.609375q-0.75 0 -1.40625 0.359375q-0.65625 0.359375 -1.203125 0.96875l0 7.09375l-1.6875 0zm17.864166 -9.78125q1.0625 0 1.90625 0.359375q0.84375 0.34375 1.4375 1.0q0.59375 0.640625 0.90625 1.5625q0.328125 0.90625 0.328125 2.046875q0 1.140625 -0.328125 2.046875q-0.3125 0.90625 -0.90625 1.5625q-0.59375 0.640625 -1.4375 1.0q-0.84375 0.34375 -1.90625 0.34375q-1.046875 0 -1.90625 -0.34375q-0.84375 -0.359375 -1.453125 -1.0q-0.59375 -0.65625 -0.921875 -1.5625q-0.3125 -0.90625 -0.3125 -2.046875q0 -1.140625 0.3125 -2.046875q0.328125 -0.921875 0.921875 -1.5625q0.609375 -0.65625 1.453125 -1.0q0.859375 -0.359375 1.90625 -0.359375zm0 8.59375q1.421875 0 2.125 -0.953125q0.703125 -0.953125 0.703125 -2.671875q0 -1.71875 -0.703125 -2.671875q-0.703125 -0.96875 -2.125 -0.96875q-0.71875 0 -1.25 0.25q-0.53125 0.25 -0.890625 0.71875q-0.359375 0.46875 -0.53125 1.15625q-0.171875 0.671875 -0.171875 1.515625q0 0.859375 0.171875 1.53125q0.171875 0.671875 0.53125 1.140625q0.359375 0.453125 0.890625 0.703125q0.53125 0.25 1.25 0.25zm6.857254 1.1875l0 -8.171875l-1.0625 -0.125q-0.203125 -0.046875 -0.328125 -0.140625q-0.125 -0.109375 -0.125 -0.296875l0 -0.703125l1.515625 0l0 -0.921875q0 -0.828125 0.234375 -1.46875q0.234375 -0.640625 0.65625 -1.078125q0.4375 -0.453125 1.046875 -0.671875q0.609375 -0.234375 1.375 -0.234375q0.640625 0 1.1875 0.1875l-0.03125 0.84375q-0.015625 0.1875 -0.171875 0.234375q-0.140625 0.03125 -0.421875 0.03125l-0.296875 0q-0.4375 0 -0.796875 0.125q-0.34375 0.109375 -0.609375 0.375q-0.25 0.25 -0.390625 0.671875q-0.140625 0.40625 -0.140625 1.03125l0 0.875l2.78125 0l0 1.234375l-2.71875 0l0 8.203125l-1.703125 0zm13.403442 -9.78125q1.0625 0 1.90625 0.359375q0.84375 0.34375 1.4375 1.0q0.59375 0.640625 0.90625 1.5625q0.328125 0.90625 0.328125 2.046875q0 1.140625 -0.328125 2.046875q-0.3125 0.90625 -0.90625 1.5625q-0.59375 0.640625 -1.4375 1.0q-0.84375 0.34375 -1.90625 0.34375q-1.046875 0 -1.90625 -0.34375q-0.84375 -0.359375 -1.453125 -1.0q-0.59375 -0.65625 -0.921875 -1.5625q-0.3125 -0.90625 -0.3125 -2.046875q0 -1.140625 0.3125 -2.046875q0.328125 -0.921875 0.921875 -1.5625q0.609375 -0.65625 1.453125 -1.0q0.859375 -0.359375 1.90625 -0.359375zm0 8.59375q1.421875 0 2.125 -0.953125q0.703125 -0.953125 0.703125 -2.671875q0 -1.71875 -0.703125 -2.671875q-0.703125 -0.96875 -2.125 -0.96875q-0.71875 0 -1.25 0.25q-0.53125 0.25 -0.890625 0.71875q-0.359375 0.46875 -0.53125 1.15625q-0.171875 0.671875 -0.171875 1.515625q0 0.859375 0.171875 1.53125q0.171875 0.671875 0.53125 1.140625q0.359375 0.453125 0.890625 0.703125q0.53125 0.25 1.25 0.25zm7.935379 -8.4375l0 6.140625q0 1.09375 0.5 1.6875q0.515625 0.59375 1.53125 0.59375q0.734375 0 1.390625 -0.34375q0.65625 -0.359375 1.203125 -0.984375l0 -7.09375l1.703125 0l0 9.625l-1.015625 0q-0.359375 0 -0.453125 -0.34375l-0.125 -1.046875q-0.640625 0.703125 -1.421875 1.125q-0.765625 0.421875 -1.78125 0.421875q-0.78125 0 -1.390625 -0.265625q-0.59375 -0.265625 -1.015625 -0.734375q-0.40625 -0.484375 -0.609375 -1.15625q-0.203125 -0.671875 -0.203125 -1.484375l0 -6.140625l1.6875 0zm11.826004 9.78125q-1.140625 0 -1.75 -0.640625q-0.609375 -0.640625 -0.609375 -1.828125l0 -5.890625l-1.15625 0q-0.15625 0 -0.265625 -0.09375q-0.09375 -0.09375 -0.09375 -0.28125l0 -0.671875l1.578125 -0.203125l0.390625 -2.96875q0.015625 -0.140625 0.109375 -0.234375q0.109375 -0.09375 0.28125 -0.09375l0.84375 0l0 3.3125l2.765625 0l0 1.234375l-2.765625 0l0 5.765625q0 0.609375 0.296875 0.90625q0.296875 0.296875 0.765625 0.296875q0.265625 0 0.453125 -0.0625q0.203125 -0.078125 0.34375 -0.15625q0.140625 -0.09375 0.234375 -0.15625q0.109375 -0.078125 0.1875 -0.078125q0.125 0 0.234375 0.15625l0.484375 0.8125q-0.4375 0.40625 -1.0625 0.640625q-0.609375 0.234375 -1.265625 0.234375zm4.052536 3.109375l0 -12.890625l1.0 0q0.359375 0 0.453125 0.359375l0.15625 1.140625q0.609375 -0.75 1.40625 -1.203125q0.796875 -0.46875 1.828125 -0.46875q0.828125 0 1.5 0.328125q0.671875 0.3125 1.140625 0.9375q0.484375 0.625 0.734375 1.546875q0.265625 0.90625 0.265625 2.109375q0 1.0625 -0.296875 1.984375q-0.28125 0.921875 -0.8125 1.59375q-0.53125 0.65625 -1.3125 1.046875q-0.765625 0.390625 -1.734375 0.390625q-0.890625 0 -1.53125 -0.296875q-0.625 -0.296875 -1.109375 -0.84375l0 4.265625l-1.6875 0zm4.28125 -11.6875q-0.828125 0 -1.453125 0.375q-0.625 0.375 -1.140625 1.078125l0 4.65625q0.46875 0.625 1.015625 0.890625q0.5625 0.25 1.25 0.25q1.328125 0 2.046875 -0.953125q0.734375 -0.96875 0.734375 -2.75q0 -0.9375 -0.171875 -1.609375q-0.15625 -0.671875 -0.484375 -1.109375q-0.3125 -0.4375 -0.765625 -0.625q-0.453125 -0.203125 -1.03125 -0.203125zm7.4701233 -1.203125l0 6.140625q0 1.09375 0.5 1.6875q0.515625 0.59375 1.53125 0.59375q0.734375 0 1.390625 -0.34375q0.65625 -0.359375 1.203125 -0.984375l0 -7.09375l1.703125 0l0 9.625l-1.015625 0q-0.359375 0 -0.453125 -0.34375l-0.125 -1.046875q-0.640625 0.703125 -1.421875 1.125q-0.765625 0.421875 -1.78125 0.421875q-0.78125 0 -1.390625 -0.265625q-0.59375 -0.265625 -1.015625 -0.734375q-0.40625 -0.484375 -0.609375 -1.15625q-0.203125 -0.671875 -0.203125 -1.484375l0 -6.140625l1.6875 0zm11.826004 9.78125q-1.140625 0 -1.75 -0.640625q-0.609375 -0.640625 -0.609375 -1.828125l0 -5.890625l-1.15625 0q-0.15625 0 -0.265625 -0.09375q-0.09375 -0.09375 -0.09375 -0.28125l0 -0.671875l1.578125 -0.203125l0.390625 -2.96875q0.015625 -0.140625 0.109375 -0.234375q0.109375 -0.09375 0.28125 -0.09375l0.84375 0l0 3.3125l2.765625 0l0 1.234375l-2.765625 0l0 5.765625q0 0.609375 0.296875 0.90625q0.296875 0.296875 0.765625 0.296875q0.265625 0 0.453125 -0.0625q0.203125 -0.078125 0.34375 -0.15625q0.140625 -0.09375 0.234375 -0.15625q0.109375 -0.078125 0.1875 -0.078125q0.125 0 0.234375 0.15625l0.484375 0.8125q-0.4375 0.40625 -1.0625 0.640625q-0.609375 0.234375 -1.265625 0.234375zm7.6531982 3.109375l0 -12.890625l1.0 0q0.359375 0 0.453125 0.359375l0.15625 1.140625q0.609375 -0.75 1.40625 -1.203125q0.796875 -0.46875 1.828125 -0.46875q0.828125 0 1.5 0.328125q0.671875 0.3125 1.140625 0.9375q0.484375 0.625 0.734375 1.546875q0.265625 0.90625 0.265625 2.109375q0 1.0625 -0.296875 1.984375q-0.28125 0.921875 -0.8125 1.59375q-0.53125 0.65625 -1.3125 1.046875q-0.765625 0.390625 -1.734375 0.390625q-0.890625 0 -1.53125 -0.296875q-0.625 -0.296875 -1.109375 -0.84375l0 4.265625l-1.6875 0zm4.28125 -11.6875q-0.828125 0 -1.453125 0.375q-0.625 0.375 -1.140625 1.078125l0 4.65625q0.46875 0.625 1.015625 0.890625q0.5625 0.25 1.25 0.25q1.328125 0 2.046875 -0.953125q0.734375 -0.96875 0.734375 -2.75q0 -0.9375 -0.171875 -1.609375q-0.15625 -0.671875 -0.484375 -1.109375q-0.3125 -0.4375 -0.765625 -0.625q-0.453125 -0.203125 -1.03125 -0.203125zm6.0169983 8.421875l0 -9.625l0.96875 0q0.265625 0 0.375 0.109375q0.109375 0.09375 0.140625 0.359375l0.125 1.5q0.484375 -1.0 1.203125 -1.5625q0.734375 -0.578125 1.71875 -0.578125q0.390625 0 0.71875 0.09375q0.328125 0.09375 0.59375 0.25l-0.21875 1.265625q-0.0625 0.234375 -0.296875 0.234375q-0.125 0 -0.40625 -0.078125q-0.265625 -0.09375 -0.765625 -0.09375q-0.875 0 -1.46875 0.515625q-0.59375 0.5 -1.0 1.484375l0 6.125l-1.6875 0zm11.409088 -9.78125q1.0625 0 1.90625 0.359375q0.84375 0.34375 1.4375 1.0q0.59375 0.640625 0.90625 1.5625q0.328125 0.90625 0.328125 2.046875q0 1.140625 -0.328125 2.046875q-0.3125 0.90625 -0.90625 1.5625q-0.59375 0.640625 -1.4375 1.0q-0.84375 0.34375 -1.90625 0.34375q-1.046875 0 -1.90625 -0.34375q-0.84375 -0.359375 -1.453125 -1.0q-0.59375 -0.65625 -0.921875 -1.5625q-0.3125 -0.90625 -0.3125 -2.046875q0 -1.140625 0.3125 -2.046875q0.328125 -0.921875 0.921875 -1.5625q0.609375 -0.65625 1.453125 -1.0q0.859375 -0.359375 1.90625 -0.359375zm0 8.59375q1.421875 0 2.125 -0.953125q0.703125 -0.953125 0.703125 -2.671875q0 -1.71875 -0.703125 -2.671875q-0.703125 -0.96875 -2.125 -0.96875q-0.71875 0 -1.25 0.25q-0.53125 0.25 -0.890625 0.71875q-0.359375 0.46875 -0.53125 1.15625q-0.171875 0.671875 -0.171875 1.515625q0 0.859375 0.171875 1.53125q0.171875 0.671875 0.53125 1.140625q0.359375 0.453125 0.890625 0.703125q0.53125 0.25 1.25 0.25zm6.5291443 1.1875l0 -14.0l1.703125 0l0 5.765625q0.609375 -0.703125 1.375 -1.125q0.78125 -0.421875 1.765625 -0.421875q0.84375 0 1.515625 0.3125q0.671875 0.3125 1.140625 0.9375q0.484375 0.625 0.734375 1.546875q0.265625 0.90625 0.265625 2.109375q0 1.0625 -0.296875 1.984375q-0.28125 0.921875 -0.8125 1.59375q-0.53125 0.65625 -1.3125 1.046875q-0.765625 0.390625 -1.734375 0.390625q-0.9375 0 -1.59375 -0.359375q-0.640625 -0.375 -1.125 -1.015625l-0.09375 0.875q-0.078125 0.359375 -0.4375 0.359375l-1.09375 0zm4.296875 -8.421875q-0.828125 0 -1.453125 0.375q-0.609375 0.375 -1.140625 1.078125l0 4.65625q0.453125 0.625 1.015625 0.890625q0.5625 0.25 1.234375 0.25q1.359375 0 2.078125 -0.953125q0.71875 -0.96875 0.71875 -2.75q0 -0.9375 -0.171875 -1.609375q-0.15625 -0.671875 -0.46875 -1.109375q-0.3125 -0.4375 -0.78125 -0.625q-0.453125 -0.203125 -1.03125 -0.203125zm13.147583 8.421875l-0.75 0q-0.25 0 -0.40625 -0.078125q-0.140625 -0.078125 -0.1875 -0.328125l-0.1875 -0.890625q-0.390625 0.34375 -0.75 0.625q-0.359375 0.265625 -0.765625 0.453125q-0.390625 0.1875 -0.84375 0.28125q-0.453125 0.09375 -1.0 0.09375q-0.5625 0 -1.046875 -0.15625q-0.484375 -0.15625 -0.859375 -0.46875q-0.359375 -0.3125 -0.578125 -0.796875q-0.203125 -0.484375 -0.203125 -1.140625q0 -0.5625 0.3125 -1.09375q0.3125 -0.53125 1.0 -0.9375q0.703125 -0.40625 1.828125 -0.671875q1.140625 -0.265625 2.78125 -0.296875l0 -0.75q0 -1.125 -0.484375 -1.6875q-0.484375 -0.578125 -1.421875 -0.578125q-0.609375 0 -1.046875 0.15625q-0.421875 0.15625 -0.734375 0.359375q-0.296875 0.1875 -0.53125 0.34375q-0.21875 0.15625 -0.4375 0.15625q-0.171875 0 -0.296875 -0.09375q-0.125 -0.09375 -0.203125 -0.21875l-0.296875 -0.546875q0.796875 -0.765625 1.71875 -1.140625q0.921875 -0.390625 2.03125 -0.390625q0.8125 0 1.4375 0.265625q0.625 0.265625 1.046875 0.75q0.4375 0.46875 0.65625 1.140625q0.21875 0.671875 0.21875 1.484375l0 6.15625zm-4.390625 -1.03125q0.453125 0 0.8125 -0.09375q0.375 -0.09375 0.703125 -0.25q0.328125 -0.171875 0.625 -0.40625q0.296875 -0.25 0.59375 -0.546875l0 -2.0q-1.171875 0.03125 -2.0 0.1875q-0.8125 0.140625 -1.328125 0.375q-0.5 0.234375 -0.734375 0.5625q-0.234375 0.328125 -0.234375 0.71875q0 0.390625 0.125 0.671875q0.125 0.265625 0.328125 0.4375q0.203125 0.171875 0.484375 0.265625q0.296875 0.078125 0.625 0.078125zm6.8337097 1.03125l0 -14.0l1.703125 0l0 5.765625q0.609375 -0.703125 1.375 -1.125q0.78125 -0.421875 1.765625 -0.421875q0.84375 0 1.515625 0.3125q0.671875 0.3125 1.140625 0.9375q0.484375 0.625 0.734375 1.546875q0.265625 0.90625 0.265625 2.109375q0 1.0625 -0.296875 1.984375q-0.28125 0.921875 -0.8125 1.59375q-0.53125 0.65625 -1.3125 1.046875q-0.765625 0.390625 -1.734375 0.390625q-0.9375 0 -1.59375 -0.359375q-0.640625 -0.375 -1.125 -1.015625l-0.09375 0.875q-0.078125 0.359375 -0.4375 0.359375l-1.09375 0zm4.296875 -8.421875q-0.828125 0 -1.453125 0.375q-0.609375 0.375 -1.140625 1.078125l0 4.65625q0.453125 0.625 1.015625 0.890625q0.5625 0.25 1.234375 0.25q1.359375 0 2.078125 -0.953125q0.71875 -0.96875 0.71875 -2.75q0 -0.9375 -0.171875 -1.609375q-0.15625 -0.671875 -0.46875 -1.109375q-0.3125 -0.4375 -0.78125 -0.625q-0.453125 -0.203125 -1.03125 -0.203125zm7.960083 -1.203125l0 9.625l-1.6875 0l0 -9.625l1.6875 0zm0.375 -3.015625q0 0.25 -0.09375 0.46875q-0.09375 0.203125 -0.265625 0.375q-0.171875 0.15625 -0.390625 0.25q-0.21875 0.09375 -0.453125 0.09375q-0.25 0 -0.46875 -0.09375q-0.21875 -0.09375 -0.390625 -0.25q-0.15625 -0.171875 -0.25 -0.375q-0.09375 -0.21875 -0.09375 -0.46875q0 -0.25 0.09375 -0.46875q0.09375 -0.234375 0.25 -0.390625q0.171875 -0.171875 0.390625 -0.265625q0.21875 -0.09375 0.46875 -0.09375q0.234375 0 0.453125 0.09375q0.21875 0.09375 0.390625 0.265625q0.171875 0.15625 0.265625 0.390625q0.09375 0.21875 0.09375 0.46875zm4.401001 -1.359375l0 14.0l-1.6875 0l0 -14.0l1.6875 0zm4.776001 4.375l0 9.625l-1.6875 0l0 -9.625l1.6875 0zm0.375 -3.015625q0 0.25 -0.09375 0.46875q-0.09375 0.203125 -0.265625 0.375q-0.171875 0.15625 -0.390625 0.25q-0.21875 0.09375 -0.453125 0.09375q-0.25 0 -0.46875 -0.09375q-0.21875 -0.09375 -0.390625 -0.25q-0.15625 -0.171875 -0.25 -0.375q-0.09375 -0.21875 -0.09375 -0.46875q0 -0.25 0.09375 -0.46875q0.09375 -0.234375 0.25 -0.390625q0.171875 -0.171875 0.390625 -0.265625q0.21875 -0.09375 0.46875 -0.09375q0.234375 0 0.453125 0.09375q0.21875 0.09375 0.390625 0.265625q0.171875 0.15625 0.265625 0.390625q0.09375 0.21875 0.09375 0.46875zm5.432251 12.796875q-1.140625 0 -1.75 -0.640625q-0.609375 -0.640625 -0.609375 -1.828125l0 -5.890625l-1.15625 0q-0.15625 0 -0.265625 -0.09375q-0.09375 -0.09375 -0.09375 -0.28125l0 -0.671875l1.578125 -0.203125l0.390625 -2.96875q0.015625 -0.140625 0.109375 -0.234375q0.109375 -0.09375 0.28125 -0.09375l0.84375 0l0 3.3125l2.765625 0l0 1.234375l-2.765625 0l0 5.765625q0 0.609375 0.296875 0.90625q0.296875 0.296875 0.765625 0.296875q0.265625 0 0.453125 -0.0625q0.203125 -0.078125 0.34375 -0.15625q0.140625 -0.09375 0.234375 -0.15625q0.109375 -0.078125 0.1875 -0.078125q0.125 0 0.234375 0.15625l0.484375 0.8125q-0.4375 0.40625 -1.0625 0.640625q-0.609375 0.234375 -1.265625 0.234375zm5.9275513 -9.78125l0 9.625l-1.6875 0l0 -9.625l1.6875 0zm0.375 -3.015625q0 0.25 -0.09375 0.46875q-0.09375 0.203125 -0.265625 0.375q-0.171875 0.15625 -0.390625 0.25q-0.21875 0.09375 -0.453125 0.09375q-0.25 0 -0.46875 -0.09375q-0.21875 -0.09375 -0.390625 -0.25q-0.15625 -0.171875 -0.25 -0.375q-0.09375 -0.21875 -0.09375 -0.46875q0 -0.25 0.09375 -0.46875q0.09375 -0.234375 0.25 -0.390625q0.171875 -0.171875 0.390625 -0.265625q0.21875 -0.09375 0.46875 -0.09375q0.234375 0 0.453125 0.09375q0.21875 0.09375 0.390625 0.265625q0.171875 0.15625 0.265625 0.390625q0.09375 0.21875 0.09375 0.46875zm6.338501 2.859375q0.859375 0 1.59375 0.296875q0.734375 0.28125 1.265625 0.828125q0.53125 0.546875 0.828125 1.359375q0.296875 0.796875 0.296875 1.828125q0 0.390625 -0.09375 0.53125q-0.078125 0.125 -0.3125 0.125l-6.40625 0q0.015625 0.921875 0.234375 1.59375q0.234375 0.671875 0.625 1.125q0.40625 0.453125 0.953125 0.671875q0.5625 0.21875 1.25 0.21875q0.640625 0 1.09375 -0.140625q0.453125 -0.140625 0.78125 -0.3125q0.34375 -0.171875 0.5625 -0.3125q0.234375 -0.15625 0.390625 -0.15625q0.203125 0 0.328125 0.15625l0.46875 0.625q-0.3125 0.375 -0.75 0.65625q-0.4375 0.28125 -0.9375 0.46875q-0.5 0.171875 -1.03125 0.265625q-0.53125 0.09375 -1.046875 0.09375q-1.0 0 -1.84375 -0.34375q-0.84375 -0.34375 -1.453125 -0.984375q-0.609375 -0.65625 -0.953125 -1.609375q-0.34375 -0.96875 -0.34375 -2.203125q0 -1.015625 0.3125 -1.890625q0.3125 -0.875 0.890625 -1.515625q0.578125 -0.640625 1.40625 -1.0q0.84375 -0.375 1.890625 -0.375zm0.03125 1.25q-1.21875 0 -1.921875 0.71875q-0.703125 0.703125 -0.875 1.953125l5.234375 0q0 -0.59375 -0.171875 -1.078125q-0.15625 -0.484375 -0.46875 -0.84375q-0.3125 -0.359375 -0.765625 -0.546875q-0.453125 -0.203125 -1.03125 -0.203125zm11.432129 0.5q-0.109375 0.203125 -0.34375 0.203125q-0.140625 0 -0.328125 -0.09375q-0.171875 -0.109375 -0.4375 -0.234375q-0.265625 -0.140625 -0.625 -0.25q-0.359375 -0.109375 -0.859375 -0.109375q-0.421875 0 -0.765625 0.109375q-0.34375 0.109375 -0.59375 0.3125q-0.234375 0.1875 -0.359375 0.4375q-0.125 0.25 -0.125 0.546875q0 0.359375 0.203125 0.609375q0.21875 0.25 0.5625 0.4375q0.359375 0.171875 0.796875 0.3125q0.453125 0.140625 0.921875 0.296875q0.484375 0.15625 0.921875 0.34375q0.453125 0.1875 0.796875 0.484375q0.359375 0.28125 0.5625 0.6875q0.21875 0.40625 0.21875 1.0q0 0.65625 -0.234375 1.21875q-0.234375 0.5625 -0.703125 0.984375q-0.46875 0.40625 -1.140625 0.65625q-0.671875 0.234375 -1.5625 0.234375q-1.0 0 -1.828125 -0.328125q-0.8125 -0.328125 -1.375 -0.84375l0.390625 -0.640625q0.078125 -0.125 0.171875 -0.1875q0.109375 -0.078125 0.28125 -0.078125q0.171875 0 0.359375 0.140625q0.203125 0.125 0.46875 0.296875q0.265625 0.15625 0.65625 0.296875q0.390625 0.125 0.96875 0.125q0.484375 0 0.859375 -0.125q0.375 -0.140625 0.609375 -0.34375q0.25 -0.21875 0.375 -0.5q0.125 -0.296875 0.125 -0.625q0 -0.390625 -0.21875 -0.65625q-0.21875 -0.265625 -0.578125 -0.4375q-0.34375 -0.1875 -0.796875 -0.328125q-0.453125 -0.140625 -0.921875 -0.28125q-0.46875 -0.15625 -0.921875 -0.34375q-0.453125 -0.203125 -0.8125 -0.5q-0.34375 -0.296875 -0.5625 -0.71875q-0.203125 -0.4375 -0.203125 -1.0625q0 -0.546875 0.21875 -1.046875q0.234375 -0.515625 0.671875 -0.890625q0.4375 -0.390625 1.078125 -0.625q0.640625 -0.234375 1.453125 -0.234375q0.953125 0 1.703125 0.3125q0.75 0.296875 1.3125 0.8125l-0.390625 0.625z" fill-rule="nonzero"></path><path fill="#000000" fill-opacity="0.0" d="m129.7406 239.31381l0 33.102356" fill-rule="evenodd"></path><path stroke="#000000" stroke-width="1.0" stroke-linejoin="round" stroke-linecap="butt" d="m129.7406 239.31381l0 27.102356" fill-rule="evenodd"></path><path fill="#000000" stroke="#000000" stroke-width="1.0" stroke-linecap="butt" d="m128.08887 266.41617l1.6517334 4.5381165l1.6517334 -4.5381165z" fill-rule="evenodd"></path><path fill="#000000" fill-opacity="0.0" d="m323.00742 239.31381l0 33.102356" fill-rule="evenodd"></path><path stroke="#000000" stroke-width="1.0" stroke-linejoin="round" stroke-linecap="butt" d="m323.00742 239.31381l0 27.102356" fill-rule="evenodd"></path><path fill="#000000" stroke="#000000" stroke-width="1.0" stroke-linecap="butt" d="m321.35568 266.41617l1.6517334 4.5381165l1.6517334 -4.5381165z" fill-rule="evenodd"></path><path fill="#000000" fill-opacity="0.0" d="m207.1549 313.39124l0.1889801 22.519684" fill-rule="evenodd"></path><path stroke="#000000" stroke-width="1.0" stroke-linejoin="round" stroke-linecap="butt" d="m207.15492 313.3912l0.1386261 16.519897" fill-rule="evenodd"></path><path fill="#000000" stroke="#000000" stroke-width="1.0" stroke-linecap="butt" d="m205.64188 329.925l1.689743 4.5240784l1.6136017 -4.551819z" fill-rule="evenodd"></path><path fill="#d9ead3" d="m7.0603676 335.91077l400.2205 0l0 40.787384l-400.2205 0z" fill-rule="evenodd"></path><path stroke="#000000" stroke-width="1.0" stroke-linejoin="round" stroke-linecap="butt" d="m7.0603676 335.91077l400.2205 0l0 40.787384l-400.2205 0z" fill-rule="evenodd"></path><path fill="#000000" d="m102.580215 358.1307l0 5.09375l-1.828125 0l0 -13.609375l4.015625 0q1.296875 0 2.25 0.296875q0.953125 0.296875 1.578125 0.859375q0.625 0.546875 0.9375 1.328125q0.3125 0.765625 0.3125 1.734375q0 0.9375 -0.34375 1.734375q-0.328125 0.78125 -0.96875 1.359375q-0.640625 0.5625 -1.59375 0.890625q-0.9375 0.3125 -2.171875 0.3125l-2.1875 0zm0 -1.46875l2.1875 0q0.796875 0 1.390625 -0.203125q0.609375 -0.203125 1.015625 -0.578125q0.40625 -0.375 0.609375 -0.890625q0.21875 -0.53125 0.21875 -1.15625q0 -1.3125 -0.8125 -2.03125q-0.796875 -0.734375 -2.421875 -0.734375l-2.1875 0l0 5.59375zm9.117722 6.5625l0 -9.625l0.96875 0q0.265625 0 0.375 0.109375q0.109375 0.09375 0.140625 0.359375l0.125 1.5q0.484375 -1.0 1.203125 -1.5625q0.734375 -0.578125 1.71875 -0.578125q0.390625 0 0.71875 0.09375q0.328125 0.09375 0.59375 0.25l-0.21875 1.265625q-0.0625 0.234375 -0.296875 0.234375q-0.125 0 -0.40625 -0.078125q-0.265625 -0.09375 -0.765625 -0.09375q-0.875 0 -1.46875 0.515625q-0.59375 0.5 -1.0 1.484375l0 6.125l-1.6875 0zm11.409088 -9.78125q1.0625 0 1.90625 0.359375q0.84375 0.34375 1.4375 1.0q0.59375 0.640625 0.90625 1.5625q0.328125 0.90625 0.328125 2.046875q0 1.140625 -0.328125 2.046875q-0.3125 0.90625 -0.90625 1.5625q-0.59375 0.640625 -1.4375 1.0q-0.84375 0.34375 -1.90625 0.34375q-1.046875 0 -1.90625 -0.34375q-0.84375 -0.359375 -1.453125 -1.0q-0.59375 -0.65625 -0.921875 -1.5625q-0.3125 -0.90625 -0.3125 -2.046875q0 -1.140625 0.3125 -2.046875q0.328125 -0.921875 0.921875 -1.5625q0.609375 -0.65625 1.453125 -1.0q0.859375 -0.359375 1.90625 -0.359375zm0 8.59375q1.421875 0 2.125 -0.953125q0.703125 -0.953125 0.703125 -2.671875q0 -1.71875 -0.703125 -2.671875q-0.703125 -0.96875 -2.125 -0.96875q-0.71875 0 -1.25 0.25q-0.53125 0.25 -0.890625 0.71875q-0.359375 0.46875 -0.53125 1.15625q-0.171875 0.671875 -0.171875 1.515625q0 0.859375 0.171875 1.53125q0.171875 0.671875 0.53125 1.140625q0.359375 0.453125 0.890625 0.703125q0.53125 0.25 1.25 0.25zm6.529129 1.1875l0 -14.0l1.703125 0l0 5.765625q0.609375 -0.703125 1.375 -1.125q0.78125 -0.421875 1.765625 -0.421875q0.84375 0 1.515625 0.3125q0.671875 0.3125 1.140625 0.9375q0.484375 0.625 0.734375 1.546875q0.265625 0.90625 0.265625 2.109375q0 1.0625 -0.296875 1.984375q-0.28125 0.921875 -0.8125 1.59375q-0.53125 0.65625 -1.3125 1.046875q-0.765625 0.390625 -1.734375 0.390625q-0.9375 0 -1.59375 -0.359375q-0.640625 -0.375 -1.125 -1.015625l-0.09375 0.875q-0.078125 0.359375 -0.4375 0.359375l-1.09375 0zm4.296875 -8.421875q-0.828125 0 -1.453125 0.375q-0.609375 0.375 -1.140625 1.078125l0 4.65625q0.453125 0.625 1.015625 0.890625q0.5625 0.25 1.234375 0.25q1.359375 0 2.078125 -0.953125q0.71875 -0.96875 0.71875 -2.75q0 -0.9375 -0.171875 -1.609375q-0.15625 -0.671875 -0.46875 -1.109375q-0.3125 -0.4375 -0.78125 -0.625q-0.453125 -0.203125 -1.03125 -0.203125zm13.147598 8.421875l-0.75 0q-0.25 0 -0.40625 -0.078125q-0.140625 -0.078125 -0.1875 -0.328125l-0.1875 -0.890625q-0.390625 0.34375 -0.75 0.625q-0.359375 0.265625 -0.765625 0.453125q-0.390625 0.1875 -0.84375 0.28125q-0.453125 0.09375 -1.0 0.09375q-0.5625 0 -1.046875 -0.15625q-0.484375 -0.15625 -0.859375 -0.46875q-0.359375 -0.3125 -0.578125 -0.796875q-0.203125 -0.484375 -0.203125 -1.140625q0 -0.5625 0.3125 -1.09375q0.3125 -0.53125 1.0 -0.9375q0.703125 -0.40625 1.828125 -0.671875q1.140625 -0.265625 2.78125 -0.296875l0 -0.75q0 -1.125 -0.484375 -1.6875q-0.484375 -0.578125 -1.421875 -0.578125q-0.609375 0 -1.046875 0.15625q-0.421875 0.15625 -0.734375 0.359375q-0.296875 0.1875 -0.53125 0.34375q-0.21875 0.15625 -0.4375 0.15625q-0.171875 0 -0.296875 -0.09375q-0.125 -0.09375 -0.203125 -0.21875l-0.296875 -0.546875q0.796875 -0.765625 1.71875 -1.140625q0.921875 -0.390625 2.03125 -0.390625q0.8125 0 1.4375 0.265625q0.625 0.265625 1.046875 0.75q0.4375 0.46875 0.65625 1.140625q0.21875 0.671875 0.21875 1.484375l0 6.15625zm-4.390625 -1.03125q0.453125 0 0.8125 -0.09375q0.375 -0.09375 0.703125 -0.25q0.328125 -0.171875 0.625 -0.40625q0.296875 -0.25 0.59375 -0.546875l0 -2.0q-1.171875 0.03125 -2.0 0.1875q-0.8125 0.140625 -1.328125 0.375q-0.5 0.234375 -0.734375 0.5625q-0.234375 0.328125 -0.234375 0.71875q0 0.390625 0.125 0.671875q0.125 0.265625 0.328125 0.4375q0.203125 0.171875 0.484375 0.265625q0.296875 0.078125 0.625 0.078125zm6.833725 1.03125l0 -14.0l1.703125 0l0 5.765625q0.609375 -0.703125 1.375 -1.125q0.78125 -0.421875 1.765625 -0.421875q0.84375 0 1.515625 0.3125q0.671875 0.3125 1.140625 0.9375q0.484375 0.625 0.734375 1.546875q0.265625 0.90625 0.265625 2.109375q0 1.0625 -0.296875 1.984375q-0.28125 0.921875 -0.8125 1.59375q-0.53125 0.65625 -1.3125 1.046875q-0.765625 0.390625 -1.734375 0.390625q-0.9375 0 -1.59375 -0.359375q-0.640625 -0.375 -1.125 -1.015625l-0.09375 0.875q-0.078125 0.359375 -0.4375 0.359375l-1.09375 0zm4.296875 -8.421875q-0.828125 0 -1.453125 0.375q-0.609375 0.375 -1.140625 1.078125l0 4.65625q0.453125 0.625 1.015625 0.890625q0.5625 0.25 1.234375 0.25q1.359375 0 2.078125 -0.953125q0.71875 -0.96875 0.71875 -2.75q0 -0.9375 -0.171875 -1.609375q-0.15625 -0.671875 -0.46875 -1.109375q-0.3125 -0.4375 -0.78125 -0.625q-0.453125 -0.203125 -1.03125 -0.203125zm7.9600983 -1.203125l0 9.625l-1.6875 0l0 -9.625l1.6875 0zm0.375 -3.015625q0 0.25 -0.09375 0.46875q-0.09375 0.203125 -0.265625 0.375q-0.171875 0.15625 -0.390625 0.25q-0.21875 0.09375 -0.453125 0.09375q-0.25 0 -0.46875 -0.09375q-0.21875 -0.09375 -0.390625 -0.25q-0.15625 -0.171875 -0.25 -0.375q-0.09375 -0.21875 -0.09375 -0.46875q0 -0.25 0.09375 -0.46875q0.09375 -0.234375 0.25 -0.390625q0.171875 -0.171875 0.390625 -0.265625q0.21875 -0.09375 0.46875 -0.09375q0.234375 0 0.453125 0.09375q0.21875 0.09375 0.390625 0.265625q0.171875 0.15625 0.265625 0.390625q0.09375 0.21875 0.09375 0.46875zm4.401001 -1.359375l0 14.0l-1.6875 0l0 -14.0l1.6875 0zm4.776001 4.375l0 9.625l-1.6875 0l0 -9.625l1.6875 0zm0.375 -3.015625q0 0.25 -0.09375 0.46875q-0.09375 0.203125 -0.265625 0.375q-0.171875 0.15625 -0.390625 0.25q-0.21875 0.09375 -0.453125 0.09375q-0.25 0 -0.46875 -0.09375q-0.21875 -0.09375 -0.390625 -0.25q-0.15625 -0.171875 -0.25 -0.375q-0.09375 -0.21875 -0.09375 -0.46875q0 -0.25 0.09375 -0.46875q0.09375 -0.234375 0.25 -0.390625q0.171875 -0.171875 0.390625 -0.265625q0.21875 -0.09375 0.46875 -0.09375q0.234375 0 0.453125 0.09375q0.21875 0.09375 0.390625 0.265625q0.171875 0.15625 0.265625 0.390625q0.09375 0.21875 0.09375 0.46875zm5.432251 12.796875q-1.140625 0 -1.75 -0.640625q-0.609375 -0.640625 -0.609375 -1.828125l0 -5.890625l-1.15625 0q-0.15625 0 -0.265625 -0.09375q-0.09375 -0.09375 -0.09375 -0.28125l0 -0.671875l1.578125 -0.203125l0.390625 -2.96875q0.015625 -0.140625 0.109375 -0.234375q0.109375 -0.09375 0.28125 -0.09375l0.84375 0l0 3.3125l2.765625 0l0 1.234375l-2.765625 0l0 5.765625q0 0.609375 0.296875 0.90625q0.296875 0.296875 0.765625 0.296875q0.265625 0 0.453125 -0.0625q0.203125 -0.078125 0.34375 -0.15625q0.140625 -0.09375 0.234375 -0.15625q0.109375 -0.078125 0.1875 -0.078125q0.125 0 0.234375 0.15625l0.484375 0.8125q-0.4375 0.40625 -1.0625 0.640625q-0.609375 0.234375 -1.265625 0.234375zm6.865036 2.6875q-0.078125 0.1875 -0.21875 0.296875q-0.125 0.125 -0.390625 0.125l-1.25 0l1.765625 -3.828125l-3.96875 -9.0625l1.453125 0q0.21875 0 0.34375 0.109375q0.125 0.109375 0.1875 0.25l2.5625 6.046875q0.09375 0.21875 0.15625 0.4375q0.0625 0.203125 0.109375 0.421875q0.0625 -0.21875 0.125 -0.421875q0.078125 -0.21875 0.15625 -0.4375l2.5 -6.046875q0.0625 -0.15625 0.1875 -0.25q0.140625 -0.109375 0.3125 -0.109375l1.34375 0l-5.375 12.46875zm14.230789 -12.625q1.0625 0 1.90625 0.359375q0.84375 0.34375 1.4375 1.0q0.59375 0.640625 0.90625 1.5625q0.328125 0.90625 0.328125 2.046875q0 1.140625 -0.328125 2.046875q-0.3125 0.90625 -0.90625 1.5625q-0.59375 0.640625 -1.4375 1.0q-0.84375 0.34375 -1.90625 0.34375q-1.046875 0 -1.90625 -0.34375q-0.84375 -0.359375 -1.453125 -1.0q-0.59375 -0.65625 -0.921875 -1.5625q-0.3125 -0.90625 -0.3125 -2.046875q0 -1.140625 0.3125 -2.046875q0.328125 -0.921875 0.921875 -1.5625q0.609375 -0.65625 1.453125 -1.0q0.859375 -0.359375 1.90625 -0.359375zm0 8.59375q1.421875 0 2.125 -0.953125q0.703125 -0.953125 0.703125 -2.671875q0 -1.71875 -0.703125 -2.671875q-0.703125 -0.96875 -2.125 -0.96875q-0.71875 0 -1.25 0.25q-0.53125 0.25 -0.890625 0.71875q-0.359375 0.46875 -0.53125 1.15625q-0.171875 0.671875 -0.171875 1.515625q0 0.859375 0.171875 1.53125q0.171875 0.671875 0.53125 1.140625q0.359375 0.453125 0.890625 0.703125q0.53125 0.25 1.25 0.25zm6.857254 1.1875l0 -8.171875l-1.0625 -0.125q-0.203125 -0.046875 -0.328125 -0.140625q-0.125 -0.109375 -0.125 -0.296875l0 -0.703125l1.515625 0l0 -0.921875q0 -0.828125 0.234375 -1.46875q0.234375 -0.640625 0.65625 -1.078125q0.4375 -0.453125 1.046875 -0.671875q0.609375 -0.234375 1.375 -0.234375q0.640625 0 1.1875 0.1875l-0.03125 0.84375q-0.015625 0.1875 -0.171875 0.234375q-0.140625 0.03125 -0.421875 0.03125l-0.296875 0q-0.4375 0 -0.796875 0.125q-0.34375 0.109375 -0.609375 0.375q-0.25 0.25 -0.390625 0.671875q-0.140625 0.40625 -0.140625 1.03125l0 0.875l2.78125 0l0 1.234375l-2.71875 0l0 8.203125l-1.703125 0zm20.981567 0l-1.4375 0q-0.234375 0 -0.390625 -0.125q-0.15625 -0.125 -0.234375 -0.3125l-1.265625 -3.28125l-6.109375 0l-1.28125 3.28125q-0.0625 0.171875 -0.234375 0.3125q-0.15625 0.125 -0.390625 0.125l-1.421875 0l5.4375 -13.609375l1.875 0l5.453125 13.609375zm-8.921875 -5.046875l5.078125 0l-2.140625 -5.546875q-0.203125 -0.515625 -0.40625 -1.28125q-0.109375 0.390625 -0.203125 0.71875q-0.09375 0.328125 -0.1875 0.578125l-2.140625 5.53125zm10.186249 5.046875l0 -14.0l1.703125 0l0 5.765625q0.609375 -0.703125 1.375 -1.125q0.78125 -0.421875 1.765625 -0.421875q0.84375 0 1.515625 0.3125q0.671875 0.3125 1.140625 0.9375q0.484375 0.625 0.734375 1.546875q0.265625 0.90625 0.265625 2.109375q0 1.0625 -0.296875 1.984375q-0.28125 0.921875 -0.8125 1.59375q-0.53125 0.65625 -1.3125 1.046875q-0.765625 0.390625 -1.734375 0.390625q-0.9375 0 -1.59375 -0.359375q-0.640625 -0.375 -1.125 -1.015625l-0.09375 0.875q-0.078125 0.359375 -0.4375 0.359375l-1.09375 0zm4.296875 -8.421875q-0.828125 0 -1.453125 0.375q-0.609375 0.375 -1.140625 1.078125l0 4.65625q0.453125 0.625 1.015625 0.890625q0.5625 0.25 1.234375 0.25q1.359375 0 2.078125 -0.953125q0.71875 -0.96875 0.71875 -2.75q0 -0.9375 -0.171875 -1.609375q-0.15625 -0.671875 -0.46875 -1.109375q-0.3125 -0.4375 -0.78125 -0.625q-0.453125 -0.203125 -1.03125 -0.203125zm6.0850983 8.421875l0 -9.625l1.0 0q0.359375 0 0.453125 0.359375l0.140625 1.03125q0.625 -0.6875 1.390625 -1.109375q0.78125 -0.4375 1.796875 -0.4375q0.796875 0 1.390625 0.265625q0.609375 0.265625 1.015625 0.75q0.40625 0.46875 0.609375 1.15625q0.203125 0.671875 0.203125 1.484375l0 6.125l-1.6875 0l0 -6.125q0 -1.09375 -0.5 -1.6875q-0.5 -0.609375 -1.515625 -0.609375q-0.75 0 -1.40625 0.359375q-0.65625 0.359375 -1.203125 0.96875l0 7.09375l-1.6875 0zm14.263504 -9.78125q1.0625 0 1.90625 0.359375q0.84375 0.34375 1.4375 1.0q0.59375 0.640625 0.90626526 1.5625q0.328125 0.90625 0.328125 2.046875q0 1.140625 -0.328125 2.046875q-0.31251526 0.90625 -0.90626526 1.5625q-0.59375 0.640625 -1.4375 1.0q-0.84375 0.34375 -1.90625 0.34375q-1.046875 0 -1.90625 -0.34375q-0.84375 -0.359375 -1.453125 -1.0q-0.59375 -0.65625 -0.921875 -1.5625q-0.3125 -0.90625 -0.3125 -2.046875q0 -1.140625 0.3125 -2.046875q0.328125 -0.921875 0.921875 -1.5625q0.609375 -0.65625 1.453125 -1.0q0.859375 -0.359375 1.90625 -0.359375zm0 8.59375q1.421875 0 2.125 -0.953125q0.703125 -0.953125 0.703125 -2.671875q0 -1.71875 -0.703125 -2.671875q-0.703125 -0.96875 -2.125 -0.96875q-0.71875 0 -1.25 0.25q-0.53125 0.25 -0.890625 0.71875q-0.359375 0.46875 -0.53125 1.15625q-0.171875 0.671875 -0.171875 1.515625q0 0.859375 0.171875 1.53125q0.171875 0.671875 0.53125 1.140625q0.359375 0.453125 0.890625 0.703125q0.53125 0.25 1.25 0.25zm6.482254 1.1875l0 -9.625l0.96875 0q0.265625 0 0.375 0.109375q0.109375 0.09375 0.140625 0.359375l0.125 1.5q0.484375 -1.0 1.203125 -1.5625q0.734375 -0.578125 1.71875 -0.578125q0.390625 0 0.71875 0.09375q0.328125 0.09375 0.59375 0.25l-0.21875 1.265625q-0.0625 0.234375 -0.296875 0.234375q-0.125 0 -0.40625 -0.078125q-0.265625 -0.09375 -0.765625 -0.09375q-0.875 0 -1.46875 0.515625q-0.59375 0.5 -1.0 1.484375l0 6.125l-1.6875 0zm7.518463 0l0 -9.625l1.0 0q0.359375 0 0.453125 0.359375l0.125 0.984375q0.53125 -0.65625 1.1875 -1.078125q0.671875 -0.421875 1.546875 -0.421875q0.96875 0 1.578125 0.546875q0.609375 0.546875 0.875 1.46875q0.1875 -0.53125 0.515625 -0.90625q0.328125 -0.375 0.734375 -0.625q0.421875 -0.25 0.875 -0.359375q0.46875 -0.125 0.9375 -0.125q0.765625 0 1.359375 0.25q0.59375 0.234375 1.0 0.703125q0.421875 0.46875 0.640625 1.15625q0.21875 0.671875 0.21875 1.546875l0 6.125l-1.703125 0l0 -6.125q0 -1.140625 -0.5 -1.71875q-0.484375 -0.578125 -1.421875 -0.578125q-0.421875 0 -0.796875 0.15625q-0.375 0.140625 -0.65625 0.421875q-0.28125 0.28125 -0.453125 0.71875q-0.171875 0.421875 -0.171875 1.0l0 6.125l-1.6875 0l0 -6.125q0 -1.15625 -0.46875 -1.71875q-0.453125 -0.578125 -1.359375 -0.578125q-0.625 0 -1.15625 0.34375q-0.53125 0.328125 -0.984375 0.90625l0 7.171875l-1.6875 0zm22.379272 0l-0.75 0q-0.25 0 -0.40625 -0.078125q-0.140625 -0.078125 -0.1875 -0.328125l-0.1875 -0.890625q-0.390625 0.34375 -0.75 0.625q-0.359375 0.265625 -0.765625 0.453125q-0.390625 0.1875 -0.84375 0.28125q-0.453125 0.09375 -1.0 0.09375q-0.5625 0 -1.046875 -0.15625q-0.484375 -0.15625 -0.859375 -0.46875q-0.359375 -0.3125 -0.578125 -0.796875q-0.203125 -0.484375 -0.203125 -1.140625q0 -0.5625 0.3125 -1.09375q0.3125 -0.53125 1.0 -0.9375q0.703125 -0.40625 1.828125 -0.671875q1.140625 -0.265625 2.78125 -0.296875l0 -0.75q0 -1.125 -0.484375 -1.6875q-0.484375 -0.578125 -1.421875 -0.578125q-0.609375 0 -1.046875 0.15625q-0.421875 0.15625 -0.734375 0.359375q-0.296875 0.1875 -0.53125 0.34375q-0.21875 0.15625 -0.4375 0.15625q-0.171875 0 -0.296875 -0.09375q-0.125 -0.09375 -0.203125 -0.21875l-0.296875 -0.546875q0.796875 -0.765625 1.71875 -1.140625q0.921875 -0.390625 2.03125 -0.390625q0.8125 0 1.4375 0.265625q0.625 0.265625 1.046875 0.75q0.4375 0.46875 0.65625 1.140625q0.21875 0.671875 0.21875 1.484375l0 6.15625zm-4.390625 -1.03125q0.453125 0 0.8125 -0.09375q0.375 -0.09375 0.703125 -0.25q0.328125 -0.171875 0.625 -0.40625q0.296875 -0.25 0.59375 -0.546875l0 -2.0q-1.171875 0.03125 -2.0 0.1875q-0.8125 0.140625 -1.328125 0.375q-0.5 0.234375 -0.734375 0.5625q-0.234375 0.328125 -0.234375 0.71875q0 0.390625 0.125 0.671875q0.125 0.265625 0.328125 0.4375q0.203125 0.171875 0.484375 0.265625q0.296875 0.078125 0.625 0.078125zm8.661865 -12.96875l0 14.0l-1.6875 0l0 -14.0l1.6875 0zm4.776001 4.375l0 9.625l-1.6875 0l0 -9.625l1.6875 0zm0.375 -3.015625q0 0.25 -0.09375 0.46875q-0.09375 0.203125 -0.265625 0.375q-0.171875 0.15625 -0.390625 0.25q-0.21875 0.09375 -0.453125 0.09375q-0.25 0 -0.46875 -0.09375q-0.21875 -0.09375 -0.390625 -0.25q-0.15625 -0.171875 -0.25 -0.375q-0.09375 -0.21875 -0.09375 -0.46875q0 -0.25 0.09375 -0.46875q0.09375 -0.234375 0.25 -0.390625q0.171875 -0.171875 0.390625 -0.265625q0.21875 -0.09375 0.46875 -0.09375q0.234375 0 0.453125 0.09375q0.21875 0.09375 0.390625 0.265625q0.171875 0.15625 0.265625 0.390625q0.09375 0.21875 0.09375 0.46875zm5.432251 12.796875q-1.140625 0 -1.75 -0.640625q-0.609375 -0.640625 -0.609375 -1.828125l0 -5.890625l-1.15625 0q-0.15625 0 -0.265625 -0.09375q-0.09375 -0.09375 -0.09375 -0.28125l0 -0.671875l1.578125 -0.203125l0.390625 -2.96875q0.015625 -0.140625 0.109375 -0.234375q0.109375 -0.09375 0.28125 -0.09375l0.84375 0l0 3.3125l2.765625 0l0 1.234375l-2.765625 0l0 5.765625q0 0.609375 0.296875 0.90625q0.296875 0.296875 0.765625 0.296875q0.265625 0 0.453125 -0.0625q0.203125 -0.078125 0.34375 -0.15625q0.140625 -0.09375 0.234375 -0.15625q0.109375 -0.078125 0.1875 -0.078125q0.125 0 0.234375 0.15625l0.484375 0.8125q-0.4375 0.40625 -1.0625 0.640625q-0.609375 0.234375 -1.265625 0.234375zm6.8650513 2.6875q-0.078125 0.1875 -0.21875 0.296875q-0.125 0.125 -0.390625 0.125l-1.25 0l1.765625 -3.828125l-3.96875 -9.0625l1.453125 0q0.21875 0 0.34375 0.109375q0.125 0.109375 0.1875 0.25l2.5625 6.046875q0.09375 0.21875 0.15625 0.4375q0.0625 0.203125 0.109375 0.421875q0.0625 -0.21875 0.125 -0.421875q0.078125 -0.21875 0.15625 -0.4375l2.5 -6.046875q0.0625 -0.15625 0.1875 -0.25q0.140625 -0.109375 0.3125 -0.109375l1.34375 0l-5.375 12.46875z" fill-rule="nonzero"></path></g></svg>

