<?xml version="1.0" encoding="iso-8859-1"?>
<!-- Generator: Adobe Illustrator 18.0.0, SVG Export Plug-In . SVG Version: 6.00 Build 0)  -->
<!DOCTYPE svg PUBLIC "-//W3C//DTD SVG 1.1//EN" "http://www.w3.org/Graphics/SVG/1.1/DTD/svg11.dtd">
<svg version="1.1" id="Capa_1" xmlns="http://www.w3.org/2000/svg" xmlns:xlink="http://www.w3.org/1999/xlink" x="0px" y="0px"
	 viewBox="0 0 355.5 355.5" style="enable-background:new 0 0 355.5 355.5;" xml:space="preserve">
<g>
	<g>
		<g>
			<path d="M106.533,186.832c-44.575,0-80.84-36.264-80.84-80.84s36.265-80.842,80.84-80.842c4.143,0,7.5,3.357,7.5,7.5
				s-3.357,7.5-7.5,7.5c-36.305,0-65.84,29.537-65.84,65.842s29.535,65.84,65.84,65.84c4.143,0,7.5,3.357,7.5,7.5
				C114.033,183.475,110.676,186.832,106.533,186.832z"/>
		</g>
		<path d="M348.219,295.328c-0.004-0.004-0.006-0.008-0.01-0.01l-96.806-96.805c-0.004-0.004-0.008-0.008-0.012-0.012
			c-4.783-4.775-11.311-7.135-18.394-6.682c-6.711,0.445-13.147,3.432-18.124,8.408l-2.302,2.301L186.041,176
			c16.473-18.688,26.483-43.199,26.483-70.008C212.525,47.549,164.977,0,106.533,0C48.089,0,0.541,47.549,0.541,105.992
			c0,58.443,47.548,105.99,105.992,105.992l0,0c26.247,0,50.292-9.596,68.824-25.455l26.607,26.607l-2.303,2.303
			c-10.541,10.541-11.313,26.92-1.725,36.52c0.004,0.004,0.006,0.008,0.01,0.012c0,0,97.186,97.166,97.385,97.328
			c4.434,4.137,10.176,6.201,16.109,6.201c6.999,0,14.244-2.844,19.842-8.44l15.209-15.213c4.978-4.977,7.965-11.414,8.408-18.125
			C355.369,306.643,352.996,300.111,348.219,295.328z M106.533,196.984c-50.174-0.002-90.992-40.82-90.992-90.992
			S56.36,15,106.533,15c50.173,0,90.991,40.82,90.991,90.992C197.524,156.164,156.705,196.982,106.533,196.984z M289.027,321.838
			l-80.474-80.475c0,0-0.001-0.002-0.002-0.002c-3.747-3.752-2.978-10.621,1.716-15.314l15.213-15.213
			c2.405-2.404,5.427-3.842,8.508-4.045c2.708-0.168,5.124,0.648,6.807,2.328c0,0.002,0.001,0.002,0.002,0.004l80.475,80.473
			L289.027,321.838z M339.934,312.732c-0.204,3.082-1.641,6.102-4.048,8.508l-15.209,15.215c-4.697,4.695-11.567,5.465-15.317,1.715
			l-5.725-5.725l32.244-32.244l5.725,5.725c0,0,0.001,0,0.002,0.002C339.285,307.609,340.112,310.025,339.934,312.732z"/>
	</g>
</g>
<g>
</g>
<g>
</g>
<g>
</g>
<g>
</g>
<g>
</g>
<g>
</g>
<g>
</g>
<g>
</g>
<g>
</g>
<g>
</g>
<g>
</g>
<g>
</g>
<g>
</g>
<g>
</g>
<g>
</g>
</svg>
