<?xml version="1.0" standalone="yes"?>

<svg version="1.1" viewBox="0.0 0.0 378.8503937007874 1005.2388451443569" fill="none" stroke="none" stroke-linecap="square" stroke-miterlimit="10" xmlns="http://www.w3.org/2000/svg" xmlns:xlink="http://www.w3.org/1999/xlink"><clipPath id="p.0"><path d="m0 0l378.8504 0l0 1005.23883l-378.8504 0l0 -1005.23883z" clip-rule="nonzero"></path></clipPath><g clip-path="url(#p.0)"><path fill="#000000" fill-opacity="0.0" d="m0 0l378.8504 0l0 1005.23883l-378.8504 0z" fill-rule="evenodd"></path><path fill="#000000" fill-opacity="0.0" d="m13.6587925 538.91974l0 0c0 -30.108093 24.40743 -54.515533 54.515526 -54.515533l218.05557 0l0 0c14.458405 0 28.324646 5.7435913 38.54828 15.967224c10.223663 10.223633 15.967224 24.089874 15.967224 38.54831l0 229.52014c0 30.108093 -24.40741 54.515503 -54.515503 54.515503l-218.05557 0c-30.108093 0 -54.515526 -24.40741 -54.515526 -54.515503z" fill-rule="evenodd"></path><path fill="#000000" fill-opacity="0.0" d="m68.17432 822.9554c-30.108093 0 -54.515526 -24.40741 -54.515526 -54.515503l0 -229.52014l0 0c0 -30.108093 24.40743 -54.515533 54.515526 -54.515533m218.05557 0l0 0c14.458405 0 28.324646 5.7435913 38.54828 15.967224c10.223663 10.223633 15.967224 24.089874 15.967224 38.54831l0 229.52014c0 30.108093 -24.40741 54.515503 -54.515503 54.515503" fill-rule="evenodd"></path><path stroke="#999999" stroke-width="8.0" stroke-linejoin="round" stroke-linecap="butt" stroke-dasharray="32.0,24.0" d="m68.17432 822.9554c-30.108093 0 -54.515526 -24.40741 -54.515526 -54.515503l0 -229.52014l0 0c0 -30.108093 24.40743 -54.515533 54.515526 -54.515533m218.05557 0l0 0c14.458405 0 28.324646 5.7435913 38.54828 15.967224c10.223663 10.223633 15.967224 24.089874 15.967224 38.54831l0 229.52014c0 30.108093 -24.40741 54.515503 -54.515503 54.515503" fill-rule="evenodd"></path><path fill="#ead1dc" d="m239.0 658.57745l85.07086 0l0 31.433044l-85.07086 0z" fill-rule="evenodd"></path><path fill="#000000" d="m251.86388 680.154l0 -7.78125l1.09375 0l0.109375 1.125l0.046875 0q0.515625 -0.5625 1.109375 -0.9375q0.59375 -0.375 1.296875 -0.375q0.90626526 0 1.4062653 0.390625q0.5 0.390625 0.75 1.09375q0.609375 -0.671875 1.21875 -1.078125q0.609375 -0.40625 1.34375 -0.40625q1.1875 0 1.765625 0.765625q0.59375 0.765625 0.59375 2.28125l0 4.921875l-1.3125 0l0 -4.75q0 -1.109375 -0.359375 -1.59375q-0.34375 -0.484375 -1.078125 -0.484375q-0.875 0 -1.953125 1.203125l0 5.625l-1.3125 0l0 -4.75q0 -1.109375 -0.359375 -1.59375q-0.34376526 -0.484375 -1.0937653 -0.484375q-0.875 0 -1.953125 1.203125l0 5.625l-1.3125 0zm15.060898 0.1875q-0.984375 0 -1.640625 -0.5625q-0.640625 -0.578125 -0.640625 -1.640625q0 -1.28125 1.140625 -1.953125q1.140625 -0.6875 3.625 -0.953125q0 -0.375 -0.078125 -0.71875q-0.0625 -0.359375 -0.234375 -0.625q-0.171875 -0.28125 -0.484375 -0.4375q-0.3125 -0.171875 -0.796875 -0.171875q-0.671875 0 -1.265625 0.25q-0.59375 0.25 -1.046875 0.578125l-0.515625 -0.90625q0.546875 -0.359375 1.328125 -0.6875q0.78125 -0.328125 1.71875 -0.328125q1.421875 0 2.0625 0.875q0.640625 0.875 0.640625 2.328125l0 4.765625l-1.078125 0l-0.109375 -0.921875l-0.046875 0q-0.5625 0.453125 -1.203125 0.78125q-0.640625 0.328125 -1.375 0.328125zm0.375 -1.046875q0.5625 0 1.0625 -0.265625q0.5 -0.265625 1.046875 -0.78125l0 -2.15625q-0.96875 0.125 -1.640625 0.3125q-0.65625 0.171875 -1.0625 0.40625q-0.40625 0.234375 -0.59375 0.546875q-0.1875 0.3125 -0.1875 0.6875q0 0.671875 0.390625 0.96875q0.40625 0.28125 0.984375 0.28125zm4.798401 0.859375l2.546875 -4.0625l-2.34375 -3.71875l1.421875 0l1.03125 1.71875q0.1875 0.3125 0.375 0.640625q0.1875 0.328125 0.390625 0.65625l0.078125 0q0.171875 -0.328125 0.34375 -0.65625q0.171875 -0.328125 0.359375 -0.640625l0.9375 -1.71875l1.375 0l-2.34375 3.859375l2.515625 3.921875l-1.421875 0l-1.125 -1.8125q-0.21875 -0.34375 -0.421875 -0.6875q-0.203125 -0.359375 -0.4375 -0.703125l-0.0625 0q-0.203125 0.34375 -0.40625 0.6875q-0.1875 0.34375 -0.375 0.703125l-1.0625 1.8125l-1.375 0zm11.429779 3.28125l0 -11.0625l1.09375 0l0.109375 0.90625l0.046875 0q0.53125 -0.453125 1.15625 -0.765625q0.640625 -0.328125 1.328125 -0.328125q0.75 0 1.3125 0.28125q0.578125 0.28125 0.96875 0.796875q0.390625 0.515625 0.578125 1.25q0.203125 0.734375 0.203125 1.640625q0 0.984375 -0.28125 1.765625q-0.265625 0.78125 -0.734375 1.328125q-0.453125 0.53125 -1.0625 0.8125q-0.609375 0.28125 -1.28125 0.28125q-0.546875 0 -1.078125 -0.234375q-0.53125 -0.234375 -1.078125 -0.65625l0.03125 1.359375l0 2.625l-1.3125 0zm3.21875 -4.1875q0.484375 0 0.890625 -0.21875q0.40625 -0.21875 0.703125 -0.609375q0.296875 -0.390625 0.453125 -0.96875q0.171875 -0.578125 0.171875 -1.296875q0 -0.640625 -0.109375 -1.171875q-0.109375 -0.53125 -0.359375 -0.90625q-0.25 -0.375 -0.640625 -0.578125q-0.390625 -0.203125 -0.9375 -0.203125q-0.5 0 -1.0 0.28125q-0.5 0.265625 -1.078125 0.765625l0 4.078125q0.53125 0.453125 1.015625 0.640625q0.5 0.1875 0.890625 0.1875zm8.692505 1.09375q-0.734375 0 -1.390625 -0.265625q-0.640625 -0.28125 -1.140625 -0.796875q-0.484375 -0.515625 -0.78125 -1.265625q-0.296875 -0.765625 -0.296875 -1.734375q0 -0.96875 0.296875 -1.734375q0.296875 -0.765625 0.78125 -1.28125q0.5 -0.53125 1.140625 -0.796875q0.65625 -0.28125 1.390625 -0.28125q0.71875 0 1.359375 0.28125q0.65625 0.265625 1.140625 0.796875q0.5 0.515625 0.796875 1.28125q0.296875 0.765625 0.296875 1.734375q0 0.96875 -0.296875 1.734375q-0.296875 0.75 -0.796875 1.265625q-0.484375 0.515625 -1.140625 0.796875q-0.640625 0.265625 -1.359375 0.265625zm0 -1.078125q0.484375 0 0.890625 -0.21875q0.421875 -0.21875 0.71875 -0.609375q0.296875 -0.390625 0.453125 -0.9375q0.171875 -0.546875 0.171875 -1.21875q0 -0.671875 -0.171875 -1.21875q-0.15625 -0.546875 -0.453125 -0.953125q-0.296875 -0.40625 -0.71875 -0.609375q-0.40625 -0.21875 -0.890625 -0.21875q-0.5 0 -0.921875 0.21875q-0.40625 0.203125 -0.703125 0.609375q-0.296875 0.40625 -0.46875 0.953125q-0.15625 0.546875 -0.15625 1.21875q0 0.671875 0.15625 1.21875q0.171875 0.546875 0.46875 0.9375q0.296875 0.390625 0.703125 0.609375q0.421875 0.21875 0.921875 0.21875zm8.671997 1.078125q-0.734375 0 -1.3905945 -0.265625q-0.640625 -0.28125 -1.140625 -0.796875q-0.484375 -0.515625 -0.78125 -1.265625q-0.296875 -0.765625 -0.296875 -1.734375q0 -0.96875 0.296875 -1.734375q0.296875 -0.765625 0.78125 -1.28125q0.5 -0.53125 1.140625 -0.796875q0.6562195 -0.28125 1.3905945 -0.28125q0.71875 0 1.359375 0.28125q0.65625 0.265625 1.140625 0.796875q0.5 0.515625 0.796875 1.28125q0.296875 0.765625 0.296875 1.734375q0 0.96875 -0.296875 1.734375q-0.296875 0.75 -0.796875 1.265625q-0.484375 0.515625 -1.140625 0.796875q-0.640625 0.265625 -1.359375 0.265625zm0 -1.078125q0.484375 0 0.890625 -0.21875q0.421875 -0.21875 0.71875 -0.609375q0.296875 -0.390625 0.453125 -0.9375q0.171875 -0.546875 0.171875 -1.21875q0 -0.671875 -0.171875 -1.21875q-0.15625 -0.546875 -0.453125 -0.953125q-0.296875 -0.40625 -0.71875 -0.609375q-0.40625 -0.21875 -0.890625 -0.21875q-0.5 0 -0.921875 0.21875q-0.40621948 0.203125 -0.7030945 0.609375q-0.296875 0.40625 -0.46875 0.953125q-0.15625 0.546875 -0.15625 1.21875q0 0.671875 0.15625 1.21875q0.171875 0.546875 0.46875 0.9375q0.296875 0.390625 0.7030945 0.609375q0.421875 0.21875 0.921875 0.21875zm7.0314026 1.078125q-0.75 0 -1.078125 -0.4375q-0.3125 -0.453125 -0.3125 -1.3125l0 -9.828125l1.3125 0l0 9.921875q0 0.3125 0.109375 0.453125q0.109375 0.125 0.25 0.125q0.078125 0 0.125 0q0.0625 0 0.171875 -0.03125l0.171875 0.984375q-0.125 0.0625 -0.3125 0.09375q-0.171875 0.03125 -0.4375 0.03125z" fill-rule="nonzero"></path><path fill="#c9daf8" d="m73.00085 254.93439l91.98708 0l0 54.48819l-91.98708 0z" fill-rule="evenodd"></path><path fill="#000000" d="m105.42933 289.33286q-0.90625 0 -1.703125 -0.328125q-0.796875 -0.328125 -1.390625 -0.9375q-0.578125 -0.625 -0.90625 -1.515625q-0.328125 -0.90625 -0.328125 -2.046875q0 -1.15625 0.359375 -2.0625q0.359375 -0.90625 0.96875 -1.53125q0.609375 -0.625 1.40625 -0.953125q0.8125 -0.328125 1.703125 -0.328125q0.921875 0 1.5625 0.328125q0.65625 0.328125 1.140625 0.765625l-0.796875 1.015625q-0.390625 -0.359375 -0.84375 -0.578125q-0.453125 -0.234375 -1.0 -0.234375q-0.625 0 -1.15625 0.265625q-0.53125 0.25 -0.921875 0.734375q-0.375 0.46875 -0.59375 1.125q-0.21875 0.65625 -0.21875 1.453125q0 0.796875 0.203125 1.4375q0.21875 0.640625 0.578125 1.109375q0.375 0.46875 0.90625 0.734375q0.546875 0.25 1.171875 0.25q0.640625 0 1.171875 -0.265625q0.546875 -0.28125 0.984375 -0.671875l0.6875 1.046875q-0.625 0.546875 -1.390625 0.875q-0.75 0.3125 -1.59375 0.3125zm8.460373 0q-0.859375 0 -1.640625 -0.328125q-0.765625 -0.328125 -1.359375 -0.9375q-0.578125 -0.625 -0.9375 -1.515625q-0.34375 -0.90625 -0.34375 -2.046875q0 -1.15625 0.34375 -2.0625q0.359375 -0.90625 0.9375 -1.53125q0.59375 -0.625 1.359375 -0.953125q0.78125 -0.328125 1.640625 -0.328125q0.84375 0 1.609375 0.328125q0.78125 0.328125 1.359375 0.953125q0.59375 0.625 0.9375 1.53125q0.359375 0.90625 0.359375 2.0625q0 1.140625 -0.359375 2.046875q-0.34375 0.890625 -0.9375 1.515625q-0.578125 0.609375 -1.359375 0.9375q-0.765625 0.328125 -1.609375 0.328125zm0 -1.296875q0.578125 0 1.0625 -0.25q0.5 -0.265625 0.84375 -0.734375q0.359375 -0.46875 0.546875 -1.109375q0.203125 -0.640625 0.203125 -1.4375q0 -0.796875 -0.203125 -1.453125q-0.1875 -0.65625 -0.546875 -1.125q-0.34375 -0.484375 -0.84375 -0.734375q-0.484375 -0.265625 -1.0625 -0.265625q-0.59375 0 -1.09375 0.265625q-0.484375 0.25 -0.84375 0.734375q-0.34375 0.46875 -0.546875 1.125q-0.1875 0.65625 -0.1875 1.453125q0 0.796875 0.1875 1.4375q0.203125 0.640625 0.546875 1.109375q0.359375 0.46875 0.84375 0.734375q0.5 0.25 1.09375 0.25zm6.5179443 1.0625l0 -9.234375l1.28125 0l0.140625 1.328125l0.0625 0q0.65625 -0.65625 1.390625 -1.109375q0.734375 -0.453125 1.703125 -0.453125q1.453125 0 2.125 0.921875q0.6875 0.90625 0.6875 2.6875l0 5.859375l-1.5625 0l0 -5.640625q0 -1.3125 -0.421875 -1.890625q-0.40625 -0.578125 -1.328125 -0.578125q-0.71875 0 -1.28125 0.359375q-0.546875 0.359375 -1.25 1.0625l0 6.6875l-1.546875 0zm12.189339 0l-3.3125 -9.234375l1.609375 0l1.75 5.25q0.203125 0.671875 0.421875 1.359375q0.21875 0.6875 0.4375 1.359375l0.0625 0q0.21875 -0.671875 0.421875 -1.359375q0.21875 -0.6875 0.421875 -1.359375l1.75 -5.25l1.5312653 0l-3.2656403 9.234375l-1.828125 0z" fill-rule="nonzero"></path><path fill="#d0e0e3" d="m73.00085 309.42258l91.98708 0l0 31.433075l-91.98708 0z" fill-rule="evenodd"></path><path fill="#000000" d="m110.55187 330.9991l0 -10.5l3.125 0q0.796875 0 1.453125 0.15625q0.671875 0.140625 1.140625 0.453125q0.46875 0.296875 0.734375 0.78125q0.265625 0.484375 0.265625 1.171875q0 0.78125 -0.390625 1.421875q-0.390625 0.625 -1.140625 0.875l0 0.0625q0.953125 0.171875 1.546875 0.796875q0.59375 0.625 0.59375 1.703125q0 0.78125 -0.296875 1.359375q-0.28125 0.5625 -0.8125 0.953125q-0.515625 0.375 -1.265625 0.578125q-0.734375 0.1875 -1.609375 0.1875l-3.34375 0zm1.328125 -6.03125l1.546875 0q1.34375 0 1.9375 -0.453125q0.59375 -0.46875 0.59375 -1.28125q0 -0.90625 -0.625 -1.28125q-0.609375 -0.390625 -1.828125 -0.390625l-1.625 0l0 3.40625zm0 4.96875l1.828125 0q1.359375 0 2.109375 -0.5q0.75 -0.5 0.75 -1.5625q0 -0.96875 -0.734375 -1.421875q-0.734375 -0.46875 -2.125 -0.46875l-1.828125 0l0 3.953125zm8.079895 1.0625l0 -10.5l1.375 0l3.796875 6.59375l1.140625 2.171875l0.0625 0q-0.046875 -0.796875 -0.109375 -1.640625q-0.0625 -0.859375 -0.0625 -1.703125l0 -5.421875l1.265625 0l0 10.5l-1.375 0l-3.796875 -6.609375l-1.140625 -2.15625l-0.0625 0q0.0625 0.796875 0.109375 1.625q0.0625 0.828125 0.0625 1.65625l0 5.484375l-1.265625 0z" fill-rule="nonzero"></path><path fill="#fff2cc" d="m73.00085 340.85565l91.98708 0l0 31.433075l-91.98708 0z" fill-rule="evenodd"></path><path fill="#000000" d="m102.86385 362.4322l0 -10.5l3.28125 0q0.796875 0 1.46875 0.15625q0.6875 0.15625 1.171875 0.515625q0.5 0.34375 0.765625 0.90625q0.28125 0.546875 0.28125 1.375q0 1.234375 -0.640625 1.96875q-0.640625 0.734375 -1.734375 1.0l2.671875 4.578125l-1.5 0l-2.53125 -4.4375l-1.90625 0l0 4.4375l-1.328125 0zm1.328125 -5.515625l1.765625 0q1.234375 0 1.890625 -0.5q0.65625 -0.515625 0.65625 -1.53125q0 -1.046875 -0.65625 -1.453125q-0.65625 -0.421875 -1.890625 -0.421875l-1.765625 0l0 3.90625zm10.807144 5.703125q-0.78125 0 -1.46875 -0.28125q-0.6875 -0.28125 -1.1875 -0.796875q-0.5 -0.515625 -0.796875 -1.265625q-0.28125 -0.75 -0.28125 -1.71875q0 -0.953125 0.296875 -1.71875q0.296875 -0.765625 0.78125 -1.28125q0.484375 -0.53125 1.109375 -0.8125q0.625 -0.28125 1.296875 -0.28125q0.734375 0 1.3125 0.265625q0.59375 0.25 0.984375 0.734375q0.390625 0.46875 0.59375 1.140625q0.21875 0.671875 0.21875 1.515625q0 0.203125 -0.015625 0.40625q0 0.1875 -0.03125 0.34375l-5.25 0q0.078125 1.25 0.765625 1.984375q0.703125 0.71875 1.828125 0.71875q0.5625 0 1.03125 -0.171875q0.46875 -0.171875 0.90625 -0.4375l0.46875 0.859375q-0.515625 0.328125 -1.140625 0.5625q-0.625 0.234375 -1.421875 0.234375zm-2.453125 -4.703125l4.15625 0q0 -1.1875 -0.5 -1.796875q-0.5 -0.609375 -1.421875 -0.609375q-0.40625 0 -0.78125 0.15625q-0.375 0.15625 -0.6875 0.46875q-0.296875 0.3125 -0.5 0.765625q-0.203125 0.4375 -0.265625 1.015625zm7.357895 4.515625l0 -10.5l1.328125 0l0 9.359375l4.59375 0l0 1.140625l-5.921875 0zm11.510384 0.1875q-0.796875 0 -1.5 -0.21875q-0.703125 -0.234375 -1.203125 -0.765625q-0.5 -0.546875 -0.7968674 -1.40625q-0.28125 -0.875 -0.28125 -2.140625l0 -6.15625l1.3281174 0l0 6.203125q0 0.9375 0.1875 1.578125q0.203125 0.640625 0.53125 1.03125q0.328125 0.375 0.765625 0.546875q0.453125 0.171875 0.96875 0.171875q0.53125 0 0.96875 -0.171875q0.453125 -0.171875 0.78125 -0.546875q0.34375 -0.390625 0.53125 -1.03125q0.1875 -0.640625 0.1875 -1.578125l0 -6.203125l1.28125 0l0 6.15625q0 1.265625 -0.28125 2.140625q-0.28125 0.859375 -0.796875 1.40625q-0.5 0.53125 -1.1875 0.765625q-0.6875 0.21875 -1.484375 0.21875z" fill-rule="nonzero"></path><path fill="#f4cccc" d="m73.00085 372.28873l91.98708 0l0 31.433044l-91.98708 0z" fill-rule="evenodd"></path><path fill="#000000" d="m92.56783 393.86523l0 -10.5l2.625 0q2.4375 0 3.703125 1.34375q1.265625 1.34375 1.265625 3.859375q0 1.25 -0.328125 2.234375q-0.3125 0.984375 -0.9375 1.671875q-0.625 0.671875 -1.546875 1.03125q-0.90625 0.359375 -2.09375 0.359375l-2.6875 0zm1.328125 -1.09375l1.203125 0q1.84375 0 2.75 -1.09375q0.921875 -1.109375 0.921875 -3.109375q0 -2.0 -0.921875 -3.046875q-0.90625 -1.0625 -2.75 -1.0625l-1.203125 0l0 8.3125zm8.386902 1.09375l0 -7.78125l1.09375 0l0.109375 1.40625l0.046875 0q0.390625 -0.734375 0.953125 -1.15625q0.578125 -0.4375 1.25 -0.4375q0.46875 0 0.828125 0.15625l-0.25 1.15625q-0.1875 -0.0625 -0.359375 -0.09375q-0.15625 -0.03125 -0.390625 -0.03125q-0.5 0 -1.03125 0.40625q-0.53125 0.390625 -0.9375 1.390625l0 4.984375l-1.3125 0zm8.583267 0.1875q-0.734375 0 -1.390625 -0.265625q-0.640625 -0.28125 -1.140625 -0.796875q-0.484375 -0.515625 -0.78125 -1.265625q-0.296875 -0.765625 -0.296875 -1.734375q0 -0.96875 0.296875 -1.734375q0.296875 -0.765625 0.78125 -1.28125q0.5 -0.53125 1.140625 -0.796875q0.65625 -0.28125 1.390625 -0.28125q0.71875 0 1.359375 0.28125q0.65625 0.265625 1.140625 0.796875q0.5 0.515625 0.796875 1.28125q0.296875 0.765625 0.296875 1.734375q0 0.96875 -0.296875 1.734375q-0.296875 0.75 -0.796875 1.265625q-0.484375 0.515625 -1.140625 0.796875q-0.640625 0.265625 -1.359375 0.265625zm0 -1.078125q0.484375 0 0.890625 -0.21875q0.421875 -0.21875 0.71875 -0.609375q0.296875 -0.390625 0.453125 -0.9375q0.171875 -0.546875 0.171875 -1.21875q0 -0.671875 -0.171875 -1.21875q-0.15625 -0.546875 -0.453125 -0.953125q-0.296875 -0.40625 -0.71875 -0.609375q-0.40625 -0.21875 -0.890625 -0.21875q-0.5 0 -0.921875 0.21875q-0.40625 0.203125 -0.703125 0.609375q-0.296875 0.40625 -0.46875 0.953125q-0.15625 0.546875 -0.15625 1.21875q0 0.671875 0.15625 1.21875q0.171875 0.546875 0.46875 0.9375q0.296875 0.390625 0.703125 0.609375q0.421875 0.21875 0.921875 0.21875zm5.6407623 4.171875l0 -11.0625l1.09375 0l0.109375 0.90625l0.046875 0q0.53125 -0.453125 1.15625 -0.765625q0.640625 -0.328125 1.328125 -0.328125q0.75 0 1.3125 0.28125q0.578125 0.28125 0.96875 0.796875q0.390625 0.515625 0.578125 1.25q0.203125 0.734375 0.203125 1.640625q0 0.984375 -0.28125 1.765625q-0.265625 0.78125 -0.734375 1.328125q-0.453125 0.53125 -1.0625 0.8125q-0.609375 0.28125 -1.28125 0.28125q-0.546875 0 -1.078125 -0.234375q-0.53125 -0.234375 -1.078125 -0.65625l0.03125 1.359375l0 2.625l-1.3125 0zm3.21875 -4.1875q0.484375 0 0.890625 -0.21875q0.40625 -0.21875 0.703125 -0.609375q0.296875 -0.390625 0.453125 -0.96875q0.171875 -0.578125 0.171875 -1.296875q0 -0.640625 -0.109375 -1.171875q-0.109375 -0.53125 -0.359375 -0.90625q-0.25 -0.375 -0.640625 -0.578125q-0.390625 -0.203125 -0.9375 -0.203125q-0.5 0 -1.0 0.28125q-0.5 0.265625 -1.078125 0.765625l0 4.078125q0.53125 0.453125 1.015625 0.640625q0.5 0.1875 0.890625 0.1875zm8.6925125 1.09375q-0.7343674 0 -1.3906174 -0.265625q-0.640625 -0.28125 -1.140625 -0.796875q-0.484375 -0.515625 -0.78125 -1.265625q-0.296875 -0.765625 -0.296875 -1.734375q0 -0.96875 0.296875 -1.734375q0.296875 -0.765625 0.78125 -1.28125q0.5 -0.53125 1.140625 -0.796875q0.65625 -0.28125 1.3906174 -0.28125q0.71875 0 1.359375 0.28125q0.65625 0.265625 1.140625 0.796875q0.5 0.515625 0.796875 1.28125q0.296875 0.765625 0.296875 1.734375q0 0.96875 -0.296875 1.734375q-0.296875 0.75 -0.796875 1.265625q-0.484375 0.515625 -1.140625 0.796875q-0.640625 0.265625 -1.359375 0.265625zm0 -1.078125q0.484375 0 0.890625 -0.21875q0.421875 -0.21875 0.71875 -0.609375q0.296875 -0.390625 0.453125 -0.9375q0.171875 -0.546875 0.171875 -1.21875q0 -0.671875 -0.171875 -1.21875q-0.15625 -0.546875 -0.453125 -0.953125q-0.296875 -0.40625 -0.71875 -0.609375q-0.40625 -0.21875 -0.890625 -0.21875q-0.49999237 0 -0.9218674 0.21875q-0.40625 0.203125 -0.703125 0.609375q-0.296875 0.40625 -0.46875 0.953125q-0.15625 0.546875 -0.15625 1.21875q0 0.671875 0.15625 1.21875q0.171875 0.546875 0.46875 0.9375q0.296875 0.390625 0.703125 0.609375q0.421875 0.21875 0.9218674 0.21875zm7.9063873 1.078125q-1.234375 0 -1.8125 -0.765625q-0.5625 -0.765625 -0.5625 -2.265625l0 -4.9375l1.328125 0l0 4.75q0 1.109375 0.34375 1.609375q0.34375 0.484375 1.109375 0.484375q0.60939026 0 1.0625153 -0.3125q0.46875 -0.3125 1.03125 -1.0l0 -5.53125l1.3125 0l0 7.78125l-1.09375 0l-0.109375 -1.21875l-0.046875 0q-0.546875 0.640625 -1.140625 1.03125q-0.59375 0.375 -1.4218903 0.375zm8.891541 0q-0.625 0 -1.0625 -0.1875q-0.421875 -0.1875 -0.6875 -0.515625q-0.25 -0.34375 -0.375 -0.828125q-0.109375 -0.484375 -0.109375 -1.0625l0 -4.296875l-1.140625 0l0 -1.0l1.203125 -0.078125l0.171875 -2.171875l1.09375 0l0 2.171875l2.09375 0l0 1.078125l-2.09375 0l0 4.3125q0 0.734375 0.265625 1.125q0.265625 0.390625 0.9375 0.390625q0.203125 0 0.4375 -0.0625q0.25 -0.078125 0.4375 -0.15625l0.265625 1.0q-0.328125 0.109375 -0.703125 0.1875q-0.375 0.09375 -0.734375 0.09375z" fill-rule="nonzero"></path><path fill="#c9daf8" d="m73.00085 403.72177l91.98708 0l0 54.48819l-91.98708 0z" fill-rule="evenodd"></path><path fill="#000000" d="m105.42933 438.12024q-0.90625 0 -1.703125 -0.328125q-0.796875 -0.328125 -1.390625 -0.9375q-0.578125 -0.625 -0.90625 -1.515625q-0.328125 -0.90625 -0.328125 -2.046875q0 -1.15625 0.359375 -2.0625q0.359375 -0.90625 0.96875 -1.53125q0.609375 -0.625 1.40625 -0.953125q0.8125 -0.328125 1.703125 -0.328125q0.921875 0 1.5625 0.328125q0.65625 0.328125 1.140625 0.765625l-0.796875 1.015625q-0.390625 -0.359375 -0.84375 -0.578125q-0.453125 -0.234375 -1.0 -0.234375q-0.625 0 -1.15625 0.265625q-0.53125 0.25 -0.921875 0.734375q-0.375 0.46875 -0.59375 1.125q-0.21875 0.65625 -0.21875 1.453125q0 0.796875 0.203125 1.4375q0.21875 0.640625 0.578125 1.109375q0.375 0.46875 0.90625 0.734375q0.546875 0.25 1.171875 0.25q0.640625 0 1.171875 -0.265625q0.546875 -0.28125 0.984375 -0.671875l0.6875 1.046875q-0.625 0.546875 -1.390625 0.875q-0.75 0.3125 -1.59375 0.3125zm8.460373 0q-0.859375 0 -1.640625 -0.328125q-0.765625 -0.328125 -1.359375 -0.9375q-0.578125 -0.625 -0.9375 -1.515625q-0.34375 -0.90625 -0.34375 -2.046875q0 -1.15625 0.34375 -2.0625q0.359375 -0.90625 0.9375 -1.53125q0.59375 -0.625 1.359375 -0.953125q0.78125 -0.328125 1.640625 -0.328125q0.84375 0 1.609375 0.328125q0.78125 0.328125 1.359375 0.953125q0.59375 0.625 0.9375 1.53125q0.359375 0.90625 0.359375 2.0625q0 1.140625 -0.359375 2.046875q-0.34375 0.890625 -0.9375 1.515625q-0.578125 0.609375 -1.359375 0.9375q-0.765625 0.328125 -1.609375 0.328125zm0 -1.296875q0.578125 0 1.0625 -0.25q0.5 -0.265625 0.84375 -0.734375q0.359375 -0.46875 0.546875 -1.109375q0.203125 -0.640625 0.203125 -1.4375q0 -0.796875 -0.203125 -1.453125q-0.1875 -0.65625 -0.546875 -1.125q-0.34375 -0.484375 -0.84375 -0.734375q-0.484375 -0.265625 -1.0625 -0.265625q-0.59375 0 -1.09375 0.265625q-0.484375 0.25 -0.84375 0.734375q-0.34375 0.46875 -0.546875 1.125q-0.1875 0.65625 -0.1875 1.453125q0 0.796875 0.1875 1.4375q0.203125 0.640625 0.546875 1.109375q0.359375 0.46875 0.84375 0.734375q0.5 0.25 1.09375 0.25zm6.5179443 1.0625l0 -9.234375l1.28125 0l0.140625 1.328125l0.0625 0q0.65625 -0.65625 1.390625 -1.109375q0.734375 -0.453125 1.703125 -0.453125q1.453125 0 2.125 0.921875q0.6875 0.90625 0.6875 2.6875l0 5.859375l-1.5625 0l0 -5.640625q0 -1.3125 -0.421875 -1.890625q-0.40625 -0.578125 -1.328125 -0.578125q-0.71875 0 -1.28125 0.359375q-0.546875 0.359375 -1.25 1.0625l0 6.6875l-1.546875 0zm12.189339 0l-3.3125 -9.234375l1.609375 0l1.75 5.25q0.203125 0.671875 0.421875 1.359375q0.21875 0.6875 0.4375 1.359375l0.0625 0q0.21875 -0.671875 0.421875 -1.359375q0.21875 -0.6875 0.421875 -1.359375l1.75 -5.25l1.5312653 0l-3.2656403 9.234375l-1.828125 0z" fill-rule="nonzero"></path><path fill="#ead1dc" d="m239.0 340.85565l85.07086 0l0 31.433075l-85.07086 0z" fill-rule="evenodd"></path><path fill="#000000" d="m251.86388 362.4322l0 -7.78125l1.09375 0l0.109375 1.125l0.046875 0q0.515625 -0.5625 1.109375 -0.9375q0.59375 -0.375 1.296875 -0.375q0.90626526 0 1.4062653 0.390625q0.5 0.390625 0.75 1.09375q0.609375 -0.671875 1.21875 -1.078125q0.609375 -0.40625 1.34375 -0.40625q1.1875 0 1.765625 0.765625q0.59375 0.765625 0.59375 2.28125l0 4.921875l-1.3125 0l0 -4.75q0 -1.109375 -0.359375 -1.59375q-0.34375 -0.484375 -1.078125 -0.484375q-0.875 0 -1.953125 1.203125l0 5.625l-1.3125 0l0 -4.75q0 -1.109375 -0.359375 -1.59375q-0.34376526 -0.484375 -1.0937653 -0.484375q-0.875 0 -1.953125 1.203125l0 5.625l-1.3125 0zm15.060898 0.1875q-0.984375 0 -1.640625 -0.5625q-0.640625 -0.578125 -0.640625 -1.640625q0 -1.28125 1.140625 -1.953125q1.140625 -0.6875 3.625 -0.953125q0 -0.375 -0.078125 -0.71875q-0.0625 -0.359375 -0.234375 -0.625q-0.171875 -0.28125 -0.484375 -0.4375q-0.3125 -0.171875 -0.796875 -0.171875q-0.671875 0 -1.265625 0.25q-0.59375 0.25 -1.046875 0.578125l-0.515625 -0.90625q0.546875 -0.359375 1.328125 -0.6875q0.78125 -0.328125 1.71875 -0.328125q1.421875 0 2.0625 0.875q0.640625 0.875 0.640625 2.328125l0 4.765625l-1.078125 0l-0.109375 -0.921875l-0.046875 0q-0.5625 0.453125 -1.203125 0.78125q-0.640625 0.328125 -1.375 0.328125zm0.375 -1.046875q0.5625 0 1.0625 -0.265625q0.5 -0.265625 1.046875 -0.78125l0 -2.15625q-0.96875 0.125 -1.640625 0.3125q-0.65625 0.171875 -1.0625 0.40625q-0.40625 0.234375 -0.59375 0.546875q-0.1875 0.3125 -0.1875 0.6875q0 0.671875 0.390625 0.96875q0.40625 0.28125 0.984375 0.28125zm4.798401 0.859375l2.546875 -4.0625l-2.34375 -3.71875l1.421875 0l1.03125 1.71875q0.1875 0.3125 0.375 0.640625q0.1875 0.328125 0.390625 0.65625l0.078125 0q0.171875 -0.328125 0.34375 -0.65625q0.171875 -0.328125 0.359375 -0.640625l0.9375 -1.71875l1.375 0l-2.34375 3.859375l2.515625 3.921875l-1.421875 0l-1.125 -1.8125q-0.21875 -0.34375 -0.421875 -0.6875q-0.203125 -0.359375 -0.4375 -0.703125l-0.0625 0q-0.203125 0.34375 -0.40625 0.6875q-0.1875 0.34375 -0.375 0.703125l-1.0625 1.8125l-1.375 0zm11.429779 3.28125l0 -11.0625l1.09375 0l0.109375 0.90625l0.046875 0q0.53125 -0.453125 1.15625 -0.765625q0.640625 -0.328125 1.328125 -0.328125q0.75 0 1.3125 0.28125q0.578125 0.28125 0.96875 0.796875q0.390625 0.515625 0.578125 1.25q0.203125 0.734375 0.203125 1.640625q0 0.984375 -0.28125 1.765625q-0.265625 0.78125 -0.734375 1.328125q-0.453125 0.53125 -1.0625 0.8125q-0.609375 0.28125 -1.28125 0.28125q-0.546875 0 -1.078125 -0.234375q-0.53125 -0.234375 -1.078125 -0.65625l0.03125 1.359375l0 2.625l-1.3125 0zm3.21875 -4.1875q0.484375 0 0.890625 -0.21875q0.40625 -0.21875 0.703125 -0.609375q0.296875 -0.390625 0.453125 -0.96875q0.171875 -0.578125 0.171875 -1.296875q0 -0.640625 -0.109375 -1.171875q-0.109375 -0.53125 -0.359375 -0.90625q-0.25 -0.375 -0.640625 -0.578125q-0.390625 -0.203125 -0.9375 -0.203125q-0.5 0 -1.0 0.28125q-0.5 0.265625 -1.078125 0.765625l0 4.078125q0.53125 0.453125 1.015625 0.640625q0.5 0.1875 0.890625 0.1875zm8.692505 1.09375q-0.734375 0 -1.390625 -0.265625q-0.640625 -0.28125 -1.140625 -0.796875q-0.484375 -0.515625 -0.78125 -1.265625q-0.296875 -0.765625 -0.296875 -1.734375q0 -0.96875 0.296875 -1.734375q0.296875 -0.765625 0.78125 -1.28125q0.5 -0.53125 1.140625 -0.796875q0.65625 -0.28125 1.390625 -0.28125q0.71875 0 1.359375 0.28125q0.65625 0.265625 1.140625 0.796875q0.5 0.515625 0.796875 1.28125q0.296875 0.765625 0.296875 1.734375q0 0.96875 -0.296875 1.734375q-0.296875 0.75 -0.796875 1.265625q-0.484375 0.515625 -1.140625 0.796875q-0.640625 0.265625 -1.359375 0.265625zm0 -1.078125q0.484375 0 0.890625 -0.21875q0.421875 -0.21875 0.71875 -0.609375q0.296875 -0.390625 0.453125 -0.9375q0.171875 -0.546875 0.171875 -1.21875q0 -0.671875 -0.171875 -1.21875q-0.15625 -0.546875 -0.453125 -0.953125q-0.296875 -0.40625 -0.71875 -0.609375q-0.40625 -0.21875 -0.890625 -0.21875q-0.5 0 -0.921875 0.21875q-0.40625 0.203125 -0.703125 0.609375q-0.296875 0.40625 -0.46875 0.953125q-0.15625 0.546875 -0.15625 1.21875q0 0.671875 0.15625 1.21875q0.171875 0.546875 0.46875 0.9375q0.296875 0.390625 0.703125 0.609375q0.421875 0.21875 0.921875 0.21875zm8.671997 1.078125q-0.734375 0 -1.3905945 -0.265625q-0.640625 -0.28125 -1.140625 -0.796875q-0.484375 -0.515625 -0.78125 -1.265625q-0.296875 -0.765625 -0.296875 -1.734375q0 -0.96875 0.296875 -1.734375q0.296875 -0.765625 0.78125 -1.28125q0.5 -0.53125 1.140625 -0.796875q0.6562195 -0.28125 1.3905945 -0.28125q0.71875 0 1.359375 0.28125q0.65625 0.265625 1.140625 0.796875q0.5 0.515625 0.796875 1.28125q0.296875 0.765625 0.296875 1.734375q0 0.96875 -0.296875 1.734375q-0.296875 0.75 -0.796875 1.265625q-0.484375 0.515625 -1.140625 0.796875q-0.640625 0.265625 -1.359375 0.265625zm0 -1.078125q0.484375 0 0.890625 -0.21875q0.421875 -0.21875 0.71875 -0.609375q0.296875 -0.390625 0.453125 -0.9375q0.171875 -0.546875 0.171875 -1.21875q0 -0.671875 -0.171875 -1.21875q-0.15625 -0.546875 -0.453125 -0.953125q-0.296875 -0.40625 -0.71875 -0.609375q-0.40625 -0.21875 -0.890625 -0.21875q-0.5 0 -0.921875 0.21875q-0.40621948 0.203125 -0.7030945 0.609375q-0.296875 0.40625 -0.46875 0.953125q-0.15625 0.546875 -0.15625 1.21875q0 0.671875 0.15625 1.21875q0.171875 0.546875 0.46875 0.9375q0.296875 0.390625 0.7030945 0.609375q0.421875 0.21875 0.921875 0.21875zm7.0314026 1.078125q-0.75 0 -1.078125 -0.4375q-0.3125 -0.453125 -0.3125 -1.3125l0 -9.828125l1.3125 0l0 9.921875q0 0.3125 0.109375 0.453125q0.109375 0.125 0.25 0.125q0.078125 0 0.125 0q0.0625 0 0.171875 -0.03125l0.171875 0.984375q-0.125 0.0625 -0.3125 0.09375q-0.171875 0.03125 -0.4375 0.03125z" fill-rule="nonzero"></path><path fill="#d0e0e3" d="m72.99524 521.9895l91.98709 0l0 31.433044l-91.98709 0z" fill-rule="evenodd"></path><path fill="#000000" d="m110.546265 543.56604l0 -10.5l3.125 0q0.796875 0 1.453125 0.15625q0.671875 0.140625 1.140625 0.453125q0.46875 0.296875 0.734375 0.78125q0.265625 0.484375 0.265625 1.171875q0 0.78125 -0.390625 1.421875q-0.390625 0.625 -1.140625 0.875l0 0.0625q0.953125 0.171875 1.546875 0.796875q0.59375 0.625 0.59375 1.703125q0 0.78125 -0.296875 1.359375q-0.28125 0.5625 -0.8125 0.953125q-0.515625 0.375 -1.265625 0.578125q-0.734375 0.1875 -1.609375 0.1875l-3.34375 0zm1.328125 -6.03125l1.546875 0q1.34375 0 1.9375 -0.453125q0.59375 -0.46875 0.59375 -1.28125q0 -0.90625 -0.625 -1.28125q-0.609375 -0.390625 -1.828125 -0.390625l-1.625 0l0 3.40625zm0 4.96875l1.828125 0q1.359375 0 2.109375 -0.5q0.75 -0.5 0.75 -1.5625q0 -0.96875 -0.734375 -1.421875q-0.734375 -0.46875 -2.125 -0.46875l-1.828125 0l0 3.953125zm8.079895 1.0625l0 -10.5l1.375 0l3.796875 6.59375l1.140625 2.171875l0.0625 0q-0.046875 -0.796875 -0.109375 -1.640625q-0.0625 -0.859375 -0.0625 -1.703125l0 -5.421875l1.265625 0l0 10.5l-1.375 0l-3.796875 -6.609375l-1.140625 -2.15625l-0.0625 0q0.0625 0.796875 0.109375 1.625q0.0625 0.828125 0.0625 1.65625l0 5.484375l-1.265625 0z" fill-rule="nonzero"></path><path fill="#fff2cc" d="m72.99524 553.42255l91.98709 0l0 31.433105l-91.98709 0z" fill-rule="evenodd"></path><path fill="#000000" d="m102.858246 574.9991l0 -10.5l3.28125 0q0.796875 0 1.46875 0.15625q0.6875 0.15625 1.171875 0.515625q0.5 0.34375 0.765625 0.90625q0.28125 0.546875 0.28125 1.375q0 1.234375 -0.640625 1.96875q-0.640625 0.734375 -1.734375 1.0l2.671875 4.578125l-1.5 0l-2.53125 -4.4375l-1.90625 0l0 4.4375l-1.328125 0zm1.328125 -5.515625l1.765625 0q1.234375 0 1.890625 -0.5q0.65625 -0.515625 0.65625 -1.53125q0 -1.046875 -0.65625 -1.453125q-0.65625 -0.421875 -1.890625 -0.421875l-1.765625 0l0 3.90625zm10.807144 5.703125q-0.78125 0 -1.46875 -0.28125q-0.6875 -0.28125 -1.1875 -0.796875q-0.5 -0.515625 -0.796875 -1.265625q-0.28125 -0.75 -0.28125 -1.71875q0 -0.953125 0.296875 -1.71875q0.296875 -0.765625 0.78125 -1.28125q0.484375 -0.53125 1.109375 -0.8125q0.625 -0.28125 1.296875 -0.28125q0.734375 0 1.3125 0.265625q0.59375 0.25 0.984375 0.734375q0.390625 0.46875 0.59375 1.140625q0.21875 0.671875 0.21875 1.515625q0 0.203125 -0.015625 0.40625q0 0.1875 -0.03125 0.34375l-5.25 0q0.078125 1.25 0.765625 1.984375q0.703125 0.71875 1.828125 0.71875q0.5625 0 1.03125 -0.171875q0.46875 -0.171875 0.90625 -0.4375l0.46875 0.859375q-0.515625 0.328125 -1.140625 0.5625q-0.625 0.234375 -1.421875 0.234375zm-2.453125 -4.703125l4.15625 0q0 -1.1875 -0.5 -1.796875q-0.5 -0.609375 -1.421875 -0.609375q-0.40625 0 -0.78125 0.15625q-0.375 0.15625 -0.6875 0.46875q-0.296875 0.3125 -0.5 0.765625q-0.203125 0.4375 -0.265625 1.015625zm7.357895 4.515625l0 -10.5l1.328125 0l0 9.359375l4.59375 0l0 1.140625l-5.921875 0zm11.510391 0.1875q-0.796875 0 -1.5 -0.21875q-0.703125 -0.234375 -1.203125 -0.765625q-0.5 -0.546875 -0.796875 -1.40625q-0.28125 -0.875 -0.28125 -2.140625l0 -6.15625l1.328125 0l0 6.203125q0 0.9375 0.1875 1.578125q0.203125 0.640625 0.53125 1.03125q0.328125 0.375 0.765625 0.546875q0.453125 0.171875 0.96875 0.171875q0.53125 0 0.96875 -0.171875q0.453125 -0.171875 0.78125 -0.546875q0.34375 -0.390625 0.53125 -1.03125q0.1875 -0.640625 0.1875 -1.578125l0 -6.203125l1.28125 0l0 6.15625q0 1.265625 -0.28125 2.140625q-0.28125 0.859375 -0.796875 1.40625q-0.5 0.53125 -1.1875 0.765625q-0.6875 0.21875 -1.484375 0.21875z" fill-rule="nonzero"></path><path fill="#c9daf8" d="m72.99524 584.85565l91.98709 0l0 54.48816l-91.98709 0z" fill-rule="evenodd"></path><path fill="#000000" d="m105.42372 619.2541q-0.90625 0 -1.703125 -0.328125q-0.796875 -0.328125 -1.390625 -0.9375q-0.578125 -0.625 -0.90625 -1.515625q-0.328125 -0.90625 -0.328125 -2.046875q0 -1.15625 0.359375 -2.0625q0.359375 -0.90625 0.96875 -1.53125q0.609375 -0.625 1.40625 -0.953125q0.8125 -0.328125 1.703125 -0.328125q0.921875 0 1.5625 0.328125q0.65625 0.328125 1.140625 0.765625l-0.796875 1.015625q-0.390625 -0.359375 -0.84375 -0.578125q-0.453125 -0.234375 -1.0 -0.234375q-0.625 0 -1.15625 0.265625q-0.53125 0.25 -0.921875 0.734375q-0.375 0.46875 -0.59375 1.125q-0.21875 0.65625 -0.21875 1.453125q0 0.796875 0.203125 1.4375q0.21875 0.640625 0.578125 1.109375q0.375 0.46875 0.90625 0.734375q0.546875 0.25 1.171875 0.25q0.640625 0 1.171875 -0.265625q0.546875 -0.28125 0.984375 -0.671875l0.6875 1.046875q-0.625 0.546875 -1.390625 0.875q-0.75 0.3125 -1.59375 0.3125zm8.460373 0q-0.859375 0 -1.640625 -0.328125q-0.765625 -0.328125 -1.359375 -0.9375q-0.578125 -0.625 -0.9375 -1.515625q-0.34375 -0.90625 -0.34375 -2.046875q0 -1.15625 0.34375 -2.0625q0.359375 -0.90625 0.9375 -1.53125q0.59375 -0.625 1.359375 -0.953125q0.78125 -0.328125 1.640625 -0.328125q0.84375 0 1.609375 0.328125q0.78125 0.328125 1.359375 0.953125q0.59375 0.625 0.9375 1.53125q0.359375 0.90625 0.359375 2.0625q0 1.140625 -0.359375 2.046875q-0.34375 0.890625 -0.9375 1.515625q-0.578125 0.609375 -1.359375 0.9375q-0.765625 0.328125 -1.609375 0.328125zm0 -1.296875q0.578125 0 1.0625 -0.25q0.5 -0.265625 0.84375 -0.734375q0.359375 -0.46875 0.546875 -1.109375q0.203125 -0.640625 0.203125 -1.4375q0 -0.796875 -0.203125 -1.453125q-0.1875 -0.65625 -0.546875 -1.125q-0.34375 -0.484375 -0.84375 -0.734375q-0.484375 -0.265625 -1.0625 -0.265625q-0.59375 0 -1.09375 0.265625q-0.484375 0.25 -0.84375 0.734375q-0.34375 0.46875 -0.546875 1.125q-0.1875 0.65625 -0.1875 1.453125q0 0.796875 0.1875 1.4375q0.203125 0.640625 0.546875 1.109375q0.359375 0.46875 0.84375 0.734375q0.5 0.25 1.09375 0.25zm6.5179443 1.0625l0 -9.234375l1.28125 0l0.140625 1.328125l0.0625 0q0.65625 -0.65625 1.390625 -1.109375q0.734375 -0.453125 1.703125 -0.453125q1.453125 0 2.125 0.921875q0.6875 0.90625 0.6875 2.6875l0 5.859375l-1.5625 0l0 -5.640625q0 -1.3125 -0.421875 -1.890625q-0.40625 -0.578125 -1.328125 -0.578125q-0.71875 0 -1.28125 0.359375q-0.546875 0.359375 -1.25 1.0625l0 6.6875l-1.546875 0zm12.189346 0l-3.3125 -9.234375l1.609375 0l1.75 5.25q0.203125 0.671875 0.421875 1.359375q0.21875 0.6875 0.4375 1.359375l0.0625 0q0.21875 -0.671875 0.421875 -1.359375q0.21875 -0.6875 0.421875 -1.359375l1.75 -5.25l1.53125 0l-3.265625 9.234375l-1.828125 0z" fill-rule="nonzero"></path><path fill="#d0e0e3" d="m72.99524 639.3438l91.98709 0l0 31.433105l-91.98709 0z" fill-rule="evenodd"></path><path fill="#000000" d="m110.546265 660.92035l0 -10.5l3.125 0q0.796875 0 1.453125 0.15625q0.671875 0.140625 1.140625 0.453125q0.46875 0.296875 0.734375 0.78125q0.265625 0.484375 0.265625 1.171875q0 0.78125 -0.390625 1.421875q-0.390625 0.625 -1.140625 0.875l0 0.0625q0.953125 0.171875 1.546875 0.796875q0.59375 0.625 0.59375 1.703125q0 0.78125 -0.296875 1.359375q-0.28125 0.5625 -0.8125 0.953125q-0.515625 0.375 -1.265625 0.578125q-0.734375 0.1875 -1.609375 0.1875l-3.34375 0zm1.328125 -6.03125l1.546875 0q1.34375 0 1.9375 -0.453125q0.59375 -0.46875 0.59375 -1.28125q0 -0.90625 -0.625 -1.28125q-0.609375 -0.390625 -1.828125 -0.390625l-1.625 0l0 3.40625zm0 4.96875l1.828125 0q1.359375 0 2.109375 -0.5q0.75 -0.5 0.75 -1.5625q0 -0.96875 -0.734375 -1.421875q-0.734375 -0.46875 -2.125 -0.46875l-1.828125 0l0 3.953125zm8.079895 1.0625l0 -10.5l1.375 0l3.796875 6.59375l1.140625 2.171875l0.0625 0q-0.046875 -0.796875 -0.109375 -1.640625q-0.0625 -0.859375 -0.0625 -1.703125l0 -5.421875l1.265625 0l0 10.5l-1.375 0l-3.796875 -6.609375l-1.140625 -2.15625l-0.0625 0q0.0625 0.796875 0.109375 1.625q0.0625 0.828125 0.0625 1.65625l0 5.484375l-1.265625 0z" fill-rule="nonzero"></path><path fill="#fff2cc" d="m72.99524 670.7769l91.98709 0l0 31.433044l-91.98709 0z" fill-rule="evenodd"></path><path fill="#000000" d="m102.858246 692.35345l0 -10.5l3.28125 0q0.796875 0 1.46875 0.15625q0.6875 0.15625 1.171875 0.515625q0.5 0.34375 0.765625 0.90625q0.28125 0.546875 0.28125 1.375q0 1.234375 -0.640625 1.96875q-0.640625 0.734375 -1.734375 1.0l2.671875 4.578125l-1.5 0l-2.53125 -4.4375l-1.90625 0l0 4.4375l-1.328125 0zm1.328125 -5.515625l1.765625 0q1.234375 0 1.890625 -0.5q0.65625 -0.515625 0.65625 -1.53125q0 -1.046875 -0.65625 -1.453125q-0.65625 -0.421875 -1.890625 -0.421875l-1.765625 0l0 3.90625zm10.807144 5.703125q-0.78125 0 -1.46875 -0.28125q-0.6875 -0.28125 -1.1875 -0.796875q-0.5 -0.515625 -0.796875 -1.265625q-0.28125 -0.75 -0.28125 -1.71875q0 -0.953125 0.296875 -1.71875q0.296875 -0.765625 0.78125 -1.28125q0.484375 -0.53125 1.109375 -0.8125q0.625 -0.28125 1.296875 -0.28125q0.734375 0 1.3125 0.265625q0.59375 0.25 0.984375 0.734375q0.390625 0.46875 0.59375 1.140625q0.21875 0.671875 0.21875 1.515625q0 0.203125 -0.015625 0.40625q0 0.1875 -0.03125 0.34375l-5.25 0q0.078125 1.25 0.765625 1.984375q0.703125 0.71875 1.828125 0.71875q0.5625 0 1.03125 -0.171875q0.46875 -0.171875 0.90625 -0.4375l0.46875 0.859375q-0.515625 0.328125 -1.140625 0.5625q-0.625 0.234375 -1.421875 0.234375zm-2.453125 -4.703125l4.15625 0q0 -1.1875 -0.5 -1.796875q-0.5 -0.609375 -1.421875 -0.609375q-0.40625 0 -0.78125 0.15625q-0.375 0.15625 -0.6875 0.46875q-0.296875 0.3125 -0.5 0.765625q-0.203125 0.4375 -0.265625 1.015625zm7.357895 4.515625l0 -10.5l1.328125 0l0 9.359375l4.59375 0l0 1.140625l-5.921875 0zm11.510391 0.1875q-0.796875 0 -1.5 -0.21875q-0.703125 -0.234375 -1.203125 -0.765625q-0.5 -0.546875 -0.796875 -1.40625q-0.28125 -0.875 -0.28125 -2.140625l0 -6.15625l1.328125 0l0 6.203125q0 0.9375 0.1875 1.578125q0.203125 0.640625 0.53125 1.03125q0.328125 0.375 0.765625 0.546875q0.453125 0.171875 0.96875 0.171875q0.53125 0 0.96875 -0.171875q0.453125 -0.171875 0.78125 -0.546875q0.34375 -0.390625 0.53125 -1.03125q0.1875 -0.640625 0.1875 -1.578125l0 -6.203125l1.28125 0l0 6.15625q0 1.265625 -0.28125 2.140625q-0.28125 0.859375 -0.796875 1.40625q-0.5 0.53125 -1.1875 0.765625q-0.6875 0.21875 -1.484375 0.21875z" fill-rule="nonzero"></path><path fill="#f4cccc" d="m72.99524 702.20996l91.98709 0l0 31.433105l-91.98709 0z" fill-rule="evenodd"></path><path fill="#000000" d="m92.562225 723.7865l0 -10.5l2.625 0q2.4375 0 3.703125 1.34375q1.265625 1.34375 1.265625 3.859375q0 1.25 -0.328125 2.234375q-0.3125 0.984375 -0.9375 1.671875q-0.625 0.671875 -1.546875 1.03125q-0.90625 0.359375 -2.09375 0.359375l-2.6875 0zm1.328125 -1.09375l1.203125 0q1.84375 0 2.75 -1.09375q0.921875 -1.109375 0.921875 -3.109375q0 -2.0 -0.921875 -3.046875q-0.90625 -1.0625 -2.75 -1.0625l-1.203125 0l0 8.3125zm8.386902 1.09375l0 -7.78125l1.09375 0l0.109375 1.40625l0.046875 0q0.390625 -0.734375 0.953125 -1.15625q0.578125 -0.4375 1.25 -0.4375q0.46875 0 0.828125 0.15625l-0.25 1.15625q-0.1875 -0.0625 -0.359375 -0.09375q-0.15625 -0.03125 -0.390625 -0.03125q-0.5 0 -1.03125 0.40625q-0.53125 0.390625 -0.9375 1.390625l0 4.984375l-1.3125 0zm8.583267 0.1875q-0.734375 0 -1.390625 -0.265625q-0.640625 -0.28125 -1.140625 -0.796875q-0.484375 -0.515625 -0.78125 -1.265625q-0.296875 -0.765625 -0.296875 -1.734375q0 -0.96875 0.296875 -1.734375q0.296875 -0.765625 0.78125 -1.28125q0.5 -0.53125 1.140625 -0.796875q0.65625 -0.28125 1.390625 -0.28125q0.71875 0 1.359375 0.28125q0.65625 0.265625 1.140625 0.796875q0.5 0.515625 0.796875 1.28125q0.296875 0.765625 0.296875 1.734375q0 0.96875 -0.296875 1.734375q-0.296875 0.75 -0.796875 1.265625q-0.484375 0.515625 -1.140625 0.796875q-0.640625 0.265625 -1.359375 0.265625zm0 -1.078125q0.484375 0 0.890625 -0.21875q0.421875 -0.21875 0.71875 -0.609375q0.296875 -0.390625 0.453125 -0.9375q0.171875 -0.546875 0.171875 -1.21875q0 -0.671875 -0.171875 -1.21875q-0.15625 -0.546875 -0.453125 -0.953125q-0.296875 -0.40625 -0.71875 -0.609375q-0.40625 -0.21875 -0.890625 -0.21875q-0.5 0 -0.921875 0.21875q-0.40625 0.203125 -0.703125 0.609375q-0.296875 0.40625 -0.46875 0.953125q-0.15625 0.546875 -0.15625 1.21875q0 0.671875 0.15625 1.21875q0.171875 0.546875 0.46875 0.9375q0.296875 0.390625 0.703125 0.609375q0.421875 0.21875 0.921875 0.21875zm5.6407623 4.171875l0 -11.0625l1.09375 0l0.109375 0.90625l0.046875 0q0.53125 -0.453125 1.15625 -0.765625q0.640625 -0.328125 1.328125 -0.328125q0.75 0 1.3125 0.28125q0.578125 0.28125 0.96875 0.796875q0.390625 0.515625 0.578125 1.25q0.203125 0.734375 0.203125 1.640625q0 0.984375 -0.28125 1.765625q-0.265625 0.78125 -0.734375 1.328125q-0.453125 0.53125 -1.0625 0.8125q-0.609375 0.28125 -1.28125 0.28125q-0.546875 0 -1.078125 -0.234375q-0.53125 -0.234375 -1.078125 -0.65625l0.03125 1.359375l0 2.625l-1.3125 0zm3.21875 -4.1875q0.484375 0 0.890625 -0.21875q0.40625 -0.21875 0.703125 -0.609375q0.296875 -0.390625 0.453125 -0.96875q0.171875 -0.578125 0.171875 -1.296875q0 -0.640625 -0.109375 -1.171875q-0.109375 -0.53125 -0.359375 -0.90625q-0.25 -0.375 -0.640625 -0.578125q-0.390625 -0.203125 -0.9375 -0.203125q-0.5 0 -1.0 0.28125q-0.5 0.265625 -1.078125 0.765625l0 4.078125q0.53125 0.453125 1.015625 0.640625q0.5 0.1875 0.890625 0.1875zm8.69252 1.09375q-0.734375 0 -1.390625 -0.265625q-0.640625 -0.28125 -1.140625 -0.796875q-0.484375 -0.515625 -0.78125 -1.265625q-0.296875 -0.765625 -0.296875 -1.734375q0 -0.96875 0.296875 -1.734375q0.296875 -0.765625 0.78125 -1.28125q0.5 -0.53125 1.140625 -0.796875q0.65625 -0.28125 1.390625 -0.28125q0.71875 0 1.359375 0.28125q0.65625 0.265625 1.140625 0.796875q0.5 0.515625 0.796875 1.28125q0.296875 0.765625 0.296875 1.734375q0 0.96875 -0.296875 1.734375q-0.296875 0.75 -0.796875 1.265625q-0.484375 0.515625 -1.140625 0.796875q-0.640625 0.265625 -1.359375 0.265625zm0 -1.078125q0.484375 0 0.890625 -0.21875q0.421875 -0.21875 0.71875 -0.609375q0.296875 -0.390625 0.453125 -0.9375q0.171875 -0.546875 0.171875 -1.21875q0 -0.671875 -0.171875 -1.21875q-0.15625 -0.546875 -0.453125 -0.953125q-0.296875 -0.40625 -0.71875 -0.609375q-0.40625 -0.21875 -0.890625 -0.21875q-0.5 0 -0.921875 0.21875q-0.40625 0.203125 -0.703125 0.609375q-0.296875 0.40625 -0.46875 0.953125q-0.15625 0.546875 -0.15625 1.21875q0 0.671875 0.15625 1.21875q0.171875 0.546875 0.46875 0.9375q0.296875 0.390625 0.703125 0.609375q0.421875 0.21875 0.921875 0.21875zm7.9063873 1.078125q-1.234375 0 -1.8125 -0.765625q-0.5625 -0.765625 -0.5625 -2.265625l0 -4.9375l1.328125 0l0 4.75q0 1.109375 0.34375 1.609375q0.34375 0.484375 1.109375 0.484375q0.609375 0 1.0625 -0.3125q0.46875 -0.3125 1.03125 -1.0l0 -5.53125l1.3125 0l0 7.78125l-1.09375 0l-0.109375 -1.21875l-0.046875 0q-0.546875 0.640625 -1.140625 1.03125q-0.59375 0.375 -1.421875 0.375zm8.891525 0q-0.625 0 -1.0625 -0.1875q-0.421875 -0.1875 -0.6875 -0.515625q-0.25 -0.34375 -0.375 -0.828125q-0.109375 -0.484375 -0.109375 -1.0625l0 -4.296875l-1.140625 0l0 -1.0l1.203125 -0.078125l0.171875 -2.171875l1.09375 0l0 2.171875l2.09375 0l0 1.078125l-2.09375 0l0 4.3125q0 0.734375 0.265625 1.125q0.265625 0.390625 0.9375 0.390625q0.203125 0 0.4375 -0.0625q0.25 -0.078125 0.4375 -0.15625l0.265625 1.0q-0.328125 0.109375 -0.703125 0.1875q-0.375 0.09375 -0.734375 0.09375z" fill-rule="nonzero"></path><path fill="#c9daf8" d="m72.99524 733.64307l91.98709 0l0 54.48816l-91.98709 0z" fill-rule="evenodd"></path><path fill="#000000" d="m105.42372 768.0415q-0.90625 0 -1.703125 -0.328125q-0.796875 -0.328125 -1.390625 -0.9375q-0.578125 -0.625 -0.90625 -1.515625q-0.328125 -0.90625 -0.328125 -2.046875q0 -1.15625 0.359375 -2.0625q0.359375 -0.90625 0.96875 -1.53125q0.609375 -0.625 1.40625 -0.953125q0.8125 -0.328125 1.703125 -0.328125q0.921875 0 1.5625 0.328125q0.65625 0.328125 1.140625 0.765625l-0.796875 1.015625q-0.390625 -0.359375 -0.84375 -0.578125q-0.453125 -0.234375 -1.0 -0.234375q-0.625 0 -1.15625 0.265625q-0.53125 0.25 -0.921875 0.734375q-0.375 0.46875 -0.59375 1.125q-0.21875 0.65625 -0.21875 1.453125q0 0.796875 0.203125 1.4375q0.21875 0.640625 0.578125 1.109375q0.375 0.46875 0.90625 0.734375q0.546875 0.25 1.171875 0.25q0.640625 0 1.171875 -0.265625q0.546875 -0.28125 0.984375 -0.671875l0.6875 1.046875q-0.625 0.546875 -1.390625 0.875q-0.75 0.3125 -1.59375 0.3125zm8.460373 0q-0.859375 0 -1.640625 -0.328125q-0.765625 -0.328125 -1.359375 -0.9375q-0.578125 -0.625 -0.9375 -1.515625q-0.34375 -0.90625 -0.34375 -2.046875q0 -1.15625 0.34375 -2.0625q0.359375 -0.90625 0.9375 -1.53125q0.59375 -0.625 1.359375 -0.953125q0.78125 -0.328125 1.640625 -0.328125q0.84375 0 1.609375 0.328125q0.78125 0.328125 1.359375 0.953125q0.59375 0.625 0.9375 1.53125q0.359375 0.90625 0.359375 2.0625q0 1.140625 -0.359375 2.046875q-0.34375 0.890625 -0.9375 1.515625q-0.578125 0.609375 -1.359375 0.9375q-0.765625 0.328125 -1.609375 0.328125zm0 -1.296875q0.578125 0 1.0625 -0.25q0.5 -0.265625 0.84375 -0.734375q0.359375 -0.46875 0.546875 -1.109375q0.203125 -0.640625 0.203125 -1.4375q0 -0.796875 -0.203125 -1.453125q-0.1875 -0.65625 -0.546875 -1.125q-0.34375 -0.484375 -0.84375 -0.734375q-0.484375 -0.265625 -1.0625 -0.265625q-0.59375 0 -1.09375 0.265625q-0.484375 0.25 -0.84375 0.734375q-0.34375 0.46875 -0.546875 1.125q-0.1875 0.65625 -0.1875 1.453125q0 0.796875 0.1875 1.4375q0.203125 0.640625 0.546875 1.109375q0.359375 0.46875 0.84375 0.734375q0.5 0.25 1.09375 0.25zm6.5179443 1.0625l0 -9.234375l1.28125 0l0.140625 1.328125l0.0625 0q0.65625 -0.65625 1.390625 -1.109375q0.734375 -0.453125 1.703125 -0.453125q1.453125 0 2.125 0.921875q0.6875 0.90625 0.6875 2.6875l0 5.859375l-1.5625 0l0 -5.640625q0 -1.3125 -0.421875 -1.890625q-0.40625 -0.578125 -1.328125 -0.578125q-0.71875 0 -1.28125 0.359375q-0.546875 0.359375 -1.25 1.0625l0 6.6875l-1.546875 0zm12.189346 0l-3.3125 -9.234375l1.609375 0l1.75 5.25q0.203125 0.671875 0.421875 1.359375q0.21875 0.6875 0.4375 1.359375l0.0625 0q0.21875 -0.671875 0.421875 -1.359375q0.21875 -0.6875 0.421875 -1.359375l1.75 -5.25l1.53125 0l-3.265625 9.234375l-1.828125 0z" fill-rule="nonzero"></path><path fill="#d0e0e3" d="m72.99595 128.28871l91.98708 0l0 31.433075l-91.98708 0z" fill-rule="evenodd"></path><path fill="#000000" d="m110.546974 149.86525l0 -10.5l3.125 0q0.796875 0 1.453125 0.15625q0.671875 0.140625 1.140625 0.453125q0.46875 0.296875 0.734375 0.78125q0.265625 0.484375 0.265625 1.171875q0 0.78125 -0.390625 1.421875q-0.390625 0.625 -1.140625 0.875l0 0.0625q0.953125 0.171875 1.546875 0.796875q0.59375 0.625 0.59375 1.703125q0 0.78125 -0.296875 1.359375q-0.28125 0.5625 -0.8125 0.953125q-0.515625 0.375 -1.265625 0.578125q-0.734375 0.1875 -1.609375 0.1875l-3.34375 0zm1.328125 -6.03125l1.546875 0q1.34375 0 1.9375 -0.453125q0.59375 -0.46875 0.59375 -1.28125q0 -0.90625 -0.625 -1.28125q-0.609375 -0.390625 -1.828125 -0.390625l-1.625 0l0 3.40625zm0 4.96875l1.828125 0q1.359375 0 2.109375 -0.5q0.75 -0.5 0.75 -1.5625q0 -0.96875 -0.734375 -1.421875q-0.734375 -0.46875 -2.125 -0.46875l-1.828125 0l0 3.953125zm8.079895 1.0625l0 -10.5l1.375 0l3.796875 6.59375l1.140625 2.171875l0.0625 0q-0.046875 -0.796875 -0.109375 -1.640625q-0.0625 -0.859375 -0.0625 -1.703125l0 -5.421875l1.265625 0l0 10.5l-1.375 0l-3.796875 -6.609375l-1.140625 -2.15625l-0.0625 0q0.0625 0.796875 0.109375 1.625q0.0625 0.828125 0.0625 1.65625l0 5.484375l-1.265625 0z" fill-rule="nonzero"></path><path fill="#c9daf8" d="m72.99595 73.80052l91.98708 0l0 54.48819l-91.98708 0z" fill-rule="evenodd"></path><path fill="#000000" d="m105.42443 108.19899q-0.90625 0 -1.703125 -0.328125q-0.796875 -0.328125 -1.390625 -0.9375q-0.578125 -0.625 -0.90625 -1.515625q-0.328125 -0.90625 -0.328125 -2.046875q0 -1.15625 0.359375 -2.0625q0.359375 -0.90625 0.96875 -1.53125q0.609375 -0.625 1.40625 -0.953125q0.8125 -0.328125 1.703125 -0.328125q0.921875 0 1.5625 0.328125q0.65625 0.328125 1.140625 0.765625l-0.796875 1.015625q-0.390625 -0.359375 -0.84375 -0.578125q-0.453125 -0.234375 -1.0 -0.234375q-0.625 0 -1.15625 0.265625q-0.53125 0.25 -0.921875 0.734375q-0.375 0.46875 -0.59375 1.125q-0.21875 0.65625 -0.21875 1.453125q0 0.796875 0.203125 1.4375q0.21875 0.640625 0.578125 1.109375q0.375 0.46875 0.90625 0.734375q0.546875 0.25 1.171875 0.25q0.640625 0 1.171875 -0.265625q0.546875 -0.28125 0.984375 -0.671875l0.6875 1.046875q-0.625 0.546875 -1.390625 0.875q-0.75 0.3125 -1.59375 0.3125zm8.460373 0q-0.859375 0 -1.640625 -0.328125q-0.765625 -0.328125 -1.359375 -0.9375q-0.578125 -0.625 -0.9375 -1.515625q-0.34375 -0.90625 -0.34375 -2.046875q0 -1.15625 0.34375 -2.0625q0.359375 -0.90625 0.9375 -1.53125q0.59375 -0.625 1.359375 -0.953125q0.78125 -0.328125 1.640625 -0.328125q0.84375 0 1.609375 0.328125q0.78125 0.328125 1.359375 0.953125q0.59375 0.625 0.9375 1.53125q0.359375 0.90625 0.359375 2.0625q0 1.140625 -0.359375 2.046875q-0.34375 0.890625 -0.9375 1.515625q-0.578125 0.609375 -1.359375 0.9375q-0.765625 0.328125 -1.609375 0.328125zm0 -1.296875q0.578125 0 1.0625 -0.25q0.5 -0.265625 0.84375 -0.734375q0.359375 -0.46875 0.546875 -1.109375q0.203125 -0.640625 0.203125 -1.4375q0 -0.796875 -0.203125 -1.453125q-0.1875 -0.65625 -0.546875 -1.125q-0.34375 -0.484375 -0.84375 -0.734375q-0.484375 -0.265625 -1.0625 -0.265625q-0.59375 0 -1.09375 0.265625q-0.484375 0.25 -0.84375 0.734375q-0.34375 0.46875 -0.546875 1.125q-0.1875 0.65625 -0.1875 1.453125q0 0.796875 0.1875 1.4375q0.203125 0.640625 0.546875 1.109375q0.359375 0.46875 0.84375 0.734375q0.5 0.25 1.09375 0.25zm6.5179443 1.0625l0 -9.234375l1.28125 0l0.140625 1.328125l0.0625 0q0.65625 -0.65625 1.390625 -1.109375q0.734375 -0.453125 1.703125 -0.453125q1.453125 0 2.125 0.921875q0.6875 0.90625 0.6875 2.6875l0 5.859375l-1.5625 0l0 -5.640625q0 -1.3125 -0.421875 -1.890625q-0.40625 -0.578125 -1.328125 -0.578125q-0.71875 0 -1.28125 0.359375q-0.546875 0.359375 -1.25 1.0625l0 6.6875l-1.546875 0zm12.189339 0l-3.3125 -9.234375l1.609375 0l1.75 5.25q0.203125 0.671875 0.421875 1.359375q0.21875 0.6875 0.4375 1.359375l0.0625 0q0.21875 -0.671875 0.421875 -1.359375q0.21875 -0.6875 0.421875 -1.359375l1.75 -5.25l1.5312653 0l-3.2656403 9.234375l-1.828125 0z" fill-rule="nonzero"></path><path fill="#fff2cc" d="m72.99595 159.72179l91.98708 0l0 31.433075l-91.98708 0z" fill-rule="evenodd"></path><path fill="#000000" d="m102.858955 181.29832l0 -10.5l3.28125 0q0.796875 0 1.46875 0.15625q0.6875 0.15625 1.171875 0.515625q0.5 0.34375 0.765625 0.90625q0.28125 0.546875 0.28125 1.375q0 1.234375 -0.640625 1.96875q-0.640625 0.734375 -1.734375 1.0l2.671875 4.578125l-1.5 0l-2.53125 -4.4375l-1.90625 0l0 4.4375l-1.328125 0zm1.328125 -5.515625l1.765625 0q1.234375 0 1.890625 -0.5q0.65625 -0.515625 0.65625 -1.53125q0 -1.046875 -0.65625 -1.453125q-0.65625 -0.421875 -1.890625 -0.421875l-1.765625 0l0 3.90625zm10.807144 5.703125q-0.78125 0 -1.46875 -0.28125q-0.6875 -0.28125 -1.1875 -0.796875q-0.5 -0.515625 -0.796875 -1.265625q-0.28125 -0.75 -0.28125 -1.71875q0 -0.953125 0.296875 -1.71875q0.296875 -0.765625 0.78125 -1.28125q0.484375 -0.53125 1.109375 -0.8125q0.625 -0.28125 1.296875 -0.28125q0.734375 0 1.3125 0.265625q0.59375 0.25 0.984375 0.734375q0.390625 0.46875 0.59375 1.140625q0.21875 0.671875 0.21875 1.515625q0 0.203125 -0.015625 0.40625q0 0.1875 -0.03125 0.34375l-5.25 0q0.078125 1.25 0.765625 1.984375q0.703125 0.71875 1.828125 0.71875q0.5625 0 1.03125 -0.171875q0.46875 -0.171875 0.90625 -0.4375l0.46875 0.859375q-0.515625 0.328125 -1.140625 0.5625q-0.625 0.234375 -1.421875 0.234375zm-2.453125 -4.703125l4.15625 0q0 -1.1875 -0.5 -1.796875q-0.5 -0.609375 -1.421875 -0.609375q-0.40625 0 -0.78125 0.15625q-0.375 0.15625 -0.6875 0.46875q-0.296875 0.3125 -0.5 0.765625q-0.203125 0.4375 -0.265625 1.015625zm7.357895 4.515625l0 -10.5l1.328125 0l0 9.359375l4.59375 0l0 1.140625l-5.921875 0zm11.510384 0.1875q-0.796875 0 -1.5 -0.21875q-0.703125 -0.234375 -1.203125 -0.765625q-0.5 -0.546875 -0.7968674 -1.40625q-0.28125 -0.875 -0.28125 -2.140625l0 -6.15625l1.3281174 0l0 6.203125q0 0.9375 0.1875 1.578125q0.203125 0.640625 0.53125 1.03125q0.328125 0.375 0.765625 0.546875q0.453125 0.171875 0.96875 0.171875q0.53125 0 0.96875 -0.171875q0.453125 -0.171875 0.78125 -0.546875q0.34375 -0.390625 0.53125 -1.03125q0.1875 -0.640625 0.1875 -1.578125l0 -6.203125l1.28125 0l0 6.15625q0 1.265625 -0.28125 2.140625q-0.28125 0.859375 -0.796875 1.40625q-0.5 0.53125 -1.1875 0.765625q-0.6875 0.21875 -1.484375 0.21875z" fill-rule="nonzero"></path><path fill="#d9d9d9" d="m73.00788 12.346457l91.99999 0l0 31.43307l-91.99999 0z" fill-rule="evenodd"></path><path fill="#000000" d="m99.7507 34.98299l0 -12.46875l1.578125 0l0 12.46875l-1.578125 0zm4.765976 0l0 -9.234375l1.28125 0l0.140625 1.328125l0.0625 0q0.65625 -0.65625 1.390625 -1.109375q0.734375 -0.453125 1.703125 -0.453125q1.453125 0 2.125 0.921875q0.6875 0.90625 0.6875 2.6875l0 5.859375l-1.5625 0l0 -5.640625q0 -1.3125 -0.421875 -1.890625q-0.40625 -0.578125 -1.328125 -0.578125q-0.71875 0 -1.28125 0.359375q-0.546875 0.359375 -1.25 1.0625l0 6.6875l-1.546875 0zm10.204971 3.890625l0 -13.125l1.28125 0l0.140625 1.0625l0.0625 0q0.625 -0.53125 1.375 -0.90625q0.75 -0.390625 1.5625 -0.390625q0.890625 0 1.578125 0.34375q0.6875 0.328125 1.140625 0.953125q0.453125 0.609375 0.6875 1.484375q0.25 0.859375 0.25 1.9375q0 1.171875 -0.328125 2.09375q-0.328125 0.921875 -0.875 1.578125q-0.546875 0.640625 -1.28125 0.984375q-0.71875 0.328125 -1.515625 0.328125q-0.640625 0 -1.28125 -0.28125q-0.640625 -0.296875 -1.28125 -0.796875l0.03125 1.625l0 3.109375l-1.546875 0zm3.8125 -4.96875q0.578125 0 1.0625 -0.25q0.484375 -0.265625 0.828125 -0.734375q0.359375 -0.46875 0.546875 -1.140625q0.203125 -0.6875 0.203125 -1.546875q0 -0.765625 -0.140625 -1.390625q-0.125 -0.625 -0.421875 -1.0625q-0.296875 -0.453125 -0.765625 -0.703125q-0.453125 -0.25 -1.09375 -0.25q-0.59375 0 -1.203125 0.328125q-0.59375 0.328125 -1.28125 0.9375l0 4.84375q0.640625 0.53125 1.21875 0.75q0.59375 0.21875 1.046875 0.21875zm9.229218 1.3125q-1.46875 0 -2.15625 -0.90625q-0.671875 -0.921875 -0.671875 -2.703125l0 -5.859375l1.578125 0l0 5.640625q0 1.3125 0.40625 1.890625q0.40625 0.578125 1.328125 0.578125q0.71875 0 1.265625 -0.359375q0.5625 -0.375 1.21875 -1.1875l0 -6.5625l1.5625 0l0 9.234375l-1.296875 0l-0.125 -1.4375l-0.0625 0q-0.640625 0.75 -1.359375 1.21875q-0.71875 0.453125 -1.6875 0.453125zm10.367752 0q-0.75 0 -1.25 -0.234375q-0.5 -0.234375 -0.8125 -0.625q-0.3125 -0.40625 -0.453125 -0.96875q-0.125 -0.578125 -0.125 -1.25l0 -5.125l-1.375 0l0 -1.171875l1.453125 -0.09375l0.1875 -2.578125l1.3125 0l0 2.578125l2.484375 0l0 1.265625l-2.484375 0l0 5.140625q0 0.859375 0.3125 1.328125q0.3125 0.453125 1.109375 0.453125q0.25 0 0.53125 -0.078125q0.28125 -0.078125 0.515625 -0.171875l0.296875 1.1875q-0.375 0.125 -0.828125 0.234375q-0.4375 0.109375 -0.875 0.109375z" fill-rule="nonzero"></path><path fill="#000000" fill-opacity="0.0" d="m118.989494 191.15486l0 40.845856l162.55118 0l0 108.854935" fill-rule="evenodd"></path><path stroke="#666666" stroke-width="2.0" stroke-linejoin="round" stroke-linecap="butt" d="m118.989494 191.15486l0 40.845856l162.55118 0l0 97.59837" fill-rule="evenodd"></path><path stroke="#666666" stroke-width="2.0" stroke-linecap="butt" d="m281.54068 329.5991l-3.3305664 4.7565613l3.3305664 4.756531l3.3305664 -4.756531z" fill-rule="evenodd"></path><path fill="#000000" fill-opacity="0.0" d="m118.989494 191.15486l0 63.779526" fill-rule="evenodd"></path><path stroke="#666666" stroke-width="2.0" stroke-linejoin="round" stroke-linecap="butt" d="m118.989494 191.15486l0 52.522964" fill-rule="evenodd"></path><path stroke="#666666" stroke-width="2.0" stroke-linecap="butt" d="m118.989494 243.67783l-3.330574 4.7565613l3.330574 4.756546l3.330574 -4.756546z" fill-rule="evenodd"></path><path fill="#000000" fill-opacity="0.0" d="m281.53543 372.28873l0 100.71118l-162.55118 0l0 48.989594" fill-rule="evenodd"></path><path stroke="#666666" stroke-width="2.0" stroke-linejoin="round" stroke-linecap="butt" d="m281.53543 372.28873l0 100.71118l-162.55118 0l0 37.733032" fill-rule="evenodd"></path><path stroke="#666666" stroke-width="2.0" stroke-linecap="butt" d="m118.98425 510.73294l-3.330574 4.7565613l3.330574 4.756531l3.330574 -4.756531z" fill-rule="evenodd"></path><path fill="#000000" fill-opacity="0.0" d="m118.99439 458.20996l0 63.77954" fill-rule="evenodd"></path><path stroke="#666666" stroke-width="2.0" stroke-linejoin="round" stroke-linecap="butt" stroke-dasharray="16.0,6.0" d="m118.99439 458.20996l0 52.52298" fill-rule="evenodd"></path><path stroke="#666666" stroke-width="2.0" stroke-linecap="butt" d="m118.99439 510.73294l-3.330574 4.7565613l3.330574 4.756531l3.330574 -4.756531z" fill-rule="evenodd"></path><path fill="#000000" fill-opacity="0.0" d="m118.973755 458.2047l0 39.795074l162.55118 0l0 160.58292" fill-rule="evenodd"></path><path stroke="#666666" stroke-width="2.0" stroke-linejoin="round" stroke-linecap="butt" d="m118.973755 458.2047l0 39.795074l162.55118 0l0 149.32632" fill-rule="evenodd"></path><path stroke="#666666" stroke-width="2.0" stroke-linecap="butt" d="m281.52493 647.3261l-3.3305664 4.756592l3.3305664 4.756531l3.3305664 -4.756531z" fill-rule="evenodd"></path><path fill="#000000" fill-opacity="0.0" d="m281.53543 690.0105l0 115.22821l-162.55118 0l0 40.677307" fill-rule="evenodd"></path><path stroke="#666666" stroke-width="2.0" stroke-linejoin="round" stroke-linecap="butt" d="m281.53543 690.0105l0 115.22821l-162.55118 0l0 29.420715" fill-rule="evenodd"></path><path stroke="#666666" stroke-width="2.0" stroke-linecap="butt" d="m118.98425 834.6595l-3.330574 4.756531l3.330574 4.756531l3.330574 -4.756531z" fill-rule="evenodd"></path><path fill="#000000" fill-opacity="0.0" d="m118.988785 788.1312l0 57.795288" fill-rule="evenodd"></path><path stroke="#666666" stroke-width="2.0" stroke-linejoin="round" stroke-linecap="butt" d="m118.988785 788.1312l0 46.538696" fill-rule="evenodd"></path><path stroke="#666666" stroke-width="2.0" stroke-linecap="butt" d="m118.988785 834.67l-3.330574 4.756531l3.330574 4.756531l3.330574 -4.756531z" fill-rule="evenodd"></path><path fill="#000000" fill-opacity="0.0" d="m119.00788 43.779526l-0.03150177 30.015747" fill-rule="evenodd"></path><path stroke="#666666" stroke-width="2.0" stroke-linejoin="round" stroke-linecap="butt" d="m119.00787 43.779526l-0.019683838 18.759205" fill-rule="evenodd"></path><path stroke="#666666" stroke-width="2.0" stroke-linecap="butt" d="m118.98819 62.53873l-3.3355637 4.7530556l3.3255844 4.7600403l3.3355637 -4.7530518z" fill-rule="evenodd"></path><path fill="#000000" fill-opacity="0.0" d="m294.85828 470.7454l105.88974 0l0 51.24411l-105.88974 0z" fill-rule="evenodd"></path><path fill="#999999" d="m323.76273 504.0562l-1.421875 -1.4375l4.96875 -5.09375l-4.96875 -5.046875l1.421875 -1.453125l4.953125 5.09375l4.921875 -5.09375l1.40625 1.453125l-4.953125 5.046875l4.953125 5.09375l-1.40625 1.4375l-4.921875 -5.125l-4.953125 5.125zm21.819672 4.03125l0 -2.171875l4.671875 0l0 -15.046875l-3.71875 0l0 -1.6875q1.40625 -0.265625 2.4375 -0.625q1.046875 -0.375 1.890625 -0.890625l2.015625 0l0 18.25l4.21875 0l0 2.171875l-11.515625 0zm20.857147 0.390625q-1.21875 0 -2.234375 -0.25q-1.0 -0.234375 -1.8125 -0.609375q-0.8125 -0.390625 -1.46875 -0.890625q-0.65625 -0.5 -1.171875 -1.046875l1.28125 -1.71875q0.890625 0.921875 2.125 1.625q1.234375 0.703125 3.03125 0.703125q0.921875 0 1.734375 -0.328125q0.828125 -0.34375 1.4375 -0.953125q0.609375 -0.609375 0.953125 -1.46875q0.359375 -0.859375 0.359375 -1.921875q0 -2.109375 -1.1875 -3.28125q-1.1875 -1.1875 -3.171875 -1.1875q-1.0625 0 -1.8125 0.328125q-0.75 0.3125 -1.671875 0.90625l-1.40625 -0.890625l0.671875 -9.828125l10.203125 0l0 2.28125l-7.90625 0l-0.546875 6.046875q0.734375 -0.390625 1.46875 -0.609375q0.75 -0.21875 1.671875 -0.21875q1.3125 0 2.453125 0.390625q1.15625 0.375 2.015625 1.15625q0.875 0.78125 1.375 1.984375q0.5 1.203125 0.5 2.859375q0 1.671875 -0.578125 2.953125q-0.578125 1.28125 -1.546875 2.15625q-0.953125 0.875 -2.1875 1.34375q-1.234375 0.46875 -2.578125 0.46875z" fill-rule="nonzero"></path><path fill="#d0e0e3" d="m73.00264 845.9265l91.98709 0l0 31.433044l-91.98709 0z" fill-rule="evenodd"></path><path fill="#000000" d="m110.553665 867.50305l0 -10.5l3.125 0q0.796875 0 1.453125 0.15625q0.671875 0.140625 1.140625 0.453125q0.46875 0.296875 0.734375 0.78125q0.265625 0.484375 0.265625 1.171875q0 0.78125 -0.390625 1.421875q-0.390625 0.625 -1.140625 0.875l0 0.0625q0.953125 0.171875 1.546875 0.796875q0.59375 0.625 0.59375 1.703125q0 0.78125 -0.296875 1.359375q-0.28125 0.5625 -0.8125 0.953125q-0.515625 0.375 -1.265625 0.578125q-0.734375 0.1875 -1.609375 0.1875l-3.34375 0zm1.328125 -6.03125l1.546875 0q1.34375 0 1.9375 -0.453125q0.59375 -0.46875 0.59375 -1.28125q0 -0.90625 -0.625 -1.28125q-0.609375 -0.390625 -1.828125 -0.390625l-1.625 0l0 3.40625zm0 4.96875l1.828125 0q1.359375 0 2.109375 -0.5q0.75 -0.5 0.75 -1.5625q0 -0.96875 -0.734375 -1.421875q-0.734375 -0.46875 -2.125 -0.46875l-1.828125 0l0 3.953125zm8.079895 1.0625l0 -10.5l1.375 0l3.796875 6.59375l1.140625 2.171875l0.0625 0q-0.046875 -0.796875 -0.109375 -1.640625q-0.0625 -0.859375 -0.0625 -1.703125l0 -5.421875l1.265625 0l0 10.5l-1.375 0l-3.796875 -6.609375l-1.140625 -2.15625l-0.0625 0q0.0625 0.796875 0.109375 1.625q0.0625 0.828125 0.0625 1.65625l0 5.484375l-1.265625 0z" fill-rule="nonzero"></path><path fill="#fff2cc" d="m73.00264 877.35956l91.98709 0l0 31.433105l-91.98709 0z" fill-rule="evenodd"></path><path fill="#000000" d="m102.86565 898.9361l0 -10.5l3.28125 0q0.796875 0 1.46875 0.15625q0.6875 0.15625 1.171875 0.515625q0.5 0.34375 0.765625 0.90625q0.28125 0.546875 0.28125 1.375q0 1.234375 -0.640625 1.96875q-0.640625 0.734375 -1.734375 1.0l2.671875 4.578125l-1.5 0l-2.53125 -4.4375l-1.90625 0l0 4.4375l-1.328125 0zm1.328125 -5.515625l1.765625 0q1.234375 0 1.890625 -0.5q0.65625 -0.515625 0.65625 -1.53125q0 -1.046875 -0.65625 -1.453125q-0.65625 -0.421875 -1.890625 -0.421875l-1.765625 0l0 3.90625zm10.807144 5.703125q-0.78125 0 -1.46875 -0.28125q-0.6875 -0.28125 -1.1875 -0.796875q-0.5 -0.515625 -0.796875 -1.265625q-0.28125 -0.75 -0.28125 -1.71875q0 -0.953125 0.296875 -1.71875q0.296875 -0.765625 0.78125 -1.28125q0.484375 -0.53125 1.109375 -0.8125q0.625 -0.28125 1.296875 -0.28125q0.734375 0 1.3125 0.265625q0.59375 0.25 0.984375 0.734375q0.390625 0.46875 0.59375 1.140625q0.21875 0.671875 0.21875 1.515625q0 0.203125 -0.015625 0.40625q0 0.1875 -0.03125 0.34375l-5.25 0q0.078125 1.25 0.765625 1.984375q0.703125 0.71875 1.828125 0.71875q0.5625 0 1.03125 -0.171875q0.46875 -0.171875 0.90625 -0.4375l0.46875 0.859375q-0.515625 0.328125 -1.140625 0.5625q-0.625 0.234375 -1.421875 0.234375zm-2.453125 -4.703125l4.15625 0q0 -1.1875 -0.5 -1.796875q-0.5 -0.609375 -1.421875 -0.609375q-0.40625 0 -0.78125 0.15625q-0.375 0.15625 -0.6875 0.46875q-0.296875 0.3125 -0.5 0.765625q-0.203125 0.4375 -0.265625 1.015625zm7.357895 4.515625l0 -10.5l1.328125 0l0 9.359375l4.59375 0l0 1.140625l-5.921875 0zm11.510391 0.1875q-0.796875 0 -1.5 -0.21875q-0.703125 -0.234375 -1.203125 -0.765625q-0.5 -0.546875 -0.796875 -1.40625q-0.28125 -0.875 -0.28125 -2.140625l0 -6.15625l1.328125 0l0 6.203125q0 0.9375 0.1875 1.578125q0.203125 0.640625 0.53125 1.03125q0.328125 0.375 0.765625 0.546875q0.453125 0.171875 0.96875 0.171875q0.53125 0 0.96875 -0.171875q0.453125 -0.171875 0.78125 -0.546875q0.34375 -0.390625 0.53125 -1.03125q0.1875 -0.640625 0.1875 -1.578125l0 -6.203125l1.28125 0l0 6.15625q0 1.265625 -0.28125 2.140625q-0.28125 0.859375 -0.796875 1.40625q-0.5 0.53125 -1.1875 0.765625q-0.6875 0.21875 -1.484375 0.21875z" fill-rule="nonzero"></path><path fill="#d9d9d9" d="m73.00264 962.57745l91.98709 0l0 31.433044l-91.98709 0z" fill-rule="evenodd"></path><path fill="#000000" d="m95.47551 984.3415q-1.109375 0 -2.0625 -0.40625q-0.9375 -0.421875 -1.625 -1.140625l0.796875 -0.921875q0.5625 0.578125 1.3125 0.953125q0.765625 0.359375 1.59375 0.359375q1.03125 0 1.609375 -0.46875q0.578125 -0.484375 0.578125 -1.25q0 -0.40625 -0.140625 -0.671875q-0.140625 -0.28125 -0.375 -0.484375q-0.21875 -0.203125 -0.546875 -0.359375q-0.3125 -0.171875 -0.6875 -0.34375l-1.5 -0.65625q-0.375 -0.15625 -0.765625 -0.375q-0.375 -0.234375 -0.6875 -0.546875q-0.296875 -0.328125 -0.484375 -0.765625q-0.1875 -0.4375 -0.1875 -1.015625q0 -0.59375 0.25 -1.09375q0.25 -0.515625 0.6875 -0.890625q0.4375 -0.375 1.03125 -0.578125q0.609375 -0.21875 1.328125 -0.21875q0.9375 0 1.734375 0.359375q0.8125 0.359375 1.359375 0.9375l-0.71875 0.859375q-0.46875 -0.453125 -1.0625 -0.71875q-0.578125 -0.265625 -1.3125 -0.265625q-0.890625 0 -1.421875 0.40625q-0.53125 0.40625 -0.53125 1.125q0 0.390625 0.140625 0.65625q0.15625 0.25 0.40625 0.453125q0.265625 0.203125 0.5625 0.359375q0.3125 0.140625 0.625 0.28125l1.5 0.640625q0.4375 0.1875 0.84375 0.4375q0.40625 0.25 0.6875 0.578125q0.28125 0.328125 0.453125 0.765625q0.171875 0.4375 0.171875 1.015625q0 0.625 -0.25 1.171875q-0.25 0.53125 -0.71875 0.953125q-0.453125 0.40625 -1.109375 0.640625q-0.65625 0.21875 -1.484375 0.21875zm8.528397 0q-0.734375 0 -1.390625 -0.265625q-0.640625 -0.28125 -1.140625 -0.796875q-0.484375 -0.515625 -0.78125 -1.265625q-0.296875 -0.765625 -0.296875 -1.734375q0 -0.96875 0.296875 -1.734375q0.296875 -0.765625 0.78125 -1.28125q0.5 -0.53125 1.140625 -0.796875q0.65625 -0.28125 1.390625 -0.28125q0.71875 0 1.359375 0.28125q0.65625 0.265625 1.140625 0.796875q0.5 0.515625 0.796875 1.28125q0.296875 0.765625 0.296875 1.734375q0 0.96875 -0.296875 1.734375q-0.296875 0.75 -0.796875 1.265625q-0.484375 0.515625 -1.140625 0.796875q-0.640625 0.265625 -1.359375 0.265625zm0 -1.078125q0.484375 0 0.890625 -0.21875q0.421875 -0.21875 0.71875 -0.609375q0.296875 -0.390625 0.453125 -0.9375q0.171875 -0.546875 0.171875 -1.21875q0 -0.671875 -0.171875 -1.21875q-0.15625 -0.546875 -0.453125 -0.953125q-0.296875 -0.40625 -0.71875 -0.609375q-0.40625 -0.21875 -0.890625 -0.21875q-0.5 0 -0.921875 0.21875q-0.40625 0.203125 -0.703125 0.609375q-0.296875 0.40625 -0.46875 0.953125q-0.15625 0.546875 -0.15625 1.21875q0 0.671875 0.15625 1.21875q0.171875 0.546875 0.46875 0.9375q0.296875 0.390625 0.703125 0.609375q0.421875 0.21875 0.921875 0.21875zm5.8595123 0.890625l0 -6.703125l-1.046875 0l0 -1.0l1.046875 -0.078125l0 -1.234375q0 -1.1875 0.546875 -1.875q0.5625 -0.6875 1.734375 -0.6875q0.359375 0 0.6875 0.078125q0.328125 0.0625 0.609375 0.171875l-0.296875 1.015625q-0.421875 -0.203125 -0.875 -0.203125q-1.09375 0 -1.09375 1.5l0 1.234375l1.65625 0l0 1.078125l-1.65625 0l0 6.703125l-1.3125 0zm6.9063873 0.1875q-0.625 0 -1.0625 -0.1875q-0.421875 -0.1875 -0.6875 -0.515625q-0.25 -0.34375 -0.375 -0.828125q-0.109375 -0.484375 -0.109375 -1.0625l0 -4.296875l-1.140625 0l0 -1.0l1.203125 -0.078125l0.171875 -2.171875l1.09375 0l0 2.171875l2.09375 0l0 1.078125l-2.09375 0l0 4.3125q0 0.734375 0.265625 1.125q0.265625 0.390625 0.9375 0.390625q0.203125 0 0.4375 -0.0625q0.25 -0.078125 0.4375 -0.15625l0.265625 1.0q-0.328125 0.109375 -0.703125 0.1875q-0.375 0.09375 -0.734375 0.09375zm2.9548798 -0.1875l0 -7.78125l1.09375 0l0.109375 1.125l0.046875 0q0.515625 -0.5625 1.109375 -0.9375q0.59375 -0.375 1.296875 -0.375q0.90625 0 1.40625 0.390625q0.5 0.390625 0.75 1.09375q0.609375 -0.671875 1.21875 -1.078125q0.609375 -0.40625 1.34375 -0.40625q1.1875 0 1.765625 0.765625q0.59375 0.765625 0.59375 2.28125l0 4.921875l-1.3125 0l0 -4.75q0 -1.109375 -0.359375 -1.59375q-0.34375 -0.484375 -1.078125 -0.484375q-0.875 0 -1.953125 1.203125l0 5.625l-1.3125 0l0 -4.75q0 -1.109375 -0.359375 -1.59375q-0.34375 -0.484375 -1.09375 -0.484375q-0.875 0 -1.953125 1.203125l0 5.625l-1.3125 0zm15.060898 0.1875q-0.984375 0 -1.640625 -0.5625q-0.640625 -0.578125 -0.640625 -1.640625q0 -1.28125 1.140625 -1.953125q1.140625 -0.6875 3.625 -0.953125q0 -0.375 -0.078125 -0.71875q-0.0625 -0.359375 -0.234375 -0.625q-0.171875 -0.28125 -0.484375 -0.4375q-0.3125 -0.171875 -0.796875 -0.171875q-0.671875 0 -1.265625 0.25q-0.59375 0.25 -1.046875 0.578125l-0.515625 -0.90625q0.546875 -0.359375 1.328125 -0.6875q0.78125 -0.328125 1.71875 -0.328125q1.421875 0 2.0625 0.875q0.640625 0.875 0.640625 2.328125l0 4.765625l-1.078125 0l-0.109375 -0.921875l-0.046875 0q-0.5625 0.453125 -1.203125 0.78125q-0.640625 0.328125 -1.375 0.328125zm0.375 -1.046875q0.5625 0 1.0625 -0.265625q0.5 -0.265625 1.046875 -0.78125l0 -2.15625q-0.96875 0.125 -1.640625 0.3125q-0.65625 0.171875 -1.0625 0.40625q-0.40625 0.234375 -0.59375 0.546875q-0.1875 0.3125 -0.1875 0.6875q0 0.671875 0.390625 0.96875q0.40625 0.28125 0.984375 0.28125zm4.7983856 0.859375l2.546875 -4.0625l-2.34375 -3.71875l1.421875 0l1.03125 1.71875q0.1875 0.3125 0.375 0.640625q0.1875 0.328125 0.390625 0.65625l0.078125 0q0.171875 -0.328125 0.34375 -0.65625q0.171875 -0.328125 0.359375 -0.640625l0.9375 -1.71875l1.375 0l-2.34375 3.859375l2.515625 3.921875l-1.421875 0l-1.125 -1.8125q-0.21875 -0.34375 -0.421875 -0.6875q-0.203125 -0.359375 -0.4375 -0.703125l-0.0625 0q-0.203125 0.34375 -0.40625 0.6875q-0.1875 0.34375 -0.375 0.703125l-1.0625 1.8125l-1.375 0z" fill-rule="nonzero"></path><path fill="#c9daf8" d="m73.00264 908.08923l91.98709 0l0 54.48822l-91.98709 0z" fill-rule="evenodd"></path><path fill="#000000" d="m100.273346 942.48773q-1.75 0 -2.796875 -1.25q-1.03125 -1.265625 -1.03125 -3.578125q0 -1.125 0.328125 -2.03125q0.34375 -0.90625 0.890625 -1.53125q0.546875 -0.625 1.265625 -0.96875q0.734375 -0.34375 1.53125 -0.34375q0.796875 0 1.375 0.296875q0.59375 0.28125 1.203125 0.78125l-0.078125 -1.578125l0 -3.5625l1.578125 0l0 13.53125l-1.296875 0l-0.125 -1.078125l-0.0625 0q-0.546875 0.53125 -1.265625 0.921875q-0.703125 0.390625 -1.515625 0.390625zm0.328125 -1.3125q0.65625 0 1.21875 -0.3125q0.578125 -0.3125 1.140625 -0.96875l0 -4.828125q-0.578125 -0.53125 -1.125 -0.75q-0.546875 -0.21875 -1.109375 -0.21875q-0.5625 0 -1.046875 0.265625q-0.484375 0.25 -0.84375 0.71875q-0.359375 0.46875 -0.5625 1.109375q-0.203125 0.640625 -0.203125 1.453125q0 1.671875 0.65625 2.609375q0.671875 0.921875 1.875 0.921875zm10.604218 1.3125q-0.921875 0 -1.734375 -0.328125q-0.8125 -0.34375 -1.40625 -0.953125q-0.59375 -0.625 -0.9375 -1.515625q-0.34375 -0.890625 -0.34375 -2.03125q0 -1.140625 0.34375 -2.046875q0.359375 -0.90625 0.9375 -1.53125q0.578125 -0.625 1.3125 -0.953125q0.75 -0.34375 1.546875 -0.34375q0.875 0 1.5625 0.3125q0.703125 0.296875 1.15625 0.875q0.46875 0.5625 0.71875 1.359375q0.25 0.796875 0.25 1.796875q0 0.234375 -0.015625 0.484375q0 0.234375 -0.046875 0.40625l-6.234375 0q0.109375 1.484375 0.921875 2.34375q0.828125 0.859375 2.15625 0.859375q0.671875 0 1.234375 -0.1875q0.5625 -0.203125 1.078125 -0.53125l0.546875 1.03125q-0.609375 0.375 -1.359375 0.671875q-0.734375 0.28125 -1.6875 0.28125zm-2.90625 -5.59375l4.9375 0q0 -1.40625 -0.59375 -2.140625q-0.59375 -0.734375 -1.6875 -0.734375q-0.484375 0 -0.9375 0.203125q-0.4375 0.1875 -0.8125 0.5625q-0.359375 0.359375 -0.59375 0.890625q-0.234375 0.53125 -0.3125 1.21875zm8.4253845 5.359375l0 -9.234375l1.28125 0l0.140625 1.328125l0.0625 0q0.65625 -0.65625 1.390625 -1.109375q0.734375 -0.453125 1.703125 -0.453125q1.453125 0 2.125 0.921875q0.6875 0.90625 0.6875 2.6875l0 5.859375l-1.5625 0l0 -5.640625q0 -1.3125 -0.421875 -1.890625q-0.40625 -0.578125 -1.328125 -0.578125q-0.71875 0 -1.28125 0.359375q-0.546875 0.359375 -1.25 1.0625l0 6.6875l-1.546875 0zm12.611221 0.234375q-0.984375 0 -1.875 -0.359375q-0.890625 -0.375 -1.5625 -0.921875l0.78125 -1.046875q0.609375 0.5 1.234375 0.8125q0.640625 0.296875 1.484375 0.296875q0.90625 0 1.359375 -0.421875q0.46875 -0.421875 0.46875 -1.03125q0 -0.359375 -0.203125 -0.625q-0.1875 -0.265625 -0.484375 -0.453125q-0.28125 -0.203125 -0.671875 -0.359375q-0.375 -0.15625 -0.75 -0.3125q-0.5 -0.15625 -1.0 -0.375q-0.484375 -0.21875 -0.875 -0.53125q-0.390625 -0.328125 -0.640625 -0.734375q-0.25 -0.421875 -0.25 -1.015625q0 -0.546875 0.21875 -1.03125q0.21875 -0.484375 0.625 -0.828125q0.40625 -0.359375 1.0 -0.5625q0.59375 -0.203125 1.328125 -0.203125q0.875 0 1.609375 0.3125q0.734375 0.296875 1.265625 0.734375l-0.75 1.0q-0.46875 -0.375 -0.984375 -0.59375q-0.515625 -0.234375 -1.109375 -0.234375q-0.875 0 -1.296875 0.40625q-0.40625 0.390625 -0.40625 0.921875q0 0.328125 0.171875 0.5625q0.171875 0.234375 0.453125 0.421875q0.296875 0.1875 0.65625 0.328125q0.375 0.140625 0.78125 0.296875q0.484375 0.1875 0.984375 0.390625q0.515625 0.203125 0.90625 0.53125q0.40625 0.3125 0.65625 0.765625q0.265625 0.453125 0.265625 1.09375q0 0.578125 -0.21875 1.078125q-0.21875 0.484375 -0.65625 0.875q-0.421875 0.375 -1.0625 0.59375q-0.640625 0.21875 -1.453125 0.21875zm9.145096 0q-0.921875 0 -1.734375 -0.328125q-0.8125 -0.34375 -1.40625 -0.953125q-0.59375 -0.625 -0.9375 -1.515625q-0.34375 -0.890625 -0.34375 -2.03125q0 -1.140625 0.34375 -2.046875q0.359375 -0.90625 0.9375 -1.53125q0.578125 -0.625 1.3125 -0.953125q0.75 -0.34375 1.546875 -0.34375q0.875 0 1.5625 0.3125q0.703125 0.296875 1.15625 0.875q0.46875 0.5625 0.71875 1.359375q0.25 0.796875 0.25 1.796875q0 0.234375 -0.015625 0.484375q0 0.234375 -0.046875 0.40625l-6.234375 0q0.109375 1.484375 0.921875 2.34375q0.828125 0.859375 2.15625 0.859375q0.671875 0 1.234375 -0.1875q0.5625 -0.203125 1.078125 -0.53125l0.546875 1.03125q-0.609375 0.375 -1.359375 0.671875q-0.734375 0.28125 -1.6875 0.28125zm-2.90625 -5.59375l4.9375 0q0 -1.40625 -0.59375 -2.140625q-0.59375 -0.734375 -1.6875 -0.734375q-0.484375 0 -0.9375 0.203125q-0.4375 0.1875 -0.8125 0.5625q-0.359375 0.359375 -0.59375 0.890625q-0.234375 0.53125 -0.3125 1.21875z" fill-rule="nonzero"></path></g></svg>

