<svg version="1.1" viewBox="0.0 0.0 867.8792650918635 454.15748031496065" fill="none" stroke="none" stroke-linecap="square" stroke-miterlimit="10" xmlns:xlink="http://www.w3.org/1999/xlink" xmlns="http://www.w3.org/2000/svg"><clipPath id="p.0"><path d="m0 0l867.8793 0l0 454.15747l-867.8793 0l0 -454.15747z" clip-rule="nonzero"/></clipPath><g clip-path="url(#p.0)"><path fill="#000000" fill-opacity="0.0" d="m0 0l867.8793 0l0 454.15747l-867.8793 0z" fill-rule="evenodd"/><path fill="#000000" fill-opacity="0.0" d="m-8.308971 7.4829394E-4l884.4971 0l0 336.5291l-884.4971 0z" fill-rule="evenodd"/><path fill="#ffffff" d="m259.70944 237.05156q-2.609375 -6.265625 -6.9218903 -15.9375q-4.3125 -9.671875 -9.28125 -20.90625q-4.96875 -11.234375 -10.59375 -23.125q-5.609375 -11.890625 -10.578125 -22.46875q-4.96875 -10.59375 -9.28125 -18.953125q-4.3125 -8.359375 -6.921875 -12.796875q-2.875 30.828125 -4.703125 66.765625q-1.828125 35.921875 -3.140625 72.51564l-24.8125 0q1.03125 -23.51564 2.34375 -47.42189q1.3125 -23.921875 3.0 -47.046875q1.703125 -23.125 3.65625 -45.078125q1.96875 -21.953125 4.328125 -41.546875l22.203125 0q7.0625 11.484375 15.15625 27.171875q8.109375 15.671875 16.203125 32.796875q8.109375 17.109375 15.687515 34.234375q7.578125 17.109375 13.84375 31.234375q6.28125 -14.125 13.859375 -31.234375q7.578125 -17.125 15.671875 -34.234375q8.109375 -17.125 16.203125 -32.796875q8.09375 -15.6875 15.15625 -27.171875l22.21875 0q8.875 87.53125 13.328125 181.09377l-24.828125 0q-1.3125 -36.593765 -3.140625 -72.51564q-1.828125 -35.9375 -4.703125 -66.765625q-2.609375 4.4375 -6.921875 12.796875q-4.3125 8.359375 -9.28125 18.953125q-4.96875 10.578125 -10.59375 22.46875q-5.609375 11.890625 -10.578125 23.125q-4.953125 11.234375 -9.265625 20.90625q-4.3125 9.671875 -6.9375 15.9375l-20.375 0zm234.92938 -50.6875q4.1875 5.21875 10.5780945 13.71875q6.40625 8.484375 13.203125 18.8125q6.796875 10.328125 13.453125 21.5625q6.671875 11.234375 11.375 21.687515l-27.703125 0q-5.21875 -9.937515 -11.359375 -20.125015q-6.1405945 -10.1875 -12.4218445 -19.46875q-6.265625 -9.28125 -12.40625 -17.375q-6.140625 -8.109375 -11.109375 -14.109375q-3.40625 0.265625 -6.9375 0.265625q-3.515625 0 -7.171875 0l-22.734375 0l0 70.812515l-25.359375 0l0 -178.48439q10.71875 -2.609375 23.90625 -3.53125q13.203125 -0.921875 24.1875 -0.921875q38.15625 0 58.140594 14.375q20.0 14.375 20.0 42.859375q0 18.03125 -9.546875 30.84375q-9.53125 12.796875 -28.09372 19.078125zm-38.40625 -84.9375q-16.203125 0 -24.828125 0.78125l0 68.21875l18.03125 0q13.0625 0 23.515625 -1.3125q10.453125 -1.3125 17.640625 -4.96875q7.1875 -3.65625 11.109375 -10.3125q3.9218445 -6.671875 3.9218445 -17.640625q0 -10.203125 -3.9218445 -16.984375q-3.921875 -6.796875 -10.59375 -10.71875q-6.65625 -3.921875 -15.671875 -5.484375q-9.015625 -1.578125 -19.203125 -1.578125z" fill-rule="nonzero"/><path fill="#ffffff" d="m570.2174 262.6297q-3.546875 0 -5.09375 -1.578125q-1.53125 -1.59375 -1.53125 -6.0156403q0 -2.96875 0.578125 -7.1875q0.578125 -4.234375 2.015625 -12.78125q0.203125 -1.140625 1.546875 -9.34375q1.34375 -8.21875 2.390625 -17.234375q0.96875 -7.6875 0.96875 -11.53125q0 -4.3125 -3.171875 -4.3125q-2.40625 0 -6.0 2.546875q-3.59375 2.53125 -7.734375 8.109375q-1.34375 1.8125 -2.96875 1.8125q-1.34375 0 -2.359375 -1.28125q-1.0 -1.296875 -1.0 -2.9375q0 -1.625 0.578125 -3.109375q0.578125 -1.5 2.109375 -3.609375q4.703125 -6.4375 10.453125 -9.9375q5.765625 -3.5 12.109375 -3.5q5.28125 0 7.921875 3.265625q2.640625 3.265625 2.640625 9.5q0 5.5625 -1.546875 16.125q4.796875 -14.203125 12.1875 -21.546875q7.40625 -7.34375 17.390625 -7.34375q7.859375 0 11.84375 4.46875q3.984375 4.453125 3.984375 11.953125q0 4.21875 -1.234375 10.265625l-5.859375 27.453125q-0.96875 4.796875 -0.96875 8.25q0 4.046875 1.875 6.0625q1.875 2.015625 5.234375 2.015625q3.171875 0 6.1875 -2.109375q3.03125 -2.125 7.15625 -7.015625q1.15625 -1.34375 2.59375 -1.34375q1.25 0 1.96875 1.15625q0.71875 1.140625 0.71875 3.15625q0 3.75 -1.828125 5.953125q-4.984375 6.0468903 -9.890625 8.843765q-4.890625 2.78125 -10.265625 2.78125q-8.15625 0 -12.765625 -4.84375q-4.609375 -4.8593903 -4.609375 -13.01564q0 -3.171875 0.515625 -6.90625q0.53125 -3.75 1.78125 -9.515625l3.84375 -17.5625q0.1875 -0.859375 0.671875 -3.0625q0.484375 -2.21875 0.765625 -4.1875q0.296875 -1.96875 0.296875 -3.890625q0 -3.0625 -1.734375 -4.890625q-1.734375 -1.828125 -4.890625 -1.828125q-5.765625 0 -11.53125 6.15625q-5.75 6.140625 -10.65625 19.828125q-4.890625 13.671875 -7.671875 34.984375q-0.671875 4.8906403 -1.96875 6.8125153q-1.296875 1.921875 -5.046875 1.921875zm101.56708 -19.01564q1.25 0 1.96875 1.15625q0.71875 1.15625 0.71875 3.171875q0 3.453125 -1.625 5.953125q-2.6875 4.1250153 -7.0625 6.4375153q-4.359375 2.296875 -10.40625 2.296875q-9.21875 0 -14.3125 -5.515625q-5.078125 -5.5312653 -5.078125 -14.937515q0 -6.625 2.78125 -12.328125q2.78125 -5.71875 7.71875 -9.078125q4.953125 -3.359375 11.1875 -3.359375q5.578125 0 8.9375 3.3125q3.359375 3.3125 3.359375 8.96875q0 6.625 -4.765625 11.390625q-4.75 4.75 -16.171875 7.53125q2.3125 4.40625 7.78125 4.40625q3.9375 0 6.484375 -1.8125q2.546875 -1.828125 5.90625 -6.15625q1.140625 -1.4375 2.578125 -1.4375zm-15.734375 -16.796875q-3.546875 0 -6.0 4.125q-2.453125 4.125 -2.453125 9.984375l0 0.1875q5.671875 -1.34375 8.921875 -4.03125q3.265625 -2.6875 3.265625 -6.234375q0 -1.828125 -1.015625 -2.921875q-1.0 -1.109375 -2.71875 -1.109375zm36.674744 -0.28125q-0.203125 4.796875 -0.203125 7.484375q0 6.90625 0.71875 10.796875q0.734375 3.890625 2.40625 5.578125q1.6875 1.671875 4.65625 1.671875q1.53125 0 3.640625 -0.953125q2.125 -0.96875 3.84375 -2.5q1.0625 -0.96875 2.109375 -0.96875q1.15625 0 1.875 1.296875q0.71875 1.296875 0.71875 3.125q0 1.828125 -0.71875 3.5625q-0.71875 1.7187653 -2.15625 2.8750153q-4.984375 4.125 -11.328125 4.125q-9.125 0 -13.34375 -7.6250153q-4.21875 -7.640625 -4.21875 -19.9375q0 -4.21875 0.28125 -8.53125l-3.75 0q-2.875 0 -3.890625 -1.0625q-1.0 -1.0625 -1.0 -3.359375q0 -5.375 4.328125 -5.375l5.46875 0q1.625 -10.5625 4.984375 -19.296875q3.359375 -8.734375 8.109375 -13.921875q4.765625 -5.1875 10.234375 -5.1875q4.03125 0 6.328125 3.5625q2.3125 3.546875 2.3125 8.921875q0 14.875 -12.484375 25.921875l10.75 0q1.53125 0 2.203125 0.671875q0.6875 0.671875 0.6875 2.5q0 6.625 -10.859375 6.625l-11.703125 0zm10.171875 -38.984375q-1.4375 0 -3.21875 3.609375q-1.78125 3.59375 -3.359375 9.984375q-1.578125 6.375 -2.640625 14.15625q5.671875 -4.90625 8.5 -11.0q2.828125 -6.09375 2.828125 -11.078125q0 -5.671875 -2.109375 -5.671875z" fill-rule="nonzero"/><path fill="#000000" fill-opacity="0.0" d="m20.399618 238.95547l827.07965 0l0 180.51022l-827.07965 0z" fill-rule="evenodd"/><path fill="#ffffff" d="m199.94179 331.9287q0 7.5625 -1.578125 13.4375q-1.578125 5.875 -4.453125 10.234375q-2.859375 4.34375 -6.953125 7.390625q-4.09375 3.03125 -9.109375 4.875q-5.015625 1.828125 -10.890625 2.65625q-5.859375 0.828125 -12.328125 0.828125l-40.624992 0l0 -78.71875l40.499992 0q9.6875 0 17.984375 1.890625q8.3125 1.890625 14.40625 6.453125q6.109375 4.546875 9.578125 12.109375q3.46875 7.5625 3.46875 18.84375zm-7.390625 0q0 -6.40625 -1.265625 -11.328125q-1.265625 -4.9375 -3.609375 -8.5625q-2.34375 -3.640625 -5.734375 -6.109375q-3.375 -2.46875 -7.625 -3.984375q-4.234375 -1.515625 -9.21875 -2.140625q-4.984375 -0.640625 -10.59375 -0.640625l-33.343742 0l0 65.59375l33.343742 0q8.421875 0 15.40625 -1.515625q7.0 -1.515625 12.0 -5.265625q5.015625 -3.75 7.828125 -10.078125q2.8125 -6.34375 2.8125 -15.96875zm99.50569 39.421875l0 -8.703125q-4.125 2.234375 -9.375 4.125q-5.234375 1.890625 -11.046875 3.265625q-5.8125 1.375 -11.953125 2.109375q-6.1250153 0.75 -12.01564 0.75q-7.6875 0 -13.796875 -1.375q-6.09375 -1.375 -10.328125 -4.09375q-4.234375 -2.71875 -6.53125 -6.75q-2.296875 -4.046875 -2.296875 -9.375q0 -5.28125 2.65625 -9.3125q2.671875 -4.046875 7.59375 -7.046875q4.9375 -3.015625 11.890625 -5.09375q6.96875 -2.09375 15.5625 -3.546875q8.593765 -1.46875 18.57814 -2.40625q10.0 -0.953125 21.0625 -1.59375l0 -6.015625q0 -3.65625 -1.375 -6.453125q-1.375 -2.8125 -3.84375 -4.90625q-2.453125 -2.09375 -5.78125 -3.5q-3.328125 -1.40625 -7.203125 -2.265625q-3.859375 -0.859375 -8.125 -1.21875q-4.265625 -0.375 -8.5625 -0.375q-5.7812653 0 -10.54689 0.578125q-4.75 0.5625 -8.875 1.5625q-4.125 1.0 -7.90625 2.328125q-3.78125 1.3125 -7.609375 2.796875l0 -8.359375q7.953125 -2.125 16.96875 -3.6875q9.03125 -1.578125 19.17189 -1.578125q8.59375 0 16.03125 1.46875q7.453125 1.453125 12.953125 4.65625q5.5 3.203125 8.65625 8.28125q3.15625 5.0625 3.15625 12.34375l0 53.390625l-7.109375 0zm0 -42.6875q-18.734375 1.03125 -32.0 2.921875q-13.250015 1.890625 -21.67189 4.640625q-8.421875 2.75 -12.359375 6.421875q-3.921875 3.671875 -3.921875 8.3125q0 3.78125 1.921875 6.703125q1.921875 2.921875 5.53125 4.90625q3.609375 1.96875 8.765625 2.96875q5.15625 1.0 11.578125 1.0q3.78125 0 7.8125153 -0.421875q4.046875 -0.4375 8.046875 -1.203125q4.015625 -0.78125 7.90625 -1.84375q3.890625 -1.0625 7.328125 -2.3125q3.4375 -1.265625 6.265625 -2.6875q2.84375 -1.4375 4.796875 -2.9375l0 -26.46875zm64.84955 -29.5l0 72.1875l-7.09375 0l0 -72.1875l-35.8125 0l0 -6.53125l78.71875 0l0 6.53125l-35.8125 0zm122.54318 72.1875l0 -8.703125q-4.125 2.234375 -9.375 4.125q-5.234375 1.890625 -11.046875 3.265625q-5.8125 1.375 -11.953125 2.109375q-6.125 0.75 -12.015625 0.75q-7.6875 0 -13.796875 -1.375q-6.09375 -1.375 -10.328125 -4.09375q-4.234375 -2.71875 -6.53125 -6.75q-2.296875 -4.046875 -2.296875 -9.375q0 -5.28125 2.65625 -9.3125q2.671875 -4.046875 7.59375 -7.046875q4.9375 -3.015625 11.890625 -5.09375q6.96875 -2.09375 15.5625 -3.546875q8.59375 -1.46875 18.578125 -2.40625q10.0 -0.953125 21.0625 -1.59375l0 -6.015625q0 -3.65625 -1.375 -6.453125q-1.375 -2.8125 -3.84375 -4.90625q-2.453125 -2.09375 -5.78125 -3.5q-3.328125 -1.40625 -7.203125 -2.265625q-3.859375 -0.859375 -8.125 -1.21875q-4.265625 -0.375 -8.5625 -0.375q-5.78125 0 -10.546875 0.578125q-4.75 0.5625 -8.875 1.5625q-4.125 1.0 -7.90625 2.328125q-3.78125 1.3125 -7.609375 2.796875l0 -8.359375q7.953125 -2.125 16.96875 -3.6875q9.03125 -1.578125 19.171875 -1.578125q8.59375 0 16.03125 1.46875q7.453125 1.453125 12.953125 4.65625q5.5 3.203125 8.65625 8.28125q3.15625 5.0625 3.15625 12.34375l0 53.390625l-7.109375 0zm0 -42.6875q-18.734375 1.03125 -32.0 2.921875q-13.25 1.890625 -21.671875 4.640625q-8.421875 2.75 -12.359375 6.421875q-3.921875 3.671875 -3.921875 8.3125q0 3.78125 1.921875 6.703125q1.921875 2.921875 5.53125 4.90625q3.609375 1.96875 8.765625 2.96875q5.15625 1.0 11.578125 1.0q3.78125 0 7.8125 -0.421875q4.046875 -0.4375 8.046875 -1.203125q4.015625 -0.78125 7.90625 -1.84375q3.890625 -1.0625 7.328125 -2.3125q3.4375 -1.265625 6.265625 -2.6875q2.84375 -1.4375 4.796875 -2.9375l0 -26.46875zm96.53705 -24.390625q-2.234375 -1.09375 -5.15625 -2.328125q-2.921875 -1.234375 -6.6875 -2.203125q-3.75 -0.96875 -8.453125 -1.625q-4.6875 -0.671875 -10.40625 -0.671875q-6.9375 0 -12.359375 0.8125q-5.40625 0.796875 -9.15625 2.484375q-3.75 1.6875 -5.734375 4.265625q-1.96875 2.578125 -1.96875 6.140625q0 2.96875 1.859375 5.203125q1.859375 2.234375 5.03125 3.953125q3.1875 1.71875 7.453125 3.125q4.265625 1.40625 9.046875 2.640625q4.796875 1.21875 9.859375 2.484375q5.078125 1.265625 9.859375 2.734375q4.78125 1.453125 9.046875 3.265625q4.265625 1.796875 7.4375 4.203125q3.1875 2.40625 5.046875 5.5q1.859375 3.09375 1.859375 7.15625q0 4.40625 -1.65625 7.703125q-1.65625 3.296875 -4.5 5.671875q-2.828125 2.375 -6.640625 3.953125q-3.8125 1.578125 -8.140625 2.5q-4.3125 0.90625 -8.9375 1.28125q-4.609375 0.375 -9.078125 0.375q-10.25 0 -18.59375 -1.5q-8.328125 -1.484375 -15.890625 -4.0625l0 -8.765625q7.796875 4.640625 16.46875 6.359375q8.6875 1.71875 18.25 1.71875q6.765625 0 12.484375 -0.796875q5.734375 -0.796875 9.90625 -2.546875q4.1875 -1.75 6.5 -4.546875q2.328125 -2.8125 2.328125 -6.890625q0 -3.265625 -1.859375 -5.71875q-1.859375 -2.46875 -5.046875 -4.328125q-3.171875 -1.859375 -7.4375 -3.296875q-4.265625 -1.4375 -9.03125 -2.65625q-4.75 -1.234375 -9.828125 -2.40625q-5.0625 -1.1875 -9.828125 -2.5625q-4.75 -1.375 -9.015625 -3.09375q-4.265625 -1.71875 -7.453125 -4.03125q-3.171875 -2.328125 -5.03125 -5.359375q-1.859375 -3.03125 -1.859375 -7.046875q0 -3.953125 1.484375 -7.015625q1.484375 -3.0625 4.09375 -5.296875q2.609375 -2.234375 6.09375 -3.75q3.5 -1.515625 7.484375 -2.40625q3.984375 -0.890625 8.28125 -1.28125q4.296875 -0.40625 8.484375 -0.40625q4.578125 0 8.671875 0.40625q4.09375 0.390625 7.90625 1.046875q3.8125 0.65625 7.4375 1.515625q3.640625 0.859375 7.375 1.84375l0 8.25zm108.10004 62.953125q-4.8125 1.484375 -8.9375 2.546875q-4.125 1.0625 -8.140625 1.71875q-4.0 0.65625 -8.15625 0.96875q-4.15625 0.328125 -9.140625 0.328125q-11.5625 0 -20.90625 -2.8125q-9.34375 -2.8125 -15.90625 -8.046875q-6.546875 -5.25 -10.109375 -12.6875q-3.546875 -7.453125 -3.546875 -16.734375q0 -9.0 3.40625 -16.5q3.40625 -7.5 9.53125 -12.875q6.140625 -5.390625 14.671875 -8.375q8.546875 -2.984375 18.859375 -2.984375q10.703125 0 19.0625 2.875q8.375 2.859375 14.09375 8.1875q5.734375 5.328125 8.703125 12.921875q2.984375 7.578125 2.984375 17.09375l0 1.78125l-83.921875 0q0.625 7.328125 3.65625 13.234375q3.046875 5.890625 8.625 10.015625q5.59375 4.125 13.75 6.34375q8.171875 2.203125 19.046875 2.203125q4.640625 0 9.390625 -0.625q4.765625 -0.640625 9.109375 -1.703125q4.359375 -1.0625 7.96875 -2.40625q3.609375 -1.34375 5.90625 -2.78125l0 8.3125zm-0.578125 -38.84375q-0.390625 -6.015625 -2.6875 -11.484375q-2.296875 -5.46875 -6.859375 -9.640625q-4.546875 -4.1875 -11.5625 -6.65625q-7.015625 -2.46875 -16.8125 -2.46875q-9.21875 0 -16.15625 2.46875q-6.921875 2.46875 -11.734375 6.625q-4.8125 4.140625 -7.5625 9.609375q-2.75 5.46875 -3.5 11.546875l76.875 0zm59.92755 -29.21875l0 72.1875l-7.09375 0l0 -72.1875l-35.8125 0l0 -6.53125l78.71875 0l0 6.53125l-35.8125 0z" fill-rule="nonzero"/></g></svg>