<svg version="1.1" viewBox="0.0 0.0 235.1994750656168 235.1994750656168" fill="none" stroke="none" stroke-linecap="square" stroke-miterlimit="10" xmlns:xlink="http://www.w3.org/1999/xlink" xmlns="http://www.w3.org/2000/svg"><clipPath id="p.0"><path d="m0 0l235.19948 0l0 235.19948l-235.19948 0l0 -235.19948z" clip-rule="nonzero"/></clipPath><g clip-path="url(#p.0)"><path fill="#000000" fill-opacity="0.0" d="m0 0l235.19948 0l0 235.19948l-235.19948 0z" fill-rule="evenodd"/><path fill="#000000" fill-opacity="0.0" d="m7.311764 10.559812l220.57396 0l0 214.07228l-220.57396 0z" fill-rule="evenodd"/><path stroke="#000000" stroke-width="8.0" stroke-linejoin="round" stroke-linecap="butt" d="m7.311764 10.559812l220.57396 0l0 214.07228l-220.57396 0z" fill-rule="evenodd"/><path fill="#000000" fill-opacity="0.0" d="m93.410194 -9.014107l139.89456 0l0 158.66971l-139.89456 0z" fill-rule="evenodd"/><path fill="#000000" d="m186.88956 25.264503l12.0 0l0 52.375q0 13.671875 -3.09375 21.71875q-3.09375 8.03125 -11.171875 13.078125q-8.0625 5.03125 -21.171875 5.03125q-12.734375 0 -20.84375 -4.390625q-8.09375 -4.390625 -11.5625 -12.703125q-3.46875 -8.328125 -3.46875 -22.734375l0 -52.375l12.0 0l0 52.3125q0 11.8125 2.1875 17.40625q2.203125 5.59375 7.546875 8.625q5.359375 3.03125 13.09375 3.03125q13.234375 0 18.859375 -6.0q5.625 -6.0 5.625 -23.0625l0 -52.3125z" fill-rule="nonzero"/><path fill="#000000" fill-opacity="0.0" d="m1.8903797 -9.014107l139.89456 0l0 158.66971l-139.89456 0z" fill-rule="evenodd"/><path fill="#000000" d="m28.491083 115.92075l0 -90.65625l18.046877 0l21.468754 64.1875q2.96875 8.96875 4.328125 13.421875q1.546875 -4.953125 4.828125 -14.53125l21.703125 -63.078125l16.140625 0l0 90.65625l-11.5625 0l0 -75.875l-26.34375 75.875l-10.828125 0l-26.218754 -77.1875l0 77.1875l-11.562502 0z" fill-rule="nonzero"/><path fill="#000000" fill-opacity="0.0" d="m1.8903797 85.53629l139.89456 0l0 158.66971l-139.89456 0z" fill-rule="evenodd"/><path fill="#000000" d="m36.05724 210.47116l0 -90.65626l40.20312 0q12.125 0 18.421875 2.4375q6.3125 2.4375 10.078125 8.625008q3.78125 6.1875 3.78125 13.671875q0 9.640625 -6.25 16.265625q-6.234375 6.609375 -19.296875 8.40625q4.765625 2.28125 7.234375 4.515625q5.265625 4.828125 9.96875 12.0625l15.765625 24.671875l-15.09375 0l-12.0 -18.859375q-5.25 -8.171875 -8.65625 -12.5q-3.390625 -4.328125 -6.09375 -6.046875q-2.6875 -1.734375 -5.46875 -2.421875q-2.046875 -0.4375 -6.671871 -0.4375l-13.921875 0l0 40.265625l-12.0 0zm12.0 -50.65625l25.796871 0q8.21875 0 12.859375 -1.6875q4.640625 -1.703125 7.046875 -5.4375q2.40625 -3.75 2.40625 -8.140625q0 -6.4375 -4.671875 -10.578125q-4.65625 -4.140625 -14.734375 -4.140625l-28.703121 0l0 29.984375z" fill-rule="nonzero"/><path fill="#000000" fill-opacity="0.0" d="m93.41153 85.53629l139.89455 0l0 158.66971l-139.89455 0z" fill-rule="evenodd"/><path fill="#000000" d="m120.93194 210.47116l34.812508 -90.65626l12.9375 0l37.109375 90.65626l-13.671875 0l-10.578125 -27.453125l-37.90625 0l-9.96875 27.453125l-12.734383 0zm26.156258 -37.234375l30.734375 0l-9.453125 -25.109375q-4.328125 -11.4375 -6.4375 -18.796875q-1.734375 8.71875 -4.875 17.3125l-9.96875 26.59375z" fill-rule="nonzero"/></g></svg>