<svg version="1.1" viewBox="0.0 0.0 630.9448818897638 115.0971128608924" fill="none" stroke="none" stroke-linecap="square" stroke-miterlimit="10" xmlns:xlink="http://www.w3.org/1999/xlink" xmlns="http://www.w3.org/2000/svg"><clipPath id="p.0"><path d="m0 0l630.9449 0l0 115.097115l-630.9449 0l0 -115.097115z" clip-rule="nonzero"/></clipPath><g clip-path="url(#p.0)"><path fill="#000000" fill-opacity="0.0" d="m0 0l630.9449 0l0 115.097115l-630.9449 0z" fill-rule="evenodd"/><path fill="#000000" fill-opacity="0.0" d="m4.1692915 6.1627297l192.97638 0l0 102.77165l-192.97638 0z" fill-rule="evenodd"/><path stroke="#000000" stroke-width="1.0" stroke-linejoin="round" stroke-linecap="butt" d="m4.1692915 6.1627297l192.97638 0l0 102.77165l-192.97638 0z" fill-rule="evenodd"/><path fill="#000000" fill-opacity="0.0" d="m4.1692915 16.745539l75.338585 0l0 30.614172l-75.338585 0z" fill-rule="evenodd"/><path fill="#000000" d="m18.622416 22.322624q-0.0625 0.09375 -0.125 0.140625q-0.046875 0.03125 -0.15625 0.03125q-0.09375 0 -0.234375 -0.09375q-0.125 -0.109375 -0.34375 -0.234375q-0.203125 -0.125 -0.5 -0.21875q-0.28125 -0.109375 -0.703125 -0.109375q-0.390625 0 -0.68749905 0.109375q-0.296875 0.109375 -0.5 0.296875q-0.203125 0.171875 -0.3125 0.421875q-0.09375 0.234375 -0.09375 0.515625q0 0.359375 0.171875 0.59375q0.1875 0.234375 0.46875 0.40625q0.296875 0.171875 0.65624905 0.296875q0.375 0.125 0.765625 0.265625q0.390625 0.125 0.75 0.296875q0.375 0.15625 0.65625 0.40625q0.296875 0.25 0.46875 0.625q0.1875 0.359375 0.1875 0.890625q0 0.5625 -0.203125 1.0625q-0.1875 0.484375 -0.5625 0.859375q-0.359375 0.359375 -0.90625 0.578125q-0.53125 0.203125 -1.203125 0.203125q-0.84374905 0 -1.531249 -0.296875q-0.6875 -0.3125 -1.171875 -0.828125l0.34375 -0.546875q0.046875 -0.0625 0.109375 -0.109375q0.078125 -0.046875 0.15625 -0.046875q0.125 0 0.28125 0.140625q0.171875 0.125 0.40625 0.296875q0.25 0.15625 0.59375 0.296875q0.34375 0.125 0.84374905 0.125q0.40625 0 0.734375 -0.109375q0.328125 -0.109375 0.546875 -0.3125q0.234375 -0.21875 0.34375 -0.5q0.125 -0.296875 0.125 -0.640625q0 -0.390625 -0.1875 -0.640625q-0.171875 -0.25 -0.453125 -0.421875q-0.28125 -0.171875 -0.65625 -0.28125q-0.375 -0.125 -0.76562405 -0.234375q-0.375 -0.125 -0.75 -0.28125q-0.359375 -0.171875 -0.65625 -0.421875q-0.28125 -0.265625 -0.46875 -0.65625q-0.171875 -0.390625 -0.171875 -0.953125q0 -0.453125 0.171875 -0.875q0.1875 -0.4375 0.515625 -0.765625q0.34375 -0.328125 0.828125 -0.515625q0.5 -0.203125 1.140624 -0.203125q0.71875 0 1.3125 0.234375q0.59375 0.21875 1.046875 0.640625l-0.28125 0.5625zm3.6256714 7.34375q-0.71875 0 -1.109375 -0.390625q-0.390625 -0.40625 -0.390625 -1.171875l0 -3.71875l-0.734375 0q-0.09375 0 -0.15625 -0.046875q-0.0625 -0.0625 -0.0625 -0.1875l0 -0.421875l1.0 -0.125l0.234375 -1.875q0.015625 -0.09375 0.078125 -0.140625q0.078125 -0.0625 0.171875 -0.0625l0.546875 0l0 2.09375l1.734375 0l0 0.765625l-1.734375 0l0 3.65625q0 0.375 0.171875 0.5625q0.1875 0.1875 0.484375 0.1875q0.171875 0 0.296875 -0.046875q0.125 -0.046875 0.203125 -0.09375q0.09375 -0.0625 0.15625 -0.09375q0.0625 -0.046875 0.109375 -0.046875q0.09375 0 0.15625 0.09375l0.3125 0.515625q-0.28125 0.25 -0.671875 0.40625q-0.390625 0.140625 -0.796875 0.140625zm3.5541534 -6.171875l0 3.875q0 0.6875 0.3125 1.078125q0.328125 0.375 0.96875 0.375q0.46875 0 0.875 -0.21875q0.421875 -0.234375 0.765625 -0.625l0 -4.484375l1.078125 0l0 6.078125l-0.640625 0q-0.234375 0 -0.296875 -0.21875l-0.078125 -0.65625q-0.390625 0.4375 -0.890625 0.703125q-0.484375 0.265625 -1.125 0.265625q-0.5 0 -0.890625 -0.15625q-0.375 -0.171875 -0.640625 -0.46875q-0.25 -0.296875 -0.375 -0.71875q-0.125 -0.4375 -0.125 -0.953125l0 -3.875l1.0625 0zm10.03142 6.078125q-0.234375 0 -0.296875 -0.21875l-0.09375 -0.734375q-0.390625 0.46875 -0.890625 0.75q-0.5 0.28125 -1.140625 0.28125q-0.53125 0 -0.953125 -0.1875q-0.421875 -0.203125 -0.7343769 -0.59375q-0.296875 -0.390625 -0.453125 -0.96875q-0.15625 -0.59375 -0.15625 -1.34375q0 -0.671875 0.171875 -1.25q0.1875 -0.578125 0.515625 -1.0q0.3437519 -0.4375 0.8281269 -0.671875q0.484375 -0.25 1.109375 -0.25q0.5625 0 0.953125 0.1875q0.390625 0.1875 0.703125 0.53125l0 -3.375l1.078125 0l0 8.84375l-0.640625 0zm-2.078125 -0.78125q0.53125 0 0.921875 -0.234375q0.390625 -0.25 0.71875 -0.6875l0 -2.9375q-0.296875 -0.390625 -0.65625 -0.546875q-0.34375 -0.171875 -0.765625 -0.171875q-0.84375 0 -1.3125 0.609375q-0.453125 0.609375 -0.453125 1.734375q0 0.59375 0.09375 1.015625q0.109375 0.421875 0.3125 0.703125q0.203125 0.265625 0.484375 0.390625q0.296875 0.125 0.65625 0.125zm6.2861786 2.578125q-0.046875 0.109375 -0.140625 0.1875q-0.078125 0.078125 -0.234375 0.078125l-0.796875 0l1.109375 -2.421875l-2.515625 -5.71875l0.9375 0q0.125 0 0.203125 0.078125q0.078125 0.0625 0.125 0.140625l1.625 3.828125q0.046875 0.140625 0.078125 0.28125q0.046875 0.125 0.078125 0.25q0.046875 -0.125 0.078125 -0.25q0.046875 -0.140625 0.109375 -0.28125l1.578125 -3.828125q0.03125 -0.09375 0.109375 -0.15625q0.09375 -0.0625 0.203125 -0.0625l0.84375 0l-3.390625 7.875z" fill-rule="nonzero"/><path fill="#000000" d="m14.9036665 39.791374q0 1.296875 0.328125 2.5q0.328125 1.203125 0.95312405 2.3125q0.03125 0.0625 0.046875 0.109375q0.015625 0.046875 0.015625 0.09375q0 0.078125 -0.046875 0.125q-0.03125 0.0625 -0.109375 0.109375l-0.46874905 0.296875q-0.453125 -0.703125 -0.765625 -1.375q-0.3125 -0.671875 -0.515625 -1.359375q-0.1875 -0.6875 -0.28125 -1.375q-0.09375 -0.703125 -0.09375 -1.4375q0 -0.71875 0.09375 -1.40625q0.09375 -0.703125 0.28125 -1.375q0.203125 -0.6875 0.515625 -1.359375q0.3125 -0.6875 0.765625 -1.390625l0.46874905 0.296875q0.078125 0.046875 0.109375 0.109375q0.046875 0.046875 0.046875 0.125q0 0.09375 -0.0625 0.203125q-0.62499905 1.09375 -0.95312405 2.3125q-0.328125 1.203125 -0.328125 2.484375zm8.209395 -4.8125l0 0.9375l-4.125 0l0 2.859375l3.34375 0l0 0.921875l-3.34375 0l0 2.921875l4.125 0l0 0.953125l-5.296875 0l0 -8.59375l5.296875 0zm2.690796 -0.25l0 8.84375l-1.0625 0l0 -8.84375l1.0625 0zm1.9157715 8.84375l0 -8.84375l1.078125 0l0 3.640625q0.375 -0.4375 0.859375 -0.703125q0.5 -0.265625 1.125 -0.265625q0.53125 0 0.953125 0.203125q0.4375019 0.1875 0.7343769 0.59375q0.296875 0.390625 0.453125 0.96875q0.171875 0.578125 0.171875 1.328125q0 0.671875 -0.1875 1.25q-0.171875 0.578125 -0.515625 1.0q-0.34375 0.421875 -0.8281269 0.671875q-0.484375 0.234375 -1.109375 0.234375q-0.578125 0 -1.0 -0.21875q-0.40625 -0.234375 -0.703125 -0.640625l-0.0625 0.546875q-0.046875 0.234375 -0.265625 0.234375l-0.703125 0zm2.71875 -5.328125q-0.515625 0 -0.921875 0.25q-0.390625 0.234375 -0.71875 0.671875l0 2.9375q0.296875 0.40625 0.640625 0.5625q0.34375 0.15625 0.78125 0.15625q0.859375 0 1.3125 -0.59375q0.453125 -0.609375 0.453125 -1.734375q0 -0.59375 -0.109375 -1.015625q-0.09375 -0.4375 -0.296875 -0.703125q-0.203125 -0.265625 -0.5 -0.390625q-0.28125 -0.140625 -0.640625 -0.140625zm6.4268055 -0.84375q0.65625 0 1.1875 0.21875q0.546875 0.21875 0.921875 0.640625q0.375 0.40625 0.578125 0.984375q0.203125 0.578125 0.203125 1.28125q0 0.71875 -0.203125 1.296875q-0.203125 0.578125 -0.578125 0.984375q-0.375 0.40625 -0.921875 0.625q-0.53125 0.21875 -1.1875 0.21875q-0.671875 0 -1.21875 -0.21875q-0.53125 -0.21875 -0.90625 -0.625q-0.375 -0.40625 -0.578125 -0.984375q-0.203125 -0.578125 -0.203125 -1.296875q0 -0.703125 0.203125 -1.28125q0.203125 -0.578125 0.578125 -0.984375q0.375 -0.421875 0.90625 -0.640625q0.546875 -0.21875 1.21875 -0.21875zm0 5.421875q0.890625 0 1.328125 -0.59375q0.453125 -0.609375 0.453125 -1.6875q0 -1.09375 -0.453125 -1.6875q-0.4375 -0.609375 -1.328125 -0.609375q-0.46875 0 -0.8125 0.15625q-0.328125 0.15625 -0.546875 0.453125q-0.21875 0.28125 -0.34375 0.71875q-0.109375 0.421875 -0.109375 0.96875q0 0.53125 0.109375 0.96875q0.125 0.421875 0.34375 0.71875q0.21875 0.28125 0.546875 0.4375q0.34375 0.15625 0.8125 0.15625zm3.4064178 -5.328125l0.84375 0q0.140625 0 0.21875 0.0625q0.078125 0.0625 0.109375 0.15625l1.171875 3.921875q0.046875 0.203125 0.078125 0.40625q0.046875 0.203125 0.078125 0.40625q0.046875 -0.203125 0.109375 -0.40625q0.0625 -0.203125 0.125 -0.40625l1.28125 -3.9375q0.03125 -0.09375 0.109375 -0.15625q0.078125 -0.0625 0.1875 -0.0625l0.46875 0q0.109375 0 0.1875 0.0625q0.078125 0.0625 0.109375 0.15625l1.25 3.9375q0.078125 0.203125 0.125 0.40625q0.046875 0.203125 0.09375 0.40625q0.03125 -0.203125 0.078125 -0.421875q0.046875 -0.21875 0.109375 -0.390625l1.1875 -3.921875q0.03125 -0.09375 0.109375 -0.15625q0.09375 -0.0625 0.203125 -0.0625l0.796875 0l-1.96875 6.078125l-0.84375 0q-0.15625 0 -0.21875 -0.203125l-1.34375 -4.125q-0.046875 -0.140625 -0.078125 -0.28125q-0.03125 -0.140625 -0.046875 -0.28125q-0.03125 0.140625 -0.0625 0.296875q-0.03125 0.140625 -0.078125 0.28125l-1.359375 4.109375q-0.078125 0.203125 -0.25 0.203125l-0.8125 0l-1.96875 -6.078125zm10.895187 2.296875q0 -1.28125 -0.328125 -2.484375q-0.3125 -1.21875 -0.953125 -2.3125q-0.0625 -0.109375 -0.0625 -0.203125q0 -0.078125 0.046875 -0.125q0.046875 -0.0625 0.109375 -0.109375l0.46875 -0.296875q0.453125 0.703125 0.765625 1.390625q0.3125 0.671875 0.5 1.359375q0.203125 0.671875 0.296875 1.375q0.09375 0.6875 0.09375 1.40625q0 0.734375 -0.09375 1.4375q-0.09375 0.6875 -0.296875 1.375q-0.1875 0.6875 -0.5 1.359375q-0.3125 0.671875 -0.765625 1.375l-0.46875 -0.296875q-0.0625 -0.046875 -0.109375 -0.109375q-0.046875 -0.046875 -0.046875 -0.125q0 -0.046875 0.015625 -0.09375q0.015625 -0.046875 0.046875 -0.109375q0.625 -1.109375 0.953125 -2.3125q0.328125 -1.203125 0.328125 -2.5z" fill-rule="nonzero"/><path fill="#000000" fill-opacity="0.0" d="m182.95387 32.171036l42.393692 0" fill-rule="evenodd"/><path stroke="#000000" stroke-width="1.0" stroke-linejoin="round" stroke-linecap="butt" d="m182.95386 32.171036l36.393707 0" fill-rule="evenodd"/><path fill="#000000" stroke="#000000" stroke-width="1.0" stroke-linecap="butt" d="m219.34756 33.822765l4.538101 -1.6517296l-4.538101 -1.6517334z" fill-rule="evenodd"/><path fill="#000000" fill-opacity="0.0" d="m57.851505 14.580484l125.10237 0l0 35.1811l-125.10237 0z" fill-rule="evenodd"/><path stroke="#000000" stroke-width="1.0" stroke-linejoin="round" stroke-linecap="butt" d="m57.851505 14.580484l125.10237 0l0 35.1811l-125.10237 0z" fill-rule="evenodd"/><path fill="#000000" d="m98.48841 26.751036l1.125 0q0.203125 0 0.3125 0.09375q0.125 0.09375 0.171875 0.25l2.96875 7.406248q0.109375 0.25 0.1875 0.546875q0.09375 0.28125 0.171875 0.59375q0.0625 -0.3125 0.140625 -0.59375q0.078125 -0.296875 0.171875 -0.546875l2.953125 -7.406248q0.0625 -0.125 0.1875 -0.234375q0.125 -0.109375 0.296875 -0.109375l1.15625 0l-4.28125 10.499998l-1.28125 0l-4.28125 -10.499998zm12.4192505 3.078125l0 7.421873l-1.296875 0l0 -7.421873l1.296875 0zm0.296875 -2.328125q0 0.1875 -0.078125 0.359375q-0.078125 0.15625 -0.203125 0.28125q-0.125 0.125 -0.296875 0.203125q-0.171875 0.078125 -0.359375 0.078125q-0.1875 0 -0.359375 -0.078125q-0.15625 -0.078125 -0.296875 -0.203125q-0.125 -0.125 -0.203125 -0.28125q-0.0625 -0.171875 -0.0625 -0.359375q0 -0.1875 0.0625 -0.359375q0.078125 -0.171875 0.203125 -0.296875q0.140625 -0.140625 0.296875 -0.203125q0.171875 -0.078125 0.359375 -0.078125q0.1875 0 0.359375 0.078125q0.171875 0.0625 0.296875 0.203125q0.125 0.125 0.203125 0.296875q0.078125 0.171875 0.078125 0.359375zm4.955078 2.203125q0.65625 0 1.21875 0.234375q0.5625 0.21875 0.96875 0.640625q0.421875 0.421875 0.65625 1.046875q0.234375 0.6093731 0.234375 1.4062481q0 0.3125 -0.078125 0.421875q-0.0625 0.09375 -0.25 0.09375l-4.9375 0q0.015625 0.703125 0.1875 1.21875q0.1875 0.515625 0.484375 0.875q0.3125 0.34375 0.734375 0.515625q0.421875 0.171875 0.953125 0.171875q0.5 0 0.84375 -0.109375q0.359375 -0.125 0.609375 -0.25q0.265625 -0.140625 0.4375 -0.25q0.171875 -0.109375 0.296875 -0.109375q0.15625 0 0.25 0.125l0.359375 0.46875q-0.234375 0.296875 -0.578125 0.515625q-0.328125 0.21875 -0.71875 0.359375q-0.375 0.140625 -0.796875 0.203125q-0.40625 0.078125 -0.8125 0.078125q-0.765625 0 -1.421875 -0.265625q-0.640625 -0.265625 -1.125 -0.765625q-0.46875 -0.5 -0.734375 -1.234375q-0.25 -0.75 -0.25 -1.703125q0 -0.78125 0.234375 -1.4531231q0.234375 -0.671875 0.671875 -1.15625q0.453125 -0.5 1.09375 -0.78125q0.65625 -0.296875 1.46875 -0.296875zm0.015625 0.96875q-0.9375 0 -1.484375 0.546875q-0.53125 0.546875 -0.671875 1.5156231l4.03125 0q0 -0.453125 -0.125 -0.8281231q-0.109375 -0.390625 -0.359375 -0.65625q-0.234375 -0.28125 -0.59375 -0.421875q-0.34375 -0.15625 -0.796875 -0.15625zm3.757904 -0.84375l1.015625 0q0.171875 0 0.265625 0.078125q0.109375 0.078125 0.140625 0.1875l1.4218674 4.781248q0.0625 0.265625 0.109375 0.515625q0.046875 0.234375 0.09375 0.484375q0.046875 -0.25 0.125 -0.484375q0.078125 -0.25 0.15625 -0.515625l1.5625 -4.812498q0.046875 -0.109375 0.125 -0.171875q0.09375 -0.078125 0.234375 -0.078125l0.5625 0q0.15625 0 0.25 0.078125q0.09375 0.0625 0.125 0.171875l1.53125 4.812498q0.09375 0.25 0.140625 0.5q0.0625 0.25 0.125 0.5q0.046875 -0.25 0.09375 -0.5q0.0625 -0.265625 0.125 -0.5l1.453125 -4.781248q0.046875 -0.109375 0.140625 -0.1875q0.109375 -0.078125 0.25 -0.078125l0.96875 0l-2.390625 7.421873l-1.046875 0q-0.1875 0 -0.25 -0.25l-1.640625 -5.031248q-0.0625 -0.171875 -0.109375 -0.34375q-0.03125 -0.171875 -0.0625 -0.34375q-0.046875 0.171875 -0.078125 0.359375q-0.03125 0.171875 -0.09375 0.328125l-1.671875 5.031248q-0.078125 0.25 -0.296875 0.25l-0.984375 0l-2.3906174 -7.421873zm16.055168 6.421873l2.25 0l0 -7.156248q0 -0.328125 0.015625 -0.65625l-1.875 1.609375q-0.0625 0.0625 -0.140625 0.09375q-0.078125 0.015625 -0.140625 0.015625q-0.109375 0 -0.203125 -0.046875q-0.078125 -0.046875 -0.125 -0.109375l-0.40625 -0.5625l3.125 -2.703125l1.0625 0l0 9.515623l2.0625 0l0 1.0l-5.625 0l0 -1.0z" fill-rule="nonzero"/><path fill="#000000" fill-opacity="0.0" d="m12.169292 57.644703l140.37794 0l0 46.582676l-140.37794 0z" fill-rule="evenodd"/><path stroke="#000000" stroke-width="1.0" stroke-linejoin="round" stroke-linecap="butt" d="m12.169292 57.644703l140.37794 0l0 46.582676l-140.37794 0z" fill-rule="evenodd"/><path fill="#000000" d="m60.443993 75.516045l1.125 0q0.203125 0 0.3125 0.09375q0.125 0.09375 0.171875 0.25l2.96875 7.40625q0.109375 0.25 0.1875 0.546875q0.09375 0.28125 0.171875 0.59375q0.0625 -0.3125 0.140625 -0.59375q0.078125 -0.296875 0.171875 -0.546875l2.953125 -7.40625q0.0625 -0.125 0.1875 -0.234375q0.125 -0.109375 0.296875 -0.109375l1.15625 0l-4.28125 10.5l-1.28125 0l-4.28125 -10.5zm12.4192505 3.078125l0 7.421875l-1.296875 0l0 -7.421875l1.296875 0zm0.296875 -2.328125q0 0.1875 -0.078125 0.359375q-0.078125 0.15625 -0.203125 0.28125q-0.125 0.125 -0.296875 0.203125q-0.171875 0.078125 -0.359375 0.078125q-0.1875 0 -0.359375 -0.078125q-0.15625 -0.078125 -0.296875 -0.203125q-0.125 -0.125 -0.203125 -0.28125q-0.0625 -0.171875 -0.0625 -0.359375q0 -0.1875 0.0625 -0.359375q0.078125 -0.171875 0.203125 -0.296875q0.140625 -0.140625 0.296875 -0.203125q0.171875 -0.078125 0.359375 -0.078125q0.1875 0 0.359375 0.078125q0.171875 0.0625 0.296875 0.203125q0.125 0.125 0.203125 0.296875q0.078125 0.171875 0.078125 0.359375zm4.955078 2.203125q0.65625 0 1.21875 0.234375q0.5625 0.21875 0.96875 0.640625q0.421875 0.421875 0.65625 1.046875q0.234375 0.609375 0.234375 1.40625q0 0.3125 -0.078125 0.421875q-0.0625 0.09375 -0.25 0.09375l-4.9375 0q0.015625 0.703125 0.1875 1.21875q0.1875 0.515625 0.484375 0.875q0.3125 0.34375 0.734375 0.515625q0.421875 0.171875 0.953125 0.171875q0.5 0 0.84375 -0.109375q0.359375 -0.125 0.609375 -0.25q0.265625 -0.140625 0.4375 -0.25q0.171875 -0.109375 0.296875 -0.109375q0.15625 0 0.25 0.125l0.359375 0.46875q-0.234375 0.296875 -0.578125 0.515625q-0.328125 0.21875 -0.71875 0.359375q-0.375 0.140625 -0.796875 0.203125q-0.40625 0.078125 -0.8125 0.078125q-0.765625 0 -1.421875 -0.265625q-0.640625 -0.265625 -1.125 -0.765625q-0.46875 -0.5 -0.734375 -1.234375q-0.25 -0.75 -0.25 -1.703125q0 -0.78125 0.234375 -1.453125q0.234375 -0.671875 0.671875 -1.15625q0.453125 -0.5 1.09375 -0.78125q0.65625 -0.296875 1.46875 -0.296875zm0.015625 0.96875q-0.9375 0 -1.484375 0.546875q-0.53125 0.546875 -0.671875 1.515625l4.03125 0q0 -0.453125 -0.125 -0.828125q-0.109375 -0.390625 -0.359375 -0.65625q-0.234375 -0.28125 -0.59375 -0.421875q-0.34375 -0.15625 -0.796875 -0.15625zm3.757904 -0.84375l1.015625 0q0.171875 0 0.265625 0.078125q0.109375 0.078125 0.140625 0.1875l1.421875 4.78125q0.0625 0.265625 0.109375 0.515625q0.046875 0.234375 0.09375 0.484375q0.046875 -0.25 0.125 -0.484375q0.078125 -0.25 0.15625 -0.515625l1.5625 -4.8125q0.046875 -0.109375 0.125 -0.171875q0.09375 -0.078125 0.234375 -0.078125l0.5625 0q0.15625 0 0.25 0.078125q0.09375 0.0625 0.125 0.171875l1.53125 4.8125q0.09375 0.25 0.140625 0.5q0.0625 0.25 0.125 0.5q0.046875 -0.25 0.09375 -0.5q0.0625 -0.265625 0.125 -0.5l1.453125 -4.78125q0.046875 -0.109375 0.140625 -0.1875q0.109375 -0.078125 0.25 -0.078125l0.96875 0l-2.390625 7.421875l-1.046875 0q-0.1875 0 -0.25 -0.25l-1.640625 -5.03125q-0.0625 -0.171875 -0.109375 -0.34375q-0.03125 -0.171875 -0.0625 -0.34375q-0.046875 0.171875 -0.078125 0.359375q-0.03125 0.171875 -0.09375 0.328125l-1.671875 5.03125q-0.078125 0.25 -0.296875 0.25l-0.984375 0l-2.390625 -7.421875zm18.35205 -3.203125q0.671875 0 1.25 0.203125q0.578125 0.203125 1.0 0.578125q0.421875 0.375 0.65625 0.921875q0.25 0.53125 0.25 1.234375q0 0.578125 -0.1875 1.078125q-0.171875 0.5 -0.46875 0.953125q-0.296875 0.453125 -0.703125 0.890625q-0.390625 0.421875 -0.828125 0.875l-2.765625 2.828125q0.296875 -0.078125 0.59375 -0.125q0.3125 -0.046875 0.578125 -0.046875l3.53125 0q0.203125 0 0.328125 0.125q0.125 0.125 0.125 0.3125l0 0.796875l-7.0 0l0 -0.453125q0 -0.140625 0.046875 -0.28125q0.0625 -0.140625 0.1875 -0.265625l3.359375 -3.375q0.421875 -0.4375 0.765625 -0.828125q0.34375 -0.390625 0.578125 -0.78125q0.25 -0.390625 0.375 -0.796875q0.140625 -0.421875 0.140625 -0.875q0 -0.46875 -0.15625 -0.8125q-0.140625 -0.34375 -0.390625 -0.5625q-0.25 -0.234375 -0.59375 -0.34375q-0.34375 -0.125 -0.75 -0.125q-0.390625 0 -0.734375 0.125q-0.328125 0.109375 -0.59375 0.328125q-0.265625 0.203125 -0.453125 0.5q-0.171875 0.28125 -0.234375 0.625q-0.0625 0.203125 -0.1875 0.296875q-0.109375 0.09375 -0.296875 0.09375q-0.046875 0 -0.09375 0q-0.03125 0 -0.078125 -0.015625l-0.6875 -0.109375q0.109375 -0.71875 0.390625 -1.265625q0.296875 -0.5625 0.75 -0.9375q0.453125 -0.375 1.03125 -0.5625q0.59375 -0.203125 1.265625 -0.203125z" fill-rule="nonzero"/><path fill="#000000" fill-opacity="0.0" d="m152.54724 80.93604l72.0945 0" fill-rule="evenodd"/><path stroke="#000000" stroke-width="1.0" stroke-linejoin="round" stroke-linecap="butt" d="m152.54724 80.93604l66.0945 0" fill-rule="evenodd"/><path fill="#000000" stroke="#000000" stroke-width="1.0" stroke-linecap="butt" d="m218.64174 82.587776l4.538086 -1.6517334l-4.538086 -1.6517334z" fill-rule="evenodd"/><path fill="#000000" fill-opacity="0.0" d="m224.62335 6.1627297l133.7638 0l0 102.77165l-133.7638 0z" fill-rule="evenodd"/><path stroke="#000000" stroke-width="1.0" stroke-linejoin="round" stroke-linecap="butt" d="m224.62335 6.1627297l133.7638 0l0 102.77165l-133.7638 0z" fill-rule="evenodd"/><path fill="#000000" d="m259.49057 43.314808l2.46875 0l0 -7.8125q0 -0.34375 0.015625 -0.703125l-2.046875 1.75q-0.078125 0.0625 -0.15625 0.09375q-0.078125 0.015625 -0.15625 0.015625q-0.125 0 -0.21875 -0.046875q-0.09375 -0.046875 -0.140625 -0.125l-0.453125 -0.609375l3.421875 -2.953125l1.15625 0l0 10.390625l2.25 0l0 1.09375l-6.140625 0l0 -1.09375zm12.186127 -5.9375q0.6875 0 1.296875 0.234375q0.625 0.234375 1.078125 0.671875q0.46875 0.421875 0.734375 1.0625q0.28125 0.640625 0.28125 1.453125q0 0.796875 -0.296875 1.484375q-0.28125 0.671875 -0.796875 1.171875q-0.515625 0.5 -1.25 0.796875q-0.71875 0.28125 -1.59375 0.28125q-0.859375 0 -1.5625 -0.265625q-0.703125 -0.28125 -1.203125 -0.78125q-0.484375 -0.515625 -0.765625 -1.234375q-0.265625 -0.734375 -0.265625 -1.625q0 -0.75 0.328125 -1.59375q0.34375 -0.859375 1.078125 -1.828125l2.90625 -3.921875q0.109375 -0.140625 0.3125 -0.234375q0.203125 -0.109375 0.453125 -0.109375l1.265625 0l-3.984375 5.03125q0.40625 -0.28125 0.90625 -0.4375q0.5 -0.15625 1.078125 -0.15625zm-2.96875 3.5q0 0.546875 0.15625 1.0q0.171875 0.453125 0.46875 0.78125q0.3125 0.328125 0.75 0.515625q0.453125 0.171875 1.015625 0.171875q0.578125 0 1.046875 -0.171875q0.46875 -0.1875 0.796875 -0.515625q0.328125 -0.328125 0.5 -0.765625q0.1875 -0.453125 0.1875 -0.984375q0 -0.5625 -0.171875 -1.015625q-0.171875 -0.453125 -0.5 -0.765625q-0.3125 -0.3125 -0.765625 -0.484375q-0.453125 -0.171875 -0.984375 -0.171875q-0.578125 0 -1.046875 0.203125q-0.453125 0.1875 -0.78125 0.53125q-0.328125 0.328125 -0.5 0.765625q-0.171875 0.421875 -0.171875 0.90625zm11.436127 -1.171875q-0.640625 0 -1.234375 -0.21875q-0.578125 -0.21875 -1.015625 -0.625q-0.4375 -0.421875 -0.703125 -1.03125q-0.25 -0.625 -0.25 -1.40625q0 -0.765625 0.28125 -1.421875q0.28125 -0.65625 0.78125 -1.140625q0.5 -0.484375 1.1875 -0.765625q0.703125 -0.28125 1.53125 -0.28125q0.828125 0 1.5 0.28125q0.671875 0.265625 1.15625 0.75q0.484375 0.484375 0.734375 1.171875q0.265625 0.671875 0.265625 1.5q0 0.5 -0.09375 0.953125q-0.09375 0.4375 -0.265625 0.859375q-0.171875 0.421875 -0.421875 0.84375q-0.25 0.421875 -0.5625 0.859375l-2.78125 4.03125q-0.109375 0.15625 -0.296875 0.25q-0.1875 0.09375 -0.4375 0.09375l-1.3125 0l3.484375 -4.5625q0.171875 -0.234375 0.328125 -0.4375q0.15625 -0.21875 0.28125 -0.421875q-0.4375 0.34375 -0.984375 0.53125q-0.546875 0.1875 -1.171875 0.1875zm2.859375 -3.359375q0 -0.53125 -0.171875 -0.96875q-0.171875 -0.4375 -0.484375 -0.734375q-0.296875 -0.3125 -0.71875 -0.46875q-0.40625 -0.171875 -0.921875 -0.171875q-0.515625 0 -0.953125 0.171875q-0.4375 0.171875 -0.75 0.484375q-0.3125 0.296875 -0.484375 0.734375q-0.15625 0.421875 -0.15625 0.921875q0 0.546875 0.15625 0.96875q0.15625 0.421875 0.4375 0.71875q0.296875 0.296875 0.71875 0.453125q0.421875 0.15625 0.9375 0.15625q0.578125 0 1.015625 -0.1875q0.453125 -0.1875 0.75 -0.5q0.3125 -0.3125 0.46875 -0.71875q0.15625 -0.40625 0.15625 -0.859375zm2.8267517 2.65625l3.953125 0l0 1.21875l-3.953125 0l0 -1.21875zm7.5050354 -6.375l0 11.78125l-1.421875 0l0 -11.78125l1.421875 0zm8.470947 11.78125l-0.640625 0q-0.203125 0 -0.328125 -0.0625q-0.125 -0.0625 -0.171875 -0.28125l-0.15625 -0.75q-0.328125 0.296875 -0.640625 0.53125q-0.296875 0.21875 -0.640625 0.375q-0.328125 0.15625 -0.703125 0.234375q-0.375 0.078125 -0.84375 0.078125q-0.46875 0 -0.890625 -0.125q-0.40625 -0.140625 -0.71875 -0.390625q-0.296875 -0.265625 -0.484375 -0.671875q-0.171875 -0.40625 -0.171875 -0.96875q0 -0.46875 0.265625 -0.90625q0.265625 -0.453125 0.84375 -0.796875q0.59375 -0.34375 1.546875 -0.5625q0.953125 -0.21875 2.328125 -0.25l0 -0.640625q0 -0.9375 -0.40625 -1.421875q-0.40625 -0.484375 -1.1875 -0.484375q-0.53125 0 -0.890625 0.140625q-0.34375 0.125 -0.609375 0.296875q-0.25 0.15625 -0.453125 0.296875q-0.1875 0.125 -0.359375 0.125q-0.15625 0 -0.265625 -0.078125q-0.09375 -0.078125 -0.15625 -0.1875l-0.265625 -0.453125q0.671875 -0.65625 1.453125 -0.96875q0.78125 -0.328125 1.71875 -0.328125q0.671875 0 1.203125 0.234375q0.53125 0.21875 0.890625 0.625q0.359375 0.390625 0.546875 0.96875q0.1875 0.5625 0.1875 1.234375l0 5.1875zm-3.703125 -0.875q0.375 0 0.6875 -0.078125q0.3125 -0.078125 0.578125 -0.203125q0.28125 -0.140625 0.53125 -0.34375q0.265625 -0.203125 0.5 -0.453125l0 -1.6875q-0.984375 0.03125 -1.671875 0.15625q-0.6875 0.109375 -1.125 0.3125q-0.421875 0.203125 -0.625 0.484375q-0.1875 0.265625 -0.1875 0.59375q0 0.328125 0.09375 0.5625q0.109375 0.234375 0.28125 0.375q0.171875 0.140625 0.40625 0.21875q0.25 0.0625 0.53125 0.0625zm8.236908 3.265625q-0.078125 0.15625 -0.1875 0.25q-0.109375 0.109375 -0.328125 0.109375l-1.0625 0l1.484375 -3.21875l-3.34375 -7.640625l1.234375 0q0.1875 0 0.28125 0.09375q0.109375 0.09375 0.15625 0.203125l2.171875 5.109375q0.078125 0.171875 0.125 0.359375q0.046875 0.171875 0.09375 0.359375q0.046875 -0.1875 0.109375 -0.359375q0.0625 -0.1875 0.125 -0.375l2.109375 -5.09375q0.046875 -0.125 0.15625 -0.203125q0.125 -0.09375 0.25 -0.09375l1.140625 0l-4.515625 10.5zm9.02002 -10.625q0.734375 0 1.34375 0.25q0.609375 0.234375 1.0625 0.703125q0.453125 0.453125 0.703125 1.140625q0.25 0.671875 0.25 1.53125q0 0.34375 -0.078125 0.453125q-0.0625 0.109375 -0.265625 0.109375l-5.390625 0q0.015625 0.765625 0.203125 1.34375q0.203125 0.5625 0.53125 0.9375q0.34375 0.375 0.796875 0.5625q0.46875 0.1875 1.046875 0.1875q0.53125 0 0.921875 -0.109375q0.390625 -0.125 0.671875 -0.265625q0.28125 -0.15625 0.46875 -0.28125q0.1875 -0.125 0.3125 -0.125q0.1875 0 0.28125 0.140625l0.390625 0.515625q-0.25 0.328125 -0.625 0.5625q-0.375 0.234375 -0.796875 0.390625q-0.40625 0.140625 -0.859375 0.21875q-0.453125 0.078125 -0.890625 0.078125q-0.84375 0 -1.546875 -0.28125q-0.703125 -0.28125 -1.21875 -0.828125q-0.515625 -0.546875 -0.8125 -1.359375q-0.28125 -0.8125 -0.28125 -1.859375q0 -0.84375 0.25 -1.578125q0.265625 -0.734375 0.75 -1.265625q0.5 -0.546875 1.203125 -0.859375q0.703125 -0.3125 1.578125 -0.3125zm0.03125 1.046875q-1.03125 0 -1.625 0.609375q-0.59375 0.59375 -0.734375 1.640625l4.40625 0q0 -0.5 -0.140625 -0.90625q-0.125 -0.40625 -0.390625 -0.703125q-0.265625 -0.3125 -0.65625 -0.46875q-0.375 -0.171875 -0.859375 -0.171875zm5.1495056 7.1875l0 -8.109375l0.8125 0q0.234375 0 0.3125 0.09375q0.09375 0.09375 0.125 0.296875l0.09375 1.265625q0.421875 -0.84375 1.03125 -1.3125q0.609375 -0.484375 1.4375 -0.484375q0.328125 0 0.59375 0.078125q0.28125 0.078125 0.515625 0.21875l-0.1875 1.0625q-0.046875 0.1875 -0.25 0.1875q-0.109375 0 -0.34375 -0.0625q-0.21875 -0.078125 -0.640625 -0.078125q-0.75 0 -1.25 0.4375q-0.5 0.421875 -0.828125 1.25l0 5.15625l-1.421875 0z" fill-rule="nonzero"/><path fill="#000000" d="m251.52663 61.033558q0.125 0 0.234375 0.109375l0.609375 0.671875q-0.703125 0.8125 -1.71875 1.265625q-1.0 0.453125 -2.40625 0.453125q-1.25 0 -2.265625 -0.421875q-1.0 -0.4375 -1.71875 -1.203125q-0.703125 -0.765625 -1.09375 -1.84375q-0.390625 -1.09375 -0.390625 -2.390625q0 -1.296875 0.421875 -2.375q0.421875 -1.078125 1.171875 -1.84375q0.765625 -0.78125 1.828125 -1.203125q1.0625 -0.4375 2.34375 -0.4375q1.265625 0 2.171875 0.390625q0.921875 0.390625 1.625 1.0625l-0.5 0.71875q-0.046875 0.078125 -0.125 0.140625q-0.078125 0.046875 -0.203125 0.046875q-0.109375 0 -0.234375 -0.078125q-0.109375 -0.078125 -0.265625 -0.1875q-0.15625 -0.109375 -0.375 -0.234375q-0.21875 -0.140625 -0.515625 -0.25q-0.296875 -0.109375 -0.6875 -0.1875q-0.390625 -0.078125 -0.90625 -0.078125q-0.921875 0 -1.6875 0.328125q-0.75 0.3125 -1.3125 0.890625q-0.546875 0.578125 -0.859375 1.421875q-0.3125 0.84375 -0.3125 1.875q0 1.078125 0.3125 1.921875q0.3125 0.84375 0.84375 1.421875q0.53125 0.578125 1.25 0.890625q0.734375 0.296875 1.578125 0.296875q0.515625 0 0.921875 -0.0625q0.40625 -0.0625 0.75 -0.1875q0.34375 -0.125 0.640625 -0.3125q0.3125 -0.203125 0.609375 -0.484375q0.140625 -0.125 0.265625 -0.125zm5.944229 -5.859375q0.875 0 1.59375 0.296875q0.71875 0.296875 1.21875 0.84375q0.5 0.546875 0.765625 1.3125q0.265625 0.765625 0.265625 1.71875q0 0.96875 -0.265625 1.734375q-0.265625 0.765625 -0.765625 1.3125q-0.5 0.546875 -1.21875 0.84375q-0.71875 0.28125 -1.59375 0.28125q-0.890625 0 -1.609375 -0.28125q-0.71875 -0.296875 -1.21875 -0.84375q-0.5 -0.546875 -0.78125 -1.3125q-0.265625 -0.765625 -0.265625 -1.734375q0 -0.953125 0.265625 -1.71875q0.28125 -0.765625 0.78125 -1.3125q0.5 -0.546875 1.21875 -0.84375q0.71875 -0.296875 1.609375 -0.296875zm0 7.234375q1.1875 0 1.78125 -0.796875q0.59375 -0.8125 0.59375 -2.25q0 -1.453125 -0.59375 -2.25q-0.59375 -0.8125 -1.78125 -0.8125q-0.609375 0 -1.0625 0.203125q-0.453125 0.203125 -0.75 0.609375q-0.296875 0.390625 -0.453125 0.96875q-0.140625 0.5625 -0.140625 1.28125q0 0.71875 0.140625 1.296875q0.15625 0.5625 0.453125 0.953125q0.296875 0.375 0.75 0.59375q0.453125 0.203125 1.0625 0.203125zm5.614624 1.0l0 -8.109375l0.84375 0q0.296875 0 0.390625 0.296875l0.109375 0.890625q0.53125 -0.59375 1.171875 -0.953125q0.65625 -0.359375 1.515625 -0.359375q0.65625 0 1.15625 0.21875q0.515625 0.21875 0.859375 0.625q0.34375 0.40625 0.515625 0.984375q0.171875 0.5625 0.171875 1.25l0 5.15625l-1.421875 0l0 -5.15625q0 -0.921875 -0.421875 -1.421875q-0.421875 -0.515625 -1.28125 -0.515625q-0.625 0 -1.171875 0.3125q-0.546875 0.296875 -1.015625 0.8125l0 5.96875l-1.421875 0zm7.8646545 -8.109375l1.171875 0q0.171875 0 0.28125 0.09375q0.109375 0.09375 0.15625 0.203125l2.0625 5.21875q0.109375 0.296875 0.171875 0.578125q0.0625 0.28125 0.125 0.5625q0.0625 -0.28125 0.125 -0.5625q0.078125 -0.28125 0.1875 -0.578125l2.078125 -5.21875q0.046875 -0.125 0.15625 -0.203125q0.109375 -0.09375 0.265625 -0.09375l1.125 0l-3.3125 8.109375l-1.28125 0l-3.3125 -8.109375zm12.504395 -0.125q0.875 0 1.59375 0.296875q0.71875 0.296875 1.21875 0.84375q0.5 0.546875 0.765625 1.3125q0.265625 0.765625 0.265625 1.71875q0 0.96875 -0.265625 1.734375q-0.265625 0.765625 -0.765625 1.3125q-0.5 0.546875 -1.21875 0.84375q-0.71875 0.28125 -1.59375 0.28125q-0.890625 0 -1.609375 -0.28125q-0.71875 -0.296875 -1.21875 -0.84375q-0.5 -0.546875 -0.78125 -1.3125q-0.265625 -0.765625 -0.265625 -1.734375q0 -0.953125 0.265625 -1.71875q0.28125 -0.765625 0.78125 -1.3125q0.5 -0.546875 1.21875 -0.84375q0.71875 -0.296875 1.609375 -0.296875zm0 7.234375q1.1875 0 1.78125 -0.796875q0.59375 -0.8125 0.59375 -2.25q0 -1.453125 -0.59375 -2.25q-0.59375 -0.8125 -1.78125 -0.8125q-0.609375 0 -1.0625 0.203125q-0.453125 0.203125 -0.75 0.609375q-0.296875 0.390625 -0.453125 0.96875q-0.140625 0.5625 -0.140625 1.28125q0 0.71875 0.140625 1.296875q0.15625 0.5625 0.453125 0.953125q0.296875 0.375 0.75 0.59375q0.453125 0.203125 1.0625 0.203125zm7.192749 -10.78125l0 11.78125l-1.421875 0l0 -11.78125l1.421875 0zm3.7521973 3.671875l0 5.171875q0 0.921875 0.421875 1.421875q0.421875 0.5 1.28125 0.5q0.625 0 1.171875 -0.28125q0.546875 -0.296875 1.015625 -0.828125l0 -5.984375l1.421875 0l0 8.109375l-0.84375 0q-0.3125 0 -0.390625 -0.296875l-0.109375 -0.875q-0.53125 0.59375 -1.1875 0.953125q-0.65625 0.34375 -1.5 0.34375q-0.65625 0 -1.171875 -0.21875q-0.5 -0.21875 -0.859375 -0.609375q-0.34375 -0.40625 -0.515625 -0.96875q-0.171875 -0.578125 -0.171875 -1.265625l0 -5.171875l1.4375 0zm10.114655 8.234375q-0.96875 0 -1.484375 -0.53125q-0.515625 -0.53125 -0.515625 -1.546875l0 -4.953125l-0.96875 0q-0.125 0 -0.21875 -0.078125q-0.078125 -0.078125 -0.078125 -0.234375l0 -0.578125l1.328125 -0.15625l0.328125 -2.515625q0.015625 -0.109375 0.09375 -0.1875q0.09375 -0.078125 0.234375 -0.078125l0.71875 0l0 2.796875l2.3125 0l0 1.03125l-2.3125 0l0 4.859375q0 0.515625 0.234375 0.765625q0.25 0.234375 0.640625 0.234375q0.234375 0 0.390625 -0.046875q0.171875 -0.0625 0.28125 -0.125q0.125 -0.078125 0.203125 -0.140625q0.09375 -0.0625 0.15625 -0.0625q0.109375 0 0.203125 0.140625l0.40625 0.671875q-0.359375 0.34375 -0.890625 0.546875q-0.515625 0.1875 -1.0625 0.1875zm5.092926 -8.234375l0 8.109375l-1.421875 0l0 -8.109375l1.421875 0zm0.328125 -2.53125q0 0.203125 -0.09375 0.390625q-0.078125 0.171875 -0.21875 0.3125q-0.140625 0.140625 -0.328125 0.21875q-0.1875 0.078125 -0.390625 0.078125q-0.203125 0 -0.390625 -0.078125q-0.171875 -0.078125 -0.3125 -0.21875q-0.140625 -0.140625 -0.21875 -0.3125q-0.078125 -0.1875 -0.078125 -0.390625q0 -0.21875 0.078125 -0.40625q0.078125 -0.1875 0.21875 -0.328125q0.140625 -0.140625 0.3125 -0.21875q0.1875 -0.078125 0.390625 -0.078125q0.203125 0 0.390625 0.078125q0.1875 0.078125 0.328125 0.21875q0.140625 0.140625 0.21875 0.328125q0.09375 0.1875 0.09375 0.40625zm5.4709473 2.40625q0.875 0 1.59375 0.296875q0.71875 0.296875 1.21875 0.84375q0.5 0.546875 0.765625 1.3125q0.265625 0.765625 0.265625 1.71875q0 0.96875 -0.265625 1.734375q-0.265625 0.765625 -0.765625 1.3125q-0.5 0.546875 -1.21875 0.84375q-0.71875 0.28125 -1.59375 0.28125q-0.890625 0 -1.609375 -0.28125q-0.71875 -0.296875 -1.21875 -0.84375q-0.5 -0.546875 -0.78125 -1.3125q-0.265625 -0.765625 -0.265625 -1.734375q0 -0.953125 0.265625 -1.71875q0.28125 -0.765625 0.78125 -1.3125q0.5 -0.546875 1.21875 -0.84375q0.71875 -0.296875 1.609375 -0.296875zm0 7.234375q1.1875 0 1.78125 -0.796875q0.59375 -0.8125 0.59375 -2.25q0 -1.453125 -0.59375 -2.25q-0.59375 -0.8125 -1.78125 -0.8125q-0.609375 0 -1.0625 0.203125q-0.453125 0.203125 -0.75 0.609375q-0.296875 0.390625 -0.453125 0.96875q-0.140625 0.5625 -0.140625 1.28125q0 0.71875 0.140625 1.296875q0.15625 0.5625 0.453125 0.953125q0.296875 0.375 0.75 0.59375q0.453125 0.203125 1.0625 0.203125zm5.614624 1.0l0 -8.109375l0.84375 0q0.296875 0 0.390625 0.296875l0.109375 0.890625q0.53125 -0.59375 1.171875 -0.953125q0.65625 -0.359375 1.515625 -0.359375q0.65625 0 1.15625 0.21875q0.515625 0.21875 0.859375 0.625q0.34375 0.40625 0.515625 0.984375q0.171875 0.5625 0.171875 1.25l0 5.15625l-1.421875 0l0 -5.15625q0 -0.921875 -0.421875 -1.421875q-0.421875 -0.515625 -1.28125 -0.515625q-0.625 0 -1.171875 0.3125q-0.546875 0.296875 -1.015625 0.8125l0 5.96875l-1.421875 0zm14.84903 0l-0.640625 0q-0.203125 0 -0.328125 -0.0625q-0.125 -0.0625 -0.171875 -0.28125l-0.15625 -0.75q-0.328125 0.296875 -0.640625 0.53125q-0.296875 0.21875 -0.640625 0.375q-0.328125 0.15625 -0.703125 0.234375q-0.375 0.078125 -0.84375 0.078125q-0.46875 0 -0.890625 -0.125q-0.40625 -0.140625 -0.71875 -0.390625q-0.296875 -0.265625 -0.484375 -0.671875q-0.171875 -0.40625 -0.171875 -0.96875q0 -0.46875 0.265625 -0.90625q0.265625 -0.453125 0.84375 -0.796875q0.59375 -0.34375 1.546875 -0.5625q0.953125 -0.21875 2.328125 -0.25l0 -0.640625q0 -0.9375 -0.40625 -1.421875q-0.40625 -0.484375 -1.1875 -0.484375q-0.53125 0 -0.890625 0.140625q-0.34375 0.125 -0.609375 0.296875q-0.25 0.15625 -0.453125 0.296875q-0.1875 0.125 -0.359375 0.125q-0.15625 0 -0.265625 -0.078125q-0.09375 -0.078125 -0.15625 -0.1875l-0.265625 -0.453125q0.671875 -0.65625 1.453125 -0.96875q0.78125 -0.328125 1.71875 -0.328125q0.671875 0 1.203125 0.234375q0.53125 0.21875 0.890625 0.625q0.359375 0.390625 0.546875 0.96875q0.1875 0.5625 0.1875 1.234375l0 5.1875zm-3.703125 -0.875q0.375 0 0.6875 -0.078125q0.3125 -0.078125 0.578125 -0.203125q0.28125 -0.140625 0.53125 -0.34375q0.265625 -0.203125 0.5 -0.453125l0 -1.6875q-0.984375 0.03125 -1.671875 0.15625q-0.6875 0.109375 -1.125 0.3125q-0.421875 0.203125 -0.625 0.484375q-0.1875 0.265625 -0.1875 0.59375q0 0.328125 0.09375 0.5625q0.109375 0.234375 0.28125 0.375q0.171875 0.140625 0.40625 0.21875q0.25 0.0625 0.53125 0.0625zm7.4400024 -10.90625l0 11.78125l-1.421875 0l0 -11.78125l1.421875 0z" fill-rule="nonzero"/><path fill="#000000" d="m236.91747 70.939804q0.21875 0 0.3125 0.0625q0.09375 0.046875 0.234375 0.203125l6.640625 8.640625q-0.03125 -0.203125 -0.046875 -0.390625q0 -0.203125 0 -0.390625l0 -8.125l1.359375 0l0 11.46875l-0.78125 0q-0.1875 0 -0.3125 -0.0625q-0.125 -0.0625 -0.234375 -0.21875l-6.640625 -8.625q0.015625 0.1875 0.015625 0.390625q0.015625 0.1875 0.015625 0.34375l0 8.171875l-1.359375 0l0 -11.46875l0.796875 0l0 0zm14.28334 3.234375q0.734375 0 1.34375 0.25q0.609375 0.234375 1.0625 0.703125q0.453125 0.453125 0.703125 1.140625q0.25 0.671875 0.25 1.53125q0 0.34375 -0.078125 0.453125q-0.0625 0.109375 -0.265625 0.109375l-5.390625 0q0.015625 0.765625 0.203125 1.34375q0.203125 0.5625 0.53125 0.9375q0.34375 0.375 0.796875 0.5625q0.46875 0.1875 1.046875 0.1875q0.53125 0 0.921875 -0.109375q0.390625 -0.125 0.671875 -0.265625q0.28125 -0.15625 0.46875 -0.28125q0.1875 -0.125 0.3125 -0.125q0.1875 0 0.28125 0.140625l0.390625 0.515625q-0.25 0.328125 -0.625 0.5625q-0.375 0.234375 -0.796875 0.390625q-0.40625 0.140625 -0.859375 0.21875q-0.453125 0.078125 -0.890625 0.078125q-0.84375 0 -1.546875 -0.28125q-0.703125 -0.28125 -1.21875 -0.828125q-0.515625 -0.546875 -0.8125 -1.359375q-0.28125 -0.8125 -0.28125 -1.859375q0 -0.84375 0.25 -1.578125q0.265625 -0.734375 0.75 -1.265625q0.5 -0.546875 1.203125 -0.859375q0.703125 -0.3125 1.578125 -0.3125zm0.03125 1.046875q-1.03125 0 -1.625 0.609375q-0.59375 0.59375 -0.734375 1.640625l4.40625 0q0 -0.5 -0.140625 -0.90625q-0.125 -0.40625 -0.390625 -0.703125q-0.265625 -0.3125 -0.65625 -0.46875q-0.375 -0.171875 -0.859375 -0.171875zm6.3838806 -0.921875l0 5.171875q0 0.921875 0.421875 1.421875q0.421875 0.5 1.28125 0.5q0.625 0 1.171875 -0.28125q0.546875 -0.296875 1.015625 -0.828125l0 -5.984375l1.421875 0l0 8.109375l-0.84375 0q-0.3125 0 -0.390625 -0.296875l-0.109375 -0.875q-0.53125 0.59375 -1.1875 0.953125q-0.65625 0.34375 -1.5 0.34375q-0.65625 0 -1.171875 -0.21875q-0.5 -0.21875 -0.859375 -0.609375q-0.34375 -0.40625 -0.515625 -0.96875q-0.171875 -0.578125 -0.171875 -1.265625l0 -5.171875l1.4375 0zm7.6615295 8.109375l0 -8.109375l0.8125 0q0.234375 0 0.3125 0.09375q0.09375 0.09375 0.125 0.296875l0.09375 1.265625q0.421875 -0.84375 1.03125 -1.3125q0.609375 -0.484375 1.4375 -0.484375q0.328125 0 0.59375 0.078125q0.28125 0.078125 0.515625 0.21875l-0.1875 1.0625q-0.046875 0.1875 -0.25 0.1875q-0.109375 0 -0.34375 -0.0625q-0.21875 -0.078125 -0.640625 -0.078125q-0.75 0 -1.25 0.4375q-0.5 0.421875 -0.828125 1.25l0 5.15625l-1.421875 0zm12.4010315 0l-0.640625 0q-0.203125 0 -0.328125 -0.0625q-0.125 -0.0625 -0.171875 -0.28125l-0.15625 -0.75q-0.328125 0.296875 -0.640625 0.53125q-0.296875 0.21875 -0.640625 0.375q-0.328125 0.15625 -0.703125 0.234375q-0.375 0.078125 -0.84375 0.078125q-0.46875 0 -0.890625 -0.125q-0.40625 -0.140625 -0.71875 -0.390625q-0.296875 -0.265625 -0.484375 -0.671875q-0.171875 -0.40625 -0.171875 -0.96875q0 -0.46875 0.265625 -0.90625q0.265625 -0.453125 0.84375 -0.796875q0.59375 -0.34375 1.546875 -0.5625q0.953125 -0.21875 2.328125 -0.25l0 -0.640625q0 -0.9375 -0.40625 -1.421875q-0.40625 -0.484375 -1.1875 -0.484375q-0.53125 0 -0.890625 0.140625q-0.34375 0.125 -0.609375 0.296875q-0.25 0.15625 -0.453125 0.296875q-0.1875 0.125 -0.359375 0.125q-0.15625 0 -0.265625 -0.078125q-0.09375 -0.078125 -0.15625 -0.1875l-0.265625 -0.453125q0.671875 -0.65625 1.453125 -0.96875q0.78125 -0.328125 1.71875 -0.328125q0.671875 0 1.203125 0.234375q0.53125 0.21875 0.890625 0.625q0.359375 0.390625 0.546875 0.96875q0.1875 0.5625 0.1875 1.234375l0 5.1875zm-3.703125 -0.875q0.375 0 0.6875 -0.078125q0.3125 -0.078125 0.578125 -0.203125q0.28125 -0.140625 0.53125 -0.34375q0.265625 -0.203125 0.5 -0.453125l0 -1.6875q-0.984375 0.03125 -1.671875 0.15625q-0.6875 0.109375 -1.125 0.3125q-0.421875 0.203125 -0.625 0.484375q-0.1875 0.265625 -0.1875 0.59375q0 0.328125 0.09375 0.5625q0.109375 0.234375 0.28125 0.375q0.171875 0.140625 0.40625 0.21875q0.25 0.0625 0.53125 0.0625zm7.440033 -10.90625l0 11.78125l-1.421875 0l0 -11.78125l1.421875 0zm6.621399 0.3125q0.21875 0 0.3125 0.0625q0.09375 0.046875 0.234375 0.203125l6.640625 8.640625q-0.03125 -0.203125 -0.046875 -0.390625q0 -0.203125 0 -0.390625l0 -8.125l1.359375 0l0 11.46875l-0.78125 0q-0.1875 0 -0.3125 -0.0625q-0.125 -0.0625 -0.234375 -0.21875l-6.640625 -8.625q0.015625 0.1875 0.015625 0.390625q0.015625 0.1875 0.015625 0.34375l0 8.171875l-1.359375 0l0 -11.46875l0.796875 0l0 0zm14.283356 3.234375q0.734375 0 1.34375 0.25q0.609375 0.234375 1.0625 0.703125q0.453125 0.453125 0.703125 1.140625q0.25 0.671875 0.25 1.53125q0 0.34375 -0.078125 0.453125q-0.0625 0.109375 -0.265625 0.109375l-5.390625 0q0.015625 0.765625 0.203125 1.34375q0.203125 0.5625 0.53125 0.9375q0.34375 0.375 0.796875 0.5625q0.46875 0.1875 1.046875 0.1875q0.53125 0 0.921875 -0.109375q0.390625 -0.125 0.671875 -0.265625q0.28125 -0.15625 0.46875 -0.28125q0.1875 -0.125 0.3125 -0.125q0.1875 0 0.28125 0.140625l0.390625 0.515625q-0.25 0.328125 -0.625 0.5625q-0.375 0.234375 -0.796875 0.390625q-0.40625 0.140625 -0.859375 0.21875q-0.453125 0.078125 -0.890625 0.078125q-0.84375 0 -1.546875 -0.28125q-0.703125 -0.28125 -1.21875 -0.828125q-0.515625 -0.546875 -0.8125 -1.359375q-0.28125 -0.8125 -0.28125 -1.859375q0 -0.84375 0.25 -1.578125q0.265625 -0.734375 0.75 -1.265625q0.5 -0.546875 1.203125 -0.859375q0.703125 -0.3125 1.578125 -0.3125zm0.03125 1.046875q-1.03125 0 -1.625 0.609375q-0.59375 0.59375 -0.734375 1.640625l4.40625 0q0 -0.5 -0.140625 -0.90625q-0.125 -0.40625 -0.390625 -0.703125q-0.265625 -0.3125 -0.65625 -0.46875q-0.375 -0.171875 -0.859375 -0.171875zm7.6026306 7.3125q-0.96875 0 -1.484375 -0.53125q-0.515625 -0.53125 -0.515625 -1.546875l0 -4.953125l-0.96875 0q-0.125 0 -0.21875 -0.078125q-0.078125 -0.078125 -0.078125 -0.234375l0 -0.578125l1.328125 -0.15625l0.328125 -2.515625q0.015625 -0.109375 0.09375 -0.1875q0.09375 -0.078125 0.234375 -0.078125l0.71875 0l0 2.796875l2.3125 0l0 1.03125l-2.3125 0l0 4.859375q0 0.515625 0.234375 0.765625q0.25 0.234375 0.640625 0.234375q0.234375 0 0.390625 -0.046875q0.171875 -0.0625 0.28125 -0.125q0.125 -0.078125 0.203125 -0.140625q0.09375 -0.0625 0.15625 -0.0625q0.109375 0 0.203125 0.140625l0.40625 0.671875q-0.359375 0.34375 -0.890625 0.546875q-0.515625 0.1875 -1.0625 0.1875zm2.452301 -8.234375l1.125 0q0.171875 0 0.28125 0.09375q0.109375 0.09375 0.15625 0.203125l1.546875 5.21875q0.0625 0.296875 0.125 0.5625q0.0625 0.265625 0.09375 0.53125q0.0625 -0.265625 0.140625 -0.53125q0.078125 -0.265625 0.171875 -0.5625l1.71875 -5.25q0.03125 -0.109375 0.125 -0.1875q0.109375 -0.09375 0.265625 -0.09375l0.609375 0q0.15625 0 0.265625 0.09375q0.109375 0.078125 0.140625 0.1875l1.671875 5.25q0.09375 0.28125 0.15625 0.5625q0.078125 0.265625 0.140625 0.53125q0.03125 -0.265625 0.09375 -0.546875q0.078125 -0.296875 0.140625 -0.546875l1.578125 -5.21875q0.046875 -0.125 0.15625 -0.203125q0.109375 -0.09375 0.265625 -0.09375l1.078125 0l-2.625 8.109375l-1.125 0q-0.21875 0 -0.296875 -0.265625l-1.796875 -5.5q-0.0625 -0.1875 -0.109375 -0.375q-0.03125 -0.1875 -0.0625 -0.375q-0.046875 0.1875 -0.09375 0.390625q-0.03125 0.1875 -0.09375 0.359375l-1.8125 5.5q-0.09375 0.265625 -0.328125 0.265625l-1.078125 0l-2.625 -8.109375zm16.59961 -0.125q0.875 0 1.59375 0.296875q0.71875 0.296875 1.21875 0.84375q0.5 0.546875 0.765625 1.3125q0.265625 0.765625 0.265625 1.71875q0 0.96875 -0.265625 1.734375q-0.265625 0.765625 -0.765625 1.3125q-0.5 0.546875 -1.21875 0.84375q-0.71875 0.28125 -1.59375 0.28125q-0.890625 0 -1.609375 -0.28125q-0.71875 -0.296875 -1.21875 -0.84375q-0.5 -0.546875 -0.78125 -1.3125q-0.265625 -0.765625 -0.265625 -1.734375q0 -0.953125 0.265625 -1.71875q0.28125 -0.765625 0.78125 -1.3125q0.5 -0.546875 1.21875 -0.84375q0.71875 -0.296875 1.609375 -0.296875zm0 7.234375q1.1875 0 1.78125 -0.796875q0.59375 -0.8125 0.59375 -2.25q0 -1.453125 -0.59375 -2.25q-0.59375 -0.8125 -1.78125 -0.8125q-0.609375 0 -1.0625 0.203125q-0.453125 0.203125 -0.75 0.609375q-0.296875 0.390625 -0.453125 0.96875q-0.140625 0.5625 -0.140625 1.28125q0 0.71875 0.140625 1.296875q0.15625 0.5625 0.453125 0.953125q0.296875 0.375 0.75 0.59375q0.453125 0.203125 1.0625 0.203125zm5.614624 1.0l0 -8.109375l0.8125 0q0.234375 0 0.3125 0.09375q0.09375 0.09375 0.125 0.296875l0.09375 1.265625q0.421875 -0.84375 1.03125 -1.3125q0.609375 -0.484375 1.4375 -0.484375q0.328125 0 0.59375 0.078125q0.28125 0.078125 0.515625 0.21875l-0.1875 1.0625q-0.046875 0.1875 -0.25 0.1875q-0.109375 0 -0.34375 -0.0625q-0.21875 -0.078125 -0.640625 -0.078125q-0.75 0 -1.25 0.4375q-0.5 0.421875 -0.828125 1.25l0 5.15625l-1.421875 0zm7.916687 -11.78125l0 6.9375l0.375 0q0.15625 0 0.265625 -0.046875q0.109375 -0.046875 0.234375 -0.1875l2.5625 -2.734375q0.109375 -0.125 0.234375 -0.203125q0.125 -0.09375 0.3125 -0.09375l1.296875 0l-2.984375 3.1875q-0.109375 0.125 -0.21875 0.234375q-0.109375 0.109375 -0.234375 0.1875q0.140625 0.09375 0.25 0.21875q0.125 0.125 0.21875 0.28125l3.171875 4.0l-1.28125 0q-0.171875 0 -0.296875 -0.0625q-0.125 -0.078125 -0.234375 -0.21875l-2.671875 -3.3125q-0.109375 -0.171875 -0.234375 -0.21875q-0.125 -0.0625 -0.359375 -0.0625l-0.40625 0l0 3.875l-1.421875 0l0 -11.78125l1.421875 0z" fill-rule="nonzero"/><path fill="#000000" fill-opacity="0.0" d="m394.12466 6.1627297l89.921265 0l0 102.77165l-89.921265 0z" fill-rule="evenodd"/><path stroke="#000000" stroke-width="1.0" stroke-linejoin="round" stroke-linecap="butt" d="m394.12466 6.1627297l89.921265 0l0 102.77165l-89.921265 0z" fill-rule="evenodd"/><path fill="#000000" d="m418.95612 41.068558l-0.90625 0q-0.15625 0 -0.25 -0.078125q-0.09375 -0.078125 -0.140625 -0.203125l-0.8125 -2.078125l-3.859375 0l-0.796875 2.078125q-0.046875 0.109375 -0.15625 0.203125q-0.09375 0.078125 -0.25 0.078125l-0.890625 0l3.4375 -8.59375l1.1875 0l3.4375 8.59375zm-5.640625 -3.1875l3.203125 0l-1.34375 -3.5q-0.125 -0.328125 -0.25 -0.8125q-0.078125 0.25 -0.140625 0.453125q-0.0625 0.203125 -0.125 0.359375l-1.34375 3.5zm6.5506897 3.1875l0 -6.078125l0.609375 0q0.171875 0 0.234375 0.0625q0.078125 0.0625 0.09375 0.234375l0.078125 0.9375q0.3125 -0.625 0.765625 -0.984375q0.46875 -0.359375 1.078125 -0.359375q0.25 0 0.453125 0.0625q0.203125 0.046875 0.390625 0.15625l-0.140625 0.796875q-0.046875 0.15625 -0.1875 0.15625q-0.09375 0 -0.265625 -0.0625q-0.171875 -0.0625 -0.484375 -0.0625q-0.546875 0 -0.921875 0.328125q-0.375 0.328125 -0.640625 0.9375l0 3.875l-1.0625 0zm6.023529 -6.078125l0 6.078125l-1.0625 0l0 -6.078125l1.0625 0zm0.234375 -1.90625q0 0.15625 -0.0625 0.296875q-0.0625 0.125 -0.171875 0.234375q-0.09375 0.109375 -0.234375 0.171875q-0.140625 0.046875 -0.296875 0.046875q-0.15625 0 -0.296875 -0.046875q-0.125 -0.0625 -0.234375 -0.171875q-0.09375 -0.109375 -0.15625 -0.234375q-0.0625 -0.140625 -0.0625 -0.296875q0 -0.15625 0.0625 -0.296875q0.0625 -0.140625 0.15625 -0.25q0.109375 -0.109375 0.234375 -0.15625q0.140625 -0.0625 0.296875 -0.0625q0.15625 0 0.296875 0.0625q0.140625 0.046875 0.234375 0.15625q0.109375 0.109375 0.171875 0.25q0.0625 0.140625 0.0625 0.296875zm3.4938965 8.078125q-0.71875 0 -1.109375 -0.390625q-0.390625 -0.40625 -0.390625 -1.171875l0 -3.71875l-0.734375 0q-0.09375 0 -0.15625 -0.046875q-0.0625 -0.0625 -0.0625 -0.1875l0 -0.421875l1.0 -0.125l0.234375 -1.875q0.015625 -0.09375 0.078125 -0.140625q0.078125 -0.0625 0.171875 -0.0625l0.546875 0l0 2.09375l1.734375 0l0 0.765625l-1.734375 0l0 3.65625q0 0.375 0.171875 0.5625q0.1875 0.1875 0.484375 0.1875q0.171875 0 0.296875 -0.046875q0.125 -0.046875 0.203125 -0.09375q0.09375 -0.0625 0.15625 -0.09375q0.0625 -0.046875 0.109375 -0.046875q0.09375 0 0.15625 0.09375l0.3125 0.515625q-0.28125 0.25 -0.671875 0.40625q-0.390625 0.140625 -0.796875 0.140625zm2.6322632 -0.09375l0 -8.84375l1.0625 0l0 3.578125q0.390625 -0.40625 0.859375 -0.65625q0.484375 -0.25 1.109375 -0.25q0.484375 0 0.859375 0.171875q0.390625 0.15625 0.640625 0.46875q0.265625 0.296875 0.390625 0.71875q0.140625 0.421875 0.140625 0.9375l0 3.875l-1.078125 0l0 -3.875q0 -0.6875 -0.3125 -1.0625q-0.3125 -0.390625 -0.953125 -0.390625q-0.484375 0 -0.890625 0.234375q-0.40625 0.234375 -0.765625 0.625l0 4.46875l-1.0625 0zm6.672058 0l0 -6.078125l0.640625 0q0.21875 0 0.28125 0.21875l0.078125 0.625q0.34375 -0.40625 0.75 -0.671875q0.421875 -0.265625 0.96875 -0.265625q0.625 0 1.0 0.34375q0.390625 0.34375 0.546875 0.921875q0.140625 -0.328125 0.34375 -0.5625q0.203125 -0.25 0.453125 -0.40625q0.265625 -0.15625 0.546875 -0.21875q0.296875 -0.078125 0.609375 -0.078125q0.46875 0 0.84375 0.15625q0.375 0.140625 0.640625 0.4375q0.265625 0.296875 0.390625 0.734375q0.140625 0.421875 0.140625 0.96875l0 3.875l-1.0625 0l0 -3.875q0 -0.703125 -0.3125 -1.078125q-0.3125 -0.375 -0.90625 -0.375q-0.265625 0 -0.5 0.09375q-0.234375 0.09375 -0.421875 0.28125q-0.171875 0.171875 -0.28125 0.453125q-0.109375 0.265625 -0.109375 0.625l0 3.875l-1.0625 0l0 -3.875q0 -0.734375 -0.296875 -1.09375q-0.296875 -0.359375 -0.859375 -0.359375q-0.390625 0 -0.734375 0.21875q-0.34375 0.21875 -0.625 0.578125l0 4.53125l-1.0625 0zm12.258301 -6.171875q0.546875 0 1.0 0.1875q0.46875 0.171875 0.796875 0.515625q0.34375 0.34375 0.53125 0.859375q0.1875 0.5 0.1875 1.15625q0 0.25 -0.0625 0.34375q-0.046875 0.078125 -0.1875 0.078125l-4.046875 0q0.015625 0.578125 0.15625 1.0q0.140625 0.421875 0.390625 0.71875q0.25 0.28125 0.59375 0.421875q0.359375 0.140625 0.796875 0.140625q0.390625 0 0.6875 -0.09375q0.296875 -0.09375 0.5 -0.203125q0.21875 -0.109375 0.359375 -0.203125q0.140625 -0.09375 0.234375 -0.09375q0.140625 0 0.203125 0.109375l0.296875 0.375q-0.1875 0.25 -0.46875 0.421875q-0.28125 0.171875 -0.59375 0.296875q-0.3125 0.109375 -0.65625 0.15625q-0.328125 0.0625 -0.65625 0.0625q-0.625 0 -1.15625 -0.203125q-0.53125 -0.21875 -0.921875 -0.625q-0.390625 -0.40625 -0.609375 -1.015625q-0.21875 -0.609375 -0.21875 -1.390625q0 -0.640625 0.1875 -1.1875q0.203125 -0.5625 0.5625 -0.96875q0.375 -0.40625 0.90625 -0.625q0.53125 -0.234375 1.1875 -0.234375zm0.03125 0.78125q-0.78125 0 -1.234375 0.453125q-0.4375 0.4375 -0.546875 1.234375l3.3125 0q0 -0.375 -0.109375 -0.671875q-0.09375 -0.3125 -0.296875 -0.53125q-0.203125 -0.234375 -0.484375 -0.359375q-0.28125 -0.125 -0.640625 -0.125zm5.6943054 5.484375q-0.71875 0 -1.109375 -0.390625q-0.390625 -0.40625 -0.390625 -1.171875l0 -3.71875l-0.734375 0q-0.09375 0 -0.15625 -0.046875q-0.0625 -0.0625 -0.0625 -0.1875l0 -0.421875l1.0 -0.125l0.234375 -1.875q0.015625 -0.09375 0.078125 -0.140625q0.078125 -0.0625 0.171875 -0.0625l0.546875 0l0 2.09375l1.734375 0l0 0.765625l-1.734375 0l0 3.65625q0 0.375 0.171875 0.5625q0.1875 0.1875 0.484375 0.1875q0.171875 0 0.296875 -0.046875q0.125 -0.046875 0.203125 -0.09375q0.09375 -0.0625 0.15625 -0.09375q0.0625 -0.046875 0.109375 -0.046875q0.09375 0 0.15625 0.09375l0.3125 0.515625q-0.28125 0.25 -0.671875 0.40625q-0.390625 0.140625 -0.796875 0.140625zm3.8197632 -6.171875l0 6.078125l-1.0625 0l0 -6.078125l1.0625 0zm0.234375 -1.90625q0 0.15625 -0.0625 0.296875q-0.0625 0.125 -0.171875 0.234375q-0.09375 0.109375 -0.234375 0.171875q-0.140625 0.046875 -0.296875 0.046875q-0.15625 0 -0.296875 -0.046875q-0.125 -0.0625 -0.234375 -0.171875q-0.09375 -0.109375 -0.15625 -0.234375q-0.0625 -0.140625 -0.0625 -0.296875q0 -0.15625 0.0625 -0.296875q0.0625 -0.140625 0.15625 -0.25q0.109375 -0.109375 0.234375 -0.15625q0.140625 -0.0625 0.296875 -0.0625q0.15625 0 0.296875 0.0625q0.140625 0.046875 0.234375 0.15625q0.109375 0.109375 0.171875 0.25q0.0625 0.140625 0.0625 0.296875zm5.7907715 2.984375q-0.046875 0.0625 -0.09375 0.109375q-0.046875 0.03125 -0.140625 0.03125q-0.078125 0 -0.1875 -0.078125q-0.109375 -0.078125 -0.28125 -0.15625q-0.15625 -0.09375 -0.390625 -0.171875q-0.21875 -0.078125 -0.5625 -0.078125q-0.4375 0 -0.78125 0.171875q-0.34375 0.15625 -0.578125 0.453125q-0.21875 0.296875 -0.34375 0.734375q-0.109375 0.421875 -0.109375 0.9375q0 0.5625 0.125 1.0q0.125 0.421875 0.34375 0.71875q0.234375 0.28125 0.5625 0.4375q0.328125 0.140625 0.734375 0.140625q0.390625 0 0.640625 -0.09375q0.25 -0.09375 0.421875 -0.203125q0.171875 -0.109375 0.28125 -0.203125q0.109375 -0.09375 0.203125 -0.09375q0.140625 0 0.203125 0.109375l0.3125 0.375q-0.40625 0.5 -1.0 0.71875q-0.59375 0.21875 -1.25 0.21875q-0.5625 0 -1.0625 -0.203125q-0.484375 -0.21875 -0.84375 -0.609375q-0.359375 -0.40625 -0.578125 -0.984375q-0.203125 -0.578125 -0.203125 -1.328125q0 -0.671875 0.1875 -1.25q0.203125 -0.578125 0.5625 -0.984375q0.359375 -0.421875 0.890625 -0.65625q0.53125 -0.234375 1.234375 -0.234375q0.625 0 1.109375 0.203125q0.5 0.203125 0.875 0.59375l-0.28125 0.375z" fill-rule="nonzero"/><path fill="#000000" d="m418.99615 55.068558l0 -6.078125l0.640625 0q0.21875 0 0.28125 0.21875l0.078125 0.625q0.34375 -0.40625 0.75 -0.671875q0.421875 -0.265625 0.96875 -0.265625q0.625 0 1.0 0.34375q0.390625 0.34375 0.546875 0.921875q0.140625 -0.328125 0.34375 -0.5625q0.203125 -0.25 0.453125 -0.40625q0.265625 -0.15625 0.546875 -0.21875q0.296875 -0.078125 0.609375 -0.078125q0.46875 0 0.84375 0.15625q0.375 0.140625 0.640625 0.4375q0.265625 0.296875 0.390625 0.734375q0.140625 0.421875 0.140625 0.96875l0 3.875l-1.0625 0l0 -3.875q0 -0.703125 -0.3125 -1.078125q-0.3125 -0.375 -0.90625 -0.375q-0.265625 0 -0.5 0.09375q-0.234375 0.09375 -0.421875 0.28125q-0.171875 0.171875 -0.28125 0.453125q-0.109375 0.265625 -0.109375 0.625l0 3.875l-1.0625 0l0 -3.875q0 -0.734375 -0.296875 -1.09375q-0.296875 -0.359375 -0.859375 -0.359375q-0.390625 0 -0.734375 0.21875q-0.34375 0.21875 -0.625 0.578125l0 4.53125l-1.0625 0zm12.258331 -6.171875q0.546875 0 1.0 0.1875q0.46875 0.171875 0.796875 0.515625q0.34375 0.34375 0.53125 0.859375q0.1875 0.5 0.1875 1.15625q0 0.25 -0.0625 0.34375q-0.046875 0.078125 -0.1875 0.078125l-4.046875 0q0.015625 0.578125 0.15625 1.0q0.140625 0.421875 0.390625 0.71875q0.25 0.28125 0.59375 0.421875q0.359375 0.140625 0.796875 0.140625q0.390625 0 0.6875 -0.09375q0.296875 -0.09375 0.5 -0.203125q0.21875 -0.109375 0.359375 -0.203125q0.140625 -0.09375 0.234375 -0.09375q0.140625 0 0.203125 0.109375l0.296875 0.375q-0.1875 0.25 -0.46875 0.421875q-0.28125 0.171875 -0.59375 0.296875q-0.3125 0.109375 -0.65625 0.15625q-0.328125 0.0625 -0.65625 0.0625q-0.625 0 -1.15625 -0.203125q-0.53125 -0.21875 -0.921875 -0.625q-0.390625 -0.40625 -0.609375 -1.015625q-0.21875 -0.609375 -0.21875 -1.390625q0 -0.640625 0.1875 -1.1875q0.203125 -0.5625 0.5625 -0.96875q0.375 -0.40625 0.90625 -0.625q0.53125 -0.234375 1.1875 -0.234375zm0.03125 0.78125q-0.78125 0 -1.234375 0.453125q-0.4375 0.4375 -0.546875 1.234375l3.3125 0q0 -0.375 -0.109375 -0.671875q-0.09375 -0.3125 -0.296875 -0.53125q-0.203125 -0.234375 -0.484375 -0.359375q-0.28125 -0.125 -0.640625 -0.125zm8.319275 5.390625l-0.484375 0q-0.15625 0 -0.25 -0.046875q-0.09375 -0.046875 -0.125 -0.203125l-0.109375 -0.5625q-0.25 0.21875 -0.484375 0.390625q-0.21875 0.15625 -0.46875 0.28125q-0.25 0.109375 -0.546875 0.171875q-0.28125 0.0625 -0.625 0.0625q-0.359375 0 -0.671875 -0.09375q-0.296875 -0.109375 -0.53125 -0.296875q-0.21875 -0.203125 -0.359375 -0.5q-0.140625 -0.3125 -0.140625 -0.71875q0 -0.359375 0.203125 -0.6875q0.203125 -0.34375 0.640625 -0.59375q0.4375 -0.265625 1.15625 -0.421875q0.71875 -0.171875 1.75 -0.1875l0 -0.484375q0 -0.703125 -0.3125 -1.0625q-0.296875 -0.375 -0.890625 -0.375q-0.390625 0 -0.65625 0.109375q-0.265625 0.09375 -0.46875 0.21875q-0.1875 0.125 -0.328125 0.21875q-0.140625 0.09375 -0.28125 0.09375q-0.109375 0 -0.1875 -0.046875q-0.078125 -0.0625 -0.140625 -0.140625l-0.1875 -0.34375q0.5 -0.484375 1.078125 -0.71875q0.59375 -0.25 1.296875 -0.25q0.515625 0 0.90625 0.171875q0.40625 0.171875 0.671875 0.46875q0.265625 0.296875 0.40625 0.734375q0.140625 0.421875 0.140625 0.921875l0 3.890625zm-2.78125 -0.65625q0.28125 0 0.515625 -0.046875q0.234375 -0.0625 0.4375 -0.171875q0.21875 -0.109375 0.40625 -0.25q0.1875 -0.15625 0.375 -0.34375l0 -1.265625q-0.75 0.015625 -1.265625 0.109375q-0.515625 0.09375 -0.84375 0.25q-0.3125 0.15625 -0.46875 0.359375q-0.140625 0.203125 -0.140625 0.453125q0 0.234375 0.078125 0.40625q0.078125 0.171875 0.203125 0.296875q0.140625 0.109375 0.3125 0.15625q0.1875 0.046875 0.390625 0.046875zm4.3965454 0.65625l0 -6.078125l0.640625 0q0.21875 0 0.28125 0.21875l0.09375 0.65625q0.390625 -0.4375 0.875 -0.703125q0.5 -0.265625 1.140625 -0.265625q0.484375 0 0.859375 0.171875q0.390625 0.15625 0.640625 0.46875q0.265625 0.296875 0.390625 0.71875q0.140625 0.421875 0.140625 0.9375l0 3.875l-1.078125 0l0 -3.875q0 -0.6875 -0.3125 -1.0625q-0.3125 -0.390625 -0.953125 -0.390625q-0.484375 0 -0.890625 0.234375q-0.40625 0.234375 -0.765625 0.625l0 4.46875l-1.0625 0zm11.456818 -6.171875q0.65625 0 1.1875 0.21875q0.546875 0.21875 0.921875 0.640625q0.375 0.40625 0.578125 0.984375q0.203125 0.578125 0.203125 1.28125q0 0.71875 -0.203125 1.296875q-0.203125 0.578125 -0.578125 0.984375q-0.375 0.40625 -0.921875 0.625q-0.53125 0.21875 -1.1875 0.21875q-0.671875 0 -1.21875 -0.21875q-0.53125 -0.21875 -0.90625 -0.625q-0.375 -0.40625 -0.578125 -0.984375q-0.203125 -0.578125 -0.203125 -1.296875q0 -0.703125 0.203125 -1.28125q0.203125 -0.578125 0.578125 -0.984375q0.375 -0.421875 0.90625 -0.640625q0.546875 -0.21875 1.21875 -0.21875zm0 5.421875q0.890625 0 1.328125 -0.59375q0.453125 -0.609375 0.453125 -1.6875q0 -1.09375 -0.453125 -1.6875q-0.4375 -0.609375 -1.328125 -0.609375q-0.46875 0 -0.8125 0.15625q-0.328125 0.15625 -0.546875 0.453125q-0.21875 0.28125 -0.34375 0.71875q-0.109375 0.421875 -0.109375 0.96875q0 0.53125 0.109375 0.96875q0.125 0.421875 0.34375 0.71875q0.21875 0.28125 0.546875 0.4375q0.34375 0.15625 0.8125 0.15625zm4.4376526 0.75l0 -5.171875l-0.671875 -0.078125q-0.125 -0.03125 -0.203125 -0.09375q-0.078125 -0.0625 -0.078125 -0.171875l0 -0.4375l0.953125 0l0 -0.59375q0 -0.515625 0.140625 -0.921875q0.15625 -0.40625 0.421875 -0.6875q0.28125 -0.28125 0.65625 -0.421875q0.390625 -0.140625 0.875 -0.140625q0.40625 0 0.75 0.109375l-0.015625 0.546875q0 0.109375 -0.109375 0.140625q-0.09375 0.015625 -0.265625 0.015625l-0.1875 0q-0.265625 0 -0.5 0.078125q-0.21875 0.0625 -0.390625 0.234375q-0.15625 0.15625 -0.25 0.421875q-0.078125 0.265625 -0.078125 0.65625l0 0.5625l1.75 0l0 0.765625l-1.71875 0l0 5.1875l-1.078125 0z" fill-rule="nonzero"/><path fill="#000000" d="m424.63293 62.896683q0.65625 0 1.1875 0.21875q0.546875 0.21875 0.921875 0.640625q0.375 0.40625 0.578125 0.984375q0.203125 0.578125 0.203125 1.28125q0 0.71875 -0.203125 1.296875q-0.203125 0.578125 -0.578125 0.984375q-0.375 0.40625 -0.921875 0.625q-0.53125 0.21875 -1.1875 0.21875q-0.671875 0 -1.21875 -0.21875q-0.53125 -0.21875 -0.90625 -0.625q-0.375 -0.40625 -0.578125 -0.984375q-0.203125 -0.578125 -0.203125 -1.296875q0 -0.703125 0.203125 -1.28125q0.203125 -0.578125 0.578125 -0.984375q0.375 -0.421875 0.90625 -0.640625q0.546875 -0.21875 1.21875 -0.21875zm0 5.421875q0.890625 0 1.328125 -0.59375q0.453125 -0.609375 0.453125 -1.6875q0 -1.09375 -0.453125 -1.6875q-0.4375 -0.609375 -1.328125 -0.609375q-0.46875 0 -0.8125 0.15625q-0.328125 0.15625 -0.546875 0.453125q-0.21875 0.28125 -0.34375 0.71875q-0.109375 0.421875 -0.109375 0.96875q0 0.53125 0.109375 0.96875q0.125 0.421875 0.34375 0.71875q0.21875 0.28125 0.546875 0.4375q0.34375 0.15625 0.8125 0.15625zm5.1251526 -5.328125l0 3.875q0 0.6875 0.3125 1.078125q0.328125 0.375 0.96875 0.375q0.46875 0 0.875 -0.21875q0.421875 -0.234375 0.765625 -0.625l0 -4.484375l1.078125 0l0 6.078125l-0.640625 0q-0.234375 0 -0.296875 -0.21875l-0.078125 -0.65625q-0.390625 0.4375 -0.890625 0.703125q-0.484375 0.265625 -1.125 0.265625q-0.5 0 -0.890625 -0.15625q-0.375 -0.171875 -0.640625 -0.46875q-0.25 -0.296875 -0.375 -0.71875q-0.125 -0.4375 -0.125 -0.953125l0 -3.875l1.0625 0zm7.593933 6.171875q-0.71875 0 -1.109375 -0.390625q-0.390625 -0.40625 -0.390625 -1.171875l0 -3.71875l-0.734375 0q-0.09375 0 -0.15625 -0.046875q-0.0625 -0.0625 -0.0625 -0.1875l0 -0.421875l1.0 -0.125l0.234375 -1.875q0.015625 -0.09375 0.078125 -0.140625q0.078125 -0.0625 0.171875 -0.0625l0.546875 0l0 2.09375l1.734375 0l0 0.765625l-1.734375 0l0 3.65625q0 0.375 0.171875 0.5625q0.1875 0.1875 0.484375 0.1875q0.171875 0 0.296875 -0.046875q0.125 -0.046875 0.203125 -0.09375q0.09375 -0.0625 0.15625 -0.09375q0.0625 -0.046875 0.109375 -0.046875q0.09375 0 0.15625 0.09375l0.3125 0.515625q-0.28125 0.25 -0.671875 0.40625q-0.390625 0.140625 -0.796875 0.140625zm2.6322632 1.9687424l0 -8.140617l0.640625 0q0.21875 0 0.28125 0.21875l0.09375 0.71875q0.390625 -0.46875 0.890625 -0.75q0.5 -0.296875 1.15625 -0.296875q0.515625 0 0.9375 0.203125q0.4375 0.203125 0.734375 0.59375q0.296875 0.390625 0.453125 0.984375q0.171875 0.578125 0.171875 1.328125q0 0.671875 -0.1875 1.25q-0.171875 0.578125 -0.515625 1.0q-0.328125 0.421875 -0.828125 0.671875q-0.484375 0.234375 -1.09375 0.234375q-0.5625 0 -0.96875 -0.171875q-0.390625 -0.1875 -0.703125 -0.53125l0 2.6874924l-1.0625 0zm2.703125 -7.3906174q-0.515625 0 -0.90625 0.25q-0.390625 0.234375 -0.734375 0.671875l0 2.9375q0.296875 0.40625 0.640625 0.5625q0.359375 0.15625 0.796875 0.15625q0.84375 0 1.296875 -0.59375q0.453125 -0.609375 0.453125 -1.734375q0 -0.59375 -0.109375 -1.015625q-0.09375 -0.4375 -0.296875 -0.703125q-0.1875 -0.265625 -0.484375 -0.390625q-0.28125 -0.140625 -0.65625 -0.140625zm4.842804 -0.75l0 3.875q0 0.6875 0.3125 1.078125q0.328125 0.375 0.96875 0.375q0.46875 0 0.875 -0.21875q0.421875 -0.234375 0.765625 -0.625l0 -4.484375l1.078125 0l0 6.078125l-0.640625 0q-0.234375 0 -0.296875 -0.21875l-0.078125 -0.65625q-0.390625 0.4375 -0.890625 0.703125q-0.484375 0.265625 -1.125 0.265625q-0.5 0 -0.890625 -0.15625q-0.375 -0.171875 -0.640625 -0.46875q-0.25 -0.296875 -0.375 -0.71875q-0.125 -0.4375 -0.125 -0.953125l0 -3.875l1.0625 0zm7.593933 6.171875q-0.71875 0 -1.109375 -0.390625q-0.390625 -0.40625 -0.390625 -1.171875l0 -3.71875l-0.734375 0q-0.09375 0 -0.15625 -0.046875q-0.0625 -0.0625 -0.0625 -0.1875l0 -0.421875l1.0 -0.125l0.234375 -1.875q0.015625 -0.09375 0.078125 -0.140625q0.078125 -0.0625 0.171875 -0.0625l0.546875 0l0 2.09375l1.734375 0l0 0.765625l-1.734375 0l0 3.65625q0 0.375 0.171875 0.5625q0.1875 0.1875 0.484375 0.1875q0.171875 0 0.296875 -0.046875q0.125 -0.046875 0.203125 -0.09375q0.09375 -0.0625 0.15625 -0.09375q0.0625 -0.046875 0.109375 -0.046875q0.09375 0 0.15625 0.09375l0.3125 0.515625q-0.28125 0.25 -0.671875 0.40625q-0.390625 0.140625 -0.796875 0.140625z" fill-rule="nonzero"/><path fill="#000000" d="m407.01407 85.13105l0 -8.140625l0.640625 0q0.21875 0 0.28125 0.21875l0.09375 0.71875q0.390625 -0.46875 0.890625 -0.75q0.5 -0.296875 1.15625 -0.296875q0.515625 0 0.9375 0.203125q0.4375 0.203125 0.734375 0.59375q0.296875 0.390625 0.453125 0.984375q0.171875 0.578125 0.171875 1.328125q0 0.671875 -0.1875 1.25q-0.171875 0.578125 -0.515625 1.0q-0.328125 0.421875 -0.828125 0.671875q-0.484375 0.234375 -1.09375 0.234375q-0.5625 0 -0.96875 -0.171875q-0.390625 -0.1875 -0.703125 -0.53125l0 2.6875l-1.0625 0zm2.703125 -7.390625q-0.515625 0 -0.90625 0.25q-0.390625 0.234375 -0.734375 0.671875l0 2.9375q0.296875 0.40625 0.640625 0.5625q0.359375 0.15625 0.796875 0.15625q0.84375 0 1.296875 -0.59375q0.453125 -0.609375 0.453125 -1.734375q0 -0.59375 -0.109375 -1.015625q-0.09375 -0.4375 -0.296875 -0.703125q-0.1875 -0.265625 -0.484375 -0.390625q-0.28125 -0.140625 -0.65625 -0.140625zm3.920929 5.328125l0 -6.078125l0.609375 0q0.171875 0 0.234375 0.0625q0.078125 0.0625 0.09375 0.234375l0.078125 0.9375q0.3125 -0.625 0.765625 -0.984375q0.46875 -0.359375 1.078125 -0.359375q0.25 0 0.453125 0.0625q0.203125 0.046875 0.390625 0.15625l-0.140625 0.796875q-0.046875 0.15625 -0.1875 0.15625q-0.09375 0 -0.265625 -0.0625q-0.171875 -0.0625 -0.484375 -0.0625q-0.546875 0 -0.921875 0.328125q-0.375 0.328125 -0.640625 0.9375l0 3.875l-1.0625 0zm7.304779 -6.171875q0.65625 0 1.1875 0.21875q0.546875 0.21875 0.921875 0.640625q0.375 0.40625 0.578125 0.984375q0.203125 0.578125 0.203125 1.28125q0 0.71875 -0.203125 1.296875q-0.203125 0.578125 -0.578125 0.984375q-0.375 0.40625 -0.921875 0.625q-0.53125 0.21875 -1.1875 0.21875q-0.671875 0 -1.21875 -0.21875q-0.53125 -0.21875 -0.90625 -0.625q-0.375 -0.40625 -0.578125 -0.984375q-0.203125 -0.578125 -0.203125 -1.296875q0 -0.703125 0.203125 -1.28125q0.203125 -0.578125 0.578125 -0.984375q0.375 -0.421875 0.90625 -0.640625q0.546875 -0.21875 1.21875 -0.21875zm0 5.421875q0.890625 0 1.328125 -0.59375q0.453125 -0.609375 0.453125 -1.6875q0 -1.09375 -0.453125 -1.6875q-0.4375 -0.609375 -1.328125 -0.609375q-0.46875 0 -0.8125 0.15625q-0.328125 0.15625 -0.546875 0.453125q-0.21875 0.28125 -0.34375 0.71875q-0.109375 0.421875 -0.109375 0.96875q0 0.53125 0.109375 0.96875q0.125 0.421875 0.34375 0.71875q0.21875 0.28125 0.546875 0.4375q0.34375 0.15625 0.8125 0.15625zm4.2345276 0.75l0 -8.84375l1.078125 0l0 3.640625q0.375 -0.4375 0.859375 -0.703125q0.5 -0.265625 1.125 -0.265625q0.53125 0 0.953125 0.203125q0.4375 0.1875 0.734375 0.59375q0.296875 0.390625 0.453125 0.96875q0.171875 0.578125 0.171875 1.328125q0 0.671875 -0.1875 1.25q-0.171875 0.578125 -0.515625 1.0q-0.34375 0.421875 -0.828125 0.671875q-0.484375 0.234375 -1.109375 0.234375q-0.578125 0 -1.0 -0.21875q-0.40625 -0.234375 -0.703125 -0.640625l-0.0625 0.546875q-0.046875 0.234375 -0.265625 0.234375l-0.703125 0zm2.71875 -5.328125q-0.515625 0 -0.921875 0.25q-0.390625 0.234375 -0.71875 0.671875l0 2.9375q0.296875 0.40625 0.640625 0.5625q0.34375 0.15625 0.78125 0.15625q0.859375 0 1.3125 -0.59375q0.453125 -0.609375 0.453125 -1.734375q0 -0.59375 -0.109375 -1.015625q-0.09375 -0.4375 -0.296875 -0.703125q-0.203125 -0.265625 -0.5 -0.390625q-0.28125 -0.140625 -0.640625 -0.140625zm8.426819 5.328125l-0.484375 0q-0.15625 0 -0.25 -0.046875q-0.09375 -0.046875 -0.125 -0.203125l-0.109375 -0.5625q-0.25 0.21875 -0.484375 0.390625q-0.21875 0.15625 -0.46875 0.28125q-0.25 0.109375 -0.546875 0.171875q-0.28125 0.0625 -0.625 0.0625q-0.359375 0 -0.671875 -0.09375q-0.296875 -0.109375 -0.53125 -0.296875q-0.21875 -0.203125 -0.359375 -0.5q-0.140625 -0.3125 -0.140625 -0.71875q0 -0.359375 0.203125 -0.6875q0.203125 -0.34375 0.640625 -0.59375q0.4375 -0.265625 1.15625 -0.421875q0.71875 -0.171875 1.75 -0.1875l0 -0.484375q0 -0.703125 -0.3125 -1.0625q-0.296875 -0.375 -0.890625 -0.375q-0.390625 0 -0.65625 0.109375q-0.265625 0.09375 -0.46875 0.21875q-0.1875 0.125 -0.328125 0.21875q-0.140625 0.09375 -0.28125 0.09375q-0.109375 0 -0.1875 -0.046875q-0.078125 -0.0625 -0.140625 -0.140625l-0.1875 -0.34375q0.5 -0.484375 1.078125 -0.71875q0.59375 -0.25 1.296875 -0.25q0.515625 0 0.90625 0.171875q0.40625 0.171875 0.671875 0.46875q0.265625 0.296875 0.40625 0.734375q0.140625 0.421875 0.140625 0.921875l0 3.890625zm-2.78125 -0.65625q0.28125 0 0.515625 -0.046875q0.234375 -0.0625 0.4375 -0.171875q0.21875 -0.109375 0.40625 -0.25q0.1875 -0.15625 0.375 -0.34375l0 -1.265625q-0.75 0.015625 -1.265625 0.109375q-0.515625 0.09375 -0.84375 0.25q-0.3125 0.15625 -0.46875 0.359375q-0.140625 0.203125 -0.140625 0.453125q0 0.234375 0.078125 0.40625q0.078125 0.171875 0.203125 0.296875q0.140625 0.109375 0.3125 0.15625q0.1875 0.046875 0.390625 0.046875zm4.4277954 0.65625l0 -8.84375l1.078125 0l0 3.640625q0.375 -0.4375 0.859375 -0.703125q0.5 -0.265625 1.125 -0.265625q0.53125 0 0.953125 0.203125q0.4375 0.1875 0.734375 0.59375q0.296875 0.390625 0.453125 0.96875q0.171875 0.578125 0.171875 1.328125q0 0.671875 -0.1875 1.25q-0.171875 0.578125 -0.515625 1.0q-0.34375 0.421875 -0.828125 0.671875q-0.484375 0.234375 -1.109375 0.234375q-0.578125 0 -1.0 -0.21875q-0.40625 -0.234375 -0.703125 -0.640625l-0.0625 0.546875q-0.046875 0.234375 -0.265625 0.234375l-0.703125 0zm2.71875 -5.328125q-0.515625 0 -0.921875 0.25q-0.390625 0.234375 -0.71875 0.671875l0 2.9375q0.296875 0.40625 0.640625 0.5625q0.34375 0.15625 0.78125 0.15625q0.859375 0 1.3125 -0.59375q0.453125 -0.609375 0.453125 -1.734375q0 -0.59375 -0.109375 -1.015625q-0.09375 -0.4375 -0.296875 -0.703125q-0.203125 -0.265625 -0.5 -0.390625q-0.28125 -0.140625 -0.640625 -0.140625zm5.1455383 -0.75l0 6.078125l-1.0625 0l0 -6.078125l1.0625 0zm0.234375 -1.90625q0 0.15625 -0.0625 0.296875q-0.0625 0.125 -0.171875 0.234375q-0.09375 0.109375 -0.234375 0.171875q-0.140625 0.046875 -0.296875 0.046875q-0.15625 0 -0.296875 -0.046875q-0.125 -0.0625 -0.234375 -0.171875q-0.09375 -0.109375 -0.15625 -0.234375q-0.0625 -0.140625 -0.0625 -0.296875q0 -0.15625 0.0625 -0.296875q0.0625 -0.140625 0.15625 -0.25q0.109375 -0.109375 0.234375 -0.15625q0.140625 -0.0625 0.296875 -0.0625q0.15625 0 0.296875 0.0625q0.140625 0.046875 0.234375 0.15625q0.109375 0.109375 0.171875 0.25q0.0625 0.140625 0.0625 0.296875zm2.8376465 -0.859375l0 8.84375l-1.0625 0l0 -8.84375l1.0625 0zm3.0720215 2.765625l0 6.078125l-1.0625 0l0 -6.078125l1.0625 0zm0.234375 -1.90625q0 0.15625 -0.0625 0.296875q-0.0625 0.125 -0.171875 0.234375q-0.09375 0.109375 -0.234375 0.171875q-0.140625 0.046875 -0.296875 0.046875q-0.15625 0 -0.296875 -0.046875q-0.125 -0.0625 -0.234375 -0.171875q-0.09375 -0.109375 -0.15625 -0.234375q-0.0625 -0.140625 -0.0625 -0.296875q0 -0.15625 0.0625 -0.296875q0.0625 -0.140625 0.15625 -0.25q0.109375 -0.109375 0.234375 -0.15625q0.140625 -0.0625 0.296875 -0.0625q0.15625 0 0.296875 0.0625q0.140625 0.046875 0.234375 0.15625q0.109375 0.109375 0.171875 0.25q0.0625 0.140625 0.0625 0.296875zm3.4938965 8.078125q-0.71875 0 -1.109375 -0.390625q-0.390625 -0.40625 -0.390625 -1.171875l0 -3.71875l-0.734375 0q-0.09375 0 -0.15625 -0.046875q-0.0625 -0.0625 -0.0625 -0.1875l0 -0.421875l1.0 -0.125l0.234375 -1.875q0.015625 -0.09375 0.078125 -0.140625q0.078125 -0.0625 0.171875 -0.0625l0.546875 0l0 2.09375l1.734375 0l0 0.765625l-1.734375 0l0 3.65625q0 0.375 0.171875 0.5625q0.1875 0.1875 0.484375 0.1875q0.171875 0 0.296875 -0.046875q0.125 -0.046875 0.203125 -0.09375q0.09375 -0.0625 0.15625 -0.09375q0.0625 -0.046875 0.109375 -0.046875q0.09375 0 0.15625 0.09375l0.3125 0.515625q-0.28125 0.25 -0.671875 0.40625q-0.390625 0.140625 -0.796875 0.140625zm3.8197937 -6.171875l0 6.078125l-1.0625 0l0 -6.078125l1.0625 0zm0.234375 -1.90625q0 0.15625 -0.0625 0.296875q-0.0625 0.125 -0.171875 0.234375q-0.09375 0.109375 -0.234375 0.171875q-0.140625 0.046875 -0.296875 0.046875q-0.15625 0 -0.296875 -0.046875q-0.125 -0.0625 -0.234375 -0.171875q-0.09375 -0.109375 -0.15625 -0.234375q-0.0625 -0.140625 -0.0625 -0.296875q0 -0.15625 0.0625 -0.296875q0.0625 -0.140625 0.15625 -0.25q0.109375 -0.109375 0.234375 -0.15625q0.140625 -0.0625 0.296875 -0.0625q0.15625 0 0.296875 0.0625q0.140625 0.046875 0.234375 0.15625q0.109375 0.109375 0.171875 0.25q0.0625 0.140625 0.0625 0.296875zm4.0563965 1.8125q0.546875 0 1.0 0.1875q0.46875 0.171875 0.796875 0.515625q0.34375 0.34375 0.53125 0.859375q0.1875 0.5 0.1875 1.15625q0 0.25 -0.0625 0.34375q-0.046875 0.078125 -0.1875 0.078125l-4.046875 0q0.015625 0.578125 0.15625 1.0q0.140625 0.421875 0.390625 0.71875q0.25 0.28125 0.59375 0.421875q0.359375 0.140625 0.796875 0.140625q0.390625 0 0.6875 -0.09375q0.296875 -0.09375 0.5 -0.203125q0.21875 -0.109375 0.359375 -0.203125q0.140625 -0.09375 0.234375 -0.09375q0.140625 0 0.203125 0.109375l0.296875 0.375q-0.1875 0.25 -0.46875 0.421875q-0.28125 0.171875 -0.59375 0.296875q-0.3125 0.109375 -0.65625 0.15625q-0.328125 0.0625 -0.65625 0.0625q-0.625 0 -1.15625 -0.203125q-0.53125 -0.21875 -0.921875 -0.625q-0.390625 -0.40625 -0.609375 -1.015625q-0.21875 -0.609375 -0.21875 -1.390625q0 -0.640625 0.1875 -1.1875q0.203125 -0.5625 0.5625 -0.96875q0.375 -0.40625 0.90625 -0.625q0.53125 -0.234375 1.1875 -0.234375zm0.03125 0.78125q-0.78125 0 -1.234375 0.453125q-0.4375 0.4375 -0.546875 1.234375l3.3125 0q0 -0.375 -0.109375 -0.671875q-0.09375 -0.3125 -0.296875 -0.53125q-0.203125 -0.234375 -0.484375 -0.359375q-0.28125 -0.125 -0.640625 -0.125zm7.3349 0.3125q-0.078125 0.140625 -0.21875 0.140625q-0.09375 0 -0.21875 -0.0625q-0.109375 -0.078125 -0.28125 -0.15625q-0.15625 -0.078125 -0.390625 -0.140625q-0.21875 -0.078125 -0.53125 -0.078125q-0.265625 0 -0.484375 0.078125q-0.21875 0.0625 -0.375 0.1875q-0.15625 0.109375 -0.234375 0.265625q-0.078125 0.15625 -0.078125 0.34375q0 0.234375 0.125 0.390625q0.140625 0.15625 0.359375 0.28125q0.234375 0.109375 0.515625 0.203125q0.28125 0.078125 0.578125 0.1875q0.296875 0.09375 0.578125 0.21875q0.28125 0.109375 0.5 0.296875q0.21875 0.171875 0.359375 0.4375q0.140625 0.265625 0.140625 0.625q0 0.421875 -0.15625 0.78125q-0.15625 0.359375 -0.453125 0.625q-0.28125 0.25 -0.71875 0.40625q-0.421875 0.140625 -0.96875 0.140625q-0.640625 0 -1.15625 -0.203125q-0.515625 -0.203125 -0.875 -0.53125l0.25 -0.40625q0.046875 -0.078125 0.109375 -0.125q0.0625 -0.046875 0.171875 -0.046875q0.109375 0 0.234375 0.09375q0.125 0.078125 0.296875 0.1875q0.171875 0.09375 0.40625 0.1875q0.25 0.078125 0.609375 0.078125q0.3125 0 0.546875 -0.078125q0.234375 -0.078125 0.390625 -0.21875q0.15625 -0.140625 0.234375 -0.3125q0.078125 -0.1875 0.078125 -0.390625q0 -0.25 -0.140625 -0.40625q-0.140625 -0.171875 -0.359375 -0.28125q-0.21875 -0.125 -0.515625 -0.203125q-0.28125 -0.09375 -0.578125 -0.1875q-0.296875 -0.109375 -0.578125 -0.234375q-0.28125 -0.125 -0.515625 -0.296875q-0.21875 -0.1875 -0.359375 -0.453125q-0.125 -0.28125 -0.125 -0.671875q0 -0.359375 0.140625 -0.671875q0.15625 -0.328125 0.421875 -0.5625q0.28125 -0.25 0.671875 -0.390625q0.40625 -0.140625 0.921875 -0.140625q0.609375 0 1.078125 0.1875q0.484375 0.1875 0.828125 0.515625l-0.234375 0.390625z" fill-rule="nonzero"/><path fill="#000000" fill-opacity="0.0" d="m359.31628 80.91995l35.527557 0" fill-rule="evenodd"/><path stroke="#000000" stroke-width="1.0" stroke-linejoin="round" stroke-linecap="butt" d="m359.31628 80.91995l29.527557 0" fill-rule="evenodd"/><path fill="#000000" stroke="#000000" stroke-width="1.0" stroke-linecap="butt" d="m388.84384 82.571686l4.538086 -1.6517334l-4.538086 -1.6517334z" fill-rule="evenodd"/><path fill="#000000" fill-opacity="0.0" d="m359.31628 31.947292l35.527557 0.22047424" fill-rule="evenodd"/><path stroke="#000000" stroke-width="1.0" stroke-linejoin="round" stroke-linecap="butt" d="m359.31628 31.947294l29.52768 0.18324089" fill-rule="evenodd"/><path fill="#000000" stroke="#000000" stroke-width="1.0" stroke-linecap="butt" d="m388.8337 33.782234l4.5482483 -1.623539l-4.527771 -1.679863z" fill-rule="evenodd"/><path fill="#000000" fill-opacity="0.0" d="m484.04593 57.548557l35.748016 0.03149414" fill-rule="evenodd"/><path stroke="#000000" stroke-width="1.0" stroke-linejoin="round" stroke-linecap="butt" d="m484.04593 57.548557l29.748016 0.026210785" fill-rule="evenodd"/><path fill="#000000" stroke="#000000" stroke-width="1.0" stroke-linecap="butt" d="m513.7925 59.226498l4.539551 -1.6477318l-4.536621 -1.6557312z" fill-rule="evenodd"/><path fill="#000000" fill-opacity="0.0" d="m519.78345 42.109108l106.99213 0l0 30.929138l-106.99213 0z" fill-rule="evenodd"/><path stroke="#000000" stroke-width="1.0" stroke-linejoin="round" stroke-linecap="butt" d="m519.78345 42.109108l106.99213 0l0 30.929138l-106.99213 0z" fill-rule="evenodd"/><path fill="#000000" d="m540.0034 51.874928l0 3.21875l-1.171875 0l0 -8.59375l2.546875 0q0.8125 0 1.40625 0.1875q0.609375 0.1875 1.0 0.53125q0.40625 0.34375 0.59375 0.84375q0.203125 0.484375 0.203125 1.09375q0 0.609375 -0.21875 1.109375q-0.203125 0.484375 -0.609375 0.84375q-0.40625 0.359375 -1.015625 0.5625q-0.59375 0.203125 -1.359375 0.203125l-1.375 0zm0 -0.921875l1.375 0q0.5 0 0.875 -0.125q0.390625 -0.140625 0.640625 -0.375q0.265625 -0.234375 0.390625 -0.5625q0.125 -0.328125 0.125 -0.734375q0 -0.8125 -0.5 -1.28125q-0.5 -0.46875 -1.53125 -0.46875l-1.375 0l0 3.546875zm5.8789062 4.140625l0 -6.078125l0.609375 0q0.171875 0 0.234375 0.0625q0.078125 0.0625 0.09375 0.234375l0.078125 0.9375q0.3125 -0.625 0.765625 -0.984375q0.46875 -0.359375 1.078125 -0.359375q0.25 0 0.453125 0.0625q0.203125 0.046875 0.390625 0.15625l-0.140625 0.796875q-0.046875 0.15625 -0.1875 0.15625q-0.09375 0 -0.265625 -0.0625q-0.171875 -0.0625 -0.484375 -0.0625q-0.546875 0 -0.921875 0.328125q-0.375 0.328125 -0.640625 0.9375l0 3.875l-1.0625 0zm7.3048096 -6.171875q0.65625 0 1.1875 0.21875q0.546875 0.21875 0.921875 0.640625q0.375 0.40625 0.578125 0.984375q0.203125 0.578125 0.203125 1.28125q0 0.71875 -0.203125 1.296875q-0.203125 0.578125 -0.578125 0.984375q-0.375 0.40625 -0.921875 0.625q-0.53125 0.21875 -1.1875 0.21875q-0.671875 0 -1.21875 -0.21875q-0.53125 -0.21875 -0.90625 -0.625q-0.375 -0.40625 -0.578125 -0.984375q-0.203125 -0.578125 -0.203125 -1.296875q0 -0.703125 0.203125 -1.28125q0.203125 -0.578125 0.578125 -0.984375q0.375 -0.421875 0.90625 -0.640625q0.546875 -0.21875 1.21875 -0.21875zm0 5.421875q0.890625 0 1.328125 -0.59375q0.453125 -0.609375 0.453125 -1.6875q0 -1.09375 -0.453125 -1.6875q-0.4375 -0.609375 -1.328125 -0.609375q-0.46875 0 -0.8125 0.15625q-0.328125 0.15625 -0.546875 0.453125q-0.21875 0.28125 -0.34375 0.71875q-0.109375 0.421875 -0.109375 0.96875q0 0.53125 0.109375 0.96875q0.125 0.421875 0.34375 0.71875q0.21875 0.28125 0.546875 0.4375q0.34375 0.15625 0.8125 0.15625zm4.234497 0.75l0 -8.84375l1.078125 0l0 3.640625q0.375 -0.4375 0.859375 -0.703125q0.5 -0.265625 1.125 -0.265625q0.53125 0 0.953125 0.203125q0.4375 0.1875 0.734375 0.59375q0.296875 0.390625 0.453125 0.96875q0.171875 0.578125 0.171875 1.328125q0 0.671875 -0.1875 1.25q-0.171875 0.578125 -0.515625 1.0q-0.34375 0.421875 -0.828125 0.671875q-0.484375 0.234375 -1.109375 0.234375q-0.578125 0 -1.0 -0.21875q-0.40625 -0.234375 -0.703125 -0.640625l-0.0625 0.546875q-0.046875 0.234375 -0.265625 0.234375l-0.703125 0zm2.71875 -5.328125q-0.515625 0 -0.921875 0.25q-0.390625 0.234375 -0.71875 0.671875l0 2.9375q0.296875 0.40625 0.640625 0.5625q0.34375 0.15625 0.78125 0.15625q0.859375 0 1.3125 -0.59375q0.453125 -0.609375 0.453125 -1.734375q0 -0.59375 -0.109375 -1.015625q-0.09375 -0.4375 -0.296875 -0.703125q-0.203125 -0.265625 -0.5 -0.390625q-0.28125 -0.140625 -0.640625 -0.140625zm8.426819 5.328125l-0.484375 0q-0.15625 0 -0.25 -0.046875q-0.09375 -0.046875 -0.125 -0.203125l-0.109375 -0.5625q-0.25 0.21875 -0.484375 0.390625q-0.21875 0.15625 -0.46875 0.28125q-0.25 0.109375 -0.546875 0.171875q-0.28125 0.0625 -0.625 0.0625q-0.359375 0 -0.671875 -0.09375q-0.296875 -0.109375 -0.53125 -0.296875q-0.21875 -0.203125 -0.359375 -0.5q-0.140625 -0.3125 -0.140625 -0.71875q0 -0.359375 0.203125 -0.6875q0.203125 -0.34375 0.640625 -0.59375q0.4375 -0.265625 1.15625 -0.421875q0.71875 -0.171875 1.75 -0.1875l0 -0.484375q0 -0.703125 -0.3125 -1.0625q-0.296875 -0.375 -0.890625 -0.375q-0.390625 0 -0.65625 0.109375q-0.265625 0.09375 -0.46875 0.21875q-0.1875 0.125 -0.328125 0.21875q-0.140625 0.09375 -0.28125 0.09375q-0.109375 0 -0.1875 -0.046875q-0.078125 -0.0625 -0.140625 -0.140625l-0.1875 -0.34375q0.5 -0.484375 1.078125 -0.71875q0.59375 -0.25 1.296875 -0.25q0.515625 0 0.90625 0.171875q0.40625 0.171875 0.671875 0.46875q0.265625 0.296875 0.40625 0.734375q0.140625 0.421875 0.140625 0.921875l0 3.890625zm-2.78125 -0.65625q0.28125 0 0.515625 -0.046875q0.234375 -0.0625 0.4375 -0.171875q0.21875 -0.109375 0.40625 -0.25q0.1875 -0.15625 0.375 -0.34375l0 -1.265625q-0.75 0.015625 -1.265625 0.109375q-0.515625 0.09375 -0.84375 0.25q-0.3125 0.15625 -0.46875 0.359375q-0.140625 0.203125 -0.140625 0.453125q0 0.234375 0.078125 0.40625q0.078125 0.171875 0.203125 0.296875q0.140625 0.109375 0.3125 0.15625q0.1875 0.046875 0.390625 0.046875zm4.4277954 0.65625l0 -8.84375l1.078125 0l0 3.640625q0.375 -0.4375 0.859375 -0.703125q0.5 -0.265625 1.125 -0.265625q0.53125 0 0.953125 0.203125q0.4375 0.1875 0.734375 0.59375q0.296875 0.390625 0.453125 0.96875q0.171875 0.578125 0.171875 1.328125q0 0.671875 -0.1875 1.25q-0.171875 0.578125 -0.515625 1.0q-0.34375 0.421875 -0.828125 0.671875q-0.484375 0.234375 -1.109375 0.234375q-0.578125 0 -1.0 -0.21875q-0.40625 -0.234375 -0.703125 -0.640625l-0.0625 0.546875q-0.046875 0.234375 -0.265625 0.234375l-0.703125 0zm2.71875 -5.328125q-0.515625 0 -0.921875 0.25q-0.390625 0.234375 -0.71875 0.671875l0 2.9375q0.296875 0.40625 0.640625 0.5625q0.34375 0.15625 0.78125 0.15625q0.859375 0 1.3125 -0.59375q0.453125 -0.609375 0.453125 -1.734375q0 -0.59375 -0.109375 -1.015625q-0.09375 -0.4375 -0.296875 -0.703125q-0.203125 -0.265625 -0.5 -0.390625q-0.28125 -0.140625 -0.640625 -0.140625zm5.145569 -0.75l0 6.078125l-1.0625 0l0 -6.078125l1.0625 0zm0.234375 -1.90625q0 0.15625 -0.0625 0.296875q-0.0625 0.125 -0.171875 0.234375q-0.09375 0.109375 -0.234375 0.171875q-0.140625 0.046875 -0.296875 0.046875q-0.15625 0 -0.296875 -0.046875q-0.125 -0.0625 -0.234375 -0.171875q-0.09375 -0.109375 -0.15625 -0.234375q-0.0625 -0.140625 -0.0625 -0.296875q0 -0.15625 0.0625 -0.296875q0.0625 -0.140625 0.15625 -0.25q0.109375 -0.109375 0.234375 -0.15625q0.140625 -0.0625 0.296875 -0.0625q0.15625 0 0.296875 0.0625q0.140625 0.046875 0.234375 0.15625q0.109375 0.109375 0.171875 0.25q0.0625 0.140625 0.0625 0.296875zm2.8376465 -0.859375l0 8.84375l-1.0625 0l0 -8.84375l1.0625 0zm3.0720215 2.765625l0 6.078125l-1.0625 0l0 -6.078125l1.0625 0zm0.234375 -1.90625q0 0.15625 -0.0625 0.296875q-0.0625 0.125 -0.171875 0.234375q-0.09375 0.109375 -0.234375 0.171875q-0.140625 0.046875 -0.296875 0.046875q-0.15625 0 -0.296875 -0.046875q-0.125 -0.0625 -0.234375 -0.171875q-0.09375 -0.109375 -0.15625 -0.234375q-0.0625 -0.140625 -0.0625 -0.296875q0 -0.15625 0.0625 -0.296875q0.0625 -0.140625 0.15625 -0.25q0.109375 -0.109375 0.234375 -0.15625q0.140625 -0.0625 0.296875 -0.0625q0.15625 0 0.296875 0.0625q0.140625 0.046875 0.234375 0.15625q0.109375 0.109375 0.171875 0.25q0.0625 0.140625 0.0625 0.296875zm3.4938965 8.078125q-0.71875 0 -1.109375 -0.390625q-0.390625 -0.40625 -0.390625 -1.171875l0 -3.71875l-0.734375 0q-0.09375 0 -0.15625 -0.046875q-0.0625 -0.0625 -0.0625 -0.1875l0 -0.421875l1.0 -0.125l0.234375 -1.875q0.015625 -0.09375 0.078125 -0.140625q0.078125 -0.0625 0.171875 -0.0625l0.546875 0l0 2.09375l1.734375 0l0 0.765625l-1.734375 0l0 3.65625q0 0.375 0.171875 0.5625q0.1875 0.1875 0.484375 0.1875q0.171875 0 0.296875 -0.046875q0.125 -0.046875 0.203125 -0.09375q0.09375 -0.0625 0.15625 -0.09375q0.0625 -0.046875 0.109375 -0.046875q0.09375 0 0.15625 0.09375l0.3125 0.515625q-0.28125 0.25 -0.671875 0.40625q-0.390625 0.140625 -0.796875 0.140625zm4.413513 1.703125q-0.046875 0.109375 -0.140625 0.1875q-0.078125 0.078125 -0.234375 0.078125l-0.796875 0l1.109375 -2.421875l-2.515625 -5.71875l0.9375 0q0.125 0 0.203125 0.078125q0.078125 0.0625 0.125 0.140625l1.625 3.828125q0.046875 0.140625 0.078125 0.28125q0.046875 0.125 0.078125 0.25q0.046875 -0.125 0.078125 -0.25q0.046875 -0.140625 0.109375 -0.28125l1.578125 -3.828125q0.03125 -0.09375 0.109375 -0.15625q0.09375 -0.0625 0.203125 -0.0625l0.84375 0l-3.390625 7.875zm9.147583 -7.96875q0.65625 0 1.1875 0.21875q0.546875 0.21875 0.921875 0.640625q0.375 0.40625 0.578125 0.984375q0.203125 0.578125 0.203125 1.28125q0 0.71875 -0.203125 1.296875q-0.203125 0.578125 -0.578125 0.984375q-0.375 0.40625 -0.921875 0.625q-0.53125 0.21875 -1.1875 0.21875q-0.671875 0 -1.21875 -0.21875q-0.53125 -0.21875 -0.90625 -0.625q-0.375 -0.40625 -0.578125 -0.984375q-0.203125 -0.578125 -0.203125 -1.296875q0 -0.703125 0.203125 -1.28125q0.203125 -0.578125 0.578125 -0.984375q0.375 -0.421875 0.90625 -0.640625q0.546875 -0.21875 1.21875 -0.21875zm0 5.421875q0.890625 0 1.328125 -0.59375q0.453125 -0.609375 0.453125 -1.6875q0 -1.09375 -0.453125 -1.6875q-0.4375 -0.609375 -1.328125 -0.609375q-0.46875 0 -0.8125 0.15625q-0.328125 0.15625 -0.546875 0.453125q-0.21875 0.28125 -0.34375 0.71875q-0.109375 0.421875 -0.109375 0.96875q0 0.53125 0.109375 0.96875q0.125 0.421875 0.34375 0.71875q0.21875 0.28125 0.546875 0.4375q0.34375 0.15625 0.8125 0.15625zm4.437622 0.75l0 -5.171875l-0.671875 -0.078125q-0.125 -0.03125 -0.203125 -0.09375q-0.078125 -0.0625 -0.078125 -0.171875l0 -0.4375l0.953125 0l0 -0.59375q0 -0.515625 0.140625 -0.921875q0.15625 -0.40625 0.421875 -0.6875q0.28125 -0.28125 0.65625 -0.421875q0.390625 -0.140625 0.875 -0.140625q0.40625 0 0.75 0.109375l-0.015625 0.546875q0 0.109375 -0.109375 0.140625q-0.09375 0.015625 -0.265625 0.015625l-0.1875 0q-0.265625 0 -0.5 0.078125q-0.21875 0.0625 -0.390625 0.234375q-0.15625 0.15625 -0.25 0.421875q-0.078125 0.265625 -0.078125 0.65625l0 0.5625l1.75 0l0 0.765625l-1.71875 0l0 5.1875l-1.078125 0z" fill-rule="nonzero"/><path fill="#000000" d="m548.5303 69.09367l-0.90625 0q-0.15625 0 -0.25 -0.078125q-0.09375 -0.078125 -0.140625 -0.203125l-0.8125 -2.078125l-3.859375 0l-0.796875 2.078125q-0.046875 0.109375 -0.15625 0.203125q-0.09375 0.078125 -0.25 0.078125l-0.890625 0l3.4375 -8.59375l1.1875 0l3.4375 8.59375zm-5.640625 -3.1875l3.203125 0l-1.34375 -3.5q-0.125 -0.328125 -0.25 -0.8125q-0.078125 0.25 -0.140625 0.453125q-0.0625 0.203125 -0.125 0.359375l-1.34375 3.5zm6.58197 3.1875l0 -8.84375l1.078125 0l0 3.640625q0.375 -0.4375 0.859375 -0.703125q0.5 -0.265625 1.125 -0.265625q0.53125 0 0.953125 0.203125q0.4375 0.1875 0.734375 0.59375q0.296875 0.390625 0.453125 0.96875q0.171875 0.578125 0.171875 1.328125q0 0.671875 -0.1875 1.25q-0.171875 0.578125 -0.515625 1.0q-0.34375 0.421875 -0.828125 0.671875q-0.484375 0.234375 -1.109375 0.234375q-0.578125 0 -1.0 -0.21875q-0.40625 -0.234375 -0.703125 -0.640625l-0.0625 0.546875q-0.046875 0.234375 -0.265625 0.234375l-0.703125 0zm2.71875 -5.328125q-0.515625 0 -0.921875 0.25q-0.390625 0.234375 -0.71875 0.671875l0 2.9375q0.296875 0.40625 0.640625 0.5625q0.34375 0.15625 0.78125 0.15625q0.859375 0 1.3125 -0.59375q0.453125 -0.609375 0.453125 -1.734375q0 -0.59375 -0.109375 -1.015625q-0.09375 -0.4375 -0.296875 -0.703125q-0.203125 -0.265625 -0.5 -0.390625q-0.28125 -0.140625 -0.640625 -0.140625zm3.9580688 5.328125l0 -6.078125l0.640625 0q0.21875 0 0.28125 0.21875l0.09375 0.65625q0.390625 -0.4375 0.875 -0.703125q0.5 -0.265625 1.140625 -0.265625q0.484375 0 0.859375 0.171875q0.390625 0.15625 0.640625 0.46875q0.265625 0.296875 0.390625 0.71875q0.140625 0.421875 0.140625 0.9375l0 3.875l-1.078125 0l0 -3.875q0 -0.6875 -0.3125 -1.0625q-0.3125 -0.390625 -0.953125 -0.390625q-0.484375 0 -0.890625 0.234375q-0.40625 0.234375 -0.765625 0.625l0 4.46875l-1.0625 0zm9.140747 -6.171875q0.65625 0 1.1875 0.21875q0.546875 0.21875 0.921875 0.640625q0.375 0.40625 0.578125 0.984375q0.203125 0.578125 0.203125 1.28125q0 0.71875 -0.203125 1.296875q-0.203125 0.578125 -0.578125 0.984375q-0.375 0.40625 -0.921875 0.625q-0.53125 0.21875 -1.1875 0.21875q-0.671875 0 -1.21875 -0.21875q-0.53125 -0.21875 -0.90625 -0.625q-0.375 -0.40625 -0.578125 -0.984375q-0.203125 -0.578125 -0.203125 -1.296875q0 -0.703125 0.203125 -1.28125q0.203125 -0.578125 0.578125 -0.984375q0.375 -0.421875 0.90625 -0.640625q0.546875 -0.21875 1.21875 -0.21875zm0 5.421875q0.890625 0 1.328125 -0.59375q0.453125 -0.609375 0.453125 -1.6875q0 -1.09375 -0.453125 -1.6875q-0.4375 -0.609375 -1.328125 -0.609375q-0.46875 0 -0.8125 0.15625q-0.328125 0.15625 -0.546875 0.453125q-0.21875 0.28125 -0.34375 0.71875q-0.109375 0.421875 -0.109375 0.96875q0 0.53125 0.109375 0.96875q0.125 0.421875 0.34375 0.71875q0.21875 0.28125 0.546875 0.4375q0.34375 0.15625 0.8125 0.15625zm4.203308 0.75l0 -6.078125l0.609375 0q0.171875 0 0.234375 0.0625q0.078125 0.0625 0.09375 0.234375l0.078125 0.9375q0.3125 -0.625 0.765625 -0.984375q0.46875 -0.359375 1.078125 -0.359375q0.25 0 0.453125 0.0625q0.203125 0.046875 0.390625 0.15625l-0.140625 0.796875q-0.046875 0.15625 -0.1875 0.15625q-0.09375 0 -0.265625 -0.0625q-0.171875 -0.0625 -0.484375 -0.0625q-0.546875 0 -0.921875 0.328125q-0.375 0.328125 -0.640625 0.9375l0 3.875l-1.0625 0zm4.8360596 0l0 -6.078125l0.640625 0q0.21875 0 0.28125 0.21875l0.078125 0.625q0.34375 -0.40625 0.75 -0.671875q0.421875 -0.265625 0.96875 -0.265625q0.625 0 1.0 0.34375q0.390625 0.34375 0.546875 0.921875q0.140625 -0.328125 0.34375 -0.5625q0.203125 -0.25 0.453125 -0.40625q0.265625 -0.15625 0.546875 -0.21875q0.296875 -0.078125 0.609375 -0.078125q0.46875 0 0.84375 0.15625q0.375 0.140625 0.640625 0.4375q0.265625 0.296875 0.390625 0.734375q0.140625 0.421875 0.140625 0.96875l0 3.875l-1.0625 0l0 -3.875q0 -0.703125 -0.3125 -1.078125q-0.3125 -0.375 -0.90625 -0.375q-0.265625 0 -0.5 0.09375q-0.234375 0.09375 -0.421875 0.28125q-0.171875 0.171875 -0.28125 0.453125q-0.109375 0.265625 -0.109375 0.625l0 3.875l-1.0625 0l0 -3.875q0 -0.734375 -0.296875 -1.09375q-0.296875 -0.359375 -0.859375 -0.359375q-0.390625 0 -0.734375 0.21875q-0.34375 0.21875 -0.625 0.578125l0 4.53125l-1.0625 0zm14.320801 0l-0.484375 0q-0.15625 0 -0.25 -0.046875q-0.09375 -0.046875 -0.125 -0.203125l-0.109375 -0.5625q-0.25 0.21875 -0.484375 0.390625q-0.21875 0.15625 -0.46875 0.28125q-0.25 0.109375 -0.546875 0.171875q-0.28125 0.0625 -0.625 0.0625q-0.359375 0 -0.671875 -0.09375q-0.296875 -0.109375 -0.53125 -0.296875q-0.21875 -0.203125 -0.359375 -0.5q-0.140625 -0.3125 -0.140625 -0.71875q0 -0.359375 0.203125 -0.6875q0.203125 -0.34375 0.640625 -0.59375q0.4375 -0.265625 1.15625 -0.421875q0.71875 -0.171875 1.75 -0.1875l0 -0.484375q0 -0.703125 -0.3125 -1.0625q-0.296875 -0.375 -0.890625 -0.375q-0.390625 0 -0.65625 0.109375q-0.265625 0.09375 -0.46875 0.21875q-0.1875 0.125 -0.328125 0.21875q-0.140625 0.09375 -0.28125 0.09375q-0.109375 0 -0.1875 -0.046875q-0.078125 -0.0625 -0.140625 -0.140625l-0.1875 -0.34375q0.5 -0.484375 1.078125 -0.71875q0.59375 -0.25 1.296875 -0.25q0.515625 0 0.90625 0.171875q0.40625 0.171875 0.671875 0.46875q0.265625 0.296875 0.40625 0.734375q0.140625 0.421875 0.140625 0.921875l0 3.890625zm-2.78125 -0.65625q0.28125 0 0.515625 -0.046875q0.234375 -0.0625 0.4375 -0.171875q0.21875 -0.109375 0.40625 -0.25q0.1875 -0.15625 0.375 -0.34375l0 -1.265625q-0.75 0.015625 -1.265625 0.109375q-0.515625 0.09375 -0.84375 0.25q-0.3125 0.15625 -0.46875 0.359375q-0.140625 0.203125 -0.140625 0.453125q0 0.234375 0.078125 0.40625q0.078125 0.171875 0.203125 0.296875q0.140625 0.109375 0.3125 0.15625q0.1875 0.046875 0.390625 0.046875zm5.5840454 -8.1875l0 8.84375l-1.0625 0l0 -8.84375l1.0625 0zm3.0720215 2.765625l0 6.078125l-1.0625 0l0 -6.078125l1.0625 0zm0.234375 -1.90625q0 0.15625 -0.0625 0.296875q-0.0625 0.125 -0.171875 0.234375q-0.09375 0.109375 -0.234375 0.171875q-0.140625 0.046875 -0.296875 0.046875q-0.15625 0 -0.296875 -0.046875q-0.125 -0.0625 -0.234375 -0.171875q-0.09375 -0.109375 -0.15625 -0.234375q-0.0625 -0.140625 -0.0625 -0.296875q0 -0.15625 0.0625 -0.296875q0.0625 -0.140625 0.15625 -0.25q0.109375 -0.109375 0.234375 -0.15625q0.140625 -0.0625 0.296875 -0.0625q0.15625 0 0.296875 0.0625q0.140625 0.046875 0.234375 0.15625q0.109375 0.109375 0.171875 0.25q0.0625 0.140625 0.0625 0.296875zm3.4938965 8.078125q-0.71875 0 -1.109375 -0.390625q-0.390625 -0.40625 -0.390625 -1.171875l0 -3.71875l-0.734375 0q-0.09375 0 -0.15625 -0.046875q-0.0625 -0.0625 -0.0625 -0.1875l0 -0.421875l1.0 -0.125l0.234375 -1.875q0.015625 -0.09375 0.078125 -0.140625q0.078125 -0.0625 0.171875 -0.0625l0.546875 0l0 2.09375l1.734375 0l0 0.765625l-1.734375 0l0 3.65625q0 0.375 0.171875 0.5625q0.1875 0.1875 0.484375 0.1875q0.171875 0 0.296875 -0.046875q0.125 -0.046875 0.203125 -0.09375q0.09375 -0.0625 0.15625 -0.09375q0.0625 -0.046875 0.109375 -0.046875q0.09375 0 0.15625 0.09375l0.3125 0.515625q-0.28125 0.25 -0.671875 0.40625q-0.390625 0.140625 -0.796875 0.140625zm4.413513 1.703125q-0.046875 0.109375 -0.140625 0.1875q-0.078125 0.078125 -0.234375 0.078125l-0.796875 0l1.109375 -2.421875l-2.515625 -5.71875l0.9375 0q0.125 0 0.203125 0.078125q0.078125 0.0625 0.125 0.140625l1.625 3.828125q0.046875 0.140625 0.078125 0.28125q0.046875 0.125 0.078125 0.25q0.046875 -0.125 0.078125 -0.25q0.046875 -0.140625 0.109375 -0.28125l1.578125 -3.828125q0.03125 -0.09375 0.109375 -0.15625q0.09375 -0.0625 0.203125 -0.0625l0.84375 0l-3.390625 7.875z" fill-rule="nonzero"/></g></svg>